<svg xmlns="http://www.w3.org/2000/svg" xmlns:xlink="http://www.w3.org/1999/xlink" width="500" zoomAndPan="magnify" viewBox="0 0 375 374.999991" height="500" preserveAspectRatio="xMidYMid meet" version="1.0"><defs><clipPath id="1c0ce4c6c1"><path d="M 70.578125 0.375 L 317.328125 0.375 L 317.328125 374.664062 L 70.578125 374.664062 Z M 70.578125 0.375 " clip-rule="nonzero"/></clipPath></defs><g clip-path="url(#1c0ce4c6c1)"><path fill="#ff7bac" d="M 119.929688 121.6875 C 119.929688 132.539062 121.816406 142.523438 125.605469 151.644531 C 129.386719 160.769531 134.609375 168.660156 141.273438 175.316406 C 147.9375 181.972656 155.746094 187.195312 164.714844 190.972656 C 173.679688 194.757812 183.34375 196.644531 193.707031 196.644531 C 204.070312 196.644531 213.730469 194.757812 222.703125 190.972656 C 231.664062 187.195312 239.519531 181.972656 246.265625 175.316406 C 253.007812 168.660156 258.3125 160.769531 262.179688 151.644531 C 266.046875 142.523438 267.980469 132.539062 267.980469 121.6875 C 267.980469 110.839844 266.046875 100.851562 262.179688 91.730469 C 258.3125 82.605469 253.007812 74.71875 246.265625 68.058594 C 239.519531 61.402344 231.664062 56.1875 222.703125 52.402344 C 213.730469 48.625 204.070312 46.734375 193.707031 46.734375 C 183.34375 46.734375 173.679688 48.625 164.714844 52.402344 C 155.746094 56.1875 147.9375 61.402344 141.273438 68.058594 C 134.609375 74.71875 129.386719 82.605469 125.605469 91.730469 C 121.816406 100.851562 119.929688 110.839844 119.929688 121.6875 Z M 273.164062 319.679688 L 218.136719 319.679688 L 218.136719 374.664062 L 170.515625 374.664062 L 170.515625 319.679688 L 115.242188 319.679688 L 115.242188 271.847656 L 170.515625 271.847656 L 170.515625 241.027344 C 156.363281 238.398438 143.203125 233.464844 131.035156 226.234375 C 118.859375 219 108.289062 210.121094 99.324219 199.601562 C 90.355469 189.082031 83.324219 177.167969 78.226562 163.851562 C 73.128906 150.535156 70.578125 136.484375 70.578125 121.6875 C 70.578125 105.085938 73.867188 89.429688 80.449219 74.71875 C 87.027344 60.011719 95.90625 47.144531 107.097656 36.128906 C 118.28125 25.121094 131.359375 16.40625 146.332031 9.996094 C 161.296875 3.582031 177.089844 0.378906 193.707031 0.378906 C 210.320312 0.378906 226.113281 3.582031 241.085938 9.996094 C 256.050781 16.40625 269.171875 25.121094 280.441406 36.128906 C 291.707031 47.144531 300.671875 60.011719 307.335938 74.71875 C 314 89.429688 317.328125 105.085938 317.328125 121.6875 C 317.328125 136.484375 314.777344 150.496094 309.679688 163.726562 C 304.582031 176.960938 297.589844 188.839844 288.707031 199.359375 C 279.824219 209.878906 269.335938 218.753906 257.246094 225.988281 C 245.15625 233.222656 232.117188 238.152344 218.136719 240.777344 L 218.136719 271.847656 L 273.164062 271.847656 L 273.164062 319.679688 " fill-opacity="1" fill-rule="nonzero"/></g></svg>