<svg xmlns="http://www.w3.org/2000/svg" xmlns:xlink="http://www.w3.org/1999/xlink" width="500" zoomAndPan="magnify" viewBox="0 0 375 374.999991" height="500" preserveAspectRatio="xMidYMid meet" version="1.0"><defs><clipPath id="fc710d5b31"><path d="M 14 0 L 372.75 0 L 372.75 362 L 14 362 Z M 14 0 " clip-rule="nonzero"/></clipPath></defs><g clip-path="url(#fc710d5b31)"><path fill="#0188e0" d="M 302.917969 42.539062 L 241.726562 103.742188 C 185.882812 62.203125 106.488281 66.773438 55.8125 117.460938 C 0.15625 173.171875 0.15625 263.636719 55.8125 319.347656 C 111.46875 375.058594 201.933594 375.058594 257.59375 319.347656 C 308.269531 268.65625 312.820312 189.207031 271.304688 133.328125 L 330.898438 73.691406 L 330.898438 129.839844 L 372.71875 129.839844 L 372.71875 0.0429688 L 242.585938 1.25 L 243.015625 43.089844 Z M 85.394531 289.757812 C 46.03125 250.375 46.03125 186.429688 85.394531 147.042969 C 124.753906 107.664062 188.652344 107.664062 228.011719 147.042969 C 267.371094 186.429688 267.371094 250.375 228.011719 289.757812 C 188.652344 329.144531 124.753906 329.144531 85.394531 289.757812 Z M 85.394531 289.757812 " fill-opacity="1" fill-rule="evenodd"/></g></svg>