<svg width="19" height="18" viewBox="0 0 19 18" fill="none" xmlns="http://www.w3.org/2000/svg">
<path d="M3.14409 8.13378C3.95079 8.11952 4.67975 8.07815 5.40371 8.20297C5.48003 8.21581 5.56848 8.17373 5.64907 8.14948C6.04636 8.02965 6.44507 8.01324 6.84949 8.11667C7.20113 8.20654 7.5599 8.12951 7.91582 8.1559C8.46503 8.19655 9.01139 8.04819 9.55704 8.07601C10.0014 8.09884 10.4508 8.0917 10.8923 8.16089C11.1162 8.19584 11.3281 8.20797 11.557 8.15019C11.806 8.08814 12.0527 8.23721 12.3109 8.23721C12.5948 8.23721 12.8744 8.30854 13.1469 8.38985C13.4522 8.48043 13.5292 8.75718 13.3067 8.98186C12.9672 9.32494 12.5235 9.47543 12.0642 9.54248C11.684 9.59811 11.296 9.63021 10.913 9.65018C10.5078 9.67087 10.0998 9.81067 9.68899 9.67515C9.61838 9.65161 9.53065 9.64662 9.45932 9.66588C8.98144 9.79712 8.48429 9.70867 8.00284 9.80282C7.85448 9.83207 7.69186 9.82208 7.54064 9.79854C7.33094 9.76573 7.12981 9.77144 6.93009 9.83706C6.67474 9.92122 6.42082 9.81423 6.16476 9.81923C5.90585 9.82422 5.64907 9.83349 5.40371 9.89555C5.01784 9.99398 4.6341 9.93905 4.25821 9.89911C3.9187 9.86345 3.59131 9.89341 3.25679 9.90197C2.94081 9.91053 2.61057 9.93763 2.29959 9.88271C1.94653 9.81994 1.79317 9.49754 1.66407 9.20297C1.54852 8.93906 1.71115 8.74434 1.88875 8.55461C2.15052 8.2743 2.45223 8.12451 2.84095 8.1509C2.96792 8.15946 3.09702 8.13592 3.14623 8.13307L3.14409 8.13378Z" fill="#1C1D1E"/>
<path d="M13.0777 14.7225C12.6298 14.726 12.286 14.3259 12.3609 13.8609C12.4101 13.5534 12.5228 13.266 12.7225 13.0164C12.8758 12.8245 13.0313 12.6312 13.1576 12.4215C13.5977 11.6875 14.0798 10.9857 14.6576 10.3523C14.7082 10.2967 14.7496 10.2246 14.7745 10.1533C14.9236 9.72607 15.2225 9.40154 15.5142 9.07344C15.6918 8.87372 15.7075 8.72537 15.5049 8.54848C15.2367 8.31381 15.027 8.04562 14.878 7.7218C14.7724 7.49356 14.5499 7.36089 14.3872 7.17901C14.1611 6.9258 14.0156 6.61624 13.8566 6.32452C13.6362 5.9201 13.3173 5.59771 13.0584 5.22824C12.7974 4.85591 12.5784 4.46077 12.4201 4.03352C12.3844 3.93723 12.3594 3.83452 12.3495 3.73253C12.3316 3.53994 12.4486 3.42012 12.5991 3.32668C12.741 3.23823 12.8687 3.27532 12.9942 3.36876C13.2425 3.5535 13.5056 3.71113 13.6982 3.97075C13.9443 4.30171 14.3195 4.52068 14.5328 4.88587C15.0948 5.20613 15.3651 5.78244 15.7489 6.26104C15.9743 6.54207 16.2496 6.78529 16.5142 7.03208C16.7275 7.23108 16.9015 7.44862 16.9785 7.73464C17.0235 7.90083 17.1233 8.03493 17.216 8.17687C17.4372 8.51567 17.4229 8.86089 17.2061 9.19897C16.8858 9.69826 16.6205 10.2332 16.2574 10.7054C15.8808 11.1954 15.6312 11.7746 15.1925 12.2225C14.9258 12.495 14.7845 12.8452 14.6198 13.1825C14.3922 13.6483 14.1233 14.0905 13.7417 14.45C13.5313 14.6476 13.3388 14.721 13.0798 14.7232L13.0777 14.7225Z" fill="#1C1D1E"/>
</svg>
