<svg width="24" height="24" viewBox="0 0 24 24" fill="none" xmlns="http://www.w3.org/2000/svg">
<path fill-rule="evenodd" clip-rule="evenodd" d="M16.9487 0C17.5404 0 18.0201 0.479695 18.0201 1.07143V2.47815C18.0201 3.06989 17.5404 3.54958 16.9487 3.54958C16.3569 3.54958 15.8772 3.06989 15.8772 2.47815V1.07143C15.8772 0.479695 16.3569 0 16.9487 0ZM6.93893 14.9797C9.23822 14.9797 11.1022 13.1157 11.1022 10.8164C11.1022 8.51712 9.23822 6.65316 6.93893 6.65316C4.63963 6.65316 2.77567 8.51712 2.77567 10.8164C2.77567 13.1157 4.63963 14.9797 6.93893 14.9797ZM0 23.3061C0 19.4739 3.10659 16.3674 6.93876 16.3674C10.7709 16.3674 13.8775 19.4739 13.8775 23.3061C13.8775 23.6894 13.5669 24 13.1836 24H0.693876C0.310659 24 0 23.6894 0 23.3061ZM23.514 4.27327C23.9983 3.93329 24.1154 3.26506 23.7754 2.78074C23.4353 2.29644 22.7671 2.17944 22.2828 2.51942L21.1315 3.32765C20.6472 3.66765 20.5301 4.33587 20.8701 4.82018C21.2102 5.3045 21.8784 5.4215 22.3627 5.08152L23.514 4.27327ZM10.1186 2.78074C9.77865 3.26506 9.89565 3.93329 10.3799 4.27327L11.5313 5.08152C12.0156 5.4215 12.6838 5.3045 13.0238 4.82018C13.3638 4.33587 13.2468 3.66765 12.7625 3.32765L11.6111 2.51942C11.1268 2.17944 10.4586 2.29644 10.1186 2.78074ZM16.8694 4.86886C18.9835 4.82496 20.773 6.58437 20.7651 8.69883C20.7478 10.1025 19.9065 11.4427 18.6497 12.0683V13.9765C18.647 14.0874 18.6009 14.1928 18.5213 14.2702C18.4419 14.3476 18.3353 14.3909 18.2244 14.3909H15.6729C15.5619 14.3909 15.4554 14.3476 15.3759 14.2702C15.2965 14.1928 15.2504 14.0874 15.2476 13.9765V12.101C14.0292 11.4943 13.1977 10.2169 13.1361 8.8573C13.0404 6.74498 14.7554 4.91277 16.8694 4.86886Z" fill="black"/>
</svg>
