<svg width="132" height="128" viewBox="0 0 132 128" fill="none" xmlns="http://www.w3.org/2000/svg">
<g clip-path="url(#clip0_60_673)">
<path d="M56.3521 112.647C55.752 112.647 55.1513 112.709 54.5645 112.841C53.8962 112.954 53.2135 112.997 52.536 112.973C52.2039 112.973 51.8719 112.892 51.5398 112.902C51.2124 112.916 50.8896 112.964 50.5756 113.039C49.8434 113.204 49.0932 113.313 48.4564 113.795C48.197 113.965 47.9103 114.097 47.6102 114.182C46.5821 114.546 45.6318 115.117 44.813 115.859C43.9395 116.638 43.3213 117.615 42.6391 118.555C42.5798 118.649 42.5478 118.763 42.5432 118.876C42.4617 119.589 42.1704 120.279 42.2477 121.025C42.2431 121.252 42.207 121.479 42.1384 121.691C42.107 121.771 42.0884 121.856 42.0884 121.946C42.1611 122.721 42.2797 123.486 42.4344 124.246C42.5525 124.903 42.9119 125.493 43.4347 125.885C43.6033 126.036 43.7534 126.201 43.8854 126.39C44.4902 127.089 45.3358 127.358 46.1459 127.651C46.5006 127.774 46.9327 127.651 47.3189 127.699C48.0016 127.751 48.6838 127.722 49.3613 127.613C49.748 127.566 50.0574 127.292 50.4895 127.344C50.8716 127.391 51.2717 127.207 51.6672 127.146C52.4813 127.028 53.2955 126.905 54.1143 126.825C55.3013 126.683 56.4749 126.461 57.6804 126.522C57.9351 126.522 58.1898 126.466 58.426 126.376C59.0628 126.182 59.7269 126.107 60.391 126.15C60.5777 126.126 60.7597 126.078 60.9324 125.998C60.9871 125.979 61.0459 125.913 61.0871 125.923C62.2014 126.154 63.261 125.72 64.3165 125.573C64.4707 125.554 64.6253 125.573 64.78 125.549C65.044 125.559 65.3122 125.526 65.5669 125.451C66.2449 125.186 66.9725 125.077 67.6959 125.129C67.8501 125.134 68.0047 125.115 68.1507 125.068C68.8462 124.827 69.5743 124.973 70.2838 124.86C70.9387 124.752 71.6074 124.756 72.1483 124.27C72.253 124.18 72.3716 124.114 72.5031 124.076C73.2719 123.84 73.3812 123.207 73.4358 122.508C73.4905 121.805 73.2672 121.152 73.1265 120.482C72.8898 119.523 72.5531 118.593 72.1122 117.715C72.0395 117.521 71.9348 117.342 71.8028 117.181C71.5208 116.827 71.3388 116.397 71.2661 115.944C71.1526 115.476 71.0887 114.975 70.9521 114.527C70.8747 114.262 70.7432 114.026 70.5566 113.828C70.3111 113.559 70.1245 113.238 70.0152 112.883C69.9744 112.652 69.8878 112.434 69.7558 112.241C69.0922 111.537 69.0463 110.569 68.7101 109.728C68.5008 109.204 68.4915 108.6 68.1367 108.118C68.1094 108.057 68.1007 107.991 68.096 107.924C67.8413 106.564 67.5819 105.204 67.3272 103.839C67.2952 103.655 67.2952 103.466 67.3272 103.282C67.5 102.314 67.4092 101.308 67.4953 100.325C67.4912 100.141 67.4639 99.9524 67.4138 99.7775C67.3045 99.0176 67.7047 98.3655 67.8593 97.662C68.0321 96.8778 68.3507 96.1366 68.3641 95.3101C68.3688 95.1685 68.4188 95.036 68.5054 94.9276C68.5869 94.8188 68.7055 94.7432 68.8375 94.7054C69.6743 94.4267 70.4565 94.0115 71.3207 93.7751C71.8663 93.5912 72.3943 93.3644 72.9078 93.0998L73.6447 92.7788C73.836 92.6982 74.1 92.7078 74.1134 92.3817C74.1134 92.3394 74.1907 92.2779 74.2407 92.2638C75.1869 91.9755 75.9737 91.3995 76.7693 90.8377C77.32 90.4501 77.9115 90.1246 78.4936 89.7844C78.6251 89.6947 78.7756 89.6378 78.9298 89.6287C79.0845 89.6146 79.2392 89.6378 79.3851 89.7043C79.876 89.9215 80.3854 90.0913 80.8994 90.2284C81.1996 90.2803 81.4998 90.3085 81.8 90.304C81.8774 90.2944 81.9547 90.304 82.032 90.3226C82.9417 90.814 84.006 90.9133 84.9884 90.6013C85.6798 90.4501 86.3848 90.3418 87.0852 90.2803C87.3217 90.2425 87.5582 90.1715 87.7811 90.0727C88.5771 89.723 89.3776 89.3737 90.1508 88.9862C90.6102 88.7549 91.015 88.4147 91.4698 88.1834C92.1066 87.8574 92.6251 87.3192 92.9435 86.658C93.0071 86.5209 93.1618 86.4312 93.2755 86.3178C93.9941 85.5952 94.6127 84.8161 94.8265 83.7629C94.8265 83.6923 94.8447 83.6213 94.881 83.5598C95.3268 83.0261 95.4041 82.3131 95.6861 81.7038C95.768 81.5718 95.8226 81.4206 95.8453 81.2649C95.868 81.1087 95.8544 80.9484 95.8089 80.7972C95.7634 80.5044 95.7725 80.2066 95.8271 79.9138C95.8635 79.168 95.909 78.4217 95.9408 77.6567C95.9635 77.4299 95.9635 77.2077 95.9408 76.9809C95.8089 76.2633 95.7316 75.5361 95.7043 74.8039C95.6543 74.1851 95.5496 73.5713 95.395 72.967C95.2586 72.5135 95.163 72.0459 95.1085 71.5737C95.1221 71.1483 95.2176 70.7281 95.3813 70.341C95.5542 69.9772 95.7498 69.6184 95.959 69.2782C96.3183 68.5702 96.6686 67.8566 97.0142 67.1436C97.0642 67.0211 97.1097 66.8886 97.1461 66.7565C97.3554 66.1332 97.5009 65.4906 97.9376 64.9524C98.1559 64.636 98.3105 64.2772 98.4015 63.8947C98.5561 63.3892 98.638 62.8651 98.7972 62.3693C98.8972 62.0951 99.0337 61.8356 99.2065 61.6038C99.2292 61.566 99.2565 61.5332 99.2975 61.5141C99.3339 61.4954 99.3793 61.4904 99.4203 61.4954C99.4612 61.505 99.5022 61.5236 99.5294 61.5569C99.5613 61.5897 99.5795 61.6275 99.584 61.6748C99.5886 61.6985 99.5886 61.7222 99.584 61.7408C99.5431 62.5391 99.9934 63.1201 100.375 63.7339C100.435 63.8332 100.557 63.9415 100.544 64.0267C100.389 64.8532 101.108 65.283 101.321 65.9396C101.376 66.114 101.503 66.2607 101.553 66.4401C101.763 67.1864 102.272 67.7291 102.654 68.3762C102.7 68.4518 102.813 68.5087 102.827 68.5843C103.004 69.5902 103.759 70.2418 104.223 71.0682C104.273 71.1675 104.314 71.2713 104.346 71.3751C104.369 71.4603 104.346 71.5878 104.401 71.6397C104.869 72.1214 105.047 72.7922 105.424 73.3208C106.102 74.2561 106.798 75.1864 107.539 76.0698C107.912 76.5606 108.408 76.9386 108.972 77.1608C109.49 77.3306 110.013 77.5055 110.541 77.6375C110.6 77.6708 110.668 77.6849 110.732 77.6799C110.8 77.6799 110.864 77.6567 110.918 77.6189C110.973 77.5811 111.023 77.5337 111.055 77.4722C111.087 77.4108 111.105 77.3447 111.105 77.2737C111.141 77.0802 111.132 76.8726 111.069 76.6836C111.005 76.4946 110.896 76.3248 110.75 76.1922C110.013 75.6495 109.64 74.8321 109.154 74.1004C109.104 74.0248 109.095 73.9018 109.031 73.8545C108.462 73.4675 108.235 72.83 107.907 72.2444C107.703 71.9516 107.548 71.621 107.439 71.2763C107.334 71.0208 107.189 70.7895 107.011 70.5915C106.87 70.3929 106.638 70.2181 106.598 70.0059C106.479 69.4108 106.097 68.9809 105.802 68.4991C105.41 67.8521 104.956 67.262 104.542 66.6336C104.392 66.4068 104.273 66.1614 104.196 65.8968C103.928 64.9005 103.264 64.126 102.841 63.2189C102.641 62.7422 102.463 62.2508 102.313 61.755C102.063 61.0469 101.817 60.3384 101.572 59.6253C101.499 59.455 101.44 59.2806 101.399 59.1007C101.276 58.3075 101.03 57.5375 100.667 56.8295C100.639 56.7725 100.603 56.6828 100.621 56.6355C100.93 55.8846 100.526 55.0254 101.04 54.279C101.18 53.9721 101.235 53.632 101.203 53.2918C101.162 52.8529 101.235 52.4039 101.412 52.0028C101.467 51.8138 101.49 51.6152 101.476 51.4122C101.535 50.8694 101.608 50.3214 101.663 49.7783C101.763 48.7723 101.895 47.7711 101.717 46.7557C101.685 46.4818 101.699 46.2079 101.763 45.9387C101.908 45.0886 101.945 44.2196 101.876 43.3601C101.822 42.6611 101.744 41.9622 101.667 41.2632C101.649 41.0838 101.594 40.9137 101.563 40.7343C101.503 40.5595 101.476 40.3753 101.481 40.1911C101.681 39.2513 101.34 38.3776 101.203 37.485C101.14 37.0411 101.126 36.5924 101.094 36.1438C101.094 36.0635 101.112 35.9879 101.13 35.9076C101.194 35.9691 101.281 36.021 101.321 36.0965C101.394 36.2382 101.449 36.3941 101.485 36.5499C101.608 37.1592 101.849 37.7354 102.195 38.2407C102.386 38.5949 102.531 38.9774 102.618 39.3741C102.641 39.4402 102.618 39.5205 102.672 39.5725C103.104 40.092 103.114 40.772 103.332 41.3718C103.55 41.9716 103.846 42.595 104.06 43.2231C104.346 44.0591 104.583 44.9186 104.846 45.7687C104.878 45.882 104.924 45.9906 104.983 46.0898C105.547 47.006 105.72 48.0261 105.888 49.084C106.006 49.5516 106.175 50.005 106.384 50.4345C106.447 50.5529 106.493 50.685 106.507 50.822C106.52 50.9591 106.507 51.0957 106.47 51.2282C106.438 51.4787 106.484 51.7337 106.602 51.9554C106.761 52.3757 107.048 52.7632 106.861 53.2636C106.839 53.3155 106.88 53.4007 106.907 53.4622C107.312 54.3405 107.28 55.2894 107.362 56.2248C107.393 56.5649 107.544 56.8904 107.603 57.2306C107.757 58.114 107.894 59.0019 108.039 59.8848C108.039 59.9745 108.053 60.0693 108.08 60.1539C108.412 60.801 108.321 61.5519 108.444 62.2463C108.631 63.3136 108.89 64.3669 109.126 65.4246C109.231 65.8968 109.336 66.369 109.472 66.8271C109.522 66.9692 109.618 67.0821 109.75 67.1486C109.941 67.2191 110.086 67.073 110.145 66.8744C110.232 66.6386 110.295 66.3927 110.336 66.1427C110.409 65.1127 110.4 64.0831 110.304 63.0586C110.241 62.0669 110.241 61.0751 110.154 60.0879C110.082 59.2282 109.936 58.369 109.827 57.5093C109.763 57.0134 109.704 56.5221 109.654 56.0312C109.599 55.488 109.572 54.9357 109.504 54.3874C109.481 54.2035 109.368 54.0241 109.331 53.8351C109.072 52.7677 108.935 51.6767 108.926 50.5766C108.89 50.2127 108.772 49.8586 108.581 49.5516C108.394 49.1785 108.203 48.829 108.33 48.3898C108.367 48.2576 108.358 48.1112 108.303 47.9884C107.994 47.3838 107.971 46.6471 107.512 46.1087C107.375 45.9387 107.298 45.7214 107.293 45.4995C107.293 44.81 107.007 44.2102 106.757 43.6104C106.638 43.3365 106.534 43.0531 106.447 42.7697C106.22 42.0188 106.061 41.2443 105.638 40.5643C105.533 40.4036 105.556 40.1628 105.497 39.9645C105.265 39.2419 105.033 38.524 104.783 37.8109C104.71 37.5984 104.564 37.4095 104.473 37.2064C104.328 36.9041 104.196 36.5877 104.06 36.2807C103.923 35.9691 103.764 35.6668 103.641 35.3456C103.291 34.4247 102.677 33.6407 102.399 32.6679C102.263 32.1861 101.826 31.7989 101.531 31.3785C101.44 31.2794 101.372 31.1613 101.331 31.0291C101.249 30.4057 100.803 29.9759 100.53 29.4611C100.257 28.9228 99.8024 28.5024 99.252 28.2899C99.0974 28.2426 98.9609 28.1435 98.8608 28.016C98.7608 27.8885 98.6971 27.7279 98.6789 27.5626C98.5061 26.7644 98.2923 25.9333 97.7147 25.3051C97.6692 25.2343 97.6419 25.1493 97.6237 25.0643C97.7238 25.0643 97.8238 25.0879 97.9148 25.1304C98.0513 25.206 98.174 25.3099 98.2741 25.4326C98.6698 25.9144 99.111 26.3536 99.584 26.7503C100.266 27.3926 100.908 28.1199 101.526 28.8424C102.09 29.4847 102.613 30.179 103.136 30.8638C103.659 31.5533 104.151 32.257 104.655 32.9559C104.696 33.0079 104.719 33.0929 104.769 33.1259C105.41 33.5038 105.588 34.25 106.011 34.7978C106.634 35.6101 107.071 36.5405 107.644 37.3764C108.126 38.0801 108.44 38.8641 108.863 39.5914C108.922 39.7377 108.967 39.8889 108.995 40.0447C109.117 40.6587 109.427 41.216 109.872 41.6363C109.932 41.6835 109.982 41.7497 110.009 41.8252C110.204 42.4297 110.377 43.0437 110.591 43.6387C110.718 43.9551 110.878 44.2574 111.064 44.5408C111.182 44.725 111.341 44.8619 111.305 45.1406C111.282 45.3389 111.451 45.5656 111.542 45.7828C111.965 46.7463 112.324 47.7333 112.624 48.744C112.956 49.9199 113.397 51.0347 113.816 52.1726C114.016 52.7204 114.048 53.3437 114.193 53.9248C114.412 54.7749 114.421 55.677 114.634 56.5034C114.885 57.4715 114.853 58.4773 115.189 59.4081C115.235 59.5875 115.262 59.7715 115.271 59.9559C115.394 61.122 115.581 62.2886 115.608 63.4552C115.635 64.6264 115.881 65.8353 115.553 67.0019C115.535 67.1627 115.535 67.323 115.553 67.4837C115.54 67.8944 115.526 68.3102 115.499 68.7209C115.471 69.1981 115.444 69.6894 115.399 70.1521C115.276 71.4885 115.139 72.8204 115.012 74.1473C114.994 74.2843 114.985 74.4259 114.989 74.563C114.989 74.7424 115.007 74.9128 115.021 75.0921C115.23 75.0639 115.44 75.0166 115.644 74.9455C115.69 74.9077 115.722 74.8558 115.74 74.7994C115.758 74.7424 115.762 74.6809 115.753 74.6245C115.608 74.2984 115.808 74.0813 115.894 73.8076C116.035 73.3208 116.135 72.8204 116.185 72.3149C116.313 71.3232 116.408 70.3315 116.517 69.3397C116.627 68.348 116.736 67.4036 116.813 66.4401C116.84 66.0525 116.745 65.6559 116.749 65.2639C116.749 64.5982 116.827 63.9325 116.804 63.2663C116.768 62.5154 116.909 61.7504 116.672 61.0091C116.672 60.9854 116.672 60.9618 116.672 60.9381L116.736 60.2628C116.931 60.3429 117.118 60.4422 117.3 60.5556C117.7 60.8438 118.068 61.179 118.478 61.4576C119.178 61.9344 119.901 62.3783 120.616 62.846C120.97 63.0773 121.321 63.3232 121.68 63.5495C122.148 63.8473 122.612 64.1733 123.19 64.192C123.422 64.2484 123.64 64.3432 123.836 64.4802C123.918 64.518 123.981 64.5982 124.068 64.6168C124.413 64.6924 124.786 64.8673 125.1 64.7871C125.487 64.6879 125.61 65.1414 125.978 65.0421C126.346 64.9429 126.678 65.0895 127.029 65.0608C127.529 65.0139 127.72 64.6168 127.447 64.192C127.292 63.9466 127.088 63.7339 126.851 63.5686C126.465 63.3182 126.146 62.9261 125.61 62.9261C125.1 62.2796 124.236 62.3597 123.663 61.8401C123.385 61.5851 123.085 61.3538 122.767 61.1457C122.144 60.7491 121.498 60.3903 120.866 60.0169C120.497 59.7951 120.097 59.6299 119.874 59.2191C119.851 59.1763 119.82 59.1436 119.779 59.1294C118.678 58.7278 117.973 57.7219 116.986 57.1691C116.854 57.1082 116.745 57.0038 116.672 56.8763C116.599 56.7443 116.563 56.5977 116.577 56.447C116.577 55.2894 116.204 54.1893 116.085 53.0464C116.04 52.6448 115.817 52.286 115.89 51.8375C115.926 51.6152 115.703 51.3557 115.644 51.1007C115.421 49.9719 115.108 48.8621 114.712 47.7853C114.607 47.535 114.598 47.2422 114.507 46.9871C114.08 45.7734 113.616 44.5786 113.215 43.3601C112.92 42.4675 112.31 41.7497 112.142 40.7815C112.069 40.3706 111.719 40.0211 111.592 39.6103C111.241 38.4485 110.527 37.4851 109.995 36.4271C109.972 36.3516 109.963 36.2666 109.972 36.1863C110.05 36.2051 110.154 36.2051 110.204 36.2571C110.364 36.413 110.495 36.6019 110.655 36.7625C110.882 37.0128 111.123 37.2489 111.382 37.4661C111.96 37.9762 112.465 38.5665 112.883 39.223C113.043 39.4639 113.229 39.6905 113.434 39.8984C113.743 40.1911 114.075 40.4745 114.398 40.7295C114.766 41.0649 115.08 41.4616 115.33 41.9007C115.526 42.1558 115.758 42.373 116.026 42.5478C116.29 42.7508 116.504 43.0154 116.649 43.3223C116.977 43.8371 117.341 44.3283 117.736 44.7911C117.818 44.895 117.964 44.9516 118.046 45.0603C118.578 45.8489 119.256 46.5054 119.81 47.2563C120.47 48.1395 121.011 49.1218 121.598 50.0617C121.753 50.312 121.907 50.5671 122.053 50.8266C122.362 51.3794 122.676 51.9221 122.985 52.4936C123.294 53.0605 123.467 53.5756 123.727 54.1042C124.068 54.8031 124.427 55.4925 124.777 56.187C124.827 56.2862 124.891 56.3855 124.968 56.4702C124.996 56.4843 125.023 56.4939 125.055 56.4989C125.087 56.4989 125.114 56.4989 125.146 56.4893C125.168 56.4893 125.2 56.4137 125.2 56.3714C125.178 56.1396 125.223 55.8518 125.105 55.7007C124.75 55.2612 124.836 54.6993 124.641 54.213C124.404 53.6179 124.204 53.0041 123.986 52.3948C123.745 51.7049 123.508 51.011 123.258 50.3261C123.172 50.0947 123.053 49.8775 122.949 49.6507C122.767 49.254 122.599 48.8526 122.412 48.4606C122.253 48.1395 122.076 47.8183 121.907 47.4925C121.598 46.9305 121.339 46.3401 120.993 45.8112C120.575 45.1595 120.115 44.536 119.624 43.9457C119.178 43.4734 118.814 42.9303 118.537 42.3352C118.169 41.4616 117.518 40.7484 116.704 40.3139C116.581 40.2431 116.395 40.1203 116.395 40.0164C116.381 39.2183 115.849 38.7932 115.335 38.3493C115.226 38.2737 115.13 38.184 115.044 38.0801C114.521 37.3103 113.893 36.635 113.311 35.9171C112.62 35.067 111.76 34.4294 111.059 33.5888C110.968 33.4518 110.85 33.3385 110.705 33.2629C110.232 33.0693 109.831 32.7198 109.563 32.2712C109.058 31.5014 108.294 31.0763 107.63 30.5143C107.298 30.2876 106.998 30.0043 106.743 29.6878C106.675 29.565 106.575 29.4706 106.452 29.4139C106.293 29.3714 106.143 29.2958 106.015 29.1872C105.888 29.0786 105.783 28.9463 105.711 28.7905C105.683 28.7386 105.647 28.696 105.601 28.663C105.556 28.6299 105.506 28.6063 105.451 28.5969C105.056 28.5969 104.86 28.3135 104.614 28.0916C104.533 28.016 104.469 27.9026 104.373 27.8554C103.377 27.3501 102.772 26.4244 102.067 25.5979C101.563 24.9226 100.953 24.3322 100.271 23.8505C100.153 23.7797 100.048 23.69 99.9615 23.5813C99.8296 23.416 99.7159 23.2413 99.5931 23.0666H100.175C100.662 23.0902 101.149 23.1138 101.631 23.1563C101.895 23.1799 102.154 23.2366 102.418 23.2838C102.686 23.383 102.973 23.416 103.259 23.3877C103.537 23.383 103.809 23.4491 104.05 23.5861C104.755 23.8458 105.538 23.8883 106.143 24.4125C106.225 24.4834 106.334 24.5967 106.411 24.5825C106.984 24.4645 107.434 24.7289 107.889 25.0218C107.907 25.0359 107.93 25.0454 107.953 25.0501C109.004 25.1068 109.75 25.853 110.623 26.3394C111.337 26.7266 111.942 27.3076 112.761 27.539C113.07 27.624 113.27 28.0538 113.538 28.3088C113.729 28.526 113.957 28.7102 114.207 28.8472C114.634 29.0408 115.007 29.3573 115.28 29.7539C115.499 30.0656 115.767 30.3348 116.072 30.5521C116.681 30.9866 117.213 31.5202 117.655 32.1342C118.219 32.8426 118.814 33.5321 119.387 34.2311C119.469 34.3397 119.524 34.4719 119.606 34.5806C119.833 34.9017 120.07 35.1803 120.297 35.4873C120.902 36.2477 121.462 37.0411 121.98 37.8629C122.385 38.6751 122.867 39.4355 123.426 40.1392C123.69 40.4792 123.913 40.8476 124.086 41.2443C124.382 41.8394 124.641 42.4533 124.923 43.0531C125.209 43.7426 125.537 44.4133 125.901 45.0603C126.246 45.6223 126.287 46.2834 126.601 46.8549C126.91 47.4264 126.988 48.13 127.311 48.6921C127.524 49.0651 127.42 49.4477 127.574 49.7971C127.797 50.2647 127.97 50.756 128.093 51.261C128.329 52.475 128.893 53.6083 128.889 54.8787C128.907 55.1574 128.998 55.422 129.157 55.6437C129.235 55.7571 129.285 55.8846 129.312 56.0217C129.339 56.1537 129.335 56.2958 129.307 56.4278C129.244 57.0179 129.307 57.6131 129.503 58.1755C129.717 58.9264 129.858 59.7009 129.999 60.4659C130.167 61.3725 130.294 62.2886 130.458 63.2002C130.508 63.427 130.59 63.6442 130.704 63.8473C130.813 64.069 130.963 64.06 131.099 63.8473C131.149 63.7717 131.19 63.6865 131.218 63.5968C131.381 62.8319 131.659 62.1047 131.682 61.2969C131.682 60.3807 131.777 59.4646 131.959 58.567C131.982 58.501 131.995 58.435 132 58.364C131.895 57.6796 131.795 56.9993 131.691 56.319C131.622 56.1018 131.577 55.8755 131.554 55.6437C131.609 54.723 131.227 53.8825 131.168 52.9849C131.172 52.9613 131.172 52.9376 131.168 52.9189C130.713 52.3001 130.79 51.5306 130.613 50.8266C130.499 50.3875 130.285 49.9766 130.14 49.5374C129.994 49.0982 129.849 48.6259 129.73 48.1631C129.439 47.0485 129.025 45.9765 128.489 44.9658C128.075 44.1582 127.797 43.2798 127.456 42.425C127.356 42.1511 127.238 41.8772 127.111 41.6174C126.615 40.6965 126.164 39.7472 125.587 38.883C125.2 38.3021 124.909 37.6692 124.545 37.093C123.922 36.0446 123.24 35.0339 122.503 34.0658C121.989 33.4235 121.548 32.7434 121.093 32.0681C120.802 31.7044 120.479 31.3691 120.124 31.0669C120.079 31.0196 120.011 30.9913 119.983 30.9346C119.569 30.1601 118.892 29.617 118.323 28.9794C118.078 28.748 117.809 28.5402 117.523 28.3607C117.25 28.2049 117 28.0065 116.781 27.7798C116.094 26.8636 115.098 26.3725 114.239 25.6924C113.707 25.2721 113.211 24.7715 112.51 24.6534C111.933 23.9733 111.069 23.7892 110.364 23.331C110.15 23.2083 109.932 23.0996 109.704 23.0099C108.904 22.6651 108.103 22.3204 107.303 21.9851C107.043 21.8481 106.775 21.7395 106.493 21.6639C105.943 21.6025 105.401 21.442 104.906 21.1869C104.742 21.0925 104.51 21.1491 104.314 21.1114C103.464 20.9508 102.581 20.9649 101.744 20.7005C101.681 20.6816 101.59 20.7524 101.513 20.7477C101.399 20.7335 101.285 20.7052 101.176 20.6721C101.221 20.5777 101.276 20.488 101.34 20.4029C101.408 20.3463 101.49 20.3085 101.581 20.2943C102.513 20.1102 103.423 19.6992 104.373 19.6048C104.569 19.5859 104.765 19.5387 104.951 19.4632C105.438 19.2648 105.965 19.3828 106.447 19.2364C106.848 19.1562 107.257 19.1137 107.666 19.1042C108.453 19.005 109.245 19.142 110.018 19.0239C110.455 18.9389 110.878 18.8019 111.282 18.6177C111.66 18.4572 111.951 18.2352 111.878 17.6874C111.828 17.3237 112.046 16.9223 112.028 16.5445C112.01 16.1667 112.028 15.6944 111.555 15.5055C111.523 15.4677 111.501 15.4205 111.487 15.3733C111.473 15.326 111.473 15.2741 111.487 15.2269C112.128 14.5562 111.724 13.8336 111.573 13.1394C111.501 12.7947 111.264 12.4971 111.137 12.1523C111.005 11.7415 110.955 11.3022 110.846 10.8867C110.623 10.0508 110.664 9.14399 110.245 8.35527C110.414 8.06722 110.104 7.87356 110.127 7.56661C110.173 6.90071 109.299 6.40479 108.708 6.70236C108.49 6.81096 108.294 6.97625 108.085 7.08016C107.907 7.15102 107.726 7.2124 107.539 7.25961C107.03 7.42491 106.466 7.47213 106.125 7.99637C106.097 8.03885 106.029 8.04833 105.979 8.07665C105.965 8.03885 105.938 8.00579 105.911 7.97747C105.879 7.94915 105.847 7.93025 105.806 7.92078C105.77 7.91136 105.729 7.90662 105.688 7.91136C105.647 7.92078 105.611 7.93499 105.579 7.95858C105.056 8.14276 104.546 8.38365 104.069 8.6717C103.382 9.13925 102.663 9.55016 101.917 9.89964C101.644 9.98465 101.408 10.1688 101.253 10.4238C101.231 10.4758 101.199 10.5183 101.162 10.5561C101.126 10.5939 101.076 10.6222 101.026 10.6411C100.68 10.693 100.548 10.9433 100.435 11.2314C100.412 11.307 100.362 11.3778 100.303 11.4298C99.434 11.9351 98.8745 12.7899 98.1513 13.4606C98.074 13.5456 98.0285 13.6636 98.0285 13.7817C98.0285 14.0037 97.9057 14.0084 97.7192 14.1028C97.4281 14.3059 97.1825 14.5704 96.9915 14.8774C96.4093 15.633 95.8271 16.3886 95.2768 17.1679C95.0493 17.5315 94.8447 17.9094 94.6536 18.2966C94.5854 18.4147 94.499 18.5233 94.4035 18.6177C94.1397 18.8681 94.035 18.8681 93.7803 18.6177C93.5257 18.3674 93.3119 18.0747 93.0844 17.796C92.4932 17.0734 91.9337 16.3273 91.3106 15.6377C91.0423 15.3402 90.9331 14.8254 90.41 14.8159C90.1007 14.1312 89.3958 13.8951 88.8909 13.4417C88.6407 13.2103 88.427 12.9363 88.1859 12.7002C87.8357 12.346 87.4445 12.0437 87.017 11.8029C86.4348 11.4392 85.8799 11.0284 85.3523 10.5797C85.2249 10.4852 85.0976 10.3483 84.9566 10.3294C84.6473 10.2916 84.5018 10.0744 84.3107 9.88074C84.1879 9.74851 84.0333 9.64933 83.865 9.5879C83.3146 9.42735 82.7597 9.29038 82.2049 9.16762C82.0275 9.12983 81.8955 9.09677 81.8955 8.88894C81.8683 8.39307 81.5408 8.28916 81.1406 8.17109C80.5447 7.99637 79.9899 7.70827 79.4119 7.4816C79.1711 7.38711 78.9118 7.33521 78.6663 7.24072C78.2523 7.08959 77.8475 6.91961 77.4247 6.76374C76.8652 6.57955 76.3012 6.419 75.7278 6.29619C75.0276 6.17338 74.3408 5.99393 73.6632 5.76726C72.8444 5.48858 71.9849 5.36582 71.1253 5.40361C70.8886 5.41304 70.652 5.40361 70.4158 5.37524C69.4511 5.23359 68.4961 5.00689 67.5139 5.24301C67.3365 5.25248 67.1545 5.22885 66.9859 5.17689C66.8585 5.1391 66.727 5.11551 66.5904 5.11078C65.2761 5.22885 63.9478 5.12967 62.6515 5.47916C62.4561 5.51221 62.256 5.53111 62.056 5.53111C61.6373 5.57833 61.2145 5.61613 60.8138 5.6964C59.8362 5.87585 58.8674 6.0742 57.8985 6.27255C57.6531 6.30561 57.4164 6.37173 57.189 6.46622C56.3795 6.89124 55.6927 6.68346 55.0785 6.0742C54.6604 5.64445 54.1417 5.32802 53.5776 5.16273C53.3548 5.06356 53.1455 4.93604 52.9547 4.78492C52.7361 4.65741 52.5314 4.51572 52.3359 4.35515C51.8992 3.95844 51.2263 4.05762 50.8396 3.51451C50.5029 3.04223 49.9073 2.91944 49.4252 2.65025C48.7338 2.23937 48.015 1.87572 47.2828 1.55457C46.5733 1.27594 45.8365 1.06341 45.095 0.912287C43.8988 0.647816 42.6979 0.406956 41.4836 0.218047C40.5013 0.0385844 39.4958 -0.0275337 38.4997 0.010248C37.6994 0.0621979 36.9126 0.227493 36.1304 0.25583C35.1976 0.293611 34.4927 0.742269 33.7059 1.06341C32.9191 1.37983 32.1549 1.63486 31.4134 1.97962C30.6725 2.31966 29.9444 2.73526 29.2122 3.11308C29.1756 3.13669 29.1395 3.16975 29.1168 3.20753C28.8755 3.69397 28.398 3.85454 27.9752 4.10012C27.6478 4.31737 27.3565 4.58656 27.111 4.89826C26.3149 5.77194 25.3827 6.5087 24.6773 7.47686C24.4958 7.72717 24.1952 7.8972 24.0364 8.15692C23.6223 8.8323 23.2449 9.53595 22.8855 10.2444C22.7401 10.5325 22.9035 10.9339 22.5988 11.1795C22.4668 12.0957 21.9393 12.9033 21.9759 13.862C21.9759 14.15 21.8166 14.4429 21.812 14.7357C21.812 15.7653 21.73 16.8042 21.9759 17.8291C22.0486 18.1313 21.894 18.4714 22.0806 18.7972C22.2667 19.1231 22.1533 19.5009 22.258 19.789C22.4761 20.384 22.258 20.9744 22.3988 21.5411C22.5354 22.1268 22.7035 22.7029 22.9082 23.2649C23.1583 23.9072 23.4857 24.5542 23.7724 25.2012C23.9224 25.5224 24.0817 25.8671 24.2091 26.2072C24.2952 26.415 24.3272 26.6605 24.6046 26.7125C24.6546 26.7125 24.7319 26.807 24.7273 26.8495C24.6773 27.4303 25.1506 27.7184 25.3873 28.1388C25.6188 28.5874 25.8782 29.0172 26.1695 29.4281C26.433 29.7398 26.715 30.0278 27.011 30.3018C27.1884 30.4671 27.3565 30.6513 27.5112 30.8402C27.8752 31.3219 27.8932 31.5391 27.5792 32.0114C27.2699 32.4837 26.9378 32.9418 26.615 33.414C26.5743 33.466 26.5423 33.5274 26.5196 33.5935C26.3469 34.3066 26.0782 34.9867 25.7235 35.6243C25.5142 36.1343 25.3368 36.6538 25.196 37.1875C25.1867 37.2347 25.1733 37.2772 25.1506 37.315C24.5819 38.0045 24.4499 38.8971 24.1271 39.7C23.8363 40.4131 23.6631 41.1829 23.4357 41.9291C23.363 42.1699 23.2949 42.4156 23.2222 42.6564C22.9855 43.4451 22.6261 44.2196 22.5627 45.0272C22.5168 45.6223 22.2987 46.1654 22.2714 46.7605C22.226 47.2847 22.1033 47.7994 21.9074 48.2811C21.6666 49.0463 21.5619 49.8538 21.5985 50.6613C21.5985 51.332 21.5119 51.9932 21.3391 52.6402C21.2164 53.1265 21.1798 53.632 21.2345 54.1324C21.2572 54.7986 21.2025 55.4598 21.0705 56.1114C21.0024 56.4989 20.8478 56.8577 21.0432 57.2498C21.0751 57.3112 21.0891 57.3818 21.0798 57.4478C20.9524 58.2415 21.2891 59.0019 21.2479 59.7765C21.2071 60.5505 21.4485 61.245 21.3711 61.9485C21.2572 62.9785 21.6073 63.9037 21.7212 64.8723C21.8213 65.7078 21.9213 66.5439 22.0306 67.3799C22.0667 67.5119 22.1121 67.6445 22.1714 67.7669C22.2807 68.0174 22.3534 68.2865 22.3895 68.5606C22.3534 68.9008 22.4395 69.2455 22.6261 69.5287C22.6988 69.6466 22.7355 69.7837 22.7308 69.9207C22.7401 70.27 22.8448 70.6056 23.0402 70.8888C23.1995 71.2385 23.3222 71.6069 23.4042 71.9844C23.6497 73.0139 23.9951 74.0152 24.4365 74.9737C24.7232 75.5643 24.8732 76.23 25.164 76.8111C25.5688 77.633 26.0509 78.4025 26.5057 79.1962C26.5604 79.2904 26.665 79.3565 26.715 79.4608C27.1698 80.1975 27.5792 80.9575 27.9567 81.7371C28.2114 82.3272 28.6347 82.7475 28.9755 83.2484C29.3169 83.7488 29.2029 84.1267 28.6847 84.3958C28.1253 84.6463 27.6385 85.0378 27.2611 85.5337C26.8104 86.1808 26.1829 86.6721 25.6735 87.2673C25.164 87.867 24.7412 88.4903 24.2545 89.1041C23.8451 89.5955 23.463 90.1105 23.1129 90.6441C22.7715 91.2247 22.3988 91.7679 21.9986 92.3112C21.6892 92.7219 21.5712 93.2792 21.3345 93.7373C21.1845 93.9968 21.0205 94.2428 20.8431 94.4786C20.8204 94.5164 20.7616 94.5497 20.7616 94.5829C20.725 95.3429 19.9335 95.6125 19.7469 96.2782C19.7062 96.4293 19.5468 96.4576 19.438 96.3255C19.3287 96.193 19.238 96.0751 19.1287 95.9617C18.6512 95.4472 18.1732 94.9367 17.7004 94.4222C17.4683 94.1435 17.2229 93.8789 16.9589 93.6285C16.518 93.2697 16.0267 92.9865 15.5765 92.6367C14.9944 92.2164 14.4117 91.7871 13.8255 91.3663C12.9613 90.7953 12.0058 90.3982 11.0009 90.1951C9.8634 89.9543 8.70375 89.8555 7.53947 89.8978C6.69332 89.8978 5.95186 90.2848 5.21503 90.6724C4.54214 91.0216 3.94608 91.527 3.19585 91.7019C3.17316 91.7064 3.15459 91.716 3.13654 91.7347C2.39095 92.4104 1.4948 92.925 1.06735 93.9359C0.771378 94.6348 0.416626 95.3005 0.103119 95.9949C0.0257721 96.1602 -0.0108185 96.3442 0.00257874 96.5236C0.0892029 97.2276 0.193878 97.9265 0.316589 98.6255C0.380524 99.1073 0.585236 99.5603 0.90802 99.9146C1.23544 100.283 1.53552 100.68 1.80417 101.095C2.22697 101.709 2.90915 101.945 3.45934 102.385C3.96877 102.753 4.49213 103.088 5.03766 103.395C5.32899 103.565 5.63372 103.698 5.93845 103.839C6.38395 104.047 6.83874 104.226 7.27547 104.453C8.2763 104.963 9.26785 105.483 10.2548 106.012C10.6368 106.205 11.005 106.422 11.3644 106.659C12.4472 107.381 13.6022 107.986 14.8031 108.463C14.867 108.487 14.9258 108.515 14.9805 108.557C15.5265 109.053 16.204 109.299 16.8455 109.624C16.9043 109.658 16.9816 109.672 17.0229 109.724C17.5596 110.389 18.3418 110.654 19.0193 111.093C19.6969 111.532 20.3476 112.01 21.0117 112.472C21.944 113.115 22.8762 113.705 24.0271 113.88C24.3545 113.941 24.6959 113.88 24.982 113.7C25.51 113.407 25.9055 112.907 26.0783 112.312C26.3783 111.466 26.797 110.673 27.3199 109.96C27.4792 109.766 27.5932 109.535 27.6478 109.285C27.7386 108.694 27.9886 108.142 28.3707 107.688C28.9982 106.739 29.5623 105.752 30.0718 104.732C30.2172 104.505 30.3858 104.297 30.5678 104.104C30.7405 103.929 30.8999 103.735 31.036 103.532C31.35 102.999 31.6094 102.446 31.8868 101.894C32.1822 101.303 32.587 100.779 33.0784 100.344C33.4965 99.9715 33.7605 99.4142 34.138 98.9747C34.4927 98.5025 34.9114 98.0868 35.3796 97.7421C36.0257 97.3032 36.5939 96.7599 37.0807 96.1315C37.5586 95.6215 38.0768 95.1589 38.6317 94.7432C39.0137 94.4222 39.4231 94.139 39.7959 93.8129C40.4193 93.2792 40.7694 93.2792 41.4929 93.6663C42.2158 94.0583 43.0439 94.4081 43.8214 94.7623C44.1669 94.9226 44.5216 95.0642 44.881 95.1826C45.1904 95.291 45.5132 95.3429 45.8365 95.3429C46.2773 95.3575 46.7094 95.4991 47.0781 95.7541C47.5422 96.0564 48.0697 96.2449 48.6152 96.3018C49.698 96.453 50.7896 96.5851 51.8445 96.8164C52.5814 96.9817 52.6814 96.9867 52.4633 97.8368C52.3813 98.1483 52.3406 98.4647 52.3313 98.7858C52.3179 99.7115 52.3313 100.633 52.3313 101.558C52.3225 101.695 52.304 101.837 52.272 101.969C52.1493 102.512 52.1813 103.084 52.3725 103.603C52.436 103.801 52.4499 104.014 52.4133 104.217C52.3679 104.477 52.3813 104.746 52.4587 104.996C52.5314 105.251 52.668 105.478 52.8454 105.667C52.9908 105.842 53.0908 106.054 53.1321 106.281C53.3182 107.131 53.6322 107.939 54.0643 108.685C54.0963 108.765 54.119 108.845 54.1324 108.931C54.219 109.237 54.3324 109.535 54.4737 109.823C54.7284 110.281 55.0285 110.715 55.3606 111.112C55.5973 111.353 55.87 111.547 56.1701 111.693C56.3748 111.811 56.5115 111.693 56.5388 111.457C56.5976 110.98 56.6842 110.489 56.3702 110.064C56.3341 110.012 56.3248 109.87 56.3702 109.847C56.6796 109.606 56.5522 109.299 56.4749 109.02C56.1928 108.023 55.87 107.041 55.6107 106.04C55.5199 105.672 55.4926 105.289 55.5333 104.911C55.5653 104.713 55.556 104.51 55.4972 104.321C55.3333 103.825 55.2606 103.296 55.2879 102.772C55.2967 102.059 55.2652 101.341 55.1786 100.633C55.1652 100.368 55.1879 100.104 55.2379 99.844C55.3106 99.197 55.506 98.5544 55.506 97.8792C55.556 97.1469 55.6473 96.4152 55.788 95.6971C55.8381 95.3197 55.9928 94.9463 55.788 94.5451C55.72 94.3985 55.8154 94.139 55.8834 93.95C56.1748 93.1613 56.5068 92.3817 56.7796 91.5885C56.825 91.39 56.8616 91.1869 56.8843 90.9838C56.9843 90.6154 56.9296 90.1861 57.3391 89.9497C57.4803 89.8696 57.5891 89.7421 57.6484 89.5859C57.7304 89.2744 57.9258 89.0053 58.1939 88.8401C58.3125 88.7786 58.3672 88.58 58.4306 88.4339C58.5673 88.1456 58.6761 87.8433 58.822 87.5601C58.9081 87.3852 58.9581 87.1871 58.9581 86.9931C58.9628 86.7951 58.922 86.6011 58.8447 86.4217C58.7993 86.2755 58.7173 86.1384 58.6126 86.0251C58.508 85.9117 58.3806 85.827 58.2398 85.7701C58.0986 85.7136 57.9439 85.6945 57.7938 85.7086C57.6438 85.7227 57.4984 85.7701 57.371 85.8552C56.7203 86.2614 56.2021 86.8611 55.8793 87.5787C55.7834 87.749 55.6746 87.9047 55.5426 88.0463C55.3059 88.3391 55.1286 88.6793 55.0151 89.0477C54.8965 89.4916 54.7372 89.926 54.533 90.3367C54.2824 90.7953 54.1143 91.3053 54.0416 91.8249C53.9277 92.3157 53.7823 92.802 53.6049 93.2747C53.5275 93.5156 53.4456 93.7565 53.3641 93.9923C53.1908 94.5119 52.9134 94.7291 52.4906 94.4932C51.7765 94.0961 50.9896 94.4222 50.2755 94.148C49.9661 94.0346 49.6253 94.0538 49.3206 93.9308C48.6152 93.6572 47.8196 93.7328 47.1462 93.2838C46.2639 93.317 45.5271 92.7788 44.6949 92.604C44.0988 92.481 43.5533 92.1081 42.9892 91.8339C42.5071 91.5981 42.0296 91.3476 41.5563 91.0926C41.3655 90.9934 41.1242 90.9838 41.0334 90.7102C41.0061 90.625 40.8648 90.5686 40.7648 90.5212C39.1004 89.7703 37.7221 88.5659 36.3165 87.4134C35.9891 87.1443 35.7529 86.7522 35.4209 86.4831C34.684 85.8739 33.774 85.4677 33.3558 84.4996C32.605 83.9332 32.1142 83.1113 31.5274 82.4028C30.9086 81.6756 30.3492 80.901 29.8537 80.0791C29.3849 79.3943 28.9982 78.653 28.7074 77.8688C28.4981 77.3639 28.2526 76.8821 27.966 76.419C27.6566 75.777 27.3472 75.1486 27.0564 74.5066C26.8104 73.9633 26.583 73.4156 26.3742 72.8582C26.2515 72.5372 26.1783 72.2111 26.0648 71.8901C25.9921 71.6538 26.1829 71.3892 25.9009 71.1579C25.7281 71.0163 25.6828 70.6998 25.5915 70.459C25.51 70.3219 25.4554 70.1712 25.4234 70.015C25.4234 69.8734 25.5647 69.7318 25.5781 69.5806C25.5781 69.5242 25.36 69.4722 25.31 69.373C25.2507 69.2263 25.2053 69.0706 25.1687 68.9149C25.0052 68.4377 24.832 67.9463 24.6639 67.4882C24.6412 67.4222 24.6 67.3421 24.6185 67.2852C24.9279 66.3171 24.2318 65.4811 24.3365 64.5271C24.3865 64.0882 24.1271 63.616 24.0271 63.1529C24.0178 63.0158 24.0178 62.8838 24.0271 62.7467C23.9998 62.2418 23.959 61.7408 23.9363 61.2354C23.8997 60.5082 23.8997 59.7856 23.8224 59.068C23.7497 58.3453 23.8997 57.7028 23.6816 57.023C23.5857 56.6168 23.5677 56.1965 23.6177 55.7808C23.677 54.8601 23.7677 53.9439 23.8544 53.0227C23.8905 52.6589 23.9271 52.2956 23.9905 51.9317C24.1911 50.7228 24.1137 49.476 24.4499 48.2859C24.4772 48.182 24.3318 48.0261 24.3638 47.9175C24.3958 47.8089 24.5499 47.738 24.6273 47.6389C24.7046 47.535 24.7366 47.4453 24.7093 47.3838C24.5319 46.9871 24.7412 46.6329 24.864 46.3165C25.1506 45.5703 25.3326 44.7863 25.4007 43.9835C25.4915 43.464 25.6462 42.9587 25.8694 42.4864C26.1422 41.8913 26.3515 41.2632 26.4923 40.6162C26.6331 40.0306 26.8424 39.4639 27.111 38.9349C27.3972 38.2879 27.7752 37.6787 27.8293 36.9325C27.8432 36.7436 28.016 36.5688 28.084 36.3799C28.166 36.1296 28.3253 35.8179 28.2526 35.6148C28.0526 35.0859 28.7574 35.6148 28.612 35.2417C29.0214 34.4766 29.435 33.7116 29.8351 32.9465C30.2811 32.1011 30.7039 31.2463 31.1587 30.4057C31.318 30.0987 31.5135 29.8153 31.7408 29.5603C32.1729 29.0975 32.3235 28.5072 32.5597 27.9499C32.7417 27.5154 33.1511 27.18 33.4605 26.8022C33.6878 26.5283 33.9199 26.2591 34.1473 25.9805C34.4927 25.5601 34.8341 25.1399 35.1749 24.7195C35.6163 24.1717 36.0577 23.6191 36.5124 23.076C36.7579 22.7785 37.0126 22.4904 37.2766 22.2118C37.5401 21.9331 37.8948 21.6073 38.1862 21.2956C38.477 20.9838 38.8044 20.6485 39.1184 20.3274C39.5005 19.9779 39.9006 19.6426 40.3013 19.3214C40.756 18.9578 41.2335 18.6177 41.6883 18.2541C41.8883 18.0936 42.043 18.2163 42.1704 18.325C42.4932 18.5705 42.7938 18.8492 43.0665 19.1562C43.6167 19.7654 44.2674 20.266 44.9903 20.6344C45.2997 20.7524 45.6225 20.8233 45.9499 20.8469C46.4594 20.9649 46.9642 21.1019 47.4782 21.2058C48.0016 21.2578 48.5291 21.1775 49.0112 20.9697C49.1385 20.9225 49.2479 20.8327 49.3247 20.7194C49.5433 20.3935 49.73 20.0251 49.9434 19.6898C49.9754 19.6568 50.0161 19.6331 50.0615 19.6237C50.1074 19.6142 50.1528 19.6142 50.1935 19.6237C50.6029 19.9449 51.1263 20.0535 51.4351 20.5399C51.5537 20.6769 51.6991 20.7855 51.8631 20.8611C51.9765 20.9366 51.9812 21.0169 51.8631 21.0169C51.3217 21.0169 51.1763 21.4939 50.9577 21.8434C50.4255 22.6888 49.9708 23.5955 49.4067 24.422C48.8426 25.2484 48.5378 26.2355 48.0789 27.1281C47.7876 27.6948 47.5695 28.2993 47.3189 28.8897C47.2648 29.0125 47.1281 29.1683 47.1555 29.2628C47.3462 29.8059 47.0142 30.127 46.6868 30.3915C46.3593 30.656 46.614 30.9488 46.4413 31.1991C46.3005 31.4352 46.2093 31.6997 46.1593 31.9689C45.9546 32.8662 45.7638 33.7635 45.5771 34.6608C45.5452 34.8309 45.5318 35.0103 45.5318 35.1851C45.5318 35.5062 45.5591 35.8273 45.5318 36.1532C45.4905 36.6019 45.5591 37.008 45.9319 37.2536C46.1319 37.4095 46.3733 37.485 46.6187 37.4756C46.8641 37.4661 47.1054 37.367 47.2916 37.2017C47.9016 36.6963 48.4105 36.0777 48.7926 35.374C49.2293 34.675 49.6253 33.9524 50.0347 33.2299C50.1301 33.0504 50.1982 32.8521 50.2348 32.649C50.2621 32.4931 50.2621 32.4081 50.4529 32.4034C50.7303 32.4034 50.803 32.1389 50.8669 31.9217C51.0397 31.3738 51.299 30.8638 51.6311 30.4057C52.0766 29.7162 52.4679 28.9889 52.8046 28.238C53.2548 27.3076 53.5868 26.3253 53.7869 25.3099C53.8777 24.8281 54.0916 24.3842 54.4057 24.0206C54.6057 23.7466 54.7919 23.4538 54.9512 23.1516C54.9739 23.1091 55.0012 23.0713 55.0378 23.0382C55.0739 23.0052 55.1152 22.9815 55.1605 22.9674C55.2059 22.9532 55.2513 22.9485 55.3013 22.9532C55.3472 22.9532 55.3926 22.9721 55.4379 22.991C56.2702 23.2885 57.1436 23.4538 58.0259 23.4822C58.1986 23.5058 58.376 23.4775 58.5307 23.3925C58.6853 23.3074 58.8081 23.1752 58.8854 23.0146C58.9674 22.8446 58.9994 22.7879 59.1448 22.9296C59.1721 22.9391 59.2041 22.9438 59.2314 22.9391C59.2628 22.9343 59.2902 22.9202 59.3129 22.9013C59.4588 22.7265 59.5769 22.5376 59.6722 22.3298C59.845 21.867 59.8223 21.8622 60.1956 21.9426C60.6231 22.037 61.0552 22.2118 61.4919 22.004C61.5099 21.9945 61.5326 21.9898 61.5507 21.9898C61.5734 21.9898 61.5966 21.9898 61.6146 22.004C62.3375 22.5376 62.9109 22.0229 63.4791 21.6781C63.7524 21.4466 63.9798 21.168 64.1618 20.8516C64.4707 20.4313 64.3753 19.9685 64.2391 19.5293C64.1706 19.3923 64.1525 19.2317 64.1891 19.0806C64.2252 18.9295 64.3072 18.7972 64.4253 18.7028C64.8166 18.3297 65.1348 17.8763 65.358 17.3757C65.5308 17.0167 65.6262 16.6248 65.6396 16.2233C65.6535 15.8219 65.5896 15.4252 65.4488 15.0521C65.2807 14.5893 64.9847 14.2067 64.8527 13.7628C64.6986 13.248 64.1752 12.993 64.1205 12.4452C64.1205 12.398 64.0205 12.3696 63.9705 12.3271C63.7111 12.1523 63.475 11.9493 63.261 11.7132C62.8155 11.1417 62.2514 10.6789 61.6146 10.3577C60.8778 9.94686 60.1863 9.43677 59.4768 8.96453C59.4541 8.94564 59.4314 8.922 59.4175 8.89368C59.4041 8.86536 59.3948 8.83699 59.3902 8.80393C59.4041 8.77087 59.4222 8.74729 59.4449 8.72365C59.4675 8.70007 59.4949 8.68591 59.5268 8.67643C60.0363 8.52057 60.555 8.40723 61.0778 8.33638C61.8874 8.28916 62.6696 8.01053 63.4977 8.07191C63.807 8.09081 64.1479 7.90193 64.4753 7.86888C65.2668 7.78855 66.0717 8.00579 66.8632 7.75549C67.3499 8.07665 67.8459 7.75549 68.3368 7.77439C68.8282 7.79328 69.351 7.84524 69.8605 7.8783C69.9244 7.8783 70.0018 7.85466 70.0605 7.8783C71.148 8.32222 72.335 8.10497 73.4312 8.43087C74.3634 8.70949 75.3143 8.9031 76.2238 9.2479C76.9333 9.5171 77.6794 9.75793 78.425 9.95628C79.0572 10.1594 79.6666 10.4191 80.2493 10.745C80.9586 11.0945 81.6272 11.5715 82.4414 11.6754C82.5915 11.7226 82.7234 11.8123 82.8189 11.9398C83.3237 12.4924 83.9286 12.9316 84.6064 13.2292C84.8792 13.3803 85.134 13.5645 85.3705 13.777C85.8344 14.1217 86.2756 14.4995 86.694 14.9057C87.4627 15.7322 88.5088 16.195 89.1774 17.1632C89.4867 17.5929 90.0143 17.8479 90.2281 18.3863C90.3918 18.8114 90.7011 19.1562 91.0969 19.3545C91.2106 19.4159 91.2696 19.5859 91.3561 19.7087C91.4425 19.8315 91.4743 19.8929 91.5426 19.9779C92.102 20.5919 92.5432 21.3192 92.8343 22.1079C92.8889 22.2779 92.9753 22.3251 93.1436 22.2495C93.3164 22.174 93.4301 22.2826 93.4711 22.4573C93.4711 22.4998 93.4574 22.5518 93.4711 22.5896C93.4711 22.6793 93.4711 22.8162 93.5257 22.8446C94.0805 23.1657 93.8349 23.945 94.3444 24.2944C94.5763 24.4928 94.7446 24.7667 94.8174 25.069C94.9674 25.494 95.1676 25.8955 95.4177 26.2638C96.0409 27.1517 96.3047 28.1718 96.6413 29.1683C96.8641 29.787 97.1188 30.3962 97.4054 30.9866C97.5919 31.4494 97.7374 31.9311 97.8511 32.4223C97.9694 32.9984 98.1331 33.5604 98.3469 34.1036C98.497 34.4247 98.3469 34.6845 98.4606 34.9631C98.7199 35.6432 98.6243 36.4082 98.8836 37.1025C99.0019 37.5606 99.0791 38.0329 99.111 38.5051C99.3884 40.2856 99.3611 42.0849 99.4794 43.8796C99.5294 44.6824 99.484 45.4853 99.3384 46.2787C99.3293 46.326 99.3293 46.3732 99.3384 46.4204C99.6249 47.6625 99.3384 48.8857 99.1974 50.1136C99.1792 50.2033 99.1792 50.2977 99.1974 50.3922C99.3521 50.9304 99.152 51.4263 99.0564 51.9413C98.87 52.933 98.7471 53.9344 98.5743 54.9306C98.5561 55.1151 98.5061 55.2894 98.4242 55.4547C98.1422 55.9224 98.1149 56.4515 98.0103 56.966C97.8875 57.5471 97.6828 58.114 97.5191 58.6855C97.419 59.0347 97.3372 59.389 97.2507 59.7387C97.1097 60.291 97.0506 60.867 96.7458 61.3775C96.6731 61.5332 96.6276 61.703 96.6185 61.8824C96.523 62.4872 96.3137 63.0682 95.9954 63.5827C95.5951 64.1638 95.3359 64.8295 95.2358 65.538C95.1448 66.1095 94.9174 66.6477 94.5672 67.1058C94.549 67.139 94.3989 67.1294 94.3944 67.1058C94.1579 66.6099 93.9714 66.0858 93.8395 65.5476C93.7394 64.8199 93.5757 64.1023 93.3392 63.4079C93.1299 62.8319 93.0071 62.2226 92.8343 61.6325C92.757 61.3679 92.6615 61.1129 92.5659 60.8579C92.3658 60.3429 92.1748 59.8234 91.9428 59.3179C91.7109 58.813 91.5062 58.3499 91.2606 57.9013C91.1423 57.6746 90.9513 57.4765 90.6648 57.6181C90.3782 57.7643 90.3236 57.6181 90.2872 57.3677C90.2872 57.3062 90.1781 57.2639 90.1189 57.212C90.0871 57.2684 90.028 57.3299 90.028 57.3914C90.028 57.5284 90.0734 57.6605 90.0826 57.8021C90.1371 58.2133 90.169 58.6285 90.1735 59.0397C90.1144 59.6863 90.219 60.3333 90.4828 60.924C90.5147 61.0091 90.5328 61.0988 90.5374 61.1931C90.6648 61.9394 90.7921 62.6852 90.9149 63.4507C90.9468 63.7762 91.0013 64.0978 91.0695 64.4188C91.2106 64.9242 91.4061 65.415 91.5517 65.9205C91.8246 66.6996 92.0019 67.5074 92.0793 68.3293C92.1066 69.0091 92.3749 69.6753 92.4977 70.3506C92.707 71.484 92.8843 72.6077 93.0981 73.7602C93.1436 73.9915 92.9889 74.3695 93.4392 74.374C93.4756 74.4259 93.4893 74.4874 93.4847 74.5489C93.3801 74.9737 93.3938 75.4227 93.5302 75.8385C93.6712 76.6317 93.6484 77.444 93.4665 78.2327C93.4301 78.332 93.4074 78.4454 93.4119 78.5537C93.653 79.5218 93.4119 80.4288 93.2437 81.3495C93.1072 82.242 92.7706 83.0876 92.2658 83.8198C91.9428 84.221 91.6563 84.6508 91.4107 85.1089C91.2196 85.4869 90.7875 85.7514 90.4464 86.0392C90.3009 86.1858 90.1417 86.3133 89.9734 86.4217C89.7824 86.5209 89.5595 86.5542 89.3503 86.6389C89.2093 86.6958 89.0865 86.8041 88.9455 86.8656C88.2177 87.1871 87.4718 87.4799 86.7714 87.8337C85.9618 88.2353 85.084 88.1975 84.2334 88.3532C83.7604 88.443 83.2737 88.4243 82.8098 88.2923C82.4232 88.1834 82.0229 88.1315 81.6363 88.0277C81.2497 87.9239 80.8722 87.7868 80.4856 87.678C80.1219 87.6074 79.7672 87.5177 79.4166 87.3948C78.5297 86.9886 77.7202 86.4267 76.8699 85.9399C76.2919 85.6143 75.9691 85.0525 75.4189 84.7451C75.3823 84.7264 75.3643 84.6745 75.3323 84.6413C74.9868 84.2683 74.6089 83.9282 74.2 83.6258C74.036 83.5457 73.9087 83.4086 73.836 83.2388C73.7767 83.0402 73.6679 82.8608 73.5266 82.7147C72.549 81.9447 72.0168 80.8063 71.298 79.8145C71.0887 79.4462 70.9113 79.0591 70.7747 78.653C70.4658 77.8925 70.1198 77.1512 69.7378 76.4331C69.4057 75.8758 69.2737 75.196 69.019 74.5822C68.6462 73.6186 68.2187 72.6788 67.7459 71.7626C67.5639 71.4416 67.4365 71.0637 67.2592 70.7517C66.8131 69.9631 66.281 69.2359 65.6669 68.5793C65.5628 68.4709 65.3895 68.2915 65.4168 68.225C65.6169 67.7906 65.2714 67.6208 65.0667 67.4318C64.6986 67.1108 64.2706 66.8603 63.8932 66.5484C63.5838 66.308 63.3657 65.9865 63.0609 65.7597C62.7335 65.5284 62.3875 65.3208 62.0328 65.1364C61.61 64.8864 61.1645 64.6692 60.7597 64.3996C60.6231 64.2817 60.5318 64.1209 60.5091 63.937C60.4864 63.6583 60.3864 63.3938 60.2271 63.167C60.0683 62.9453 59.8496 62.7704 59.5995 62.6666C59.4861 62.6192 59.3314 62.407 59.3587 62.3456C59.4268 62.1662 59.5676 61.9344 59.7181 61.8966C60.0636 61.8119 60.441 61.6557 60.7912 61.9253C60.8551 61.9863 60.9371 62.0241 61.0232 62.0291C61.9554 61.9112 62.6923 62.402 63.4657 62.7704C63.9251 62.9876 64.3392 63.3041 64.7847 63.5449C65.3122 63.8377 65.8582 64.1068 66.4177 64.3432C66.8085 64.4944 67.2225 64.5841 67.6412 64.6077C68.1687 64.6405 68.4595 64.1779 68.3507 63.6205C68.2368 63.0632 67.7774 62.7517 67.418 62.3879C66.9225 61.8356 66.3264 61.3916 65.6628 61.0751C65.4854 61.0041 65.3534 60.8106 65.1941 60.6927C64.9801 60.4896 64.7254 60.3429 64.448 60.2578C63.9659 60.1872 63.5111 59.9796 63.1383 59.6535C63.0156 59.5543 62.8696 59.4928 62.7196 59.4741C61.8827 59.5069 61.1371 59.0347 60.3137 59.0161C60.2363 59.0161 60.1636 58.9354 60.0863 58.8886C60.1456 58.8079 60.1956 58.6759 60.273 58.6522C60.5411 58.558 60.8231 58.4965 61.1052 58.4824C61.3733 58.4915 61.6373 58.5484 61.8874 58.6477C62.9929 59.0251 64.1752 59.1859 65.1621 59.899C66.1949 60.6453 67.2091 61.4198 68.228 62.1893C68.4508 62.3693 68.7055 62.4967 68.9736 62.5628C69.2469 62.6333 69.5284 62.6384 69.8017 62.5864C70.1018 62.468 70.3565 62.2604 70.5432 61.9863C70.6246 61.8875 70.5432 61.637 70.5432 61.4576C70.5432 61.2309 70.52 60.9996 70.4973 60.7728C70.4973 60.612 70.4658 60.4563 70.4112 60.3051C69.9017 59.2378 69.4377 58.1468 68.8602 57.1313C68.6055 56.7065 68.4735 56.1915 68.1594 55.8423C67.6866 55.3131 67.6866 54.6192 67.4138 54.0286C67.3912 53.958 67.3912 53.8825 67.4092 53.8069C67.4226 53.7358 67.4592 53.6698 67.5046 53.6133C67.5727 53.5801 67.6412 53.566 67.7139 53.5705C67.7866 53.5705 67.8547 53.5942 67.9186 53.6365C68.4595 54.147 68.9875 54.6711 69.497 55.2144C70.0064 55.7571 70.4612 56.2908 70.9294 56.8481C71.034 56.966 71.1068 57.1127 71.148 57.2639C71.2841 57.6746 71.5254 58.043 71.8436 58.3312C72.4623 59.0206 73.1899 59.6203 73.6086 60.5223C74.1407 61.6844 74.8095 62.78 75.405 63.9133C75.487 64.1209 75.5597 64.3386 75.6143 64.5558C75.7644 64.9807 76.0691 65.283 76.2919 65.2407C76.5146 65.1979 76.6012 64.7635 76.4558 64.2913C76.3104 63.8191 76.1692 63.3701 76.0098 62.9216C75.9918 62.8792 75.9784 62.8364 75.9784 62.7895C75.9784 62.7422 75.9825 62.6998 76.0011 62.657C76.0191 62.6147 76.0418 62.5769 76.0738 62.5436C76.1057 62.5109 76.1418 62.4872 76.1831 62.4731C76.4012 62.3597 76.6013 62.204 76.7606 62.0099C76.9199 61.8164 77.0426 61.5947 77.1153 61.3538C77.1334 61.2969 77.1607 61.245 77.1973 61.2072C77.2334 61.1648 77.2788 61.127 77.3288 61.1034C77.8656 60.8907 78.4116 60.6876 78.9571 60.5082C78.9984 60.4845 79.0438 60.4755 79.0938 60.48C79.1392 60.4845 79.1845 60.5037 79.2211 60.5319C79.2577 60.5601 79.2846 60.603 79.2985 60.6498C79.3119 60.6972 79.3119 60.7446 79.2985 60.7914C79.2892 61.0656 79.2438 61.3397 79.1572 61.5992C78.8257 62.5058 78.5983 63.4507 78.4797 64.4188C78.475 64.4425 78.475 64.4661 78.4797 64.4893C78.671 65.0376 78.4297 65.5425 78.3616 66.0717C78.2935 66.6008 78.3889 67.1531 78.2476 67.6445C78.0795 68.225 78.2476 68.7874 78.1662 69.3634C78.1069 69.9349 78.1342 70.5109 78.2476 71.0682C78.4389 72.2535 78.3435 73.477 78.689 74.6341C78.9118 75.4792 79.2712 76.2774 79.744 77.0046C80.0719 77.4959 80.3947 77.9918 80.7085 78.4922C81.1269 79.1347 81.8091 79.2955 82.4504 79.3378C82.8962 79.3852 83.3465 79.3141 83.7558 79.1347C84.1698 78.9553 84.5336 78.6767 84.8156 78.3128C84.9975 78.086 85.1158 77.8169 85.1612 77.5242C85.3386 76.5561 85.143 75.6304 85.0385 74.7001C84.8838 73.6091 84.5609 72.5513 84.0833 71.5691C84.0151 71.4225 83.9787 71.2617 83.9741 71.1015C83.9969 70.2795 83.533 69.6607 83.1691 69.0091C82.8598 68.4427 81.891 68.5087 81.6181 69.0943C81.5044 69.3211 81.4453 69.5665 81.4453 69.8169C81.468 70.785 81.4816 71.7767 81.9319 72.6788C81.9411 72.6974 81.9501 72.7166 81.9547 72.7403C81.9911 72.9902 82.0047 73.2361 82.0684 73.477C82.1957 74.0057 82.3276 74.5393 82.4869 75.0589C82.6188 75.4701 82.8553 75.8526 82.7461 76.3152C82.737 76.3575 82.7188 76.4004 82.696 76.4382C82.6688 76.476 82.637 76.5042 82.6005 76.5279C82.5551 76.5465 82.455 76.4618 82.4004 76.4049C82.1048 76.1262 81.8819 75.772 81.7591 75.3754C81.5863 74.7333 81.2997 74.1473 81.0859 73.5239C80.9677 73.1747 80.8858 72.8159 80.8312 72.4475C80.6857 71.4789 80.7039 70.5109 80.4128 69.5473C80.3447 69.3871 80.3261 69.2122 80.3535 69.0373C80.3808 68.8675 80.4583 68.7068 80.572 68.5793C80.6357 68.5228 80.6448 68.3716 80.6493 68.2583C80.6402 67.9418 80.6493 67.6253 80.6721 67.3139C80.7676 66.9359 80.7858 66.5393 80.7175 66.1568C80.7039 66.1095 80.7039 66.0621 80.7175 66.0147C81.0541 65.1883 80.9768 64.2958 81.1224 63.4366C81.1724 63.2854 81.2497 63.1483 81.3452 63.0254C81.5772 62.6051 81.8228 62.2085 81.6954 61.6607C81.6818 61.3679 81.7 61.0701 81.75 60.7824C81.7773 60.5274 81.7409 60.2724 81.6454 60.0315C81.5499 59.7951 81.3952 59.5875 81.1996 59.4313C81.1406 59.3935 81.095 59.3416 81.0632 59.2806C80.8222 58.6048 80.2761 58.3121 79.6898 58.0621C79.3078 57.925 78.903 57.8918 78.507 57.9674C78.4663 57.9674 78.425 57.9865 78.3889 58.0102C78.3523 58.0334 78.325 58.0666 78.3023 58.1044C78.2023 58.4254 78.0888 58.4824 77.8841 58.18C77.8522 58.1327 77.6748 58.1563 77.5747 58.1987C77.0607 58.4018 76.5605 58.6336 76.0691 58.8886C75.8237 59.0775 75.6004 59.2947 75.3962 59.5356C75.2323 59.6959 75.0869 59.7337 74.9956 59.4646C74.7228 58.4965 74.1268 57.7219 73.7179 56.8385C73.4812 56.3855 73.2038 55.9511 72.8898 55.5495C72.4623 54.9402 72.0436 54.3214 71.5708 53.7499C71.1934 53.3296 70.7933 52.933 70.3699 52.5647C70.1379 52.3807 69.9198 52.1867 69.7151 51.9695C69.415 51.5966 69.0009 51.3366 68.5415 51.2423C68.1507 51.1572 67.7732 50.9969 67.3772 50.9213C66.9818 50.8457 66.5723 50.7888 66.263 51.1859C66.1583 51.2705 66.0449 51.3461 65.9263 51.398C65.4581 51.71 65.1075 52.1726 64.9213 52.7158C64.7847 53.0273 64.7212 53.3674 64.7393 53.7076C64.7573 54.0477 64.8574 54.3783 65.026 54.6711C65.1894 54.9921 65.1075 55.4406 65.5715 55.5449C65.6035 55.5449 65.6581 55.6155 65.6535 55.6437C65.5396 56.39 66.2722 56.645 66.4857 57.1928C66.5311 57.3158 66.6043 57.4337 66.6358 57.5662C66.6677 57.7169 66.6951 57.8681 66.7131 58.0243C66.595 57.9533 66.477 57.8777 66.3496 57.8116C65.7716 57.5234 65.2034 57.2024 64.6073 56.9615C63.7477 56.579 62.8155 56.39 61.8827 56.4092C61.6827 56.39 61.4873 56.3568 61.2918 56.3144C60.9412 56.2908 60.5865 56.3144 60.2363 56.2721C59.3722 56.2061 58.7266 56.5931 58.1171 57.212C57.6711 57.67 57.2163 58.0666 57.0163 58.7323C56.8435 59.1955 56.8296 59.7009 56.9709 60.1731C57.039 60.357 57.0436 60.5556 56.9843 60.7446C56.925 60.9335 56.8069 61.0893 56.643 61.1931C56.5703 61.2495 56.4702 61.3301 56.4656 61.4103C56.3929 61.9157 56.4341 62.4257 56.5795 62.912C56.7296 63.3988 56.975 63.8428 57.3117 64.2111C57.5211 64.4188 57.7758 64.5745 58.0532 64.6596C58.4306 64.8013 58.822 64.8955 59.2175 64.9429C59.877 65.0376 60.4818 65.3823 60.9139 65.9109C61.4553 66.4824 61.974 67.068 62.5515 67.6157C63.2703 68.2346 63.8571 68.9995 64.2799 69.8688C64.5892 70.5769 64.8527 71.3136 65.1941 72.0035C65.4307 72.4944 65.7809 72.9242 66.0675 73.3919C66.4811 74.0722 66.8817 74.7616 67.2818 75.451C67.8367 76.419 68.4007 77.3589 68.9422 78.3224C69.3603 79.0591 69.7331 79.8145 70.1111 80.58C70.3653 81.0618 70.6473 81.5244 70.9521 81.9729C70.9933 82.0344 71.1341 82.0157 71.2207 82.0485C71.3115 82.0818 71.3708 82.1291 71.3661 82.1573C71.3388 82.3745 71.3754 82.5917 71.4615 82.7903C71.5528 82.9883 71.6982 83.1536 71.8755 83.267C71.9849 83.3567 72.0756 83.4656 72.1437 83.588C72.5943 84.358 73.2899 84.8776 73.9133 85.4632C74.25 85.7842 74.532 86.1621 74.8455 86.4927C75.0729 86.7432 75.3323 86.9604 75.6143 87.1398C75.9557 87.3333 76.1099 87.8196 76.5878 87.7818C76.5878 87.8574 76.5878 87.9708 76.5512 87.999C76.2011 88.2449 75.8417 88.4858 75.4777 88.7075C74.9956 88.9958 74.5088 89.2744 74.018 89.5435C73.704 89.7134 73.3765 89.8459 73.0537 89.9971C72.9264 90.0394 72.8078 90.1105 72.7124 90.2047C72.4216 90.5166 72.0668 90.7621 71.6755 90.9228C71.4435 91.0453 71.1934 91.135 70.9387 91.1919C70.7113 91.2675 70.4885 91.3522 70.2699 91.461C69.7651 91.6923 69.2649 91.9428 68.7462 92.1504C68.4734 92.2593 68.1048 92.1504 67.9594 92.5284C67.1591 92.5566 66.8317 93.0338 66.8224 93.8174C66.3083 94.3889 66.1856 95.1589 65.8443 95.8156C65.6081 96.3724 65.4442 96.9585 65.3534 97.5582C65.2807 97.8792 65.2075 98.1815 65.1301 98.493C64.9074 99.2156 64.8847 99.9902 65.0621 100.727C65.1575 101.053 65.0121 101.464 64.9801 101.842C64.944 102.29 64.9074 102.748 64.8759 103.202V103.268C65.3622 103.608 65.0033 104.038 65.0033 104.429C65.0033 104.68 65.0801 104.925 65.094 105.176C65.1394 105.818 65.5215 106.399 65.5808 107.013C65.6855 107.901 65.9082 108.77 66.2403 109.592C66.6811 110.735 66.9818 111.934 67.3545 113.11C67.418 113.28 67.5 113.441 67.6 113.591C67.7227 113.757 67.8232 113.932 67.9094 114.121C68.046 114.753 68.3461 115.335 68.7735 115.802C68.8782 115.925 68.9422 116.08 68.9463 116.246C68.9782 117.214 69.515 117.974 69.9564 118.763C70.3111 119.391 70.5519 120.076 70.6659 120.794C70.7293 121.035 70.8159 121.271 70.9247 121.493C71.098 121.913 71.0614 122.012 70.6112 122.088C69.9925 122.187 69.3696 122.215 68.8055 122.513C68.7235 122.541 68.6281 122.541 68.5462 122.513C68.2053 122.466 67.8593 122.484 67.5226 122.565C66.8451 122.621 66.1856 122.867 65.4988 122.773C65.0987 122.73 64.6939 122.791 64.3206 122.952C63.9571 123.042 63.5838 123.113 63.211 123.16C62.5608 123.325 61.9286 123.533 61.2825 123.703C60.5137 123.911 59.7816 124.251 58.972 124.288C58.8808 124.294 58.7947 124.312 58.7127 124.345C58.4946 124.449 58.2672 124.539 58.0305 124.605C57.8165 124.643 57.5804 124.549 57.3664 124.586C56.5795 124.732 55.8154 124.936 55.0192 125.077C54.4371 125.186 53.823 125.162 53.2501 125.313C52.1312 125.602 50.9762 125.573 49.8661 125.833C49.1839 125.993 48.5745 125.715 47.933 125.677C47.0008 125.62 46.2686 125.12 45.6045 124.482C45.4317 124.317 45.2404 124.171 45.0357 124.043C44.913 123.982 44.8176 123.882 44.7583 123.755C44.7037 123.627 44.6903 123.486 44.7263 123.349C44.8223 122.848 44.8037 122.333 44.6763 121.847C44.5356 121.224 44.7903 120.638 45.0496 120.076C45.127 119.944 45.195 119.807 45.2497 119.656C45.459 118.919 45.8685 118.262 46.4279 117.762C46.7053 117.44 47.0781 117.214 47.4829 117.119C47.6149 117.105 47.7376 117.039 47.833 116.94C47.9196 116.836 48.0284 116.756 48.1516 116.699C48.2744 116.643 48.4064 116.614 48.5378 116.619C48.7699 116.59 48.9746 116.534 49.0019 116.222C49.0246 116.028 49.1705 115.901 49.3386 116.019C49.5753 116.161 49.7568 116.019 49.9574 115.967C50.5075 115.788 51.067 115.627 51.6218 115.462C51.6625 115.448 51.7084 115.433 51.7538 115.433L54.4691 115.396C54.6464 115.419 54.8238 115.405 54.9966 115.363C55.5926 115.094 56.2155 115.155 56.8343 115.146C57.3256 115.174 57.8119 115.089 58.2672 114.895C58.5126 114.829 58.772 114.81 59.0267 114.839C59.4768 114.81 59.7496 114.598 59.8182 114.244C59.8362 114.045 59.795 113.847 59.7042 113.677C59.6135 113.502 59.4675 113.365 59.2948 113.275C59.1948 113.233 59.0901 113.2 58.9854 113.176C58.772 113.119 58.5533 113.067 58.3352 113.03L56.3929 112.671L56.3521 112.647ZM24.4545 13.9092C24.4319 12.9552 24.7185 12.0248 25.2687 11.2645C25.4188 11.0331 25.6054 10.8158 25.5374 10.5136C25.5054 10.3672 25.5234 10.2113 25.5874 10.0744C25.6554 9.93738 25.7647 9.83352 25.9009 9.77209C26.7651 9.29985 27.2111 8.40723 27.8613 7.72717C28.512 7.0471 29.1029 6.43784 29.8944 6.06004C30.3631 5.8428 30.8452 5.65861 31.3407 5.51695C31.8594 5.36582 32.3235 5.05882 32.6783 4.63379C32.8598 4.43544 33.0964 4.29848 33.3511 4.23708C34.0519 3.98205 34.8294 3.91594 35.425 3.37755C35.5663 3.26892 35.7297 3.20281 35.903 3.18391C36.2938 3.13669 36.6945 3.15558 37.0853 3.09418C37.9722 2.92416 38.8864 2.91 39.7779 3.05168C39.9053 3.06585 40.0373 3.06112 40.1646 3.03279C40.7834 2.92416 41.3928 2.8486 41.993 3.12724C42.1657 3.17447 42.3431 3.19336 42.5205 3.19336C43.0666 3.28309 43.6807 3.25004 44.1401 3.51923C44.9996 3.9915 45.9319 4.16152 46.8327 4.4496C47.8376 4.73297 48.7884 5.20995 49.6253 5.85227C49.7568 5.97503 49.9115 6.06952 50.0801 6.12616C50.6442 6.26787 51.1624 6.55592 51.5945 6.95735C51.6765 7.03763 51.7719 7.09906 51.8719 7.14154C52.6273 7.47213 53.3321 7.91609 53.9643 8.45445C54.369 8.78035 54.8011 9.06845 55.2466 9.32344C55.8293 9.6446 56.4475 9.90906 57.0209 10.2538C57.5938 10.5939 58.0578 10.967 58.5719 11.3259C59.4088 11.902 60.3044 12.398 61.0098 13.1725C61.6966 13.8431 62.3061 14.594 62.8289 15.411C63.1563 15.9872 62.9382 16.4312 62.2921 16.5539C62.0421 16.587 61.7827 16.5634 61.5419 16.4831C61.3006 16.4075 61.0732 16.2753 60.8865 16.1005C60.3317 15.6802 59.6722 15.3969 59.2221 14.8113C59.1901 14.7735 59.1541 14.7498 59.1128 14.731C58.1805 14.2587 57.2797 13.7298 56.3887 13.163C55.3379 12.4971 54.1824 12.0107 53.0774 11.444C52.6541 11.2267 52.454 11.6281 52.2266 11.8218C52.1766 11.869 52.1312 11.9209 52.0993 11.987C52.0678 12.0485 52.0492 12.1193 52.0492 12.1901C52.0492 12.261 52.0585 12.3318 52.0812 12.398C52.1039 12.4641 52.1405 12.5255 52.1905 12.5774C52.5772 13.1063 52.9227 13.6636 53.5095 14.0037C54.1783 14.3531 54.8146 14.7735 55.4013 15.2599C56.0567 15.855 56.775 16.3508 57.471 16.8703C58.1125 17.3993 58.822 17.8385 59.5722 18.1786C59.8135 18.2777 60.0043 18.4997 60.241 18.6319C60.6365 18.835 61.0412 19.0098 61.4599 19.1562C61.5919 19.1986 61.8054 19.0853 61.8281 19.312C61.8513 19.5387 61.6327 19.5906 61.4553 19.5859C61.3006 19.6001 61.1413 19.5718 60.9959 19.5104C60.6323 19.3356 60.2229 19.2884 59.8269 19.3687C59.4995 19.3923 59.1674 19.3214 58.8766 19.1609C58.6307 19.057 58.3987 18.9106 58.1579 18.7925C57.6391 18.58 57.1663 18.2636 56.7662 17.8621C56.6161 17.7299 56.4522 17.6071 56.2841 17.4985C55.8293 17.1443 55.3513 16.7995 54.9285 16.4217C54.6372 16.1383 54.2737 15.94 53.8823 15.855C53.6869 15.8077 53.5002 15.7369 53.3228 15.6472C52.5726 15.3024 51.8219 14.9482 51.0716 14.6034C50.8757 14.5137 50.6395 14.3201 50.4802 14.5799C50.4075 14.6979 50.5029 14.9388 50.5395 15.1229C50.6942 15.7983 51.0489 16.4075 51.5491 16.8656C52.0039 17.371 52.568 17.7582 53.1955 17.9944C53.3956 18.0888 53.5822 18.2163 53.7415 18.3722C54.4325 18.9247 55.0285 19.6142 55.852 19.9826C56.1794 20.1668 56.4888 20.384 56.7842 20.6249C56.907 20.7099 57.0436 20.7713 57.171 20.8563C57.239 20.9083 57.3029 20.9649 57.3617 21.0216C57.3029 21.0783 57.2483 21.1775 57.1844 21.1917C56.5749 21.3569 55.9293 21.2956 55.3559 21.0216C54.7511 20.6863 54.1736 20.299 53.6276 19.8693C53.2728 19.5954 52.9361 19.2978 52.6133 18.9767C52.254 18.665 51.9265 18.3202 51.6264 17.9472C51.3578 17.574 50.9257 17.4607 50.6349 17.1112C50.3436 16.7617 49.798 16.6011 49.5113 16.1714C49.4887 16.1478 49.4567 16.1289 49.4252 16.1194C49.3933 16.11 49.3613 16.1053 49.3293 16.11C49.0566 16.1431 48.8745 15.9589 48.6652 15.8314C48.115 15.4913 47.5556 15.1655 47.0008 14.8302C46.9461 14.8018 46.91 14.7404 46.86 14.7026C46.2639 14.2304 45.6637 13.7344 45.0584 13.2811C44.881 13.1394 44.7495 13.1866 44.6222 13.3803C44.3716 13.7298 44.4128 14.1217 44.3948 14.5137C44.3948 14.7829 44.0669 15.0568 44.4216 15.326C44.6536 15.5007 44.8537 15.718 45.0857 15.8928C45.2224 15.9683 45.3678 16.0344 45.5091 16.0911C45.7411 16.2658 45.9865 16.417 46.2412 16.5492C46.8007 16.757 46.9868 17.6591 47.7742 17.4088H47.833C47.9784 17.5788 48.0923 17.7771 48.1743 17.9896C48.2017 18.1125 48.0331 18.3108 47.9057 18.4194C47.7422 18.5327 47.5556 18.5942 47.3602 18.6036C46.4047 18.6603 45.6498 18.1975 44.9677 17.5646C44.4082 17.0451 43.9488 16.3886 43.2166 16.0864C43.1166 16.0344 43.0253 15.9636 42.9619 15.8691C42.4298 15.2221 41.8657 14.5799 41.6929 13.7014C41.6383 13.4039 41.5429 13.1158 41.4155 12.8466C41.2742 12.5396 41.0835 12.261 40.8561 12.0201C40.5967 11.7982 40.3147 11.6045 40.0192 11.444C39.3551 11.0425 38.7002 10.6128 37.8768 10.6552C37.6994 10.6411 37.5267 10.5986 37.3627 10.5325C37.2627 10.4947 37.158 10.4758 37.0533 10.4711C36.3397 10.5891 35.5936 10.6128 34.9248 10.8678C33.9245 11.2503 32.8556 11.4959 32.0048 12.2846C31.3088 12.9505 30.7039 13.7061 30.2084 14.5421C30.0718 14.8585 29.9898 15.1985 29.9671 15.5433C29.9583 15.5811 29.9583 15.6236 29.9624 15.6614C29.9717 15.6991 29.9857 15.7369 30.0037 15.7747C30.0218 15.8125 30.0537 15.8361 30.0857 15.8597C30.1171 15.8833 30.1537 15.8975 30.1904 15.9069C30.2945 15.9683 30.4177 16.0014 30.5405 16.0014C30.6632 16.0014 30.7813 15.9683 30.8906 15.9069C31.4454 15.4961 32.0095 15.0993 32.5689 14.6885C32.6416 14.6365 32.6963 14.5562 32.769 14.509C32.919 14.4004 33.051 14.4759 33.0603 14.6365C33.0964 14.9766 33.0964 15.3213 33.0603 15.666C32.8964 16.4075 32.883 17.1773 33.0237 17.9235C33.1284 18.4666 33.183 19.0239 33.1877 19.5765C33.2011 19.9732 33.3238 20.351 33.5466 20.6721C33.6832 20.8563 33.8013 21.0499 33.9152 21.253C34.2746 21.9567 34.1834 21.9284 33.8059 22.3959C32.933 23.4822 32.0502 24.5637 31.236 25.6971C30.5492 26.6653 29.9537 27.6854 29.3123 28.6725C29.1849 28.8613 29.0348 29.0361 28.8709 29.1919C28.5888 29.4564 28.4161 29.4045 28.248 29.0266C28.0299 28.5449 27.8932 27.9829 27.5612 27.6098C27.011 26.9675 26.8878 26.1694 26.5604 25.4515C26.433 25.0596 26.2783 24.6817 26.0968 24.3133C25.3961 23.2602 25.2507 22.0087 24.9459 20.828C24.6319 19.7843 24.4499 18.698 24.4092 17.6071C24.4092 16.6862 24.1271 15.7747 24.3772 14.8491C24.4226 14.5373 24.4499 14.2304 24.4499 13.9186L24.4545 13.9092ZM2.45438 97.0431C2.45438 96.1411 2.69981 95.4472 3.32321 94.9321C3.63258 94.6772 3.9234 94.3889 4.25546 94.1531C4.9696 93.6431 5.66568 93.0953 6.55256 92.9295C6.82996 92.8776 7.0981 92.7597 7.37138 92.6982C7.70757 92.5989 8.05767 92.5379 8.41242 92.5329C9.09924 92.5848 9.77728 92.7078 10.4548 92.8212C10.6734 92.8635 10.8781 92.9391 11.0782 93.0429C11.6964 93.3644 12.2925 93.6854 12.8973 94.0115C12.9654 94.0583 13.0247 94.1153 13.084 94.1717C13.3975 94.4222 13.7069 94.6913 14.0162 94.9226C14.2756 95.0501 14.5303 95.1922 14.7711 95.3575C15.7039 96.2358 16.6954 97.0104 17.4957 98.0399C18.1959 99.0221 19.0013 99.9196 19.8928 100.717C20.1609 100.94 20.443 101.095 20.7431 100.949C21.0432 100.803 21.4252 100.628 21.3618 100.165C21.3025 99.7069 21.2118 99.2584 21.0844 98.819C21.0298 98.6114 20.9297 98.4128 21.1391 98.2617C21.7212 97.8318 21.9393 97.1091 22.3988 96.5805C22.6942 96.1743 22.9582 95.7445 23.1902 95.2909C23.5723 94.6726 23.9224 94.0256 24.3592 93.4491C24.6866 93.0197 25.128 92.6891 25.2187 92.094C25.2414 91.9755 25.3053 91.8768 25.3961 91.8057C25.7962 91.527 25.9968 91.0881 26.283 90.7147C26.9925 89.794 27.7159 88.8869 28.4573 87.999C28.6894 87.749 28.9395 87.5223 29.2076 87.3192C29.6123 86.9694 30.0898 86.7144 30.3719 86.2045C30.5993 85.7983 30.8767 85.8033 31.2587 86.0961C31.3454 86.1621 31.4181 86.2518 31.4954 86.3229C31.9775 86.7714 32.455 87.2199 32.9371 87.6639C33.5105 88.1411 34.056 88.6511 34.5747 89.1893C35.1661 89.9024 35.8844 90.493 36.6852 90.9319C36.7852 90.9793 36.8806 91.0453 36.9579 91.1259C37.0126 91.1682 37.0533 91.2201 37.0853 91.2862C37.1173 91.3476 37.1307 91.4187 37.1265 91.4893C37.1265 91.5603 37.1033 91.6263 37.0719 91.6878C37.0399 91.7493 36.9899 91.8012 36.9352 91.839C36.7125 92.0652 36.4712 92.2683 36.2123 92.4482C35.4209 92.925 34.7614 93.5957 34.288 94.4081C33.7972 95.2441 33.0464 95.7919 32.4462 96.4858C32.0415 96.9439 31.5954 97.3596 31.2046 97.8273C30.8132 98.2899 30.4038 98.8145 30.0264 99.3245C29.7583 99.6878 29.5216 100.075 29.2669 100.453C29.1168 100.675 28.9802 100.902 28.8209 101.119C28.7255 101.242 28.5301 101.336 28.512 101.459C28.3934 102.238 27.4885 102.654 27.6292 103.546C27.6292 103.598 27.5746 103.669 27.5339 103.726C27.2657 104.122 27.0017 104.524 26.729 104.911C26.3742 105.412 25.9782 105.88 25.8235 106.503C25.7828 106.659 25.7101 106.8 25.6147 106.928C25.064 107.655 24.7505 108.538 24.3452 109.337C24.1225 109.861 23.9317 110.399 23.7677 110.947C23.6497 111.273 23.5496 111.291 23.281 111.098C22.6762 110.664 22.0806 110.224 21.4753 109.809C21.1252 109.615 20.7843 109.398 20.4569 109.162C20.1929 108.921 19.8701 108.756 19.5241 108.69C19.2648 108.642 19.0101 108.538 18.7512 108.496C18.3779 108.425 18.5419 108.019 18.3465 107.849C18.1778 107.698 17.9917 107.565 17.7958 107.452C16.9043 106.952 15.9993 106.484 15.1171 105.969C13.7115 105.166 12.3198 104.335 10.9282 103.523C10.5502 103.287 10.1454 103.098 9.72263 102.961C9.39985 102.805 9.09047 102.63 8.79037 102.432C8.18504 102.144 7.5668 101.879 6.95268 101.619C6.33393 101.355 5.73375 101.175 5.16502 100.878C4.4055 100.496 3.74138 99.9337 3.22781 99.2348C2.76375 98.6018 2.4951 97.8368 2.45901 97.0386L2.45438 97.0431ZM108.108 16.4689C106.866 16.6531 105.606 16.5539 104.455 17.1584C104.369 17.182 104.278 17.1773 104.196 17.1396C103.828 17.0356 103.436 17.0687 103.086 17.2387C102.813 17.3426 102.536 17.4182 102.249 17.4654C101.544 17.4938 100.858 17.6826 100.23 18.018C99.8251 18.188 99.4112 18.3344 98.9882 18.4525C98.7244 18.5564 98.5015 18.8067 98.2423 18.8492C97.8283 18.9436 97.4372 19.1184 97.0915 19.3687C96.6776 19.6331 96.2365 19.8599 95.8044 20.096C95.6815 20.1526 95.5588 20.1952 95.4314 20.2329C95.4905 20.096 95.5451 19.9637 95.6042 19.8315C95.6633 19.6992 95.6997 19.6237 95.7407 19.5104C96.1182 18.5233 96.8004 17.763 97.4781 17.0026C97.9421 16.4784 98.4742 16.0155 98.9018 15.463C99.4112 14.8207 100.143 14.4618 100.707 13.8762C101.121 13.4653 101.563 13.078 102.017 12.7191C102.186 12.5821 102.363 12.4546 102.55 12.3413C103.191 11.9304 103.832 11.5337 104.473 11.1228C104.678 10.9906 104.869 10.8347 105.069 10.6978C105.779 10.2255 106.62 9.99881 107.257 9.40845C107.307 9.36123 107.375 9.3376 107.43 9.29985C107.58 9.18178 107.68 9.2479 107.739 9.39429C107.967 9.8949 108.139 10.4144 108.253 10.9575C108.303 11.4014 108.521 11.8454 108.349 12.3129C108.326 12.3743 108.394 12.483 108.431 12.5679C108.699 13.2103 108.972 13.8573 109.24 14.5232C109.277 14.6082 109.34 14.731 109.308 14.7782C109.099 15.0993 109.308 15.3402 109.372 15.6236C109.422 15.8455 109.422 16.0722 109.458 16.2942C109.513 16.6153 109.327 16.6437 109.104 16.6153C108.781 16.5256 108.449 16.4831 108.112 16.4784L108.108 16.4689ZM35.5482 15.4252C35.6163 15.2599 35.6617 15.0805 35.6797 14.901C35.6843 14.6223 35.7483 14.3484 35.8571 14.0981C35.971 13.8431 36.1257 13.6164 36.3258 13.4322C36.4939 13.2669 36.6986 13.1441 36.9172 13.0733C37.14 13.0024 37.372 12.9836 37.604 13.0213C37.9768 13.0922 38.3316 13.2292 38.6543 13.4275C38.8276 13.5267 38.9637 13.6731 39.055 13.8525C39.2777 14.2493 39.4551 14.6696 39.6779 15.0757C39.8191 15.3544 40.1326 15.6236 40.11 15.8833C40.0919 16.1383 39.7779 16.4123 39.5598 16.6295C39.4051 16.7523 39.2324 16.8562 39.0503 16.9317C38.873 17.0121 38.709 17.1112 38.5502 17.234C37.9495 17.8102 37.372 18.41 36.7759 18.9909C36.6212 19.1278 36.4578 19.2459 36.2804 19.3498C36.0891 19.4726 35.8664 19.3923 35.853 19.2034C35.8071 18.6792 35.4709 18.2352 35.5982 17.6591C35.689 17.2104 35.7344 16.7476 35.7344 16.2895C35.7029 15.9967 35.6436 15.7086 35.5523 15.4299L35.5482 15.4252ZM51.3537 56.4893C51.8404 56.5221 52.3313 56.5886 52.818 56.5835C53.5729 56.5835 54.3283 56.4893 55.0785 56.4656C55.3926 56.4656 55.7246 56.5412 56.0474 56.5271C56.3655 56.513 56.6662 56.3759 56.957 56.3946C57.0524 56.4092 57.1483 56.4041 57.239 56.3805C57.3298 56.3568 57.4164 56.3144 57.4984 56.258C57.6938 56.1114 57.9258 56.0171 58.1671 55.9839C58.854 55.9037 59.5042 55.6392 60.0636 55.2189C60.573 54.907 61.1005 54.6333 61.6466 54.4065C61.792 54.3546 61.924 54.2695 62.0328 54.1561C62.5969 53.4148 63.1063 52.6307 63.5611 51.8093C63.8978 51.1053 64.1025 50.3355 64.1572 49.5516C64.1706 48.8573 64.0618 48.1678 63.8297 47.5161C63.4477 46.3023 62.6923 45.2964 61.9327 44.3094C61.7647 44.0638 61.5326 43.8749 61.2599 43.7662C60.2317 43.4782 59.2494 42.9681 58.1532 42.9539C57.4618 42.9256 56.775 43.0673 56.1474 43.3601C55.4013 43.7048 54.6918 44.1346 54.0416 44.6494C52.8681 44.9705 51.7672 45.679 50.4529 45.1122C49.8707 44.8714 49.2339 44.8052 48.6198 44.928C48.0016 45.0366 47.3782 45.0508 46.778 45.1547C46.4913 45.2019 46.2139 45.3011 45.9592 45.4428C45.3358 45.764 44.7583 46.137 44.1669 46.5054C43.9942 46.6141 43.8488 46.7605 43.7441 46.9399C43.412 47.4499 43.1393 47.9931 42.9345 48.5692C42.8206 49.1124 42.7938 49.6696 42.8618 50.2175C42.8979 50.6094 43.0072 50.9919 43.1893 51.3416C43.5394 52.0355 43.9307 52.7113 44.3535 53.3579C44.631 53.755 45.0043 54.0619 45.4364 54.2554C45.7225 54.4207 45.9958 54.6142 46.2459 54.8364C46.8688 55.3131 47.4875 55.8045 48.3063 55.9179C48.7291 55.9511 49.1385 56.0736 49.5206 56.2671C50.1255 56.6072 50.7442 56.4611 51.3578 56.4939L51.3537 56.4893ZM58.0805 45.5467C58.5126 45.4759 58.954 45.5751 59.3221 45.8206C59.5722 45.9717 59.8409 46.0898 60.1183 46.1701C60.3364 46.2551 60.5364 46.3873 60.7004 46.5668C60.8597 46.7463 60.9825 46.9541 61.0505 47.1855C61.2279 47.79 61.4599 48.352 61.692 48.9282C61.7466 49.1029 61.7647 49.2871 61.7554 49.4713C61.7781 50.6331 61.0686 51.3744 60.341 52.097C60.2637 52.1822 60.1636 52.2386 60.0497 52.2527C59.7135 52.3001 59.4129 52.4795 59.2041 52.7582C59.0628 52.9048 58.8993 53.0227 58.7173 53.1079C57.7351 53.5282 56.6749 53.7408 55.6107 53.7313C54.9239 53.7832 54.2463 53.8729 53.5729 54.0004C53.4229 54.0382 53.2728 54.0664 53.1181 54.0855C52.4767 54.0855 51.8311 54.0664 51.1897 54.0477C51.0804 54.0336 50.9716 54.0099 50.8623 53.9721C50.2435 53.8447 49.598 53.7217 48.9699 53.5801C48.7291 53.5378 48.5018 53.4481 48.2924 53.3155C47.6829 52.8952 47.1188 52.4089 46.614 51.8612C46.1412 51.3366 45.9546 50.6613 45.6045 50.0758C45.4771 49.7547 45.4498 49.4004 45.5225 49.0604C45.5452 48.8762 45.7911 48.7393 45.9319 48.5598C45.9772 48.5079 46.0092 48.4512 46.0546 48.3992C46.382 48.012 46.828 47.7428 47.3148 47.6389C48.3244 47.4216 49.3386 47.483 50.3482 47.4405C51.5264 47.3886 52.7041 47.3933 53.7962 46.8455C53.8689 46.8077 53.9736 46.8218 54.055 46.7935C54.7104 46.5337 55.4287 46.3732 56.0067 45.9812C56.5161 45.6601 56.9389 45.4145 57.5438 45.5798C57.7211 45.5987 57.9031 45.5892 58.0759 45.5467H58.0805ZM62.3561 23.331C62.0648 23.3499 61.7827 23.4349 61.528 23.5813C61.2733 23.7278 61.0552 23.9308 60.8865 24.1764C60.373 24.8187 59.9223 25.5366 59.4315 26.2119C58.9493 26.84 58.626 27.5862 58.4987 28.3796C58.4533 28.5355 58.3852 28.6819 58.3033 28.8188C58.1898 29.088 58.0852 29.3619 57.9758 29.6311C57.9305 29.7398 57.9078 29.8909 57.8351 29.9523C57.3891 30.2309 57.4164 30.7268 57.271 31.1519C57.089 31.695 56.8162 32.205 56.5929 32.7292C56.3702 33.2582 56.1748 33.7494 55.9701 34.2594C55.9108 34.4153 55.8561 34.5569 56.0294 34.6892C56.052 34.7034 56.0067 34.8828 55.9835 34.8828C55.7246 34.9111 55.7793 35.119 55.738 35.2889C55.5333 36.0871 55.1925 36.8711 55.1332 37.6739C55.0651 38.6185 54.7965 39.5583 55.0151 40.5312C55.1425 41.1026 55.324 41.3955 55.8974 41.4994C56.052 41.5088 56.2109 41.5324 56.3614 41.556C56.5249 41.6032 56.6976 41.5938 56.8523 41.5277C57.007 41.4568 57.1343 41.3388 57.2163 41.1876C57.2844 41.0979 57.3437 41.0034 57.3983 40.8996C57.7031 40.1722 58.1212 39.5063 58.64 38.9254C59.2314 38.2784 59.5134 37.4284 59.9363 36.668C60.0136 36.4743 60.127 36.3043 60.2683 36.1627C60.7824 35.7896 60.8597 35.1567 61.1506 34.6561C61.1825 34.6042 61.1506 34.4814 61.1005 34.4105C61.0232 34.2689 61.0598 34.1744 61.2006 34.1839C61.446 34.2028 61.528 34.028 61.5734 33.8627C61.792 33.1496 62.0601 32.4554 62.3695 31.78C62.4515 31.5675 62.5195 31.3455 62.5922 31.1377C62.7608 30.6324 62.9382 30.1365 63.0929 29.6311C63.211 29.2344 63.3064 28.833 63.4023 28.4268C63.5111 27.9215 63.6297 27.4209 63.6931 26.9108C63.7885 26.2214 63.8478 25.5224 63.8705 24.8234C63.8478 24.422 63.675 24.0441 63.393 23.7703C63.111 23.4916 62.7382 23.3405 62.3468 23.3405L62.3561 23.331ZM71.9122 19.5906C71.9122 18.6603 71.6348 17.7488 71.1114 16.9932C70.984 16.8326 70.8747 16.6578 70.784 16.4736C70.4065 15.6047 69.6104 15.378 68.8602 15.1088C68.6142 15.071 68.3688 15.1088 68.1414 15.2127C68.0821 15.2269 68.0233 15.2504 67.9733 15.2882C67.9233 15.326 67.8774 15.3733 67.8459 15.4299C67.814 15.4866 67.7913 15.548 67.782 15.6094C67.7732 15.6708 67.782 15.7369 67.7959 15.7983C67.7959 15.8361 67.7 15.9447 67.6459 15.9494C67.4592 15.9494 67.2499 15.973 67.2679 16.2281C67.2679 16.4312 67.3411 16.6248 67.468 16.7712C67.7186 16.9601 67.9001 17.3001 68.3095 17.2576C68.4007 17.267 68.4827 17.2954 68.5601 17.3426C68.6328 17.3899 68.7008 17.4512 68.7555 17.5268C69.0876 17.9566 69.3603 18.4383 69.7104 18.8492C70.1291 19.3451 70.6066 19.7984 71.0614 20.2613C71.1253 20.3274 71.2027 20.3746 71.2888 20.4029C71.6662 20.521 71.8802 20.3605 71.9075 19.9449C71.9163 19.8315 71.9075 19.7134 71.9075 19.5954L71.9122 19.5906ZM114.862 76.5374C114.826 76.7592 114.78 76.9809 114.757 77.2077C114.739 77.4108 114.739 77.6189 114.757 77.822C114.771 77.8643 114.794 77.9021 114.821 77.9354C114.853 77.9681 114.889 77.9918 114.93 78.0014C114.98 78.0014 115.089 77.9162 115.108 77.8502C115.289 77.2031 115.467 76.5228 115.631 75.8526C115.681 75.654 115.631 75.4933 115.39 75.4555C115.007 75.4036 114.912 75.4555 114.862 75.7815C114.826 76.032 114.821 76.287 114.798 76.5374H114.857H114.862Z" fill="#151413"/>
</g>
<defs>
<clipPath id="clip0_60_673">
<rect width="132" height="128" fill="white" transform="matrix(-1 0 0 1 132 0)"/>
</clipPath>
</defs>
</svg>
