<svg width="118" height="135" viewBox="0 0 118 135" fill="none" xmlns="http://www.w3.org/2000/svg">
<path d="M71.4948 24.886L63.8891 22.5177H68.188L72.1561 18.1197L76.1243 6.27899C76.1243 6.27899 77.4471 0.866068 76.7856 0.189452C76.1243 -0.487163 73.1482 0.866068 73.1482 0.866068L69.5108 1.88099L61.2436 6.27899L50.9925 17.1049L48.347 21.8412L47.355 20.1497L43.7175 13.0452L41.072 11.6919L38.0959 20.1497L39.7494 21.8412L46.363 26.2392L36.7732 23.871L29.8289 22.856L32.1436 16.0899L31.1516 14.3984L28.8368 15.075L26.5221 18.1197L24.8687 16.7665L22.2232 13.0452L20.239 12.7068L19.5777 13.7217L21.8926 18.1197L21.2311 18.7964L16.6016 16.0899L15.6095 16.7665L18.9164 21.1645H12.9641L13.9561 23.871L17.2629 26.2392L6.01976 35.0351L0.72885 42.4779C0.72885 42.4779 -0.263196 44.1699 0.0674861 45.1844C0.398167 46.1988 2.71295 46.5376 2.71295 46.5376L13.9561 47.8909L26.8527 46.5376L31.1516 45.1844L29.8289 50.9356L28.8368 63.453L31.8129 74.6171L35.7812 83.4131L40.4107 88.8261L33.7971 97.2837L29.8289 91.8709L24.8687 89.1644L21.5618 89.8409L20.5698 92.8857L21.5618 98.637L27.1834 104.727L34.4584 112.169H37.7652L39.4186 107.771L45.3709 100.328L50.6618 94.5774L60.913 96.2689L71.1642 93.5624L77.1164 89.8409L82.7379 93.5624L87.3676 97.9604L89.6823 103.373L91.9971 105.403L94.9733 103.712L106.878 94.9156L110.515 88.8261L110.185 84.0898L106.216 82.3982L101.256 83.0748L95.6346 89.8409L94.9733 93.5624L90.6744 85.7813L85.0527 80.7066L86.3755 78.0003L90.0129 68.5276L91.005 61.7615V52.9654L99.9334 40.4481L104.563 34.3585L107.87 32.3287L109.193 28.9456L109.854 27.5923L116.137 23.1944V21.5028H113.822H110.515L112.499 19.1347L113.822 17.1049L113.161 16.0899L110.846 17.1049L107.87 19.1347L107.208 18.1197L109.523 13.7217L108.531 12.3685L105.886 14.3984L103.24 18.458H102.248L101.256 16.0899L98.9414 15.075H97.288V17.1049L98.6107 20.1497L99.9334 24.886L98.9414 28.9456L92.9891 36.0501L89.021 40.4481H87.3676L85.7141 37.7416L81.0845 32.3287L78.4392 28.9456L71.4948 24.886Z" fill="#F5F3EA"/>
<path d="M28.4543 25.8945C28.4465 25.174 28.4779 24.4494 28.5448 23.7287C28.6471 23.0727 28.6785 22.3761 29.1036 21.8086C29.2216 21.6555 29.2885 21.4704 29.3003 21.2731C29.3278 20.3675 29.8394 19.7073 30.2879 18.9907C30.6342 18.4351 31.1025 17.9602 31.2952 17.3C31.3976 16.8973 31.4409 16.4787 31.4252 16.0601C31.4252 15.9554 31.3937 15.8507 31.3464 15.7581C31.2992 15.6656 31.2284 15.5851 31.1458 15.5246C31.0946 15.4763 31.0355 15.4361 30.9686 15.4119C30.9018 15.3878 30.8349 15.3757 30.7641 15.3797C30.6932 15.3797 30.6224 15.3999 30.5634 15.432C30.5004 15.4642 30.4414 15.5085 30.3942 15.5608C29.9417 16.0037 29.3948 16.3258 28.9107 16.7243C28.8163 16.8088 28.7377 16.9094 28.6864 17.0222C28.2182 17.9602 27.7382 18.89 27.2935 19.8441C26.9 20.6815 26.5971 21.567 26.1525 22.3801C25.6055 23.3906 25.5111 24.5138 25.2356 25.5966C25.1963 25.8543 25.1727 26.1199 25.1648 26.3816C25.1294 26.6473 25.0625 26.913 25.0191 27.1667C25.0113 27.2632 24.9641 27.3518 24.8933 27.4161C24.8225 27.4805 24.732 27.5169 24.6336 27.5169C24.5313 27.537 24.429 27.5169 24.3345 27.4725C24.244 27.4242 24.1693 27.3477 24.126 27.2512C24.0118 26.9492 23.9096 26.6392 23.7916 26.3413C23.4453 25.4638 23.5594 24.6023 23.8506 23.7408C23.8938 23.6603 23.9135 23.5677 23.9174 23.4752C23.8309 22.815 24.2204 22.3278 24.4959 21.8005C24.5352 21.7362 24.5667 21.6676 24.5864 21.5912C24.7359 20.8143 25.1491 20.142 25.456 19.4295C25.5032 19.349 25.5268 19.2563 25.515 19.1638C25.5071 19.0712 25.4678 18.9827 25.4049 18.9141C25.0507 18.3828 24.6218 17.9238 24.2558 17.4046C23.8388 16.8048 23.4217 16.2009 23.036 15.5811C22.6465 14.9611 22.1075 14.3653 21.6588 13.7493C21.4385 13.4434 21.108 13.3146 20.8208 13.1133C20.7932 13.0891 20.7578 13.073 20.7185 13.065C20.679 13.057 20.6436 13.065 20.6082 13.0771C20.5728 13.0891 20.5414 13.1133 20.5178 13.1455C20.4942 13.1778 20.4784 13.214 20.4745 13.2502C20.4194 13.4474 20.4194 13.6528 20.4745 13.8459C20.6554 14.325 20.8994 14.7678 21.0884 15.2429C21.348 15.9112 21.706 16.5229 21.95 17.2113C22.1232 17.6462 22.3238 18.0729 22.556 18.4794C22.7685 18.8819 22.7961 19.349 23.0794 19.7354C23.3036 20.0494 22.8905 20.6009 22.4577 20.6049C22.3081 20.6049 22.1547 20.5727 22.0169 20.5123C21.6745 20.3755 21.3322 20.2466 21.0056 20.0696C20.8719 19.9688 20.75 19.8521 20.6397 19.7274C19.9078 19.1034 19.1839 18.4633 18.4284 17.8594C18.0387 17.5495 17.5902 17.3281 17.1732 17.0463C17.0827 16.986 16.996 16.9174 16.9134 16.845C16.7954 16.7404 16.6419 16.684 16.4846 16.6881C16.3271 16.6881 16.1737 16.7524 16.0596 16.8611C15.9219 16.9819 15.7999 17.1268 16.0596 17.2556C16.1068 17.2879 16.1501 17.3281 16.1776 17.3764C16.9764 18.411 17.9208 19.3126 18.9831 20.0575C19.1367 20.1983 19.2822 20.3514 19.4161 20.5163L20.376 21.4584C20.506 21.563 20.6279 21.6877 20.7303 21.8207C21.0096 22.2594 20.923 22.4648 20.4273 22.6217C20.2266 22.7265 20.018 22.8069 19.7977 22.8592C18.991 22.8955 18.1765 23.0162 17.4172 22.5613C17.0827 22.3923 16.7325 22.2514 16.3743 22.1387C16.3271 22.1105 16.2681 22.0984 16.213 22.1065C15.7133 22.2996 15.2057 22.0542 14.702 22.1387C14.5919 22.1628 14.4778 22.1427 14.3794 22.0864C14.108 21.8931 13.9151 22.1065 13.7184 22.2151C13.616 22.2755 13.4154 22.4205 13.6593 22.5815C13.8128 23.3262 14.3597 23.7892 14.887 24.2279C15.493 24.7311 16.1698 25.1458 16.8898 25.4557C17.3344 25.6489 17.7516 25.5604 18.1923 25.5443C18.3417 25.5443 18.4874 25.4799 18.6369 25.484C18.7786 25.4759 18.9163 25.5162 19.0303 25.6007C19.1445 25.6852 19.2311 25.806 19.2704 25.9428C19.4397 26.4823 19.6914 26.9935 20.018 27.4564C20.1204 27.6296 20.1636 27.8348 20.1361 28.0361C20.1086 28.2374 20.014 28.4225 19.8685 28.5595C19.7426 28.6762 19.5813 28.7446 19.4121 28.7567C19.2429 28.7687 19.0737 28.7245 18.9359 28.6279C18.6762 28.3904 18.4402 28.1246 18.2277 27.843C17.9679 27.5129 17.9365 27.4765 17.6099 27.7221C17.3777 27.8711 17.1181 27.9717 16.8505 28.0281C16.3586 28.1892 15.8904 28.4105 15.4497 28.6883C15.0563 28.9298 14.7297 29.2841 14.3479 29.5497C14.1434 29.6786 13.919 29.7751 13.6868 29.8395C13.443 29.9322 13.2186 30.069 13.0258 30.2462C12.7662 30.4635 12.5379 30.854 12.0854 30.6447C12.05 30.6286 11.9005 30.7493 11.8965 30.8097C11.8769 31.2243 11.566 31.3975 11.2827 31.5383C10.9797 31.6914 10.7161 31.9087 10.5036 32.1744C10.3069 32.432 10.0511 32.6334 9.75599 32.7621C9.56712 32.8748 9.39793 33.0238 9.25626 33.1969C8.81556 33.6115 8.37487 34.0222 7.95384 34.4408C7.32821 35.0205 6.74978 35.6484 6.22645 36.3247C5.74246 36.997 5.19946 37.621 4.6053 38.1886C4.19608 38.571 4.00327 39.1105 3.58617 39.4889C3.21237 39.8834 2.86217 40.3061 2.54345 40.7528C1.92174 41.5057 1.29611 42.2585 0.666532 43.0072C0.59964 43.0636 0.524879 43.1078 0.442247 43.14C0.426508 43.0394 0.375355 42.9227 0.406833 42.8421C0.745229 42.0169 1.08756 41.1917 1.44956 40.3785C1.65024 39.9438 1.88239 39.5251 2.13423 39.1226C2.80708 38.0316 3.43666 36.9205 4.3338 35.9866C4.64465 35.6605 4.85712 35.2459 5.14437 34.8957C5.49063 34.473 5.85657 34.0705 6.23432 33.676C6.69863 33.1929 7.18654 32.7259 7.67447 32.2629C7.87514 32.0698 8.19386 31.941 8.2883 31.7115C8.40241 31.4216 8.79195 31.4458 8.8077 31.1076C8.8077 31.0674 8.92968 31.0392 8.99263 31.003C9.13429 30.9507 9.26414 30.8701 9.37431 30.7735C9.94486 30.061 10.8263 29.7671 11.4598 29.1753C11.9674 28.7325 12.5379 28.3743 13.1518 28.1085C13.616 27.851 14.0608 27.5531 14.4739 27.219C14.7493 26.9854 15.0759 26.8245 15.4261 26.7559C15.5205 26.7519 15.6071 26.7238 15.6857 26.6714C15.8471 26.5547 15.9927 26.4057 16.1462 26.285C15.9887 26.1522 15.8235 26.0314 15.6543 25.9227C14.8044 25.496 14.0331 24.9123 13.3918 24.1957C13.3288 24.1233 13.2619 24.0588 13.1872 24.0025C12.5891 23.5677 12.3648 22.8914 12.2625 22.2272C12.1405 21.4141 12.6442 20.6411 13.5846 20.4681C14.1512 20.3634 14.7138 20.2023 15.3001 20.2909C15.3907 20.315 15.4891 20.315 15.5795 20.2909C16.0754 20.1138 16.5396 20.2909 17.0078 20.4198C17.1535 20.464 17.3344 20.6451 17.4604 20.4399C17.5902 20.2345 17.3108 20.1742 17.2164 20.0776C16.7758 19.5623 16.2996 19.0752 15.8039 18.6162C15.3119 18.1895 15.1231 17.6018 14.8595 17.0544C14.6784 16.68 14.9106 16.2574 15.3355 16.0238C15.552 15.9112 15.7567 15.7863 15.9691 15.6656C16.3114 15.4562 16.7246 15.3958 17.1102 15.4924C17.5666 15.6294 18.0073 15.8346 18.452 16.0118C18.4835 16.0319 18.5228 16.048 18.5582 16.0601C18.7786 16.0842 18.6919 16.4626 18.9399 16.4304C19.1878 16.3982 19.3097 16.5672 19.4869 16.6559C19.9314 16.9013 20.3288 17.2153 20.6672 17.5978C20.7578 17.6904 20.8483 17.791 20.9427 17.8836C20.982 17.9077 21.0253 17.9238 21.0726 17.9359C21.0805 17.8997 21.0805 17.8594 21.0726 17.8232C20.9938 17.6018 20.8798 17.3925 20.7382 17.2033C20.3721 16.68 20.0376 16.1365 19.7387 15.569C19.6049 15.3435 19.479 15.118 19.353 14.8887C19.2822 14.7759 19.2311 14.6551 19.2035 14.5222C19.1249 14.0352 19.0777 13.5441 19.058 13.0529C19.058 12.4451 19.4436 12.0949 19.9157 11.797C20.8208 11.2173 21.5723 11.64 22.2963 12.1714C22.7331 12.4894 23.1226 12.8718 23.5318 13.2382L23.8978 13.8339C23.9332 13.9185 23.9804 14.003 24.0354 14.0754C24.362 14.4136 24.6965 14.7356 25.0231 15.0697C25.4127 15.4683 25.5307 16.0037 25.7236 16.5028C25.8416 16.8209 25.9793 17.1308 26.1328 17.4328C26.1997 17.5615 26.3255 17.5978 26.4279 17.4167C26.6875 16.9417 26.9708 16.4626 27.2738 16.0077C27.5218 15.6414 27.868 15.3475 28.057 14.941C28.1396 14.8081 28.2654 14.7155 28.415 14.6753C28.7298 14.5626 29.0169 14.3733 29.2413 14.1157C29.3475 14.007 29.4735 13.9225 29.6111 13.8702C30.1542 13.6608 30.7484 13.6326 31.311 13.7856C31.6651 13.8782 31.9838 14.0714 32.2357 14.3411C32.4875 14.6109 32.6606 14.949 32.7315 15.3153C32.9164 16.2453 32.8574 17.2033 32.5662 18.105C32.3773 18.6445 32.1216 19.1557 31.8107 19.6307C31.5314 20.0454 31.3346 20.5123 31.2441 21.0074C31.1733 21.3819 31.0592 21.7442 30.8939 22.0864C30.8506 22.1588 30.8388 22.2433 30.8546 22.3238C30.8703 22.4084 30.9175 22.4809 30.9844 22.5292C31.0868 22.666 31.2323 22.7586 31.3937 22.7908C31.5589 22.823 31.7281 22.7908 31.8697 22.7062C32.0507 22.6056 32.2514 22.5573 32.4521 22.5573C32.6527 22.5573 32.8338 22.7426 33.0265 22.7586C33.2194 22.7747 33.4122 22.6458 33.6089 22.6458C33.8332 22.6619 34.0536 22.6982 34.27 22.7466C35.6314 22.9438 36.9968 23.1209 38.3543 23.3463C38.8383 23.4591 39.3144 23.5999 39.7827 23.7731C40.07 23.8576 40.3571 23.93 40.6404 24.0065C40.7152 24.0145 40.79 24.0347 40.8569 24.0588C41.2818 24.3044 41.7738 24.3245 42.2301 24.4695C42.3481 24.5178 42.4584 24.5822 42.5646 24.6546C42.6433 24.7029 42.7141 24.7835 42.7968 24.7956C43.088 24.8238 43.3673 24.9203 43.6152 25.0773C43.6467 25.1014 43.7135 25.0773 43.7648 25.0773C43.753 25.0451 43.7333 25.0089 43.7096 24.9767C43.5365 24.7795 43.3437 24.6023 43.1352 24.4454C42.4387 23.9823 41.7146 23.5597 40.967 23.1853C40.4477 22.9679 39.9479 22.7183 39.4601 22.4366C39.3301 22.3761 39.22 22.2836 39.1492 22.1588C39.0745 22.038 39.035 21.8931 39.0389 21.7522C39.0587 21.6073 39.1217 21.4704 39.2239 21.3698C39.3262 21.2651 39.4561 21.1967 39.5977 21.1766C39.8771 21.1122 40.1723 20.9953 40.4674 21.1444C40.4831 21.1444 40.5067 21.1725 40.5185 21.1645C41.3644 20.9752 41.8957 21.6073 42.5371 21.9615C42.9423 22.183 43.3437 22.4125 43.7373 22.6539C44.0599 22.823 44.3667 23.0242 44.6461 23.2658C45.201 23.8133 45.8935 24.24 46.2083 25.0008C46.2201 25.0451 46.2397 25.0893 46.2712 25.1257C46.2987 25.1619 46.3341 25.1901 46.3774 25.2102C46.4169 25.2303 46.4641 25.2424 46.5113 25.2424C46.5545 25.2424 46.6017 25.2343 46.645 25.2182C46.8733 25.1458 47.1527 25.1176 47.1959 24.8197C47.2667 24.3366 47.074 23.8335 47.2589 23.3503C47.2589 23.3302 47.2589 23.3141 47.251 23.298C47.2431 23.2819 47.2313 23.2658 47.2195 23.2578C46.9008 23.1209 46.9952 22.815 46.9598 22.5694C46.8929 22.0017 46.7435 21.4503 46.5191 20.931C46.3381 20.6009 46.2201 20.2386 46.1611 19.8642C46.106 19.4335 45.9564 19.0229 45.7242 18.6606C45.6259 18.4754 45.5512 18.2821 45.4961 18.0809C45.3111 17.5293 45.0633 16.998 44.7524 16.5109C44.3431 15.8587 43.9693 15.1784 43.5798 14.5222C43.5798 14.5061 43.5798 14.482 43.5601 14.4699C43.0367 13.7936 42.5292 13.1173 42.0098 12.4491C41.9586 12.3887 41.8603 12.3646 41.7856 12.3243C41.7777 12.3968 41.7698 12.4652 41.7541 12.5336C41.6556 12.8597 41.5691 13.1859 41.4472 13.5037C41.3487 13.7695 41.1874 14.007 41.093 14.2647C40.731 15.2025 40.4123 16.1607 40.0148 17.0785C39.6882 17.8313 39.4915 18.6485 38.9721 19.3168C38.8737 19.5019 38.8069 19.6992 38.7715 19.9044C38.7361 20.0253 38.6612 20.1299 38.559 20.2023C38.4567 20.2748 38.3346 20.307 38.2127 20.2949C37.9766 20.2949 37.9058 20.1259 37.8035 19.9125C37.5438 19.353 37.7838 18.8337 37.831 18.2983C37.8625 17.8755 38.197 17.5454 38.1812 17.0946C38.1812 16.9779 38.2796 16.849 38.3425 16.7323C38.4449 16.531 38.6416 16.3378 38.6534 16.1325C38.6966 15.4924 39.0232 14.941 39.1295 14.321C39.22 14.0191 39.338 13.7212 39.4719 13.4353C39.6921 12.7792 39.9165 12.123 40.1015 11.4548C40.2313 10.9919 40.3375 10.541 40.7507 10.227C40.8687 10.1223 41.0182 10.0499 41.1756 10.0257C41.333 10.0016 41.4904 10.0257 41.636 10.0901C41.9665 10.2391 42.2813 10.4645 42.2105 10.9073C42.1594 11.2133 42.3678 11.326 42.5292 11.4588C42.8951 11.7165 43.2335 12.0143 43.5326 12.3485C43.9418 12.8637 44.418 13.3307 44.835 13.8499C45.2914 14.4256 45.7124 15.0335 46.1375 15.6374C46.2319 15.7782 46.2909 15.9393 46.3105 16.1083C46.3341 16.2815 46.1414 16.5471 46.5309 16.4948C46.6214 16.9337 47.0267 17.1831 47.1645 17.61C47.3179 18.097 47.5776 18.5478 47.7508 19.031C47.8963 19.4174 47.9986 19.8199 48.0536 20.2305C48.0813 20.4761 48.1757 20.3594 48.2465 20.3271C48.3409 20.2868 48.4236 20.2265 48.4944 20.15C48.5652 20.0736 48.6203 19.9849 48.6557 19.8883C49.0216 19.1074 49.4191 18.3426 49.8047 17.5696C49.8441 17.465 49.8873 17.3644 49.9385 17.2678C50.0763 17.0504 50.2297 16.837 50.3752 16.6237C50.4933 16.4545 50.6153 16.2855 50.7295 16.1083C50.7766 16.0037 50.8317 15.9071 50.8946 15.8145C51.6737 15.0456 52.0752 13.9788 52.925 13.2744C53.0076 13.21 53.0155 13.061 53.0666 12.9563C53.1887 12.6987 53.3775 12.4813 53.6097 12.3243C53.8222 12.1794 53.9284 11.8775 54.0937 11.6561C54.1921 11.5232 54.2983 11.3984 54.4085 11.2817C54.5973 11.0804 54.802 10.8912 54.9829 10.6819C55.0853 10.5249 55.1915 10.3719 55.3095 10.227C55.8643 9.73185 56.4389 9.26086 57.0015 8.77779C57.1157 8.67715 57.2179 8.56846 57.3241 8.4638C57.5839 8.19811 57.8239 7.87607 58.2056 7.71906C58.4535 7.5822 58.6738 7.40105 58.8588 7.18366C59.6339 6.3866 60.5311 5.72641 61.5187 5.23126C61.6603 5.17894 61.7863 5.08634 61.8807 4.96557C62.0775 4.6556 62.3764 4.4342 62.7266 4.34564C62.7818 4.33356 62.833 4.31343 62.8802 4.28123C63.3444 3.80622 63.9819 3.61299 64.5288 3.27886C65.0758 2.94071 65.6463 2.75957 66.1579 2.42544C66.6103 2.13157 67.2006 2.13157 67.5823 1.71292C67.6924 1.59216 67.9285 1.60825 68.1056 1.53177C68.7706 1.20972 69.471 0.95611 70.1911 0.783011C70.6239 0.690423 71.0488 0.557579 71.4935 0.489144C72.2254 0.376428 72.9612 0.287866 73.693 0.203328C73.9527 0.1832 74.2164 0.1832 74.4761 0.203328C74.5351 0.203328 74.5863 0.271763 74.6453 0.307994C74.6177 0.3563 74.5863 0.400582 74.5469 0.440838C74.484 0.485119 74.4211 0.521348 74.3501 0.549527C73.76 0.815215 73.1619 1.0648 72.5756 1.33451C71.6509 1.76123 70.734 2.20807 69.8094 2.63879C69.0696 2.98097 68.3141 3.28691 67.5823 3.65324C67.1691 3.81829 66.7796 4.04775 66.4333 4.33356C66.15 4.55094 65.8352 4.72404 65.5008 4.84079C65.2174 4.97363 64.8476 4.98973 64.6469 5.19101C64.1944 5.64993 63.5727 5.8512 63.132 6.31817C63.0336 6.43894 62.9155 6.53554 62.7818 6.60398C62.648 6.67241 62.4985 6.71268 62.3489 6.72073C62.2506 6.72073 62.0893 6.78916 62.1837 6.98642C62.1837 7.01056 62.0972 7.11523 62.042 7.13133C61.6918 7.21184 61.499 7.48558 61.259 7.71102C61.0229 7.93645 60.6766 8.07332 60.417 8.3229C60.0549 8.6691 59.6339 8.92674 59.2798 9.32124C58.9414 9.63926 58.5715 9.91703 58.1741 10.1545C58.0797 10.2189 57.993 10.2954 57.9144 10.38C57.5917 10.7745 57.2415 11.1408 56.8717 11.487C56.3758 11.8936 55.947 12.3767 55.5968 12.9241C55.526 13.061 55.4237 13.1738 55.2977 13.2623C54.857 13.4796 54.6524 13.8943 54.373 14.2647C53.952 14.8201 53.6411 15.4522 53.1336 15.9554C52.6613 16.4626 52.2246 17.0101 51.8312 17.5857C51.6619 17.8554 51.5085 18.1372 51.3746 18.4231C51.115 18.8739 50.8514 19.3168 50.6074 19.7716C50.3911 20.1621 50.2257 20.5928 49.9739 20.9591C49.5568 21.571 49.36 22.2916 48.9744 22.9116C48.7699 23.2457 48.8958 23.5355 48.9469 23.8415C48.9666 23.9582 49.0373 23.9421 49.1515 23.8898C49.4821 23.7327 49.8362 23.6241 50.1785 23.4832C50.2297 23.4631 50.2769 23.4108 50.328 23.4066C50.5248 23.4026 50.7136 23.3262 50.8671 23.1974C51.0166 23.0645 51.119 22.8874 51.1504 22.6861C51.174 22.5855 51.2763 22.509 51.351 22.4205C51.5242 22.2232 51.7012 22.0299 51.8705 21.8327C52.1027 21.5308 52.3623 21.245 52.6377 20.9873C52.8581 20.8102 53.0666 20.7217 53.1611 20.3916C53.2516 20.0615 53.6057 19.8964 53.8025 19.6226C54.1252 19.0913 54.5619 18.6405 55.0814 18.3104C55.3095 18.1815 55.463 17.9118 55.6597 17.7186C55.8014 17.5736 55.9548 17.4529 56.0965 17.304C56.2381 17.159 56.3561 17.0383 56.4821 16.9094C56.6041 16.7726 56.734 16.6438 56.8717 16.527C57.1196 16.3298 57.4383 16.1969 57.6193 15.9474C57.7333 15.7943 57.7215 15.5326 57.9694 15.4803C58.2213 15.428 58.3432 15.1422 58.5322 14.9772C58.717 14.8121 58.8784 14.627 59.0713 14.478C59.4411 14.2124 59.7047 13.7775 60.1848 13.6487C60.232 13.6487 60.2517 13.5481 60.291 13.4957C60.3303 13.4152 60.3815 13.3428 60.4445 13.2784C61.1056 12.7712 61.7666 12.2559 62.4434 11.7607C63.3169 11.1167 64.1905 10.4766 65.0916 9.87274C65.7684 9.41786 66.4884 9.02738 67.1967 8.61274C67.2911 8.55639 67.4367 8.45977 67.4997 8.496C67.8459 8.68923 67.9364 8.45977 68.082 8.21019C68.1568 8.07735 68.3417 8.00489 68.4834 7.92034C69.1484 7.53792 69.8173 7.15952 70.4901 6.78514C70.6514 6.68852 70.8207 6.60802 70.9937 6.5436C71.0804 6.51542 71.2535 6.52749 71.2731 6.57179C71.3085 6.68852 71.3085 6.81734 71.2731 6.93408C71.2535 6.97836 71.2299 7.01862 71.1945 7.05485C71.163 7.08706 71.1197 7.11523 71.0763 7.13536C70.439 7.35677 70.0572 7.93645 69.5143 8.27863C69.1366 8.50808 68.7628 8.74558 68.3928 8.98712C68.2709 9.06764 68.1489 9.16022 68.0347 9.25281C67.9443 9.32124 67.8538 9.38968 67.7751 9.46616C67.5823 9.63926 67.2045 9.32929 67.1495 9.61511C67.0983 9.83651 66.9645 10.0257 66.7757 10.1465C66.5946 10.3035 66.3624 10.4122 66.1657 10.541C65.8785 10.7423 65.5952 10.9516 65.3197 11.169C64.6233 11.7044 63.8993 12.2197 63.2343 12.8114C62.7148 13.2784 62.2073 13.7534 61.6524 14.176C61.4479 14.3331 61.3101 14.623 61.0859 14.8242C60.5625 15.2832 60.1101 15.8145 59.5985 16.2815C59.024 16.8128 58.6069 17.4811 57.9459 17.9238C57.6271 18.1735 57.3359 18.4593 57.0762 18.7733C57.0408 18.8095 57.0763 18.9101 57.0565 18.9786C57.0369 19.043 56.9975 19.1517 56.97 19.1477C56.5569 19.1356 56.4033 19.526 56.1477 19.7274C55.888 19.9246 55.766 20.3271 55.522 20.5767C55.278 20.8263 55.2151 21.1444 54.8334 21.2128C54.7035 21.2369 54.6248 21.5469 54.5265 21.7201C54.4478 21.8528 54.373 21.9856 54.2943 22.1226C54.44 22.0984 54.5855 22.0622 54.7312 22.0502C54.8334 22.0502 54.9357 22.0783 55.0419 22.0783C55.164 22.0823 55.2859 22.0783 55.408 22.0663C55.6282 22.038 55.8447 21.9977 56.0649 21.9615C56.3247 21.9213 56.6277 22.0259 56.8323 21.7643C57.3123 21.8086 57.761 21.4704 58.2646 21.6797C58.4653 21.7321 58.6738 21.7321 58.8706 21.6797C59.3073 21.6153 59.752 21.4141 60.173 21.4624C61.2157 21.5429 62.2348 21.4503 63.2618 21.4986C63.494 21.5107 63.7261 21.6354 63.9661 21.6636C64.7098 21.7482 65.43 21.9856 66.1854 22.0017C66.386 22.0017 66.575 21.9213 66.7205 21.7844C67.0392 21.5549 67.3815 21.3617 67.7397 21.2087C67.8617 21.1484 67.9679 21.0639 68.0505 20.9591C68.3141 20.621 68.6407 20.3392 69.0066 20.1219C69.109 20.0736 69.1956 19.993 69.2467 19.8883C69.4278 19.4536 69.8016 19.1839 70.077 18.8216C70.5373 18.3064 70.9426 17.7468 71.2928 17.1469C71.4778 16.7524 71.6823 16.3741 71.9066 16.0037C72.1349 15.6133 72.3276 15.2066 72.489 14.7839C72.6621 14.3894 72.9061 14.0231 73.0911 13.6286C73.2484 13.2865 73.3704 12.9241 73.5042 12.5618C73.516 12.5296 73.5042 12.4692 73.5042 12.4531C73.9291 12.1069 73.8387 11.5595 73.9999 11.1207C74.2085 10.5732 74.4289 10.0338 74.6099 9.48227C74.8303 8.91868 74.9876 8.32693 75.078 7.72711C75.1175 7.28028 75.3811 6.95824 75.4559 6.53958C75.5896 5.77471 75.7982 5.02596 75.991 4.27318C76.0736 3.95114 76.2074 3.64519 76.3844 3.37145C76.5065 3.17822 76.5458 3.17018 76.5891 3.37145C76.6874 3.73777 76.7464 4.11619 76.7701 4.49459C76.7898 5.23529 76.7898 5.97197 76.7426 6.70865C76.6992 7.2199 76.6245 7.72711 76.5104 8.22629C76.3097 9.19644 76.2232 10.1908 75.8966 11.1327C75.6368 11.8453 75.3732 12.5538 75.1136 13.2663C75.0112 13.532 74.9247 13.8057 74.8539 14.0835C74.7279 14.6149 74.3895 15.0335 74.1181 15.4803C73.9213 15.746 73.7915 16.056 73.7323 16.3861C73.6852 16.8852 73.3507 17.2274 73.0753 17.5978C72.8314 17.9077 72.6346 18.258 72.493 18.6283C72.3906 18.8739 72.2293 19.0873 72.0286 19.2603C71.8358 19.4456 71.6863 19.667 71.5879 19.9165C71.4739 20.2184 71.2653 20.4761 70.9937 20.6491C70.7065 20.8505 70.4626 21.1041 70.2658 21.398C70.1321 21.5469 69.9864 21.6877 69.833 21.8207C69.5733 22.0864 69.2939 22.3278 69.0499 22.6016C68.9909 22.666 68.9398 22.8391 68.9791 22.8874C69.0184 22.9357 69.2388 23.0403 69.2664 23.0041C69.6166 22.6861 69.8723 23.0928 70.1517 23.1491C70.6317 23.2859 71.0961 23.4712 71.5407 23.7046C71.8004 23.8254 72.0758 23.9703 72.3434 24.0951C72.4694 24.1756 72.6031 24.244 72.7368 24.3084C73.1934 24.4776 73.6576 24.6305 73.9999 25.0169C74.0787 25.0773 74.1653 25.1136 74.2597 25.1297C74.6059 25.2384 74.9719 25.2947 75.1962 25.665C75.3024 25.798 75.448 25.8945 75.6132 25.9308C76.3569 26.136 76.9157 26.6594 77.4902 27.1142C77.6633 27.231 77.8207 27.3638 77.9702 27.5129C78.2968 27.855 78.6706 28.1448 79.0838 28.3783C79.7528 28.8251 80.3625 29.3605 80.8899 29.9765C81.1496 30.2824 81.4526 30.5763 81.7161 30.8862C82.1648 31.4176 82.6408 31.9167 83.0934 32.4361C83.2744 32.6455 83.3845 32.9271 83.6954 32.9957C83.7387 33.0158 83.7741 33.044 83.8095 33.0762C83.841 33.1124 83.8646 33.1526 83.8803 33.1969C84.0889 33.8772 84.5925 34.3281 85.0293 34.8353C85.2025 35.0286 85.3322 35.258 85.403 35.5076C85.529 36.0228 85.9225 36.3247 86.2058 36.7274C86.6504 37.3472 87.036 38.0074 87.3508 38.7079C87.5476 39.0903 87.7759 39.4567 88.0315 39.8029C88.1143 39.9357 88.189 39.8512 88.2559 39.8029C88.5156 39.5895 88.7793 39.3882 89.0231 39.1588C89.1766 39.0259 89.3064 38.8649 89.4048 38.6837C89.5937 38.2611 89.8731 37.8907 90.2233 37.5968C90.428 37.4318 90.5814 37.2144 90.6679 36.9648C90.7467 36.7877 90.8765 36.6427 91.0417 36.5542C91.2857 36.3933 91.5061 36.1959 91.6949 35.9664C92.1475 35.5197 92.6156 35.093 93.072 34.6541C93.2295 34.5173 93.3672 34.3644 93.4892 34.1912C93.9102 33.4706 94.5319 32.9312 95.0947 32.3435C95.7477 31.6592 96.4009 30.9788 97.0462 30.2905C97.4988 29.8154 97.967 29.3525 98.3762 28.8412C98.6202 28.5394 98.8996 28.2133 98.7303 27.7302C98.7028 27.541 98.7303 27.3518 98.8131 27.1787C98.9979 26.5467 99.0255 25.8784 98.8917 25.2343C98.8524 24.9686 98.8406 24.6989 98.8524 24.4333C98.8681 23.6844 98.6989 22.9438 98.3565 22.2795C98.1677 21.8689 98.03 21.4342 97.9434 20.9873C97.8254 20.5445 97.6522 20.1178 97.4202 19.7193C97.0502 19.0028 96.5741 18.3345 96.4561 17.5012C96.3222 16.7162 96.334 15.9112 96.4954 15.1301C96.6252 14.5948 97.5381 13.7976 98.0732 13.7574C98.388 13.7373 98.7028 13.7856 99.0215 13.7936C99.2222 13.7936 99.4269 13.8379 99.6118 13.9225C99.7968 14.007 99.962 14.1318 100.096 14.2848C100.277 14.4417 100.481 14.5747 100.698 14.6753C100.855 14.7759 101.072 14.8362 101.154 14.9772C101.658 15.8346 102.457 16.4867 102.783 17.469C102.85 17.6824 102.96 17.6462 103.043 17.5052C103.173 17.296 103.283 17.0785 103.373 16.849C103.515 16.4867 103.633 16.1124 103.763 15.742C103.763 15.7219 103.763 15.7058 103.763 15.6897C103.763 15.5407 104.023 15.73 103.972 15.5165C103.972 15.4481 103.983 15.3797 104.011 15.3194C104.038 15.255 104.078 15.1985 104.129 15.1543C104.231 15.0456 104.357 14.9571 104.456 14.8403C104.554 14.7276 104.64 14.5545 104.751 14.4256C104.849 14.313 104.963 14.2164 105.089 14.1358C105.309 14.003 105.223 13.6447 105.506 13.5763C105.719 13.1093 106.171 12.8798 106.506 12.5417C106.817 12.2237 107.182 11.962 107.58 11.7728C107.82 11.6561 108.08 11.5917 108.343 11.5876C108.607 11.5796 108.87 11.6319 109.114 11.7366C109.567 11.9218 109.673 12.3726 110.035 12.59C110.102 12.6303 110.126 12.7993 110.122 12.908C110.102 13.4192 110.071 13.9306 110.031 14.4377C110.023 14.5545 109.988 14.6672 109.929 14.7638C109.41 15.4803 109.166 16.362 108.626 17.0665C108.382 17.3161 108.194 17.614 108.076 17.944C108.064 17.9964 108.06 18.0487 108.056 18.097C108.099 18.0728 108.143 18.0447 108.182 18.0085C108.508 17.6904 108.835 17.3764 109.158 17.0584C109.457 16.7565 109.835 16.5511 110.244 16.4666C110.291 16.4545 110.338 16.4264 110.374 16.3902C110.547 16.225 110.736 16.0761 110.94 15.9554C111.326 15.7742 111.727 15.6334 112.14 15.5246C112.51 15.4401 112.9 15.5045 113.23 15.6978C113.443 15.8104 113.647 15.9474 113.864 16.056C114.367 16.3217 114.482 16.676 114.277 17.2274C114.068 17.8152 113.73 18.3466 113.281 18.7733C112.758 19.2644 112.266 19.7757 111.767 20.2868C111.711 20.3433 111.707 20.4479 111.68 20.5324C111.751 20.5445 111.845 20.5928 111.9 20.5646C112.605 20.2104 113.344 20.315 114.092 20.319C114.651 20.3473 115.209 20.4198 115.756 20.5445C115.977 20.5968 116.181 20.6935 116.358 20.8344C116.536 20.9752 116.681 21.1524 116.787 21.3536C116.89 21.5549 116.953 21.7804 116.968 22.0058C116.984 22.2312 116.949 22.4648 116.866 22.678C116.657 23.2256 116.347 23.7247 115.945 24.1434C115.044 25.1217 113.946 25.7858 112.801 26.3896C112.227 26.6916 111.625 26.9251 111.046 27.227C110.732 27.384 110.46 27.6215 110.263 27.9194C110.236 27.9838 110.193 28.0442 110.138 28.0884C110.082 28.1327 110.019 28.1689 109.949 28.185C109.878 28.2012 109.807 28.2012 109.74 28.185C109.669 28.1689 109.606 28.1367 109.551 28.0924C109.441 27.9918 109.378 27.855 109.366 27.702C109.358 27.5531 109.406 27.4041 109.504 27.2914C109.697 27.082 109.909 26.8969 110.149 26.7439C110.751 26.3735 111.365 26.0273 111.975 25.6771C112.361 25.4638 112.774 25.2947 113.152 25.0692C113.962 24.5943 114.737 24.0628 115.268 23.2497C115.414 23.0122 115.548 22.7667 115.662 22.5171C115.662 22.497 115.627 22.4366 115.599 22.4084C115.394 22.1588 115.158 21.9977 114.816 22.1427C114.714 22.191 114.603 22.2071 114.489 22.191C113.97 22.0864 113.47 22.356 112.963 22.1628C112.892 22.1548 112.817 22.1709 112.75 22.2071C112.376 22.3761 112.01 22.5573 111.637 22.7183C111.452 22.8029 111.251 22.8633 111.046 22.8914C110.606 22.9357 110.161 22.9397 109.72 22.9639C109.602 22.9759 109.48 22.9961 109.366 23.0323C109.071 23.1209 108.784 23.1692 108.536 22.9156C108.418 22.8029 108.343 22.6499 108.323 22.4889C108.304 22.3238 108.335 22.1588 108.422 22.0178C108.493 21.8408 108.607 21.6837 108.756 21.567C109.213 21.2369 109.614 20.8384 109.953 20.3836C110.204 20.1259 110.48 19.8964 110.779 19.6992C111.684 18.9988 112.494 18.1775 113.191 17.2636C113.215 17.2314 113.23 17.1912 113.238 17.1469C113.246 17.1067 113.238 17.0624 113.23 17.0222C113.128 16.8893 112.982 16.7967 112.821 16.7645C112.66 16.7364 112.491 16.7685 112.349 16.8611C111.999 17.1107 111.652 17.3523 111.306 17.5857C110.629 18.0165 109.996 18.5237 109.421 19.0913C109.071 19.4536 108.638 19.7435 108.253 20.0776C107.93 20.3594 107.47 20.4681 107.045 20.6129C106.966 20.6491 106.883 20.6693 106.797 20.6733C106.71 20.6733 106.624 20.6612 106.545 20.629C106.466 20.5968 106.391 20.5526 106.332 20.4922C106.27 20.4318 106.218 20.3594 106.183 20.2788C106.108 20.1339 106.069 19.8481 106.152 19.7435C106.49 19.345 106.455 18.8055 106.71 18.3828C106.903 18.0648 106.946 17.6623 107.23 17.3805C107.304 17.308 107.277 17.1349 107.328 17.0222C107.698 16.2371 108.076 15.4522 108.453 14.6712C108.666 14.313 108.78 13.8984 108.78 13.4796C108.752 13.1012 108.587 13.0449 108.257 13.2382C107.914 13.4796 107.603 13.7695 107.336 14.0955C106.62 14.8282 106.179 15.7621 105.526 16.535C105.302 16.8007 105.176 17.159 104.963 17.4448C104.542 18.0125 104.09 18.5559 103.661 19.1155C103.59 19.1959 103.551 19.2925 103.543 19.4013C103.59 19.7555 103.669 20.1058 103.732 20.4681C103.763 20.6532 103.787 20.8384 103.822 21.0277C104.015 21.9575 104.105 22.9035 104.098 23.8536C104.101 24.5419 104.003 25.2223 103.806 25.8784C103.763 26.0032 103.688 26.1118 103.594 26.2005C103.444 26.3413 103.299 26.3011 103.279 26.0957C103.177 25.3913 103.13 24.6747 103.134 23.9622C103.165 23.3141 103.047 22.67 102.791 22.0743C102.531 21.4101 102.162 20.7861 102.032 20.0655C102.004 19.9769 101.961 19.8924 101.914 19.8119C101.748 19.4939 101.591 19.1758 101.422 18.8618C101.158 18.4392 100.93 17.9924 100.737 17.5293C100.54 16.9417 100.064 16.6679 99.6629 16.3016C99.5606 16.221 99.4544 16.1486 99.3442 16.0761C99.1632 15.9514 98.9901 15.8185 98.8209 15.6696C98.4471 15.3194 97.8883 15.4642 97.8175 15.9675C97.7743 16.3821 97.7861 16.8007 97.849 17.2073C97.8844 17.4529 98.1284 17.6542 98.0103 17.944C98.0103 17.944 98.0693 17.9843 98.093 18.0125C98.2464 18.1453 98.3919 18.2943 98.5258 18.4472C98.7541 18.7652 98.9665 19.0913 99.1751 19.4295C99.5095 19.9085 99.7494 20.452 99.8754 21.0277C99.8912 21.084 99.9108 21.1363 99.9384 21.1846C100.289 21.8649 100.363 22.6297 100.556 23.3584C100.615 23.6683 100.639 23.9823 100.635 24.2963C100.635 24.3326 100.599 24.3768 100.611 24.405C100.902 25.1579 100.544 25.8986 100.56 26.6513C100.584 27.545 100.171 28.33 99.6236 29.0304C99.2262 29.5336 98.8642 30.065 98.4393 30.54C98.27 30.7333 98.1481 30.9628 98.0811 31.2122C98.0182 31.4136 98.0024 31.7115 97.668 31.7477C97.5854 31.7598 97.5499 32.0134 97.4634 32.114C96.9282 32.7943 96.3852 33.4666 95.8422 34.1349C95.5078 34.5495 95.1733 34.9681 94.8271 35.3748C94.4415 35.8377 94.0479 36.2966 93.6387 36.7274C93.5207 36.8521 93.379 36.9044 93.3003 37.1058C93.2216 37.307 92.9855 37.4117 92.8164 37.5606C92.6471 37.7095 92.4937 37.8263 92.352 37.9712C92.23 38.1041 92.1239 38.253 92.0411 38.4141C91.872 38.736 91.5336 38.881 91.3407 39.191C91.0495 39.6499 90.6993 40.0645 90.298 40.4268C89.8259 40.8415 89.574 41.4694 89.0152 41.7995C88.9956 41.8278 88.9799 41.856 88.972 41.8881C88.9641 41.9203 88.9641 41.9525 88.972 41.9888C89.0035 42.174 89.0664 42.3551 89.157 42.5202C89.574 43.0998 89.692 43.7962 89.9164 44.4524C90.1368 45.1085 90.3334 45.7848 90.542 46.4531C90.6561 46.8154 90.7821 47.1696 90.904 47.5199C90.9158 47.5561 90.9473 47.5923 90.9473 47.6245C90.904 48.5906 91.451 49.4321 91.5257 50.3741C91.5375 50.4304 91.5572 50.4867 91.5808 50.535C91.6359 50.7082 91.7342 50.6799 91.8169 50.5712C92.1081 50.1768 92.3913 49.7742 92.6825 49.3838C92.7061 49.3516 92.7258 49.3233 92.7454 49.2871C92.8793 48.8765 93.1154 48.5061 93.4342 48.2203C93.9535 47.7574 94.1542 47.0328 94.7129 46.5939C94.772 46.5416 94.8113 46.4732 94.8231 46.3968C94.9608 45.7567 95.4803 45.3622 95.7832 44.8187C95.8934 44.6296 96.1216 44.5127 96.2436 44.3276C96.5033 43.9331 96.7354 43.5305 96.9833 43.1118C97.0816 42.9549 97.1604 42.7375 97.306 42.6489C97.6955 42.4154 97.8057 42.0008 98.0221 41.6466C98.152 41.4171 98.3054 41.2078 98.4904 41.0226C98.9547 40.5879 99.3324 40.0605 99.6039 39.4728C99.6354 39.3842 99.6826 39.2997 99.7376 39.2232C100.371 38.4262 101.009 37.625 101.642 36.8401C101.717 36.7556 101.784 36.6588 101.835 36.5582C102.142 35.9946 102.571 35.5116 103.086 35.1453C103.141 35.105 103.216 35.0326 103.208 34.9802C103.161 34.6098 103.381 34.4448 103.645 34.2596C103.779 34.1268 103.889 33.9697 103.96 33.7967C104.09 33.535 104.286 33.3137 104.526 33.1526C104.766 32.9916 105.042 32.8949 105.329 32.8748C105.624 32.8748 105.904 32.7501 106.108 32.5367C106.313 32.3435 106.533 32.1744 106.765 32.0215C107.635 31.3452 108.272 30.5158 108.414 29.3565C108.446 29.2237 108.493 29.0988 108.564 28.9862C108.646 28.809 108.741 28.5957 108.957 28.644C109.134 28.7003 109.284 28.817 109.386 28.9741C109.602 29.3726 109.685 29.8315 109.618 30.2824C109.547 31.1398 109.221 31.9571 108.685 32.6213C108.662 32.6535 108.642 32.6857 108.623 32.7179C108.552 32.8909 108.465 33.048 108.363 33.2009C108.233 33.3137 108.091 33.4063 107.942 33.4827C107.851 33.5431 107.717 33.6034 107.682 33.6921C107.501 34.2113 106.997 34.3119 106.62 34.5696C105.998 34.5213 105.526 35.1574 104.869 34.9761C104.806 34.956 104.696 35.0366 104.64 35.101C104.479 35.258 104.345 35.4472 104.243 35.6524C103.983 36.4053 103.413 36.9608 102.988 37.6089C102.905 37.7338 102.819 37.8585 102.728 37.9873C102.327 38.6837 101.863 39.3399 101.335 39.9397C101.194 40.1047 101.083 40.298 101.005 40.4993C100.832 40.922 100.584 41.3044 100.269 41.6305C100.139 41.7633 100.025 41.8962 99.9069 42.0451C99.7494 42.2263 99.6039 42.4194 99.4623 42.6168C98.9704 43.3615 98.5848 44.1867 97.9749 44.8549C97.7623 45.0925 97.6168 45.3904 97.4202 45.6561C97.2273 45.9218 97.0305 46.1029 96.8417 46.3364C96.7118 46.4732 96.6016 46.6303 96.5112 46.7993C96.0822 47.7735 95.3818 48.5504 94.7365 49.3636C94.5437 49.6011 94.3666 49.8587 94.2132 50.1285C94.0361 50.4022 93.8709 50.6839 93.7252 50.9778C93.5836 51.328 93.2334 51.5817 92.9816 51.8876C92.84 52.0365 92.7218 52.2097 92.6353 52.3989C92.5684 52.6565 92.4149 52.882 92.2025 53.0308C92.1081 53.0954 92.0333 53.1919 91.9979 53.3046C91.9625 53.4173 91.9625 53.5341 91.9979 53.6468C92.2104 54.4922 92.0333 55.3617 92.1514 56.2071C92.2733 57.0524 92.1907 57.8777 92.3008 58.7029C92.3284 59.0089 92.3284 59.3148 92.3008 59.6208C92.2615 60.3212 92.2143 61.0136 92.1593 61.7141C92.0924 62.6036 92.0175 63.4893 91.9467 64.383C91.9546 64.4555 91.9546 64.5319 91.9467 64.6084C91.8799 64.9103 91.5729 65.1116 91.7303 65.5343C91.8366 65.8 91.687 66.2066 91.6162 66.5367C91.5454 66.8708 91.4076 67.2291 91.3211 67.5753C91.2109 67.9738 91.1205 68.3803 91.0613 68.791C90.9551 69.6444 90.6482 70.4334 90.4081 71.2506C90.361 71.3553 90.3256 71.4639 90.298 71.5727C90.2272 72.3255 89.877 72.9937 89.696 73.7062C89.6881 73.7626 89.6684 73.8189 89.637 73.8632C89.2278 74.3503 89.1137 74.9824 88.854 75.5418C88.6887 75.9041 88.5943 76.2947 88.4409 76.661C88.0394 77.5989 87.5633 78.5007 87.0164 79.358C86.7212 79.8412 86.438 80.3323 86.139 80.8154C86.0444 80.9643 86.0326 81.057 86.2294 81.0811C86.615 81.1656 86.9652 81.3869 87.2053 81.709C87.3547 81.85 87.5162 81.9828 87.6853 82.0996C87.8703 82.2525 88.0473 82.4175 88.2323 82.5705C88.3463 82.6671 88.4723 82.7516 88.5943 82.8362C88.8147 82.9771 89.0231 83.1382 89.212 83.3233C89.4403 83.6494 89.7471 83.911 90.0973 84.0801C90.2154 84.1243 90.2862 84.3055 90.3767 84.4303C90.5499 84.6759 90.7072 84.9376 90.8961 85.163C91.3014 85.63 91.7697 86.0486 92.1435 86.5478C92.84 87.5058 93.4263 88.5444 93.8945 89.6435C94.3706 90.7102 94.7799 91.8132 95.1969 92.9081C95.2953 93.1779 95.3661 93.4517 95.4211 93.7335C95.4211 93.7697 95.4133 93.8059 95.3975 93.8381C95.3818 93.8703 95.3582 93.8985 95.3267 93.9186C95.2953 93.9186 95.2599 93.9186 95.2284 93.9065C95.1969 93.8944 95.1694 93.8743 95.1458 93.8461C94.4375 93.0008 93.8119 92.083 93.2846 91.1047C93.1233 90.8471 92.9422 90.6015 92.7495 90.3721C92.3834 89.8688 92.0215 89.3657 91.6516 88.8584C91.3407 88.3955 91.0063 87.9527 90.6521 87.5259C90.1171 86.9262 89.6842 86.2258 89.0624 85.7024C88.6454 85.3562 88.2401 84.9979 87.8309 84.6356C87.701 84.527 87.5791 84.4102 87.4611 84.2854C86.9259 83.7057 86.3986 83.114 85.8635 82.5343C85.8124 82.49 85.7534 82.4458 85.6942 82.4094C85.3087 82.1318 85.289 82.1157 85.0647 82.4981C84.8877 82.7073 84.7461 82.9449 84.6476 83.2026C84.5847 83.4683 84.2659 83.6333 84.0771 83.8708C83.5537 84.531 83.1288 85.2918 82.4678 85.8432C82.2749 86.0486 82.1018 86.2741 81.9444 86.5115C81.6611 86.8376 81.3659 87.1516 81.059 87.4535C80.579 87.9286 80.0833 88.3834 79.5953 88.8504C79.308 89.1161 79.0208 89.3858 78.7494 89.6837C78.5408 89.9131 78.5801 90.0299 78.8713 90.0179C78.9539 90.0179 79.0365 90.0339 79.1114 90.0702C79.1861 90.1104 79.249 90.1627 79.2962 90.2311C79.4655 90.4003 79.6661 90.521 79.8904 90.5854C80.2917 90.7424 80.7481 90.7948 80.9685 91.2657C81.0079 91.3503 81.1496 91.3865 81.2479 91.4429C81.791 91.7247 82.3142 92.0427 82.8101 92.401C83.2547 92.7633 83.8135 92.9645 84.1558 93.4678C84.3525 93.7697 84.6279 94.0071 84.9545 94.1561C85.1159 94.2527 85.2497 94.3816 85.3559 94.5385C85.6156 94.8646 85.8478 95.2068 86.0996 95.5288C86.4813 96.0159 86.8787 96.495 87.2604 96.97C87.4375 97.1874 87.642 97.3846 87.8073 97.606C88.0001 97.8556 88.1733 98.1252 88.3267 98.4071C88.4959 98.7412 88.6021 99.1156 88.9327 99.337C88.9602 99.3571 89.0034 99.3692 89.0152 99.3974C89.33 100.021 89.6645 100.637 89.9478 101.265C90.2666 101.97 90.5263 102.702 90.8332 103.415C90.9748 103.705 91.1362 103.983 91.3093 104.248C91.3289 104.28 91.3683 104.321 91.3879 104.317C91.8995 104.268 92.3953 104.478 92.9147 104.292C93.7213 103.962 94.5083 103.58 95.2599 103.137C95.6415 102.904 95.9957 102.638 96.3301 102.34C96.519 102.195 96.7 102.038 96.8928 101.905C96.9361 101.873 97.0187 101.905 97.0816 101.905H97.2037C97.0738 101.523 97.4634 101.495 97.609 101.326C97.7782 101.148 97.9749 101 98.1835 100.879C98.75 100.505 99.2813 100.078 99.7732 99.6067C100.159 99.2565 100.595 98.9626 101.013 98.6406C101.575 98.2059 102.126 97.7549 102.697 97.3323C103.118 97.0223 103.515 96.6721 103.873 96.2896C104.07 96.0804 104.353 95.9233 104.589 95.722C105.262 95.1706 105.876 94.5546 106.431 93.8824C106.439 93.8663 106.455 93.8542 106.47 93.8421C107.269 93.4074 107.647 92.5298 108.327 91.9742C108.371 91.942 108.438 91.8977 108.442 91.8575C108.461 91.4147 108.835 91.1852 109.024 90.843C109.264 90.4003 109.354 89.893 109.559 89.4502C109.764 89.0034 109.669 88.5243 109.795 88.0815C109.882 87.7434 109.838 87.3891 109.673 87.0832C109.563 86.8416 109.473 86.5881 109.414 86.3304C109.347 85.8997 109.193 85.493 108.969 85.1267C108.792 84.8611 108.772 84.4908 108.54 84.217C108.017 83.6091 107.316 83.3635 106.588 83.2066C105.719 83.0213 104.822 83.0133 103.948 83.1945C103.496 83.3313 103.059 83.5206 102.646 83.758C102.386 83.8789 102.162 84.0237 101.914 84.1607C101.418 84.4263 100.973 84.7765 100.595 85.2033C100.104 85.7185 99.6275 86.254 99.1239 86.7531C98.8681 86.9745 98.6871 87.2764 98.6045 87.6065C98.5651 87.7916 98.4747 87.9648 98.3447 88.0976C98.1009 88.3271 97.8805 88.5846 97.6916 88.8624C97.5775 89.0034 97.487 89.1644 97.4319 89.3416C97.2666 89.8729 96.464 90.4365 96.0192 90.3721C95.5707 90.3077 95.3543 90.0138 95.496 89.6274C95.7556 88.8866 95.9013 88.0775 96.4994 87.4937C96.5977 87.4092 96.6606 87.2885 96.6803 87.1596C96.7196 86.7973 96.8889 86.4632 97.1565 86.2218C97.4161 85.956 97.5539 85.5897 97.8765 85.3683C98.085 85.2113 98.2779 85.0301 98.4511 84.837C98.8327 84.4786 99.1869 84.0921 99.5095 83.6775C99.718 83.3836 99.9856 83.1382 100.293 82.957C100.816 82.647 101.335 82.3531 101.835 82.0391C102.634 81.5722 103.527 81.2984 104.44 81.2381C104.892 81.1938 105.357 81.2179 105.813 81.2139C106.1 81.2139 106.356 81.3547 106.675 81.3065C106.935 81.2622 107.253 81.4313 107.525 81.548C107.918 81.717 108.304 81.9063 108.678 82.1197C109.221 82.4215 109.709 82.8161 110.122 83.283C110.2 83.3635 110.267 83.452 110.318 83.5488C110.507 83.9795 110.68 84.4182 110.869 84.8531C110.987 85.1187 111.129 85.3884 111.251 85.6702C111.389 85.9601 111.487 86.27 111.534 86.5921C111.605 87.5985 111.668 88.6049 111.444 89.6153C111.349 90.1024 111.192 90.5693 110.972 91.0082C110.889 91.1731 110.822 91.3463 110.771 91.5274C110.621 92.0588 110.252 92.4694 109.964 92.9323C109.89 93.0169 109.819 93.1055 109.756 93.198C109.591 93.5804 109.311 93.8944 108.957 94.1038C108.63 94.3211 108.438 94.7439 108.143 95.0336C107.851 95.3235 107.635 95.6254 107.182 95.6656C107.029 95.6656 106.856 95.9314 106.75 96.1005C106.71 96.1729 106.659 96.2373 106.596 96.2937C106.533 96.346 106.458 96.3862 106.38 96.4104C106.293 96.4346 106.214 96.4829 106.155 96.5554C105.695 97.2357 104.995 97.6221 104.341 98.0528C104.082 98.2381 103.7 98.2984 103.499 98.5279C103.366 98.6889 103.22 98.8942 103.063 98.9103C102.504 98.9626 102.209 99.4457 101.745 99.6591C101.3 99.9006 100.875 100.174 100.474 100.484C100.344 100.561 100.21 100.625 100.072 100.686C99.9305 100.73 99.7968 100.798 99.6708 100.879C99.0727 101.414 98.4865 101.946 97.8923 102.477C97.2391 103.033 96.6606 103.669 96.157 104.369C95.7557 104.932 95.2087 105.371 94.5752 105.637C94.2722 105.778 93.981 105.935 93.6938 106.108C93.4104 106.281 92.9855 106.209 92.6196 106.233C92.5724 106.233 92.4976 106.152 92.4701 106.168C92.0372 106.434 91.5651 106.245 91.1165 106.293C90.9748 106.309 90.8293 106.281 90.7033 106.205C90.4988 106.072 90.3177 105.903 90.1682 105.706C89.7512 105.098 89.2553 104.542 89.0624 103.797C88.9877 103.644 88.9012 103.495 88.8028 103.359C88.7201 103.185 88.5667 102.964 88.6179 102.823C88.669 102.678 88.6769 102.521 88.6336 102.372C88.5903 102.223 88.5038 102.095 88.3857 101.998C88.0709 101.68 87.9293 101.269 87.6853 100.915C87.3587 100.436 87.1384 99.8684 86.6426 99.5222C86.6426 99.0351 86.2176 98.858 85.9854 98.54C85.7534 98.2179 85.4622 97.912 85.2221 97.5899C84.9349 97.2397 84.6751 96.8653 84.4431 96.4749C84.0691 95.7865 83.4002 95.408 82.8809 94.8767C82.4638 94.454 81.8382 94.2446 81.3463 93.9025C80.9174 93.6086 80.5239 93.2584 80.1187 92.9323C80.0202 92.8518 79.9494 92.719 79.8432 92.6666C79.4576 92.4453 79.064 92.2439 78.6627 92.0387C78.5801 91.9985 78.4896 91.9742 78.403 91.942C77.982 91.7971 77.5728 91.624 77.1754 91.4228C77.0691 91.3503 76.9432 91.3141 76.8134 91.3181C76.6835 91.3181 76.5616 91.3624 76.4593 91.4429C76.1996 91.5998 75.9398 91.7086 75.6801 91.8454C75.5778 91.8937 75.4874 91.9661 75.4205 92.0548C75.208 92.3929 74.8696 92.4815 74.5312 92.5901C74.4329 92.6183 74.3069 92.6384 74.2518 92.711C73.8505 93.2141 73.3153 93.5764 72.7054 93.7576C72.5716 93.7979 72.4458 93.8622 72.3355 93.9508C71.8398 94.3493 71.2338 94.4259 70.6593 94.6029C70.5688 94.615 70.4783 94.6472 70.3995 94.6915C69.652 95.2269 68.7942 95.4765 67.9246 95.7019C67.5311 95.8026 67.1455 95.9676 66.7599 96.0884C66.2995 96.2373 65.8195 96.3017 65.3354 96.2856C65.1702 96.2655 65.0049 96.2977 64.8554 96.3661C64.1983 96.7606 63.4625 96.7969 62.7384 96.8573C61.6131 96.978 60.4799 97.0384 59.3506 97.0344C58.8706 97.0706 58.3904 97.0706 57.9104 97.0344C57.4344 96.9499 56.9543 96.8895 56.4743 96.8251C55.9942 96.7647 55.5456 96.7525 55.0853 96.6801C54.4203 96.5755 53.7514 96.4628 53.0903 96.3138C52.681 96.2172 52.2797 96.0925 51.8902 95.9354C51.296 95.7099 50.871 95.7865 50.4776 96.2454C49.8205 97.0182 49.0847 97.7227 48.2898 98.3467C48.1049 98.4917 48.0852 98.8258 47.7665 98.8218C47.7862 99.1075 47.5422 99.1962 47.3847 99.3531C46.7985 99.9328 46.2476 100.545 45.7322 101.189C45.4568 101.515 45.1656 101.825 44.8547 102.119C44.6658 102.292 44.6776 102.541 44.4848 102.706C44.1976 102.968 43.9379 103.258 43.7057 103.572C43.4736 103.87 43.2689 104.188 43.0564 104.498C42.6865 105.033 42.3206 105.565 41.9626 106.124C41.8328 106.354 41.7225 106.599 41.636 106.849C41.5573 107.058 41.4472 107.247 41.3054 107.416C40.6916 108.169 40.1172 108.93 39.8929 109.924C39.8142 110.27 39.5505 110.576 39.3695 110.894C39.1885 111.212 39.0389 111.482 38.8462 111.752C38.1576 112.714 37.1542 113.116 36.0604 113.282C35.2183 113.394 34.3644 113.177 33.6718 112.674C33.2587 112.416 32.8771 112.122 32.519 111.788C32.4403 111.708 32.3379 111.651 32.2593 111.563C31.8383 111.088 31.4094 110.617 31.004 110.126C30.5358 109.562 30.1148 108.954 29.619 108.423C29.2727 108.109 28.8989 107.827 28.5055 107.585C28.3993 107.509 28.2458 107.461 28.1986 107.36C27.9939 106.845 27.5218 106.619 27.1558 106.293C26.8804 106.044 26.6639 105.701 26.357 105.512C25.6487 105.082 25.2081 104.365 24.5706 103.854C24.185 103.544 23.9135 103.085 23.5908 102.698C23.5279 102.626 23.4807 102.525 23.402 102.489C22.7133 102.155 22.4341 101.462 22.0247 100.891C21.9854 100.826 21.9382 100.766 21.8871 100.71C21.0687 99.9851 20.8208 98.9143 20.3642 97.9844C20.0101 97.2598 19.9196 96.4306 19.841 95.6174C19.8016 95.2028 19.7426 94.7882 19.7032 94.3736C19.6481 93.8381 19.597 93.3067 19.8292 92.7915C19.9 92.5539 19.9393 92.3083 19.9511 92.0628C20.0376 91.463 20.4194 90.9597 20.4981 90.348C20.5256 90.1627 20.7578 89.9857 20.9309 89.8447C21.2496 89.579 21.5998 89.3576 21.9146 89.0879C22.371 88.6572 22.9691 88.4116 23.5908 88.3955C23.6656 88.3955 23.7404 88.3835 23.8073 88.3513C24.2755 88.0855 24.7359 88.2264 25.2081 88.3513C25.5032 88.4317 25.8062 88.4921 26.1131 88.5243C26.3452 88.5364 26.5774 88.6009 26.786 88.7135C27.1165 88.9149 27.392 89.1845 27.8012 89.2973C28.1986 89.4583 28.5645 89.6958 28.8714 89.9977C29.316 90.36 29.7175 90.7827 30.1502 91.1651C30.9332 91.9179 31.6415 92.7472 32.2671 93.6408C32.4561 93.9065 32.6921 94.1159 32.8653 94.3816C33.125 94.7882 33.3571 95.2229 33.605 95.6455C33.7033 95.8107 33.8175 95.9555 33.9158 96.1166C33.967 96.2011 34.0063 96.2896 34.0496 96.3822C34.1205 96.2937 34.2306 96.2172 34.2542 96.1166C34.4628 95.2309 34.9822 94.4862 35.2851 93.6408C35.3166 93.5764 35.3638 93.516 35.4229 93.4718C35.9659 93.0169 36.3043 92.405 36.6938 91.8213C36.8709 91.5797 37.0598 91.3503 37.2604 91.1289C37.8743 90.4003 38.5039 89.6877 39.0981 88.943C39.3419 88.6411 39.2869 88.4639 39.0075 88.2426C38.7833 88.0775 38.5668 87.9004 38.3622 87.7112C37.949 87.2885 37.5162 86.894 37.0598 86.5277C36.5561 86.1251 36.2138 85.5011 35.781 84.9939C35.0885 84.1969 34.5966 83.2348 34.0338 82.329C33.5145 81.4796 33.0383 80.598 32.5701 79.7164C32.2947 79.1971 32.1885 78.6093 31.8619 78.1183C31.7596 77.9652 31.7005 77.7761 31.5864 77.6351C31.2323 77.1843 31.1182 76.6166 30.8664 76.1175C30.5555 75.4935 30.2879 74.8494 30.0046 74.2134C29.9731 74.1691 29.9613 74.1128 29.9574 74.0564C30.0912 73.525 29.7765 73.1064 29.6347 72.6515C29.442 72.0235 29.2177 71.4076 29.0091 70.7836C29.0091 70.7514 28.9776 70.7031 28.9894 70.679C29.1941 70.2161 28.9029 69.8256 28.8163 69.4109C28.6431 68.5656 28.348 67.7483 28.2969 66.8708C28.2497 66.1744 28.053 65.49 27.9978 64.7936C27.931 63.9764 27.7618 63.1713 27.8012 62.3421C27.8287 61.7624 27.7304 61.1746 27.7264 60.5908C27.7264 60.0072 27.7854 59.4557 27.7894 58.8841C27.7894 58.5298 27.7225 58.1755 27.7186 57.8172C27.7186 57.5517 27.7894 57.2859 27.7776 57.0323C27.7618 56.7143 27.7145 56.4043 27.8956 56.1064C27.9467 56.0058 27.9624 55.8891 27.9349 55.7763C27.809 55.2248 27.9821 54.6773 27.9467 54.1299C27.9388 54.0533 27.9585 53.9769 27.9939 53.9125C28.1435 53.6267 28.1986 53.2966 28.1474 52.9785C28.1632 52.7532 28.171 52.5277 28.1632 52.3022C28.1356 52.1252 28.5684 52.2781 28.3441 51.9842C28.2812 51.9037 28.3874 51.6943 28.4111 51.5495C28.4347 51.4006 28.4504 51.2113 28.4819 51.0422C28.5133 50.8732 28.5527 50.7444 28.5802 50.5954C28.6038 50.4425 28.6235 50.2653 28.6431 50.0963C28.6471 49.9271 28.6667 49.7581 28.6982 49.593C28.8517 49.0577 29.0287 48.5504 29.198 48.0312C29.2137 47.9789 29.2845 47.9385 29.2885 47.8942C29.3042 47.4072 29.5285 46.9604 29.5679 46.4772C29.5836 46.2801 29.4774 46.2115 29.3081 46.3002C29.2924 46.3082 29.2767 46.3203 29.2688 46.3364C28.7967 46.8275 28.0688 46.7591 27.5532 47.1495C27.4746 47.2058 27.3368 47.1696 27.2306 47.1857C27.0259 47.1938 26.8253 47.238 26.6325 47.3146C26.2075 47.5681 25.7156 47.685 25.2238 47.6447C25.1491 47.6327 25.0743 47.6407 25.0034 47.6689C24.5824 47.8661 24.1339 47.9909 23.6695 48.0392C23.3508 48.1358 23.0163 48.176 22.6858 48.164C22.4262 48.164 22.1704 48.2364 21.9421 48.3653C21.6667 48.478 21.3716 48.5263 21.0766 48.5102C20.8365 48.5102 20.5964 48.5343 20.3603 48.5826C19.782 48.6712 19.2035 48.7759 18.6251 48.8483C18.5149 48.8403 18.4048 48.8242 18.2945 48.792C18.1254 48.7799 17.9286 48.7155 17.7988 48.792C17.3698 48.9811 16.8938 49.0215 16.4413 48.9046C16.1698 48.8523 15.8865 48.8725 15.6228 48.957C15.3237 49.0617 14.9853 48.957 14.6705 48.9409C14.4542 48.957 14.2456 49.0054 14.041 49.0859C13.864 49.1221 13.6593 48.965 13.4626 48.9328C13.3327 48.9167 13.2029 48.9409 13.0849 49.0013C12.9392 49.0617 12.7819 49.0899 12.6245 49.0778C12.4671 49.0657 12.3136 49.0174 12.1798 48.9328C12.0618 48.9046 11.9359 48.9006 11.8139 48.9167H11.0191C10.9168 48.9167 10.7161 49.0013 10.6453 48.9409C10.358 48.7034 10.0354 48.8081 9.72845 48.7879C8.85098 48.7517 7.98138 48.647 7.11965 48.478C6.81667 48.4337 6.51762 48.3572 6.23039 48.2525C6.02971 48.1519 5.81329 48.3733 5.56147 48.2807C5.21913 48.1841 4.87287 48.1157 4.51873 48.0795C4.47938 48.0714 4.4479 48.0593 4.41642 48.0392C3.86949 47.6003 3.16909 47.5038 2.59067 47.1696C2.36245 47.0409 2.15784 46.8757 1.98076 46.6826C1.906 46.598 1.92962 46.4008 1.95322 46.2598C1.95322 46.2196 2.14209 46.2035 2.24046 46.1954C3.09433 46.1471 3.94818 46.2357 4.7745 46.4611C5.21519 46.5577 5.66377 46.606 6.11234 46.606C6.90717 46.6383 7.69808 46.7389 8.4811 46.8999C8.51258 46.8999 8.55193 46.9403 8.58341 46.9281C9.2484 46.7912 9.88584 47.0087 10.5469 47.0328C11.1529 47.061 11.7588 46.9886 12.3727 46.9805C12.6127 46.9886 12.8566 47.0127 13.0967 47.0449C13.6868 47.1052 14.2771 46.9483 14.8673 47.0449C15.0365 47.0489 15.2018 47.0248 15.3631 46.9805C15.4497 46.9805 15.5323 46.9482 15.6228 46.9361C15.8039 46.9079 15.9101 47.4394 16.1462 47.0087C16.4059 46.9845 16.697 46.9725 16.9685 46.9361C17.244 46.8999 17.4526 46.8516 17.6964 46.8114C17.8539 46.7591 18.0191 46.743 18.1805 46.7591C18.5228 46.8556 18.8887 46.8436 19.2232 46.7188C19.8016 46.5778 20.3958 46.5215 20.9899 46.5537C21.3598 46.5255 21.7258 46.4611 22.0878 46.3686C22.6347 46.276 23.1817 46.1954 23.7286 46.1029C24.1142 46.0506 24.492 45.9741 24.8697 45.8774C25.7708 45.6118 26.6757 45.3421 27.5572 45.016C28.112 44.8147 28.5999 44.4685 29.1587 44.2512C29.4774 44.1102 29.7607 43.9009 29.9928 43.6393C30.1974 43.4299 30.1738 43.3293 29.9731 43.0877C29.8197 42.8986 29.5875 42.7415 29.619 42.4355C29.619 42.4074 29.5561 42.3832 29.5285 42.347C29.3357 42.1095 29.0918 41.9244 28.8832 41.6989C28.4425 41.232 28.2812 40.608 27.8838 40.129C27.687 39.8914 27.5218 39.6298 27.3289 39.3882C27.1362 39.1467 27.1322 38.8005 26.8096 38.6797C26.7545 38.6596 26.7348 38.5549 26.6915 38.4906C26.3137 37.9189 25.9321 37.3553 25.5622 36.7797C25.3615 36.4617 25.1805 36.1316 24.9916 35.8095C24.8972 35.6444 24.8067 35.4754 24.7044 35.3143C24.6493 35.1936 24.5549 35.097 24.4369 35.0447C24.3188 34.9882 24.185 34.9762 24.0631 35.0044C23.9764 35.0286 23.8899 35.0286 23.8034 35.0044C23.28 34.8353 22.7685 34.634 22.2648 34.4086C22.1075 34.3281 21.9382 34.2838 21.7612 34.2757C21.588 34.2677 21.411 34.3039 21.2496 34.3684C20.506 34.6581 19.7623 34.9641 19.0421 35.3103C18.5582 35.5398 18.0743 35.7813 17.5981 36.0147C17.181 36.2161 16.7522 36.3973 16.3507 36.6347C16.154 36.7354 15.9691 36.8602 15.8039 37.0091C15.2844 37.5445 14.5604 37.7176 13.9426 38.076C13.6829 38.2289 13.4469 38.5067 13.081 38.4382C13.0456 38.4382 12.9904 38.5187 12.951 38.563C12.9117 38.6073 12.8881 38.7038 12.833 38.7401C12.2704 39.1025 11.7116 39.4567 11.1489 39.8069L10.0157 40.5235C9.90945 41.083 9.34284 41.1111 9.01231 41.4171C8.66998 41.7069 8.30797 41.9807 7.93417 42.2303C7.74136 42.3752 7.54462 42.5202 7.34787 42.661C7.26525 42.7415 7.16688 42.7978 7.06457 42.8381C6.92291 42.8502 6.78126 42.8381 6.64354 42.818C6.63567 42.6731 6.65141 42.5282 6.69075 42.3873C6.78519 42.1941 6.90718 42.0129 7.05276 41.8519C7.46986 41.3446 7.91842 40.8616 8.38667 40.4067C8.64637 40.1813 8.79983 39.8914 9.07133 39.67C9.7796 39.0983 10.417 38.4423 11.1174 37.8666C11.5621 37.4962 12.0736 37.2064 12.5419 36.8722C12.8016 36.687 13.0415 36.4697 13.3052 36.2845C13.4784 36.1839 13.6593 36.0913 13.8404 36.0188C13.9623 35.9745 14.0804 35.9182 14.1945 35.8538C14.6941 35.5237 15.19 35.1855 15.6897 34.8554C15.8983 34.7186 16.1619 34.7548 16.3783 34.5897C16.6458 34.4247 16.9292 34.2878 17.2243 34.1791C17.7674 33.9134 18.3024 33.5994 18.8533 33.3298C19.0737 33.2452 19.2979 33.1768 19.5301 33.1285C19.6914 33.0842 19.8488 33.0238 19.9983 32.9473C20.1518 32.8869 20.2895 32.7863 20.3919 32.6535C20.4273 32.589 20.2698 32.4119 20.203 32.2832C19.782 31.4659 19.42 30.6286 19.5813 29.6705C19.6245 29.3927 19.715 29.127 19.8567 28.8856C20.0614 28.5555 20.38 28.5836 20.561 28.9137C20.6515 29.0385 20.7144 29.1793 20.75 29.3283C20.8247 30.1777 21.2732 30.8821 21.6313 31.6069C22.2215 32.8145 23.28 33.4747 24.5785 33.6519C24.9326 33.7042 25.2317 33.7565 25.397 34.1349C25.4442 34.2395 25.5937 34.2958 25.692 34.3805C25.8809 34.5414 26.0777 34.6945 25.9085 34.9963C25.9085 35.0205 25.9517 35.1252 25.9871 35.1332C26.2901 35.1976 26.4358 35.4432 26.6285 35.6484C27.3525 36.4174 27.8759 37.3432 28.5566 38.1444C29.1587 38.885 29.7055 39.674 30.1935 40.4993C30.2328 40.5637 30.2486 40.6563 30.3036 40.6965C30.827 41.0628 31.0868 41.6184 31.4055 42.1336C31.854 42.8463 32.3261 43.5346 32.8259 44.1987C33.1604 44.6537 33.5617 45.0603 33.9198 45.499C34.0102 45.6199 34.0772 45.7486 34.1244 45.8895C34.2542 46.2477 34.4471 46.5698 34.6988 46.8516C35.0728 47.2662 35.3756 47.7453 35.7179 48.1841C35.7967 48.2847 35.9069 48.3613 35.9777 48.4498C36.0879 48.5947 36.1863 48.7517 36.2767 48.9127C36.4185 49.1583 36.5365 49.428 36.6938 49.6534C37.1385 50.2009 37.5516 50.7766 37.9254 51.3723C38.008 51.5173 38.1655 51.6058 38.2835 51.7307C38.8265 52.3063 38.7754 52.9665 38.1616 53.4375C38.079 53.5261 37.9608 53.5743 37.8428 53.5824C37.7208 53.5864 37.6028 53.5462 37.5123 53.4617C37.0716 53.1879 36.7174 52.7894 36.4971 52.3143C36.3161 51.8916 35.9305 51.5696 35.6314 51.1993C35.5527 51.0987 35.3915 51.006 35.3915 50.9094C35.3915 50.5069 35.057 50.3216 34.8956 50.0237C34.7265 49.742 34.5336 49.4723 34.3211 49.2267C33.7231 48.4458 33.0501 47.7252 32.6645 46.7953C32.5977 46.6786 32.519 46.5698 32.4285 46.4732C32.1452 46.1069 32.0113 46.1149 31.854 46.5658C31.7793 46.8355 31.7321 47.1133 31.7084 47.3951C31.7084 47.4877 31.6887 47.5762 31.6572 47.6608C31.2795 48.309 31.2205 49.0416 31.075 49.7541C31.0316 49.9714 30.89 50.1687 30.8428 50.3902C30.7602 50.8088 30.5044 51.1912 30.5948 51.6501C30.6027 51.7267 30.583 51.8031 30.5398 51.8675C30.1896 52.3747 30.3154 52.9745 30.2289 53.5341C30.1463 54.0896 30.0873 54.6492 30.04 55.2128C30.0046 55.6073 29.9928 56.0017 30.0007 56.3962C30.0321 56.7545 30.0007 57.1168 29.9141 57.463C29.8433 57.6965 29.9889 57.918 29.9574 58.1675C29.9338 58.5257 29.9495 58.88 30.0046 59.2343C30.0243 59.3993 30.0518 59.5643 30.0873 59.7294C30.0873 59.7817 30.1463 59.8461 30.1266 59.8743C30.0716 59.9388 30.0361 60.0153 30.0203 60.0998C30.0046 60.1843 30.0125 60.2689 30.0361 60.3494C30.107 60.5426 30.0007 60.7922 30.0125 61.0176C30.0243 61.243 30.1188 61.4202 30.1384 61.6255C30.1384 61.9677 30.162 62.3099 30.2014 62.648C30.3312 63.2035 30.3508 63.7752 30.2682 64.3346C30.2682 64.3871 30.2682 64.4675 30.2879 64.4917C30.5476 64.7051 30.4768 64.9787 30.4336 65.2525C30.4139 65.3249 30.4139 65.4055 30.4336 65.478C30.6578 66.0899 30.6381 66.7461 30.7168 67.3739C30.8192 68.1751 31.1222 68.944 31.2205 69.7329C31.311 70.4575 31.669 71.0815 31.7439 71.8061C31.8383 72.3214 31.9877 72.8246 32.1963 73.2997C32.3497 73.7505 32.5229 74.1852 32.6881 74.6321C32.7157 74.7046 32.7512 74.769 32.7905 74.8333C32.9203 75.0266 33.1604 75.2238 33.1525 75.405C33.1447 75.5861 33.184 75.8236 33.1801 76.033C33.1801 76.1055 33.2037 76.1698 33.2391 76.2342C33.66 76.9628 34.0181 77.7278 34.3093 78.5168C34.3644 78.6375 34.4392 78.7463 34.5297 78.8388C34.6831 79.0361 34.8012 79.2695 34.8681 79.5111C35.0176 79.9016 35.2065 80.2719 35.4308 80.6221C35.7259 81.1254 36.0327 81.6245 36.3593 82.1076C36.808 82.7717 37.2762 83.4199 37.7445 84.068C37.8232 84.1486 37.9097 84.221 38.0041 84.2854C38.1301 84.3981 38.3032 84.4948 38.3622 84.6397C38.6219 85.2717 39.1689 85.6219 39.6017 86.0848C39.6528 86.1411 39.7316 86.1855 39.7513 86.2499C39.9125 86.7651 40.4674 86.9182 40.7152 87.3489C40.7428 87.4012 40.9316 87.4012 41.0103 87.3489C41.2464 87.2402 41.4708 87.1033 41.6792 86.9464C42.0728 86.6283 42.423 86.2539 42.8322 85.956C43.2375 85.6581 43.6388 85.485 44.0401 85.2395C44.2998 85.0824 44.536 84.9134 44.776 84.7362C44.9058 84.6276 45.0594 84.5592 45.2206 84.527C45.3858 84.4948 45.5551 84.5069 45.7124 84.5592C45.8463 84.6356 45.9643 84.7362 46.0588 84.8611C46.1532 84.9859 46.2201 85.1307 46.2515 85.2838C46.5113 86.0003 45.9564 86.1855 45.618 86.4873C45.2678 86.7611 44.9019 87.0107 44.5163 87.2322C44.2762 87.8924 43.568 87.8842 43.1234 88.2547C42.962 88.3875 42.8283 88.5444 42.6787 88.6894L41.1756 90.1386C41.0694 90.2392 40.9552 90.3842 40.8215 90.4043C40.4949 90.4566 40.3966 90.7424 40.2116 90.9396C39.9165 91.2576 39.6056 91.5596 39.3262 91.8937C39.0587 92.1997 38.8226 92.5338 38.6219 92.884C38.4528 93.19 38.2206 93.4557 37.9412 93.6569C37.469 93.999 37.2172 94.5224 36.8749 94.9692C36.7254 95.1665 36.5915 95.3718 36.446 95.5731C36.3318 95.6979 36.2374 95.8348 36.1627 95.9877C35.9305 96.6922 35.3954 97.1431 34.8956 97.6221C34.7658 97.7469 34.7067 97.8194 34.7501 97.9884C34.7934 98.1576 34.7501 98.3668 34.8484 98.4836C34.99 98.6687 34.9664 98.8661 35.0176 99.0592C35.1082 99.3853 35.293 99.6832 35.3717 100.009C35.5134 100.605 35.8361 101.181 35.6314 101.829C35.5803 101.942 35.5095 102.046 35.4308 102.139C35.3323 102.062 35.2025 102.006 35.1475 101.905C34.9074 101.454 34.691 100.992 34.4628 100.533C34.4038 100.416 34.3408 100.303 34.2739 100.19C34.1008 99.8886 33.9276 99.5786 33.7388 99.2807C33.5499 98.9828 33.5381 98.6688 33.2155 98.4957C33.1643 98.4554 33.1171 98.403 33.0857 98.3427C33.0542 98.2823 33.0305 98.2179 33.0265 98.1495C32.9518 97.5296 32.5387 97.1431 32.1373 96.7324C31.9956 96.5352 31.8697 96.3259 31.7675 96.1045C31.5078 95.7302 31.2638 95.3557 30.9883 94.9894C30.4965 94.2768 29.9456 93.6086 29.3317 93.0008C28.8124 92.5056 28.3087 92.0025 27.7854 91.5113C27.4313 91.2174 27.0416 90.9679 26.6285 90.7666C26.3059 90.5854 25.9281 90.5693 25.6291 90.2956C25.4757 90.1547 25.1687 90.1667 24.9326 90.1547C23.9568 90.1144 23.0439 90.2754 22.3474 91.0645C22.2255 91.2053 22.1232 91.3664 22.0483 91.5395C21.8241 92.1192 21.6588 92.723 21.5526 93.3389C21.5526 93.3953 21.5605 93.4517 21.5723 93.504C21.6234 93.504 21.6863 93.504 21.7219 93.4758C21.8123 93.4114 21.8989 93.335 21.9697 93.2503C22.2727 92.8478 22.7174 92.7029 23.1502 92.5418C23.3468 92.4774 23.5594 92.4694 23.7601 92.5217C24.185 92.6344 24.5982 92.7874 25.0191 92.9363C25.0349 92.9363 25.0467 92.9645 25.0665 92.9685C25.8888 93.1618 26.4397 93.7657 26.9787 94.3655C27.384 94.7801 27.6673 95.3074 27.7894 95.8831C27.8208 96.0521 27.8877 96.2695 27.7027 96.342C27.5414 96.3742 27.3761 96.3379 27.2463 96.2414C26.9551 96.0682 26.6796 95.871 26.42 95.6536C25.9557 95.2712 25.4245 94.9853 24.8579 94.8163C24.61 94.7439 24.3738 94.6432 24.1457 94.5184C24.0315 94.4379 23.8978 94.3977 23.7601 94.4057C23.6223 94.4138 23.4925 94.4661 23.3863 94.5587C23.0637 94.8244 22.7213 95.0539 22.4183 95.3275C22.2963 95.4443 22.2215 95.6053 22.2058 95.7744C22.1783 96.4548 22.0996 97.1472 22.4813 97.7791C22.5599 97.9482 22.6189 98.1294 22.6504 98.3145C22.674 98.4474 22.7213 98.5722 22.7961 98.6849C22.8708 98.7975 22.9652 98.8902 23.0794 98.9586C23.1423 98.9948 23.2485 99.0592 23.2446 99.0954C23.2013 99.4658 23.5318 99.6148 23.6813 99.8604C23.8742 100.259 24.1457 100.609 24.4802 100.891C24.8539 101.157 25.0034 101.583 25.4206 101.817C25.8377 102.05 26.0856 102.598 26.4987 102.843C27.0377 103.165 27.1676 103.834 27.7225 104.131C27.9546 104.256 28.0648 104.602 28.2615 104.824C28.6117 105.214 28.9973 105.577 29.3514 105.971C30.0598 106.748 30.8467 107.449 31.4212 108.358C31.8737 109.091 32.4443 109.743 33.1053 110.287C33.5774 110.697 34.1323 110.987 34.7344 111.136C34.8996 111.172 35.0649 111.221 35.2222 111.277C36.0565 111.543 36.7883 111.297 37.2014 110.528C37.2958 110.359 37.4769 110.411 37.5359 110.262C37.6814 109.985 37.7996 109.691 37.89 109.389C37.9215 109.167 38.0198 108.962 38.1694 108.797C38.5275 108.399 38.6219 107.871 38.8187 107.396C38.9917 106.953 39.2397 106.543 39.5466 106.184C39.944 105.701 40.2785 105.17 40.5421 104.598C40.6286 104.417 40.8333 104.248 40.8215 104.063C40.8215 103.825 41.0457 103.797 41.0812 103.572C41.1166 103.346 41.4118 103.278 41.5455 103.101C41.939 102.582 42.297 102.034 42.6983 101.519C43.0407 101.076 43.2414 100.525 43.6899 100.162C43.7884 100.082 43.8592 99.9529 43.9693 99.8966C44.3116 99.6953 44.5871 99.4014 44.7682 99.0431C44.9137 98.8137 45.1105 98.6205 45.3386 98.4796C45.622 98.2381 45.8817 97.9723 46.1178 97.6825C46.342 97.4571 46.5742 97.2397 46.7985 97.0142C46.8929 96.9217 47.0267 96.8412 47.0583 96.7284C47.1487 96.4306 47.4478 96.3822 47.6208 96.1931C47.794 96.0078 48.0418 95.8268 48.2032 95.5973C48.4512 95.2189 48.8092 94.925 49.2223 94.7519C49.2617 94.7238 49.2892 94.6874 49.3128 94.6472C49.8913 93.9226 50.6625 93.4396 51.3786 92.88C51.8508 92.5137 52.3112 92.1272 52.7913 91.777C53.0037 91.624 53.228 91.4912 53.4523 91.3584C53.7357 91.2134 54.0071 91.0484 54.2707 90.8712C54.5776 90.6177 54.9436 90.4486 55.3292 90.3761C55.7148 90.3037 56.1162 90.3318 56.49 90.4566C56.8835 90.5612 56.9464 90.6901 56.8245 91.0766C56.6159 91.6521 56.2027 92.1272 55.6676 92.409C54.9357 92.8599 54.1449 93.2061 53.5625 93.9065C53.4445 94.0475 53.2083 94.0877 53.0391 94.1722C53.0194 94.1883 52.9997 94.2084 52.9879 94.2326C52.9761 94.2567 52.9683 94.2809 52.9643 94.309C52.9643 94.3332 53.043 94.3896 53.0746 94.3816C53.4759 94.2768 53.7986 94.5788 54.1842 94.5909C54.554 94.623 54.9239 94.6834 55.2898 94.76C55.7266 94.8244 56.1674 94.8686 56.5923 94.925C56.6827 94.925 56.7694 94.933 56.852 94.9652C57.2573 95.1625 57.7176 95.2108 58.1544 95.1062C58.6266 95.0175 59.0712 95.2189 59.5434 95.1786C60.5861 95.0901 61.6485 95.1183 62.6952 95.0215C63.3798 94.925 64.0566 94.7841 64.7216 94.5989C65.0955 94.5104 65.4811 94.5466 65.8549 94.3937C66.5081 94.128 67.1849 93.9347 67.8538 93.7335C68.5306 93.5201 69.1916 93.2704 69.8409 92.9886C70.4665 92.723 71.0922 92.4573 71.7295 92.2117C71.9735 92.1111 72.2018 91.9824 72.4102 91.8253C73.1973 91.2858 74.0157 90.7907 74.8578 90.348C75.1175 90.1949 75.3614 90.0219 75.5936 89.8326C76.294 89.2973 76.896 88.6451 77.6987 88.2346C77.7971 88.1821 77.8837 88.1097 77.9584 88.0292C78.4228 87.5663 78.9028 87.1154 79.3356 86.6243C79.6386 86.2781 80.0163 86.0043 80.2682 85.5938C80.5003 85.2838 80.7561 84.9899 81.0315 84.7161C81.5863 84.0559 82.1215 83.3836 82.6841 82.7315C83.0382 82.345 83.3412 81.9103 83.5813 81.4394C83.7702 81.0407 84.1322 80.743 84.3603 80.3483C84.5925 79.9539 84.6909 79.5513 85.0844 79.2816C85.1946 79.1729 85.2654 79.0321 85.2851 78.8791C85.4347 78.4081 85.6942 77.9853 86.0405 77.6432C86.1586 77.4742 86.2137 77.2688 86.2098 77.0636C86.2058 76.8703 86.2373 76.6812 86.3081 76.504C86.3789 76.3269 86.4813 76.1658 86.619 76.033C86.8866 75.719 87.0755 75.3406 87.162 74.9341C87.3351 74.4711 87.5397 74.0202 87.7679 73.5855C87.8349 73.4485 87.8899 73.3077 87.9371 73.1667C88.1772 72.3697 88.4605 71.5687 88.6218 70.7675C88.7674 70.0912 89.1452 69.4955 89.1806 68.7829C89.2081 68.3602 89.4246 67.9537 89.5308 67.531C89.6409 67.1084 89.7038 66.7501 89.7905 66.3595C89.8259 66.1543 89.8259 65.9449 89.8534 65.7397C89.8534 65.5504 89.8849 65.3611 89.9478 65.1841C90.1721 64.7534 90.1564 64.3024 90.1682 63.8516C90.1682 63.5296 90.2626 63.2075 90.2744 62.8854C90.3059 61.9555 90.2744 61.0176 90.3531 60.0917C90.4476 58.8397 90.3256 57.5879 90.4239 56.3359C90.4358 55.9414 90.4042 55.5509 90.3295 55.1645C90.2508 54.5405 90.1486 53.9205 90.054 53.2966C90.0265 53.1316 89.9911 52.9665 89.9636 52.7974C89.9006 52.4834 89.8652 52.1654 89.8731 51.8474C89.8692 51.4127 89.8062 50.9778 89.6881 50.5592C89.4993 49.6654 89.3064 48.7719 89.0782 47.8942C88.9523 47.4072 88.7557 46.9361 88.5943 46.4611C88.4763 46.1109 88.3621 45.7527 88.248 45.3944C88.248 45.3582 88.2205 45.3219 88.2087 45.2898C88.004 44.8026 87.8309 44.2995 87.6853 43.7881C87.583 43.3333 87.2328 43.0354 87.0833 42.6168C86.9416 42.1618 86.7764 41.719 86.5836 41.2843C86.2924 40.6764 85.9461 40.1007 85.6235 39.5131C85.5173 39.3157 85.4031 39.1226 85.3047 38.9172C85.2851 38.873 85.3244 38.7925 85.348 38.732C85.4228 38.571 85.4268 38.4664 85.2064 38.5228C85.1041 38.5469 85.0371 38.5509 84.9585 38.4059C84.6987 37.943 84.3761 37.5164 84.1204 37.0736C83.8095 36.4697 83.3884 35.9343 82.873 35.5036C82.8062 35.4392 82.755 35.3547 82.7274 35.262C82.4402 34.465 81.8854 33.9013 81.2794 33.3741C81.1339 33.2532 81.0157 33.1083 80.9253 32.9432C80.7561 32.6011 80.4728 32.3314 80.1265 32.1824C80.0202 32.1422 79.9298 32.0698 79.8668 31.9772C79.6464 31.5705 79.2215 31.3452 79.0129 30.9265C78.8949 30.7534 78.7414 30.6125 78.5644 30.5038C77.9938 30.057 77.4391 29.586 76.841 29.1833C76.3176 28.8331 75.873 28.3662 75.326 28.0683C74.543 27.6456 73.9055 27.0015 73.0438 26.7358C72.8589 26.6433 72.6896 26.5266 72.5362 26.3856C72.4458 26.3212 72.3434 26.2005 72.2765 26.2126C71.8004 26.2971 71.4975 25.9469 71.1158 25.7737C70.7379 25.6007 70.3209 25.4638 69.9353 25.2746C69.5458 25.0853 69.1523 24.8278 68.6643 24.8117C68.3495 24.7673 68.0465 24.6747 67.7555 24.546C67.5508 24.4534 67.3422 24.3688 67.1298 24.3044C66.9448 24.2642 66.7521 24.1193 66.5474 24.2642C66.0714 23.8938 65.4575 24.1595 64.9459 23.8817C64.6626 23.7852 64.3675 23.7367 64.0723 23.7367C64.0173 23.7367 63.9543 23.765 63.9032 23.7367C63.2461 23.5355 62.5654 23.6321 61.9004 23.5597C61.4597 23.5154 61.015 23.5315 60.5704 23.5275C60.476 23.5275 60.3736 23.5758 60.2949 23.5476C59.7559 23.3503 59.2168 23.4873 58.6816 23.5476C58.0324 23.608 57.3792 23.8133 56.7497 23.8133C55.8054 23.7932 54.9632 24.2159 54.0543 24.3205C53.5113 24.4211 52.9801 24.5741 52.4647 24.7755C51.8744 24.9606 51.2881 25.1579 50.6979 25.3591C50.572 25.3953 50.454 25.4558 50.3477 25.5403C50.0565 25.7737 49.7141 25.9267 49.3521 25.9871C49.2184 26.0153 49.0886 26.0716 48.9823 26.1643C48.8761 26.2528 48.7896 26.3695 48.7384 26.5024C48.6478 26.6875 48.518 26.8567 48.3566 26.9895C48.1993 27.1223 48.0143 27.219 47.8137 27.2713C47.7429 27.2954 47.6484 27.3357 47.5972 27.3075C47.0937 27.0418 46.7001 27.392 46.3223 27.5933C45.7873 27.8711 45.3229 28.2817 44.8075 28.6038C44.6186 28.7245 44.6736 29.0023 44.4337 29.0667C44.2212 29.119 44.0204 29.1914 43.8277 29.2921C43.6388 29.3726 43.4736 29.5054 43.3515 29.6745C43.2257 29.9242 42.9069 29.7953 42.7889 30.1052C42.6983 30.3347 42.3639 30.4595 42.1672 30.6608C41.9665 30.858 41.8524 31.0674 41.6871 31.2607C41.6517 31.3009 41.5573 31.2888 41.4904 31.3049C41.4236 31.317 41.3487 31.3049 41.3172 31.3371C40.9631 31.7517 40.6208 32.1784 40.2627 32.593C40.0818 32.8024 39.8889 33.0037 39.6843 33.1888C39.4601 33.3942 39.1649 33.5109 39.1256 33.9013C39.1256 34.0343 38.9091 34.1469 38.7911 34.2677C38.3661 34.646 37.9962 35.0849 37.7011 35.576C37.4769 36.0107 37.5123 36.2724 37.9254 36.4858C38.1812 36.6226 38.3898 36.8401 38.5275 37.1058C38.6534 37.311 38.799 37.5043 38.9563 37.6854C39.0902 37.8626 39.2475 38.0235 39.4286 38.1524C39.6135 38.2731 39.5505 38.4785 39.6607 38.6354C39.8535 38.9052 40.0897 39.1467 40.3532 39.3439C40.6129 39.5815 40.849 39.8512 41.0496 40.1451C41.1166 40.2296 41.1481 40.3463 41.2189 40.4107C41.5298 40.7287 41.4904 41.1071 41.396 41.4774C41.3566 41.5862 41.2976 41.6828 41.2228 41.7673C41.1442 41.8519 41.0537 41.9163 40.9513 41.9606C40.849 42.0048 40.7389 42.025 40.6286 42.025C40.5185 42.025 40.4084 42.0008 40.306 41.9525C39.9873 41.7673 39.7039 41.5218 39.4719 41.232C39.1099 40.7649 38.7243 40.3181 38.311 39.8995C38.1419 39.7263 37.9962 39.5292 37.8822 39.3158C37.705 38.9736 37.343 38.8327 37.1424 38.5187C36.808 37.9833 36.2767 37.6532 35.8833 37.1863C35.6235 36.8803 35.3205 36.6146 35.0767 36.2925C34.8327 35.9705 34.4943 35.6001 34.1992 35.2539C33.908 34.9077 33.66 34.6018 33.3965 34.2677C33.1565 33.9094 32.8928 33.5712 32.6173 33.2452C32.1491 32.7742 31.8225 32.1784 31.3149 31.7517C31.2638 31.7075 31.2559 31.6149 31.2126 31.5584C31.0789 31.3613 31.071 31.0392 30.7089 31.0714C30.6381 31.0714 30.5398 30.9346 30.4808 30.8419C30.2486 30.4957 30.0164 30.1415 29.7961 29.7751C29.7371 29.6625 29.6937 29.5416 29.6544 29.4169C29.6347 29.3203 29.5954 29.2318 29.5403 29.1512C29.2845 28.9339 29.0761 28.6601 28.9265 28.3541C28.777 28.0482 28.6903 27.7141 28.6707 27.3759C28.6235 26.8969 28.5487 26.4178 28.4425 25.9509L28.4543 25.8945ZM41.6714 27.5933V27.6094C41.9822 27.5531 42.2931 27.5249 42.6039 27.5249C42.8243 27.537 43.0485 27.5008 43.2532 27.4202C43.4579 27.3397 43.6467 27.2109 43.8002 27.0498C44.0047 26.8607 44.2172 26.6755 44.4258 26.4904L43.6427 26.3051C43.5719 26.285 43.5051 26.2528 43.4303 26.2287C43.2965 26.1683 43.1509 26.136 43.0053 26.1279C42.8322 26.1522 42.9738 25.6972 42.6826 25.9469C42.6 26.0193 42.3915 25.963 42.2537 25.9267C42.0176 25.8664 41.7974 25.7536 41.5652 25.7013C40.491 25.4638 39.4207 25.2182 38.3386 25.0129C37.4454 24.8439 36.5443 24.6949 35.6432 24.5902C34.8327 24.4977 34.0378 24.2923 33.2155 24.3004C32.7315 24.2883 32.2475 24.3004 31.7714 24.3487C31.5235 24.4171 31.2638 24.413 31.0198 24.3326C30.6342 24.1797 30.3508 24.4291 30.3312 24.868C30.3154 25.0008 30.3115 25.1337 30.3194 25.2665C30.3864 25.8825 30.3194 26.5024 30.524 27.1142C30.6656 27.5652 30.9214 28.0281 30.7168 28.5555C30.6538 28.7205 30.9568 29.0063 31.1812 28.9902C31.4842 28.9661 31.8501 28.9902 32.0705 28.8331C32.5937 28.4547 33.1919 28.491 33.7506 28.4547C34.6831 28.4024 35.5724 28.0764 36.505 28.0603C36.9024 28.0603 37.288 27.8953 37.6932 27.855C38.315 27.7945 38.9367 27.7744 39.5584 27.7342L41.6714 27.6014V27.5933ZM33.7428 30.226C33.3886 30.3186 33.0108 30.4112 32.637 30.5239C32.6055 30.5239 32.5662 30.693 32.5977 30.7292C32.9833 31.2163 33.4044 31.6793 33.8529 32.106C34.569 32.7179 35.2026 33.4224 35.7377 34.2033C35.7692 34.2475 35.8085 34.2918 35.8518 34.3281C36.0722 34.5213 36.1745 34.5213 36.32 34.2636C36.6663 33.6599 37.1975 33.2089 37.5634 32.6131C37.9294 32.0174 38.4488 31.5906 38.917 31.0955C39.279 30.7131 39.6528 30.3428 40.0423 29.9845C40.2116 29.8516 40.3927 29.7269 40.5775 29.6182C40.6129 29.59 40.6129 29.5175 40.6286 29.4692C40.5775 29.4491 40.5224 29.4128 40.4752 29.4209C40.3099 29.445 40.1487 29.4853 39.9873 29.5255C39.5663 29.6263 39.1177 29.5135 38.7163 29.586C37.8861 29.7389 37.044 29.7751 36.2177 29.9362C35.7299 30.0328 35.2144 29.9564 34.7344 30.1616C34.5848 30.2462 34.4156 30.2985 34.2424 30.3066C34.0694 30.3186 33.8962 30.2905 33.7349 30.226H33.7428ZM68.9555 73.4767C70.4901 73.4767 71.5643 73.4767 72.6267 73.2433C73.0754 73.1506 73.5317 73.0903 73.9842 73.0058C74.0471 73.0058 74.1535 72.9575 74.1574 72.9173C74.2085 72.6314 74.3698 72.6032 74.6138 72.6515C74.9089 72.7038 75.2001 72.8125 75.2866 73.0943C75.3024 73.3158 75.2513 73.5371 75.1411 73.7263C75.1214 73.7706 75.0939 73.8108 75.0584 73.8471C75.023 73.8793 74.9837 73.9074 74.9365 73.9236C74.8932 73.9397 74.846 73.9478 74.7949 73.9438C74.7475 73.9438 74.7003 73.9317 74.6571 73.9075C74.3305 73.7706 74.0432 73.9075 73.7284 73.9639C73.0556 74.1007 72.367 74.2174 71.6823 74.2859C70.9977 74.3584 70.3091 74.3906 69.6166 74.3825C68.7431 74.4107 67.8695 74.3503 67.0117 74.1933C66.7323 74.157 66.453 74.1369 66.1736 74.1329C65.2804 74.0403 64.4305 73.7344 63.5687 73.5451C62.1286 73.2353 60.838 72.5469 59.5631 71.8666C58.4928 71.3311 57.5249 70.6106 56.6945 69.7329C56.4192 69.423 56.065 69.2177 55.8172 68.9158C55.463 68.4891 55.0932 68.0704 54.7587 67.6316C54.436 67.1727 54.1448 66.6936 53.893 66.1905C53.4287 65.345 52.984 64.4917 52.5394 63.6382C52.4962 63.5738 52.4725 63.5014 52.4608 63.4249C52.4608 62.6601 52.0475 62.0079 51.9374 61.2712C51.8312 60.5345 51.6776 59.7496 51.6422 58.9686C51.6226 58.5621 51.4534 58.1715 51.5006 57.7408C51.5478 57.4107 51.5793 57.0725 51.5832 56.7384C51.5832 55.8689 51.8154 55.0316 51.843 54.1702C51.8666 53.5582 52.319 53.1678 52.6259 52.7048C52.7323 52.58 52.8503 52.4593 52.9722 52.3505C53.0785 52.2378 53.1139 52.1091 53.3578 52.2258C53.6018 52.3425 53.6018 52.4352 53.5546 52.6484C53.5349 52.7974 53.5428 52.9463 53.5743 53.0912C53.5939 53.2241 53.6765 53.3569 53.6569 53.4737C53.6293 53.6588 53.7119 53.6669 53.834 53.7715C54.1803 54.0493 54.5698 54.2828 54.7784 54.7296C54.9003 54.9873 55.0971 55.1967 55.3449 55.3295C56.2067 55.7119 56.7537 56.5573 57.635 56.8955C57.9812 57.3262 58.481 57.5073 58.9374 57.7368C59.4608 57.9864 59.9683 58.2199 60.4642 58.4895C61.0661 58.8156 61.7666 58.9042 62.3017 59.3551C62.3292 59.3752 62.3646 59.3913 62.4 59.3953C62.77 59.4677 63.1438 59.5201 63.5097 59.6127C63.8757 59.7093 64.1983 59.8783 64.5525 59.963C65.0088 60.0877 65.4811 60.1682 65.9414 60.2649C65.9965 60.2649 66.0594 60.2649 66.1028 60.285C66.6772 60.6393 67.3304 60.5345 67.9521 60.6071C68.2866 60.6312 68.6171 60.6755 68.9437 60.7439C69.4199 60.8887 69.9195 60.9492 70.4154 60.9169C71.1001 60.8847 71.7847 60.8928 72.4694 60.9412C73.0516 60.9935 73.634 60.9774 74.2125 60.9008C75.1293 60.6996 76.1012 60.768 76.9629 60.3373C77.2777 60.1803 77.6318 60.1119 77.982 60.136C78.4779 60.1561 78.7178 60.458 78.584 60.937C78.5447 61.1062 78.4739 61.2632 78.3755 61.4001C78.2732 61.5369 78.1473 61.6497 77.9977 61.7342C77.6357 61.9233 77.2895 62.1367 76.9314 62.3421C76.8842 62.3743 76.8291 62.3904 76.7741 62.3944C76.0973 62.3541 75.4716 62.7848 74.787 62.6601C74.7516 62.6479 74.7121 62.6479 74.6767 62.6601C74.1692 62.9257 73.634 62.817 73.1147 62.7808C72.8392 62.7808 72.5598 62.7929 72.2804 62.8211C71.9696 62.8211 71.6587 62.8452 71.3479 62.8211C70.8246 62.7889 70.3209 62.7003 69.8055 62.7044C69.471 62.7044 69.1405 62.6521 68.8218 62.5594C68.5542 62.5151 68.2866 62.491 68.0151 62.4869C67.8931 62.4708 67.7712 62.4467 67.6452 62.4145C67.5272 62.3702 67.4012 62.3421 67.2714 62.3381C66.5277 62.4226 65.9178 62.0884 65.2922 61.7543C65.0916 61.6939 64.8791 61.6738 64.6705 61.6939C64.5525 61.6939 64.4109 61.7463 64.3085 61.6939C63.6159 61.4282 62.9274 61.1343 62.2388 60.8606C62.0184 60.7761 61.7824 60.7399 61.5738 60.6352C60.4721 60.0998 59.3663 59.5886 58.2842 59.0209C57.6783 58.7069 57.1747 58.2038 56.608 57.8333C55.8722 57.3543 55.3056 56.6901 54.6602 56.1305C54.3494 55.8125 54.07 55.4623 53.8301 55.0839C53.7868 54.9994 53.7395 54.9189 53.6883 54.8465C53.6647 54.8183 53.6333 54.8022 53.6018 54.786C53.5664 54.7739 53.531 54.7699 53.4956 54.7739C53.4681 54.7982 53.4484 54.8263 53.4366 54.8585C53.4248 54.8907 53.4209 54.9269 53.4248 54.9632C53.5782 55.4462 53.4445 55.9011 53.3224 56.364C53.2752 56.5895 53.2673 56.8229 53.2909 57.0524C53.3578 58.2038 53.3696 59.3631 53.5939 60.4983C53.6451 60.7479 53.7829 60.9734 53.834 61.2188C53.9638 62.024 54.196 62.805 54.5265 63.5457C54.8177 64.0085 55.034 64.5158 55.1718 65.0473C55.1718 65.1157 55.2348 65.2203 55.2859 65.2324C55.6007 65.3169 55.6833 65.6228 55.8447 65.8483C56.1752 66.3072 56.4821 66.7823 56.8087 67.2411C56.9071 67.3538 57.0133 67.4586 57.1314 67.5552C57.2297 67.6437 57.3713 67.7081 57.4187 67.8209C57.7137 68.5213 58.3314 68.9037 58.847 69.3867C59.1067 69.6364 59.3702 69.89 59.6417 70.1113C59.9644 70.3609 60.2438 70.687 60.6845 70.7393C60.8105 70.7756 60.9245 70.8441 61.0189 70.9326C61.7981 71.5486 62.7424 71.8787 63.5923 72.3778C64.6351 72.5186 65.5834 73.1064 66.6575 73.1909C67.5783 73.2795 68.4834 73.4083 68.9437 73.4606L68.9555 73.4767ZM68.865 39.8713C68.924 40.4067 68.9752 40.9381 69.042 41.4694C69.1366 42.2504 69.2546 43.0314 69.3293 43.8123C69.3647 44.1706 69.2939 44.5369 69.3096 44.8951C69.345 45.5756 69.404 46.2558 69.475 46.9361C69.5458 47.1535 69.5458 47.383 69.475 47.6003C69.412 47.7775 69.4001 47.9748 69.4474 48.1599C69.593 48.9248 69.6402 49.7018 69.5969 50.4787C69.53 51.4569 69.5969 52.4392 69.6244 53.4092C69.648 53.824 69.5143 54.2345 69.2506 54.5526C69.109 54.7296 69.0342 54.8183 68.8257 54.6773C68.7706 54.6411 68.6525 54.7135 68.5817 54.6773C68.4794 54.6572 68.3849 54.5968 68.322 54.5083C68.1332 54.146 67.9718 53.7675 67.7987 53.4012C67.6059 53.059 67.4367 52.7007 67.295 52.3344C67.0117 51.3966 66.5159 50.523 66.4648 49.5125C66.453 49.42 66.4215 49.3273 66.3821 49.2468C66.1697 48.7397 66.0319 48.2002 65.9886 47.6488C65.9493 47.1777 65.8274 46.7148 65.7605 46.2437C65.721 45.962 65.7448 45.6762 65.6974 45.3984C65.5873 44.7463 65.4378 44.0981 65.3197 43.45C65.2607 43.1642 65.0797 42.8825 65.2646 42.5805C65.056 42.3148 65.1427 41.9686 65.0798 41.6627C64.8987 40.8093 64.8554 39.9357 64.9577 39.0702C65.0324 38.4059 65.001 37.6974 65.3158 37.0696C65.4339 36.832 65.7014 36.6548 65.6384 36.3287C66.0714 36.1597 65.9178 35.6928 66.091 35.3828C66.3506 34.944 66.5042 34.8273 66.9881 34.9198C67.6531 35.0527 67.897 35.3183 68.0308 36.0067C68.0781 36.2402 68.1607 36.4617 68.2236 36.687C68.4283 37.3997 68.5738 38.1283 68.6486 38.8649C68.6643 38.9172 68.684 38.9655 68.7115 39.0098C68.8021 39.2755 68.8926 39.5654 68.987 39.8432L68.8729 39.8633L68.865 39.8713ZM77.7499 38.5509L77.8994 39.6056C77.9073 39.7183 77.923 39.8351 77.9505 39.9438C78.0056 40.1128 77.6554 40.2095 77.9073 40.4429C78.0056 40.5315 77.9505 40.8011 77.9584 40.9944C77.9663 41.1877 77.9702 41.409 77.9938 41.6144C78.0174 41.8196 78.0685 41.9928 78.0923 42.182C78.1237 42.4637 78.1434 42.7495 78.1552 43.0354C78.1985 43.8726 78.1867 44.7181 78.2889 45.5513C78.4187 46.598 78.3047 47.6689 78.588 48.6994C78.6155 48.8322 78.6234 48.965 78.6076 49.0979C78.5408 49.8104 78.4739 50.523 78.3912 51.2314C78.344 51.4569 78.2378 51.6621 78.0803 51.8313C77.9269 52.0003 77.7341 52.1212 77.5177 52.1855C77.3839 52.2177 77.2462 52.2097 77.1164 52.1574C76.9865 52.1051 76.8803 52.0164 76.8055 51.8997C76.4868 51.4046 76.1563 50.9215 75.8258 50.4344C75.7943 50.3861 75.7432 50.3417 75.7391 50.2894C75.6447 49.5246 75.1765 48.8845 75.086 48.1197C74.9955 47.3549 74.8814 46.5416 74.7791 45.7527C74.7397 45.4749 74.7318 45.185 74.6807 44.9073C74.5115 44.0056 74.6099 43.0917 74.5627 42.1861C74.5076 41.1353 74.4368 40.0806 74.3895 39.0299C74.3816 38.1766 74.4211 37.3271 74.5115 36.4778C74.543 36.0471 74.6531 35.6203 74.6885 35.1855C74.7239 34.7669 74.8893 34.3724 75.1568 34.0544C75.4795 33.6519 76.3294 33.8289 76.5065 34.3805C76.7032 35.0125 77.2423 35.5036 77.2029 36.2442C77.2029 36.4053 77.5453 36.4536 77.4155 36.7112C77.7657 37.2828 77.62 37.9511 77.8561 38.5429L77.7459 38.5549L77.7499 38.5509ZM108.434 26.8325C108.434 27.223 108.237 27.388 107.958 27.3679C107.285 27.3276 106.565 26.6755 106.364 25.9911C106.277 25.7616 106.152 25.5483 105.99 25.3671C105.77 25.0853 105.526 24.8358 105.549 24.4171C105.549 24.3446 105.451 24.2722 105.42 24.1877C105.223 23.612 105.034 23.0403 104.845 22.4648C104.841 22.4446 104.841 22.4245 104.845 22.4084C104.857 22.2151 104.845 22.0138 105.073 21.9333C105.164 21.9011 105.262 21.9052 105.353 21.9374C105.443 21.9695 105.518 22.0339 105.569 22.1145C105.829 22.4446 106.065 22.7747 106.297 23.1129C106.604 23.5396 106.887 23.9823 107.143 24.4454C107.237 24.6506 107.383 24.8238 107.568 24.9485C107.599 24.9686 107.627 25.0008 107.655 25.025C107.93 25.2545 107.741 25.7737 108.174 25.9026L108.438 26.8366L108.434 26.8325ZM68.4204 76.7053C68.0662 76.7254 67.716 76.7254 67.3619 76.7053C67.0865 76.6691 66.8229 76.5804 66.5828 76.4396C66.5081 76.4074 66.4452 76.347 66.4058 76.2785C66.3624 76.2061 66.3428 76.1256 66.3506 76.0411C66.3585 75.9566 66.39 75.88 66.4412 75.8156C66.4923 75.7512 66.5631 75.7029 66.6418 75.6828C67.2439 75.4372 67.8735 75.252 68.5109 75.1353C68.562 75.1353 68.6446 75.1232 68.6722 75.1514C68.7785 75.2681 68.8926 75.5217 68.9634 75.5056C69.0027 75.4935 69.046 75.4935 69.0854 75.4976C69.1287 75.5056 69.168 75.5177 69.1995 75.5418C69.2349 75.566 69.2624 75.5982 69.286 75.6345C69.3057 75.6707 69.3214 75.711 69.3254 75.7552C69.3804 75.9081 69.3804 76.0773 69.3254 76.2302C69.2467 76.3993 69.113 76.5402 68.9516 76.6247C68.7903 76.7093 68.6014 76.7415 68.4204 76.7093V76.7053ZM31.1418 99.8604C31.1182 99.9892 31.071 100.11 31.008 100.223C30.945 100.303 30.7484 100.396 30.6892 100.355C30.3154 100.09 29.7843 100.05 29.6151 99.4859C29.4853 99.0552 29.2531 98.6567 29.0918 98.23C28.9619 97.8838 29.1941 97.5899 29.5285 97.6825C29.745 97.7308 29.9417 97.8476 30.0912 98.0126C30.4493 98.4957 30.7562 99.0149 31.075 99.5263C31.1143 99.6349 31.1379 99.7516 31.1418 99.8644V99.8604ZM72.1113 6.11286C71.946 6.26987 71.8083 6.41478 71.6548 6.53152C71.6351 6.5436 71.5132 6.43894 71.4621 6.36648C71.4502 6.35037 71.5132 6.23766 71.5643 6.20948C71.6862 6.14104 71.8122 6.08066 71.946 6.03236C71.9774 6.02833 72.0364 6.07663 72.1152 6.11286H72.1113Z" fill="#0C0A0A"/>
<path d="M87.0472 132.052C86.9114 132.082 86.8197 132.118 86.6011 132.134C86.1972 132.162 85.908 132.214 85.7369 132.29C85.6594 132.323 85.3718 132.336 85.4459 132.387C85.0563 132.329 85.1461 132.419 84.9998 132.436C84.7652 132.464 84.5642 132.502 84.3209 132.526C83.8764 132.569 83.4955 132.63 83.134 132.691C82.8607 132.736 82.7319 132.81 82.3722 132.845C82.1553 132.867 81.9701 132.901 81.7497 132.92C81.3194 132.958 80.8944 132.998 80.5171 133.05C80.1749 133.098 79.8786 133.155 79.526 133.203C79.2297 133.242 78.8471 133.253 78.6213 133.293C78.0853 133.392 77.334 133.409 76.745 133.488C76.2159 133.559 75.5476 133.595 74.9533 133.65C74.5794 133.685 74.1085 133.693 73.8053 133.733C73.2022 133.811 72.4456 133.804 71.862 133.881C71.7544 133.894 71.5727 133.849 71.4952 133.889C71.4017 133.938 71.1777 133.929 70.9926 133.932C70.6328 133.938 70.236 133.913 69.9645 133.984C69.931 133.993 69.8128 133.994 69.737 133.993C68.9593 133.98 68.3509 134.099 67.5344 134.08C67.1904 134.072 66.7602 134.055 66.3882 134.097C66.3087 134.104 66.0654 134.121 66.0689 134.067C66.0689 134.06 65.9737 134.042 65.8908 134.061C65.517 134.15 64.9298 134.111 64.4554 134.133C64.152 134.147 63.78 134.165 63.4396 134.154C62.8524 134.133 62.2721 134.122 61.6885 134.155C61.5527 134.163 61.4364 134.158 61.2882 134.147C60.9954 134.128 60.6375 134.103 60.3605 134.117C59.5512 134.158 58.8017 134.093 58.0276 134.084C57.6449 134.078 57.2604 134.055 56.8407 134.056C56.6449 134.058 56.354 134.085 56.227 134.055C55.8954 133.977 55.3417 134.007 54.9573 133.952C54.7862 133.928 54.557 133.897 54.3066 133.893C53.7722 133.885 53.2486 133.899 52.8288 133.801C52.6225 133.753 52.1023 133.755 51.7884 133.716C51.1833 133.641 45.8699 133.098 40.5374 132.131C40.675 132.122 40.6908 132.11 40.5921 132.097C40.3541 132.066 40.3999 132.012 40.2677 131.973C40.0806 131.917 39.9078 131.859 39.7685 131.799C39.5146 131.69 39.0896 131.599 38.8127 131.49C38.6223 131.416 38.6593 131.326 38.3577 131.263C37.9663 131.181 37.7477 131.077 37.5731 130.982C37.3297 130.85 37.2961 130.705 37.0192 130.57C36.7213 130.423 36.9893 130.253 36.5626 130.106C36.5485 130.102 36.5519 130.095 36.5537 130.089C36.582 130.008 36.7654 129.926 36.5149 129.845C36.499 129.841 36.5026 129.835 36.4973 129.828C36.3845 129.72 36.5696 129.611 36.4849 129.501C36.4461 129.451 36.328 129.4 36.395 129.347C36.5661 129.212 36.2574 129.058 36.8959 128.944C36.6613 128.898 36.9911 128.856 36.9223 128.806C36.8448 128.749 36.8553 128.687 36.9082 128.625C37.0793 128.421 37.2045 128.214 37.603 128.019C37.7546 127.945 37.7864 127.863 37.9487 127.792C38.3296 127.627 38.5482 127.453 38.9326 127.288C39.3365 127.115 39.6522 126.934 40.0931 126.765C40.3981 126.647 40.8002 126.537 41.0576 126.414C41.472 126.217 41.9799 126.032 42.6324 125.856C43.1544 125.715 43.664 125.572 44.1596 125.427C44.5828 125.304 45.1666 125.205 45.6638 125.093C46.1135 124.992 46.6654 124.911 47.1452 124.816C47.5348 124.739 47.8858 124.648 48.3796 124.593C49.1501 124.508 49.8838 124.414 50.5398 124.303C50.725 124.271 50.9595 124.288 51.0865 124.265C51.448 124.197 51.8994 124.151 52.2839 124.089C52.7054 124.021 53.3138 123.99 53.7176 123.92C54.4529 123.791 55.437 123.753 56.2535 123.655C56.8989 123.577 57.6748 123.535 58.3996 123.481C58.9762 123.438 59.5599 123.4 60.1877 123.385C61.193 123.36 62.2158 123.373 63.2138 123.335C63.4308 123.327 63.556 123.347 63.6072 123.382C63.6794 123.43 63.8276 123.415 63.9863 123.402C64.2384 123.38 64.4889 123.346 64.7499 123.342C65.4342 123.333 66.1236 123.337 66.8113 123.336C66.8908 123.336 66.9665 123.333 67.0318 123.345C67.3123 123.397 67.6561 123.385 67.9946 123.376C68.2134 123.37 68.4391 123.355 68.6489 123.361C69.4936 123.384 70.363 123.374 71.19 123.416C72.0471 123.46 72.9623 123.445 73.7912 123.501C74.4507 123.546 75.1331 123.571 75.8069 123.597C76.7468 123.632 77.5368 123.735 78.4626 123.773C78.8717 123.79 79.2526 123.833 79.6194 123.868C80.1731 123.921 80.7322 123.975 81.3053 124.018C82.1905 124.085 82.9382 124.191 83.7406 124.281C84.3227 124.346 84.8129 124.44 85.3877 124.511C85.6857 124.548 85.9432 124.598 86.2077 124.642C86.541 124.698 86.9731 124.752 87.1072 124.836C87.2289 124.912 87.7085 124.909 87.8548 124.982C87.9941 125.05 88.2463 125.117 88.5355 125.168C89.0751 125.263 89.5866 125.359 89.9164 125.485C90.0963 125.553 90.1968 125.631 90.5442 125.682C90.6887 125.703 90.5107 125.7 90.4754 125.707C90.3995 125.722 90.4118 125.736 90.5141 125.739C91.089 125.758 91.105 125.864 91.3218 125.931C91.6869 126.044 91.8826 126.175 92.2053 126.294C92.3569 126.35 92.3323 126.412 92.4752 126.463C92.7344 126.555 92.9477 126.651 93.1647 126.746C93.3763 126.839 93.2899 126.946 93.5685 127.037C93.7784 127.107 93.5685 127.198 93.8912 127.263C93.9142 127.268 93.9142 127.285 93.8912 127.288C93.5755 127.332 93.8365 127.365 93.9548 127.398C94.1963 127.467 93.9282 127.553 94.1963 127.622C94.281 127.643 94.3674 127.667 94.3214 127.702C94.1892 127.804 94.3743 127.907 94.3603 128.01C94.3497 128.093 94.2457 128.192 94.4766 128.267C94.7465 128.356 94.3603 128.433 94.4926 128.514C94.5966 128.578 94.2669 128.64 94.5137 128.708C94.6353 128.742 94.3761 128.742 94.1611 128.751C94.7007 128.787 94.2792 128.83 94.295 128.869C94.385 129.08 94.3549 129.288 94.0552 129.494C93.9776 129.546 93.6125 129.599 94.0041 129.659C94.0287 129.662 93.997 129.681 93.974 129.692C93.8295 129.76 93.7061 129.83 93.5226 129.893C93.408 129.934 93.4292 129.956 93.6214 129.98C93.5218 130.49 90.8121 131.246 87.0472 132.052Z" fill="#0C0A0A"/>
</svg>
