<svg width="85" height="87" viewBox="0 0 85 87" fill="none" xmlns="http://www.w3.org/2000/svg">
<path d="M63.3191 19.3335L59.5257 62.8284L42.4745 67.6668L25.4702 62.8353L21.6809 19.3335H63.3191Z" fill="#264DE4"/>
<path d="M56.2782 60.059L59.5199 22.8906H42.5V63.9688L56.2782 60.059Z" fill="#2965F1"/>
<path d="M30.3679 39.0244L30.8351 44.3597H42.5V39.0244H30.3679Z" fill="#EBEBEB"/>
<path d="M42.5 28.2256H42.482H29.4291L29.903 33.561H42.5V28.2256Z" fill="#EBEBEB"/>
<path d="M42.5 58.4317V52.8807L42.4771 52.887L36.6717 51.2825L36.3006 47.0273H33.4797H31.0679L31.7982 55.4045L42.476 58.4385L42.5 58.4317Z" fill="#EBEBEB"/>
<path d="M48.9008 44.3596L48.2958 51.2791L42.482 52.8852V58.436L53.1682 55.4046L53.2466 54.5032L54.4716 40.4571L54.5987 39.0244L55.5398 28.2256H42.482V33.561H49.8272L49.3529 39.0244H42.482V44.3596H48.9008Z" fill="white"/>
</svg>
