<svg width="85" height="87" viewBox="0 0 85 87" fill="none" xmlns="http://www.w3.org/2000/svg">
<path d="M34.6296 67.6667C38.9741 67.6667 42.5 64.0579 42.5 59.6112V51.5557H34.6296C30.2852 51.5557 26.7593 55.1645 26.7593 59.6112C26.7593 64.0579 30.2852 67.6667 34.6296 67.6667Z" fill="#0ACF83"/>
<path d="M26.7593 43.4999C26.7593 39.0532 30.2852 35.4443 34.6296 35.4443H42.5V51.5554H34.6296C30.2852 51.5554 26.7593 47.9465 26.7593 43.4999Z" fill="#A259FF"/>
<path d="M26.7593 27.389C26.7593 22.9424 30.2852 19.3335 34.6296 19.3335H42.5V35.4446H34.6296C30.2852 35.4446 26.7593 31.8357 26.7593 27.389Z" fill="#F24E1E"/>
<path d="M42.5 19.3335H50.3704C54.7148 19.3335 58.2408 22.9424 58.2408 27.389C58.2408 31.8357 54.7148 35.4446 50.3704 35.4446H42.5V19.3335Z" fill="#FF7262"/>
<path d="M58.2408 43.4999C58.2408 47.9465 54.7148 51.5554 50.3704 51.5554C46.0259 51.5554 42.5 47.9465 42.5 43.4999C42.5 39.0532 46.0259 35.4443 50.3704 35.4443C54.7148 35.4443 58.2408 39.0532 58.2408 43.4999Z" fill="#1ABCFE"/>
</svg>
