<svg width="85" height="87" viewBox="0 0 85 87" fill="none" xmlns="http://www.w3.org/2000/svg">
<path d="M42.5001 19.9299C29.4617 19.9299 18.8889 30.7496 18.8889 44.0967C18.8889 54.7744 25.6542 63.8331 35.0358 67.0286C36.2157 67.2523 36.649 66.5044 36.649 65.866C36.649 65.2898 36.627 63.3859 36.617 61.3666C30.0482 62.8285 28.6621 58.5153 28.6621 58.5153C27.5881 55.7219 26.0405 54.9793 26.0405 54.9793C23.8984 53.4793 26.202 53.51 26.202 53.51C28.573 53.6806 29.8215 56.0005 29.8215 56.0005C31.9273 59.6951 35.345 58.6269 36.6924 58.0096C36.9042 56.4474 37.5162 55.3815 38.1914 54.778C32.9471 54.1667 27.434 52.0945 27.434 42.8346C27.434 40.1962 28.3564 38.0403 29.8669 36.3479C29.6217 35.7391 28.8136 33.2812 30.0956 29.9524C30.0956 29.9524 32.0783 29.3029 36.5903 32.4296C38.4736 31.894 40.4935 31.6256 42.5001 31.6165C44.5067 31.6256 46.5281 31.894 48.4151 32.4296C52.9218 29.3029 54.9017 29.9524 54.9017 29.9524C56.1869 33.2812 55.3784 35.7391 55.1332 36.3479C56.647 38.0403 57.5631 40.196 57.5631 42.8346C57.5631 52.1165 52.0396 54.1605 46.782 54.7586C47.6288 55.5086 48.3834 56.9794 48.3834 59.234C48.3834 62.4674 48.356 65.07 48.356 65.866C48.356 66.5091 48.781 67.2627 49.978 67.0254C59.3543 63.8262 66.1111 54.7708 66.1111 44.0967C66.1111 30.7496 55.5398 19.9299 42.5001 19.9299Z" fill="#161614"/>
<path d="M27.7321 54.3561C27.6803 54.4761 27.4955 54.5121 27.3275 54.4298C27.1562 54.351 27.0599 54.1872 27.1155 54.0667C27.1664 53.9431 27.3512 53.9086 27.5221 53.9916C27.6938 54.0703 27.7916 54.2355 27.7321 54.3561ZM28.8936 55.4167C28.781 55.5236 28.5608 55.474 28.4114 55.3051C28.2569 55.1366 28.228 54.9114 28.3423 54.8028C28.4584 54.6961 28.6719 54.746 28.8267 54.9147C28.9812 55.085 29.0112 55.3089 28.8934 55.4169L28.8936 55.4167ZM29.6904 56.7738C29.5456 56.8767 29.3089 56.7803 29.1628 56.5653C29.0182 56.3506 29.0182 56.0928 29.166 55.9895C29.3126 55.8862 29.5456 55.9791 29.6937 56.1923C29.8382 56.4109 29.8382 56.6686 29.6902 56.774L29.6904 56.7738ZM31.0378 58.3456C30.9083 58.4916 30.6328 58.4525 30.4309 58.2531C30.2246 58.0583 30.167 57.7818 30.2969 57.6356C30.4278 57.4893 30.705 57.5304 30.9083 57.7281C31.1133 57.9226 31.1759 58.2012 31.0379 58.3456H31.0378ZM32.7792 58.8763C32.7223 59.0655 32.4568 59.1515 32.1894 59.0712C31.9224 58.9883 31.7475 58.7666 31.8014 58.5754C31.857 58.3849 32.1236 58.2952 32.3931 58.3813C32.6597 58.4637 32.8349 58.6838 32.7794 58.8763H32.7792ZM34.7613 59.1013C34.768 59.3007 34.5412 59.466 34.2604 59.4696C33.978 59.4758 33.7497 59.3145 33.7467 59.1186C33.7467 58.9173 33.9684 58.7535 34.2506 58.7488C34.5313 58.7431 34.7613 58.9032 34.7613 59.1013ZM36.7083 59.0249C36.742 59.2194 36.5468 59.4192 36.2681 59.4722C35.9941 59.5234 35.7404 59.4034 35.7054 59.2107C35.6713 59.0113 35.8702 58.8117 36.1437 58.76C36.4229 58.7103 36.6728 58.8272 36.7083 59.0249Z" fill="#161614"/>
</svg>
