<svg width="85" height="87" viewBox="0 0 85 87" fill="none" xmlns="http://www.w3.org/2000/svg">
<path d="M30.0314 36.5593H38.9379V37.2803H30.8478V42.7074H38.4555V43.4285H30.8478V49.3869H39.0307V50.108H30.0314V36.5593ZM39.7358 36.5593H40.6821L44.8756 42.5177L49.1619 36.5593L54.9919 28.9907L45.4137 43.1439L50.3494 50.108H49.366L44.8756 43.7701L40.3667 50.108H39.4018L44.3746 43.1439L39.7358 36.5593ZM50.702 37.2803V36.5593H60.8517V37.2803H56.1758V50.108H55.3594V37.2803H50.702Z" fill="black"/>
<path d="M18.8889 36.5591H19.9095L33.9821 58.0094L28.1666 50.1078L19.7425 37.5838L19.7053 50.1078H18.8889V36.5591Z" fill="black"/>
<path d="M60.7694 49.1695C60.9382 49.1695 61.0614 49.0378 61.0614 48.8677C61.0614 48.6976 60.9382 48.5659 60.7694 48.5659C60.6026 48.5659 60.4775 48.6976 60.4775 48.8677C60.4775 49.0378 60.6026 49.1695 60.7694 49.1695ZM61.5717 48.3756C61.5717 48.8778 61.9271 49.206 62.4454 49.206C62.9975 49.206 63.3311 48.8677 63.3311 48.2804V46.2125H62.8863V48.2783C62.8863 48.6044 62.7254 48.7786 62.4414 48.7786C62.1873 48.7786 62.0145 48.6166 62.0086 48.3756H61.5717ZM63.9129 48.3492C63.9447 48.8718 64.3716 49.206 65.007 49.206C65.6862 49.206 66.1111 48.8556 66.1111 48.2966C66.1111 47.8571 65.8689 47.614 65.2811 47.4743L64.9653 47.3953C64.592 47.3062 64.4411 47.1867 64.4411 46.9781C64.4411 46.7148 64.6754 46.5426 65.0269 46.5426C65.3605 46.5426 65.5909 46.7107 65.6326 46.9801H66.0654C66.0396 46.4879 65.6147 46.1416 65.0329 46.1416C64.4073 46.1416 63.9903 46.4879 63.9903 47.0084C63.9903 47.4378 64.2266 47.693 64.7449 47.8166L65.1143 47.9077C65.4936 47.9988 65.6604 48.1325 65.6604 48.3553C65.6604 48.6146 65.3982 48.8029 65.0408 48.8029C64.6576 48.8029 64.3915 48.6267 64.3537 48.3492H63.9129Z" fill="black"/>
</svg>
