<svg width="85" height="87" viewBox="0 0 85 87" fill="none" xmlns="http://www.w3.org/2000/svg">
<path d="M61.1871 28.7292C58.3327 24.946 54.4463 22.1142 50.0194 20.5919C45.5925 19.0695 40.8239 18.9251 36.3168 20.1768C31.8097 21.4286 27.7665 24.0202 24.6985 27.6241C21.6305 31.2279 19.6757 35.682 19.0811 40.4231C18.4865 45.1642 19.2789 49.9792 21.3581 54.2593C23.4373 58.5394 26.7099 62.0923 30.762 64.4686C34.8141 66.8449 39.4637 67.9378 44.1228 67.6093C48.7818 67.2807 53.241 65.5453 56.9364 62.6227C67.2514 54.4635 69.1551 39.2907 61.1864 28.7292H61.1871Z" fill="#FF6C37"/>
<path d="M50.4633 34.7318L40.5076 45.0026L37.6943 42.0422C47.4927 32.0131 48.4763 32.9193 50.464 34.7318H50.4633Z" fill="white"/>
<path d="M40.5077 45.2832C40.4195 45.281 40.3353 45.2452 40.2715 45.1828L37.4382 42.2828C37.3744 42.2152 37.3388 42.1249 37.3388 42.031C37.3388 41.937 37.3744 41.8467 37.4382 41.7791C47.0988 31.8913 48.4173 32.3542 50.6995 34.4688C50.7377 34.5001 50.7682 34.54 50.7887 34.5855C50.8092 34.631 50.8191 34.6807 50.8175 34.7308C50.8323 34.829 50.7954 34.9294 50.7194 34.9929L40.7637 45.1836C40.6939 45.2491 40.6024 45.285 40.5077 45.284V45.2832ZM38.1857 42.0412L40.5077 44.4178L49.952 34.7512C49.6259 34.3329 49.1606 34.0524 48.6451 33.9632C48.1296 33.874 47.6001 33.9825 47.1578 34.2679C45.446 35.0533 42.6917 37.4495 38.1857 42.0412Z" fill="#FF6C37"/>
<path d="M43.3608 47.842L40.6456 45.0024L50.6013 34.9326C53.2775 37.6113 49.3027 42.0821 43.3608 47.8412V47.842Z" fill="white"/>
<path d="M43.3609 48.2044C43.2738 48.1974 43.1911 48.1622 43.1248 48.104L40.3505 45.3249C40.3089 45.2216 40.3089 45.1057 40.3505 45.0024C40.321 44.9177 40.321 44.8251 40.3505 44.7403L50.3062 34.5504C50.3754 34.4838 50.4669 34.4468 50.5619 34.4468C50.6569 34.4468 50.7483 34.4838 50.8175 34.5504C51.1399 34.8542 51.3947 35.2254 51.5644 35.6389C51.7341 36.0524 51.8148 36.4984 51.8011 36.9467C51.8011 39.6654 48.7708 43.0887 43.6162 48.0836C43.5473 48.1534 43.4567 48.1961 43.3602 48.2044H43.3609ZM41.157 45.0024L43.3801 47.2771C47.315 43.4708 51.0736 39.5438 51.0927 36.8855C51.1141 36.322 50.9321 35.7701 50.5814 35.3351L41.157 45.0024Z" fill="#FF6C37"/>
<path d="M37.7725 42.1025L39.7403 44.1166C39.7529 44.128 39.7629 44.1419 39.7698 44.1576C39.7767 44.1732 39.7803 44.1901 39.7803 44.2073C39.7803 44.2244 39.7767 44.2414 39.7698 44.257C39.7629 44.2726 39.7529 44.2866 39.7403 44.2979L35.5885 45.2041C35.5047 45.2226 35.4173 45.2126 35.3395 45.1756C35.2618 45.1385 35.198 45.0765 35.1579 44.999C35.1178 44.9214 35.1036 44.8325 35.1174 44.7459C35.1312 44.6593 35.1722 44.5797 35.2343 44.5192L37.6544 42.0625C37.6544 42.0625 37.7334 42.0625 37.7725 42.1025Z" fill="white"/>
<path d="M35.4903 45.6064C35.3591 45.6047 35.2306 45.5687 35.1169 45.5016C35.0032 45.4346 34.9083 45.3389 34.841 45.2236C34.7654 45.0775 34.7379 44.9103 34.7628 44.7469C34.7877 44.5836 34.8635 44.4329 34.979 44.3173L37.3792 41.8403C37.4658 41.7611 37.5778 41.7173 37.6939 41.7173C37.81 41.7173 37.922 41.7611 38.0086 41.8403L39.9764 43.8544C40.093 43.9677 40.1387 44.1391 40.0944 44.2977C40.0502 44.4563 39.9203 44.5824 39.7602 44.6201L35.6084 45.5264L35.4903 45.6064ZM37.6942 42.5456L35.4711 44.821L39.1507 44.0152L37.6942 42.5456Z" fill="#FF6C37"/>
<path d="M55.7567 29.0719C54.3326 27.6657 52.0954 27.6068 50.602 28.9337C49.1086 30.2606 48.8533 32.5383 50.0162 34.1771C51.179 35.8159 53.3712 36.275 55.0683 35.2343L52.3921 32.4952L55.7567 29.0719Z" fill="white"/>
<path d="M53.1004 36.1602C52.2823 36.1495 51.4853 35.8926 50.8088 35.4215C50.1323 34.9504 49.6062 34.286 49.2961 33.511C48.9862 32.7366 48.9049 31.8862 49.0622 31.065C49.2196 30.2438 49.6087 29.4879 50.1815 28.8907C50.9692 28.0992 52.029 27.6558 53.1329 27.6558C54.2367 27.6558 55.2965 28.0992 56.0843 28.8907C56.1595 28.9556 56.2023 29.0515 56.2023 29.1527C56.2021 29.2025 56.1915 29.2517 56.1711 29.2969C56.1508 29.3421 56.1211 29.3823 56.0843 29.4148L52.8968 32.496L55.3169 34.933C55.3561 34.9714 55.3856 35.0189 55.4027 35.0716C55.4198 35.1243 55.424 35.1804 55.415 35.2351C55.4092 35.2879 55.3921 35.3388 55.365 35.384C55.3378 35.4293 55.3012 35.468 55.2579 35.4972C54.6077 35.9131 53.8603 36.1427 53.0938 36.1618L53.1004 36.1602ZM53.1004 28.3462C51.6985 28.3537 50.4442 29.2169 49.9181 30.5362C49.392 31.8556 49.6783 33.3743 50.6611 34.3878C51.1499 34.891 51.7759 35.2315 52.4569 35.3645C53.138 35.4975 53.8424 35.4168 54.478 35.1332L52.156 32.7565C52.1191 32.7263 52.0893 32.688 52.0688 32.6444C52.0483 32.6008 52.0377 32.5531 52.0377 32.5047C52.0377 32.4563 52.0483 32.4086 52.0688 32.365C52.0893 32.3214 52.1191 32.283 52.156 32.2528L55.2254 29.0908C54.6153 28.6122 53.8691 28.3505 53.1004 28.3454V28.3462Z" fill="#FF6C37"/>
<path d="M55.8156 29.1323L52.4511 32.5556L55.1272 35.2948C55.3966 35.1365 55.6473 34.9472 55.8747 34.7306C56.576 33.9718 56.9619 32.9638 56.9509 31.9193C56.9399 30.8747 56.5328 29.8755 55.8156 29.1323Z" fill="white"/>
<path d="M55.0675 35.5968C55.0233 35.5993 54.9791 35.5915 54.9382 35.5741C54.8974 35.5568 54.8608 35.5302 54.8314 35.4964L52.1552 32.7573C52.1183 32.7271 52.0885 32.6887 52.068 32.6451C52.0475 32.6015 52.0369 32.5538 52.0369 32.5054C52.0369 32.457 52.0475 32.4093 52.068 32.3657C52.0885 32.3221 52.1183 32.2838 52.1552 32.2536L55.4998 28.8906C55.5321 28.8408 55.576 28.7999 55.6275 28.7716C55.679 28.7433 55.7365 28.7285 55.795 28.7285C55.8534 28.7285 55.911 28.7433 55.9625 28.7716C56.0139 28.7999 56.0578 28.8408 56.0901 28.8906C56.4828 29.2844 56.7947 29.7544 57.0076 30.2731C57.2206 30.7918 57.3303 31.3488 57.3303 31.9114C57.3303 32.4741 57.2206 33.0311 57.0076 33.5498C56.7947 34.0685 56.4828 34.5385 56.0901 34.9323C55.8585 35.1837 55.5935 35.4006 55.3028 35.5765C55.2297 35.6142 55.145 35.6215 55.0667 35.5968H55.0675ZM52.9034 32.496L55.1265 34.7714C55.2794 34.6617 55.4242 34.5405 55.5596 34.4089C56.2131 33.7418 56.5812 32.8365 56.583 31.8918C56.5845 31.0464 56.2834 30.2297 55.7367 29.596L52.9034 32.496Z" fill="#FF6C37"/>
<path d="M50.8765 35.1546C50.61 34.8984 50.2582 34.7559 49.8926 34.7559C49.527 34.7559 49.1752 34.8984 48.9087 35.1546L39.9963 44.2563L41.472 45.7871L50.8965 37.3288C51.0402 37.1878 51.1542 37.0182 51.2315 36.8304C51.3087 36.6427 51.3476 36.4407 51.3458 36.2369C51.3439 36.0332 51.3013 35.832 51.2206 35.6457C51.1399 35.4594 51.0228 35.292 50.8765 35.1538V35.1546Z" fill="white"/>
<path d="M41.3931 46.1504C41.3049 46.1482 41.2207 46.1124 41.157 46.05L39.6614 44.5192C39.5976 44.4516 39.5619 44.3613 39.5619 44.2673C39.5619 44.1733 39.5976 44.083 39.6614 44.0155L48.5745 34.9326C48.8312 34.6702 49.159 34.4927 49.5155 34.4233C49.8719 34.3539 50.2405 34.3956 50.5735 34.5432C50.9065 34.6908 51.1885 34.9373 51.3829 35.2509C51.5773 35.5645 51.6752 35.9306 51.6638 36.3018C51.6536 36.5538 51.5944 36.8011 51.4896 37.0293C51.3848 37.2576 51.2366 37.4621 51.0536 37.631L41.6292 46.0892C41.5606 46.1389 41.4764 46.1605 41.3931 46.1497V46.1504ZM40.3505 44.2564L41.3341 45.2834L50.5814 37.0465C50.8101 36.8426 50.9466 36.551 50.9555 36.2407C50.9643 35.9303 50.8448 35.6267 50.6213 35.4152C50.4148 35.2048 50.1353 35.0866 49.8439 35.0866C49.5526 35.0866 49.2731 35.2048 49.0666 35.4152L40.3505 44.2564Z" fill="#FF6C37"/>
<path d="M33.0901 54.6282C33.065 54.6632 33.0514 54.7055 33.0514 54.749C33.0514 54.7925 33.065 54.8348 33.0901 54.8698L33.4834 56.6219C33.4992 56.725 33.4842 56.8306 33.4405 56.9249C33.3969 57.0191 33.3264 57.0978 33.2385 57.1505C33.1508 57.203 33.0491 57.2257 32.9481 57.2152C32.847 57.2048 32.7518 57.1617 32.6762 57.0924L29.9809 54.4341L38.3827 45.7666H41.2949L43.2627 47.7807C40.1931 50.5277 36.7705 52.8316 33.0901 54.6282Z" fill="white"/>
<path d="M32.9131 57.5887C32.6903 57.5841 32.4704 57.4905 32.3228 57.3266L29.7455 54.6887C29.7086 54.6585 29.6788 54.6202 29.6583 54.5766C29.6379 54.533 29.6272 54.4852 29.6272 54.4368C29.6272 54.3885 29.6379 54.3407 29.6583 54.2971C29.6788 54.2535 29.7086 54.2152 29.7455 54.185L38.2056 45.5055C38.253 45.4539 38.3149 45.4188 38.3827 45.405H41.3141C41.3905 45.3774 41.4739 45.3774 41.5502 45.405L43.5181 47.4191C43.5555 47.4544 43.584 47.4985 43.6011 47.5476C43.6182 47.5967 43.6234 47.6492 43.6162 47.7008C43.6176 47.7509 43.6077 47.8006 43.5872 47.846C43.5667 47.8915 43.5362 47.9315 43.4981 47.9629L43.341 48.1041C40.259 50.734 36.8682 52.9596 33.2473 54.7295L33.6214 56.3607C33.6503 56.4866 33.6514 56.6174 33.6247 56.7437C33.5979 56.8701 33.5439 56.9887 33.4666 57.0909C33.3893 57.1932 33.2907 57.2765 33.178 57.3348C33.0652 57.3931 32.9412 57.4248 32.815 57.4278L32.9131 57.5887ZM30.5129 54.4266L32.8341 56.8229C32.8558 56.8426 32.8837 56.8536 32.9127 56.8536C32.9417 56.8536 32.9697 56.8426 32.9913 56.8229C33.0058 56.8023 33.0136 56.7776 33.0136 56.7523C33.0136 56.7269 33.0058 56.7022 32.9913 56.6817L32.598 54.9296C32.567 54.8039 32.5795 54.671 32.6333 54.5536C32.6871 54.4362 32.7789 54.3414 32.8932 54.2854C36.4167 52.5392 39.72 50.3616 42.7308 47.8005L41.1171 46.1489H38.4808L30.5129 54.4266Z" fill="#FF6C37"/>
<path d="M27.9548 56.5009L29.9226 54.4868L32.9529 57.5884L28.1326 57.2463C28.0498 57.2397 27.9712 57.2064 27.908 57.1514C27.8448 57.0963 27.8002 57.0222 27.7805 56.9396C27.7609 56.8571 27.7673 56.7703 27.7987 56.6916C27.8301 56.613 27.885 56.5465 27.9555 56.5017L27.9548 56.5009Z" fill="white"/>
<path d="M33.0112 57.8907L28.2101 57.5486C27.9253 57.5214 27.6803 57.322 27.58 57.0555C27.4796 56.7889 27.5409 56.4724 27.7379 56.2595L29.7057 54.2453C29.7717 54.1801 29.8599 54.1436 29.9517 54.1436C30.0436 54.1436 30.1318 54.1801 30.1978 54.2453L33.2082 57.3266C33.2499 57.385 33.2723 57.4555 33.2723 57.5278C33.2723 57.6002 33.2499 57.6707 33.2082 57.7291C33.1627 57.8044 33.0931 57.8613 33.0112 57.89V57.8907ZM28.2101 56.7632L32.145 57.0253L29.9809 54.9507L28.2101 56.7632Z" fill="#FF6C37"/>
<path d="M41.5701 46.0096L37.5954 46.6342L39.8974 44.2983L41.5701 46.0096Z" fill="white"/>
<path d="M37.5954 47.0157C37.5293 47.0175 37.4642 46.9993 37.4082 46.9635C37.3522 46.9276 37.3077 46.8757 37.2803 46.8141C37.2384 46.7558 37.2159 46.6852 37.2159 46.6128C37.2159 46.5404 37.2384 46.4699 37.2803 46.4116L39.5625 44.0553C39.6317 43.9887 39.7231 43.9517 39.8181 43.9517C39.9131 43.9517 40.0045 43.9887 40.0738 44.0553L41.7472 45.7666C41.7806 45.8209 41.7983 45.8837 41.7983 45.9479C41.7983 46.012 41.7806 46.0749 41.7472 46.1291C41.7308 46.1953 41.6961 46.2552 41.6473 46.3016C41.5985 46.3481 41.5376 46.3792 41.472 46.3912L37.5371 47.0157H37.5954ZM39.8974 44.8203L38.6188 46.1291L40.8227 45.787L39.8974 44.8203Z" fill="#FF6C37"/>
<path d="M41.5701 46.0085L38.7959 46.371C38.7216 46.3882 38.6439 46.3805 38.5743 46.349C38.5047 46.3175 38.4468 46.2639 38.4093 46.1961C38.3718 46.1283 38.3566 46.0499 38.366 45.9726C38.3755 45.8952 38.409 45.8231 38.4616 45.7668L39.8982 44.2964L41.5701 46.0085Z" fill="white"/>
<path d="M38.7169 46.7542C38.5883 46.753 38.4623 46.7169 38.3518 46.6496C38.2413 46.5824 38.1501 46.4863 38.0875 46.3713C38.0124 46.2335 37.9833 46.0743 38.0046 45.9179C38.0259 45.7616 38.0965 45.6167 38.2056 45.5051L39.6422 44.0347C39.7114 43.9681 39.8028 43.9311 39.8978 43.9311C39.9928 43.9311 40.0843 43.9681 40.1535 44.0347L41.8262 45.7468C41.8759 45.795 41.9109 45.857 41.9269 45.9252C41.943 45.9934 41.9393 46.0649 41.9164 46.131C41.8935 46.1971 41.8524 46.255 41.798 46.2976C41.7436 46.3403 41.6783 46.3659 41.61 46.3713L38.8556 46.7338L38.7169 46.7542ZM38.7169 46.0088L40.8028 45.7468L39.8783 44.8005L38.6977 46.0088H38.7169ZM55.8348 31.4485C55.7978 31.385 55.7392 31.3375 55.6702 31.3153C55.6013 31.293 55.5267 31.2974 55.4607 31.3277C55.4282 31.3446 55.3992 31.368 55.3757 31.3965C55.3521 31.4251 55.3344 31.4581 55.3235 31.4938C55.3016 31.5658 55.3085 31.6438 55.3427 31.7106C55.4807 32.0074 55.4423 32.3585 55.2445 32.6168C55.22 32.6417 55.2008 32.6715 55.188 32.7044C55.1753 32.7373 55.1695 32.7725 55.1708 32.8079C55.1715 32.8787 55.1978 32.9468 55.2445 32.9989C55.295 33.0193 55.3512 33.0193 55.4017 32.9989C55.4475 33.0107 55.4956 33.0094 55.5408 32.9952C55.5859 32.9809 55.6264 32.9543 55.6577 32.9181C55.8198 32.7151 55.9224 32.4693 55.9537 32.2091C55.985 31.9489 55.9438 31.685 55.8348 31.4478V31.4485Z" fill="#FF6C37"/>
</svg>
