<svg width="85" height="87" viewBox="0 0 85 87" fill="none" xmlns="http://www.w3.org/2000/svg">
<path d="M65.2176 48.2862C64.943 47.4328 64.2239 46.8384 63.2938 46.6958C62.8553 46.6286 62.3531 46.6572 61.7587 46.783C60.7228 47.0023 59.9543 47.0859 59.3934 47.102C61.5105 43.4334 63.2319 39.2499 64.223 35.3118C65.8255 28.944 64.9692 26.043 63.9685 24.7309C61.3202 21.2578 57.4564 19.392 52.7951 19.3349C50.3085 19.3037 48.1256 19.8076 46.9868 20.1699C45.9266 19.9779 44.7866 19.8707 43.5904 19.8509C41.3481 19.8142 39.3669 20.3159 37.6741 21.347C36.7369 21.0217 35.2327 20.5631 33.4957 20.2705C29.4103 19.5821 26.1176 20.1185 23.7092 21.8648C20.7928 23.9792 19.4408 27.6527 19.6908 32.7835C19.7703 34.4125 20.6581 39.3688 22.056 44.0693C22.8594 46.771 23.7161 49.0146 24.6024 50.7383C25.8592 53.1825 27.204 54.6219 28.7137 55.1388C29.5598 55.4281 31.0973 55.6308 32.7143 54.2485C32.9192 54.5033 33.1927 54.7565 33.5556 54.9916C34.0165 55.2899 34.5801 55.5337 35.1429 55.6781C37.1713 56.1986 39.0713 56.0684 40.6922 55.3389C40.7023 55.6348 40.7099 55.9175 40.7164 56.1617C40.7271 56.5576 40.7378 56.9459 40.752 57.309C40.848 59.764 41.0108 61.6729 41.493 63.0086C41.5194 63.082 41.555 63.194 41.5926 63.3128C41.8331 64.0687 42.2354 65.3342 43.2588 66.3253C44.3185 67.352 45.6003 67.6668 46.7743 67.6668C47.3631 67.6668 47.9249 67.5875 48.4177 67.4792C50.174 67.0928 52.1688 66.5043 53.6117 64.3955C54.976 62.4019 55.6392 59.3993 55.7592 54.6682C55.7748 54.5343 55.7891 54.4066 55.8029 54.2849L55.8315 54.0348L56.1529 54.0638L56.2357 54.0695C58.0246 54.1532 60.212 53.7639 61.5554 53.1234C62.6169 52.6179 66.0185 50.7747 65.2176 48.2862Z" fill="black"/>
<path d="M62.1589 48.7702C56.8398 49.8964 56.474 48.0481 56.474 48.0481C62.09 39.4951 64.4378 28.6382 62.412 25.9811C56.8847 18.7329 47.3168 22.1608 47.1571 22.2497L47.1058 22.2592C46.0549 22.0353 44.8789 21.902 43.557 21.8798C41.1503 21.8394 39.3246 22.5274 37.9392 23.6057C37.9392 23.6057 20.8711 16.3889 21.665 32.6821C21.8339 36.1482 26.5056 58.9091 32.0776 52.0343C34.1142 49.5203 36.0821 47.3948 36.0821 47.3948C37.0594 48.0611 38.2294 48.4011 39.456 48.279L39.5514 48.196C39.5217 48.5081 39.5353 48.8134 39.5895 49.1748C38.154 50.8209 38.5759 51.1098 35.7063 51.7161C32.8027 52.3304 34.5084 53.4237 35.6221 53.7097C36.9723 54.0561 40.0958 54.547 42.2063 51.5146L42.1222 51.8606C42.6845 52.323 43.0794 54.868 43.0133 57.1753C42.9471 59.4824 42.9029 61.0664 43.3459 62.3037C43.7893 63.5409 44.2309 66.3247 48.0033 65.4952C51.1552 64.8018 52.7887 63.0053 53.016 60.0083C53.1772 57.8778 53.5422 58.1928 53.5651 56.2879L53.8579 55.3862C54.1954 52.4981 53.9116 51.5664 55.8534 51.9998L56.3256 52.0423C57.7546 52.109 59.6254 51.8063 60.7234 51.2826C63.0875 50.1565 64.4897 48.2762 62.1585 48.7702H62.1589Z" fill="#336791"/>
<path d="M38.9382 34.2321C38.4589 34.1637 38.0248 34.227 37.8052 34.3977C37.6818 34.4937 37.6435 34.605 37.6331 34.6815C37.6056 34.8844 37.744 35.1087 37.8292 35.2243C38.0699 35.5518 38.4215 35.7769 38.7696 35.8264C38.82 35.8338 38.8703 35.8371 38.9202 35.8371C39.5006 35.8371 40.0284 35.3732 40.0749 35.0308C40.133 34.602 39.5265 34.3162 38.9382 34.2323V34.2321ZM54.8176 34.2457C54.7718 33.9096 54.1891 33.8138 53.6361 33.8927C53.0838 33.9717 52.5483 34.2276 52.593 34.5644C52.6288 34.8264 53.0897 35.2735 53.6352 35.2735C53.6814 35.2735 53.7279 35.2704 53.7747 35.2636C54.1389 35.2118 54.4061 34.9745 54.5331 34.8377C54.7262 34.6292 54.8382 34.3968 54.8176 34.2457Z" fill="white"/>
<path d="M63.9289 48.6424C63.7261 48.0129 63.0732 47.8105 61.9887 48.0403C58.7684 48.7224 57.6151 48.2499 57.2365 47.9637C59.7396 44.05 61.7987 39.3191 62.9096 34.9052C63.4358 32.8143 63.7264 30.8725 63.7502 29.2898C63.7765 27.5527 63.4882 26.2762 62.8937 25.4964C60.4967 22.3527 56.9786 20.6665 52.7201 20.6202C49.7924 20.5864 47.3188 21.3554 46.8393 21.5717C45.8295 21.3139 44.7287 21.1557 43.5302 21.1355C41.3324 21.099 39.4326 21.639 37.8598 22.7399C37.1766 22.4789 35.4109 21.8567 33.2516 21.4997C29.5185 20.8829 26.5521 21.3503 24.4351 22.8895C21.9092 24.7263 20.7431 28.0096 20.9689 32.648C21.045 34.2085 21.9113 39.0092 23.2785 43.6067C25.0781 49.6579 27.0344 53.0835 29.0927 53.7882C29.3336 53.8706 29.6114 53.9283 29.9177 53.9283C30.6686 53.9283 31.5891 53.581 32.5469 52.3991C33.7151 50.9608 34.9235 49.5574 36.1707 48.1906C36.9798 48.6363 37.8687 48.8853 38.7778 48.9102C38.7796 48.9346 38.7819 48.9591 38.7841 48.9833C38.6276 49.1748 38.4744 49.3691 38.3244 49.5661C37.6945 50.3869 37.5634 50.5578 35.5357 50.9862C34.9589 51.1085 33.427 51.4325 33.4045 52.5346C33.3802 53.7388 35.2154 54.2446 35.4245 54.2982C36.1531 54.4854 36.8552 54.5777 37.5246 54.5777C39.1527 54.5777 40.5855 54.0285 41.7305 52.9658C41.6953 57.2588 41.8697 61.4889 42.3719 62.7778C42.7833 63.8329 43.7881 66.4115 46.962 66.4113C47.4278 66.4113 47.9404 66.3557 48.5043 66.2316C51.8169 65.5028 53.2554 64.0001 53.8118 60.6873C54.1096 58.9168 54.6206 54.689 54.861 52.4212C55.3682 52.5836 56.0212 52.658 56.7271 52.6578C58.1995 52.6578 59.8984 52.3367 60.9638 51.8292C62.1607 51.2586 64.3206 49.8587 63.9289 48.6424ZM56.0403 33.3181C56.0294 33.9875 55.9396 34.5953 55.8445 35.2297C55.742 35.9121 55.6361 36.6175 55.6095 37.4739C55.5832 38.3073 55.6846 39.1737 55.7826 40.0117C55.9808 41.7042 56.1841 43.4467 55.397 45.166C55.2662 44.9282 55.1498 44.6824 55.0482 44.43C54.9504 44.1866 54.7379 43.7956 54.4437 43.2545C53.2992 41.1478 50.6191 36.2146 51.9911 34.2016C52.3997 33.6024 53.4369 32.9863 56.0403 33.3181ZM52.8846 21.9759C56.7003 22.0623 59.7186 23.5274 61.8556 26.3301C63.4946 28.4799 61.6898 38.2618 56.4649 46.7006C56.4124 46.632 56.3596 46.5637 56.3065 46.4956L56.2403 46.4107C57.5905 44.1222 57.3265 41.8579 57.0914 39.8504C56.9949 39.0265 56.9037 38.2484 56.9269 37.5174C56.9509 36.7427 57.0507 36.0782 57.1473 35.4357C57.2658 34.644 57.3866 33.8247 57.3533 32.8589C57.3782 32.7576 57.3882 32.6379 57.3751 32.4958C57.2902 31.5697 56.26 28.798 54.1602 26.2894C53.0116 24.9172 51.3366 23.3816 49.0496 22.346C50.0333 22.1367 51.3785 21.9415 52.8846 21.9759ZM31.5333 51.5342C30.4781 52.8364 29.7494 52.5867 29.5098 52.5049C27.9484 51.9703 26.1366 48.5831 24.5392 43.2119C23.1571 38.5643 22.3493 33.8908 22.2853 32.5803C22.0836 28.4357 23.0624 25.5472 25.1949 23.995C28.6654 21.469 34.3712 22.9809 36.664 23.7477C36.631 23.7811 36.5967 23.8123 36.5642 23.8463C32.8018 27.746 32.891 34.4088 32.9003 34.8162C32.9 34.9733 32.9128 35.1958 32.9304 35.5018C32.9951 36.6225 33.1157 38.7082 32.7937 41.0702C32.4947 43.2651 33.1539 45.4134 34.6021 46.9644C34.7507 47.1233 34.907 47.2745 35.0702 47.4174C34.4256 48.126 33.0246 49.693 31.5333 51.5342ZM35.5538 46.0284C34.3866 44.7783 33.8565 43.0395 34.0992 41.2574C34.439 38.7623 34.3136 36.5893 34.2462 35.4218C34.2367 35.2584 34.2283 35.1152 34.2235 35.0023C34.7731 34.5021 37.3202 33.1014 39.1366 33.5286C39.9654 33.7234 40.4705 34.3027 40.6805 35.2991C41.7672 40.458 40.8243 42.6081 40.0667 44.336C39.9105 44.692 39.763 45.0285 39.6371 45.3765L39.5394 45.6456C39.2922 46.3259 39.0622 46.9585 38.9197 47.5592C37.6788 47.5555 36.4717 47.0114 35.5538 46.0282V46.0284ZM35.7443 52.9856C35.3819 52.8927 35.0561 52.7314 34.8649 52.5976C35.0246 52.5205 35.3088 52.4155 35.8017 52.3112C38.1871 51.8073 38.5555 51.4516 39.36 50.4032C39.5444 50.1627 39.7535 49.8903 40.0431 49.5584L40.0434 49.558C40.4746 49.0624 40.6719 49.1465 41.0296 49.2988C41.3195 49.4218 41.6019 49.7948 41.7164 50.2053C41.7706 50.3991 41.8314 50.767 41.6324 51.0534C39.9518 53.4684 37.503 53.4374 35.7443 52.9856ZM48.2281 64.9088C45.31 65.5506 44.2767 64.0224 43.5958 62.2753C43.1564 61.1475 42.9403 56.0615 43.0936 50.4449C43.0956 50.3701 43.0852 50.298 43.0652 50.2301C43.0472 50.096 43.02 49.9633 42.9836 49.8332C42.7557 49.016 42.2004 48.3323 41.5342 48.0489C41.2695 47.9364 40.7837 47.7299 40.1999 47.8832C40.3244 47.3567 40.5403 46.7621 40.7744 46.1183L40.8726 45.8476C40.9831 45.5423 41.1219 45.226 41.2686 44.8912C42.0614 43.0834 43.1472 40.6072 41.9688 35.0133C41.5274 32.9181 40.0532 31.8948 37.8186 32.1326C36.479 32.2748 35.2533 32.8296 34.642 33.1477C34.5105 33.216 34.3904 33.2821 34.278 33.3463C34.4487 31.2353 35.0933 27.29 37.5046 24.7938C39.0229 23.2225 41.0448 22.4464 43.5084 22.4882C48.3625 22.5697 51.4752 25.1265 53.232 27.2572C54.7458 29.093 55.5655 30.9425 55.8926 31.94C53.4324 31.6832 51.7593 32.1816 50.9111 33.4262C49.0659 36.1335 51.9206 41.3879 53.2926 43.9133C53.5442 44.3761 53.7614 44.7761 53.8297 44.9461C54.2765 46.0574 54.8549 46.7994 55.2772 47.3409C55.4066 47.5068 55.5322 47.6678 55.6277 47.8084C54.8826 48.0289 53.5442 48.5383 53.6662 51.0846C53.5678 52.3622 52.8683 58.344 52.513 60.4574C52.0438 63.2495 51.0428 64.2894 48.2281 64.909V64.9088ZM60.4088 50.6022C59.6469 50.9651 58.3719 51.2373 57.1607 51.2959C55.8228 51.3601 55.1418 51.1421 54.9815 51.0079C54.9064 49.4211 55.4818 49.2553 56.0908 49.0798C56.1864 49.0523 56.2798 49.0253 56.37 48.993C56.4259 49.0398 56.4873 49.0863 56.5545 49.1318C57.6298 49.8602 59.5477 49.9388 62.2553 49.3651L62.285 49.359C61.9198 49.7095 61.2949 50.1798 60.4088 50.6022Z" fill="white"/>
</svg>
