<svg width="85" height="87" viewBox="0 0 85 87" fill="none" xmlns="http://www.w3.org/2000/svg">
<path d="M53.7435 28.54H55.9922C56.6218 28.54 57.1165 29.0464 57.1165 29.6908C57.1165 30.3353 56.6218 30.8416 55.9922 30.8416H53.7435C53.1139 30.8416 52.6191 30.3353 52.6191 29.6908C52.6191 29.0464 53.1139 28.54 53.7435 28.54Z" fill="#56B3B4"/>
<path d="M20.0133 65.3652H31.2566C31.8863 65.3652 32.381 65.8716 32.381 66.516C32.381 67.1605 31.8863 67.6668 31.2566 67.6668H20.0133C19.3836 67.6668 18.8889 67.1605 18.8889 66.516C18.8889 65.8716 19.3836 65.3652 20.0133 65.3652Z" fill="#EA5E5E"/>
<path d="M46.9974 46.9526H53.7433C54.373 46.9526 54.8677 47.459 54.8677 48.1034C54.8677 48.7478 54.373 49.2541 53.7433 49.2541H46.9974C46.3678 49.2541 45.873 48.7478 45.873 48.1034C45.873 47.459 46.3678 46.9526 46.9974 46.9526Z" fill="#BF85BF"/>
<path d="M33.5053 46.9526H42.5001C43.1297 46.9526 43.6244 47.459 43.6244 48.1034C43.6244 48.7478 43.1297 49.2541 42.5001 49.2541H33.5053C32.8757 49.2541 32.381 48.7478 32.381 48.1034C32.381 47.459 32.8757 46.9526 33.5053 46.9526Z" fill="#EA5E5E"/>
<path d="M20.0133 46.9526H29.008C29.6376 46.9526 30.1323 47.459 30.1323 48.1034C30.1323 48.7478 29.6376 49.2541 29.008 49.2541H20.0133C19.3836 49.2541 18.8889 48.7478 18.8889 48.1034C18.8889 47.459 19.3836 46.9526 20.0133 46.9526Z" fill="#56B3B4"/>
<path d="M20.0133 56.1587H31.2566C31.8863 56.1587 32.381 56.665 32.381 57.3095C32.381 57.9539 31.8863 58.4603 31.2566 58.4603H20.0133C19.3836 58.4603 18.8889 57.9539 18.8889 57.3095C18.8889 56.665 19.3836 56.1587 20.0133 56.1587Z" fill="#BF85BF"/>
<path d="M20.0133 37.7461H31.2566C31.8863 37.7461 32.381 38.2525 32.381 38.8969C32.381 39.5414 31.8863 40.0477 31.2566 40.0477H20.0133C19.3836 40.0477 18.8889 39.5414 18.8889 38.8969C18.8889 38.2525 19.3836 37.7461 20.0133 37.7461Z" fill="#BF85BF"/>
<path d="M31.2567 23.9365H53.7434C54.373 23.9365 54.8677 24.4429 54.8677 25.0873C54.8677 25.7318 54.373 26.2381 53.7434 26.2381H31.2567C30.627 26.2381 30.1323 25.7318 30.1323 25.0873C30.1323 24.4429 30.627 23.9365 31.2567 23.9365Z" fill="#F7BA3E"/>
<path d="M20.0133 23.9365H26.7593C27.3889 23.9365 27.8836 24.4429 27.8836 25.0873C27.8836 25.7318 27.3889 26.2381 26.7593 26.2381H20.0133C19.3836 26.2381 18.8889 25.7318 18.8889 25.0873C18.8889 24.4429 19.3836 23.9365 20.0133 23.9365Z" fill="#EA5E5E"/>
<path d="M29.008 60.7622H31.2567C31.8863 60.7622 32.381 61.2686 32.381 61.913C32.381 62.5575 31.8863 63.0638 31.2567 63.0638H29.008C28.3784 63.0638 27.8837 62.5575 27.8837 61.913C27.8837 61.2686 28.3784 60.7622 29.008 60.7622Z" fill="#F7BA3E"/>
<path d="M29.008 33.1431H31.2567C31.8863 33.1431 32.381 33.6494 32.381 34.2938C32.381 34.9383 31.8863 35.4446 31.2567 35.4446H29.008C28.3784 35.4446 27.8837 34.9383 27.8837 34.2938C27.8837 33.6494 28.3784 33.1431 29.008 33.1431Z" fill="#56B3B4"/>
<path d="M20.0133 60.7622H24.5106C25.1402 60.7622 25.635 61.2686 25.635 61.913C25.635 62.5575 25.1402 63.0638 24.5106 63.0638H20.0133C19.3836 63.0638 18.8889 62.5575 18.8889 61.913C18.8889 61.2686 19.3836 60.7622 20.0133 60.7622Z" fill="#56B3B4"/>
<path d="M20.0133 33.1431H24.5106C25.1402 33.1431 25.635 33.6494 25.635 34.2938C25.635 34.9383 25.1402 35.4446 24.5106 35.4446H20.0133C19.3836 35.4446 18.8889 34.9383 18.8889 34.2938C18.8889 33.6494 19.3836 33.1431 20.0133 33.1431Z" fill="#F7BA3E"/>
<path opacity="0.5" d="M49.2461 60.7622H51.4948C52.1244 60.7622 52.6191 61.2686 52.6191 61.913C52.6191 62.5575 52.1244 63.0638 51.4948 63.0638H49.2461C48.6165 63.0638 48.1218 62.5575 48.1218 61.913C48.1218 61.2686 48.6165 60.7622 49.2461 60.7622Z" fill="#D0D4D8"/>
<path opacity="0.5" d="M35.754 60.7622H44.7487C45.3784 60.7622 45.8731 61.2686 45.8731 61.913C45.8731 62.5575 45.3784 63.0638 44.7487 63.0638H35.754C35.1244 63.0638 34.6296 62.5575 34.6296 61.913C34.6296 61.2686 35.1244 60.7622 35.754 60.7622Z" fill="#D0D4D8"/>
<path opacity="0.5" d="M55.9921 60.7622H64.9869C65.6165 60.7622 66.1112 61.2686 66.1112 61.913C66.1112 62.5575 65.6165 63.0638 64.9869 63.0638H55.9921C55.3625 63.0638 54.8678 62.5575 54.8678 61.913C54.8678 61.2686 55.3625 60.7622 55.9921 60.7622Z" fill="#D0D4D8"/>
<path d="M38.0026 42.3491H55.992C56.6217 42.3491 57.1164 42.8555 57.1164 43.4999C57.1164 44.1443 56.6217 44.6507 55.992 44.6507H38.0026C37.373 44.6507 36.8783 44.1443 36.8783 43.4999C36.8783 42.8555 37.373 42.3491 38.0026 42.3491Z" fill="#56B3B4"/>
<path d="M26.7592 42.3491H33.5053C34.1349 42.3491 34.6296 42.8555 34.6296 43.4999C34.6296 44.1443 34.1349 44.6507 33.5053 44.6507H26.7592C26.1296 44.6507 25.6349 44.1443 25.6349 43.4999C25.6349 42.8555 26.1296 42.3491 26.7592 42.3491Z" fill="#F7BA3E"/>
<path d="M20.0133 42.3491H22.2619C22.8916 42.3491 23.3863 42.8555 23.3863 43.4999C23.3863 44.1443 22.8916 44.6507 22.2619 44.6507H20.0133C19.3836 44.6507 18.8889 44.1443 18.8889 43.4999C18.8889 42.8555 19.3836 42.3491 20.0133 42.3491Z" fill="#EA5E5E"/>
<path d="M40.2514 28.54H49.2461C49.8757 28.54 50.3704 29.0464 50.3704 29.6908C50.3704 30.3353 49.8757 30.8416 49.2461 30.8416H40.2514C39.6218 30.8416 39.1271 30.3353 39.1271 29.6908C39.1271 29.0464 39.6218 28.54 40.2514 28.54Z" fill="#BF85BF"/>
<path d="M20.0133 28.54H35.754C36.3836 28.54 36.8783 29.0464 36.8783 29.6908C36.8783 30.3353 36.3836 30.8416 35.754 30.8416H20.0133C19.3836 30.8416 18.8889 30.3353 18.8889 29.6908C18.8889 29.0464 19.3836 28.54 20.0133 28.54Z" fill="#56B3B4"/>
<path d="M26.7592 51.5557H46.9974C47.627 51.5557 48.1217 52.062 48.1217 52.7065C48.1217 53.3509 47.627 53.8573 46.9974 53.8573H26.7592C26.1296 53.8573 25.6349 53.3509 25.6349 52.7065C25.6349 52.062 26.1296 51.5557 26.7592 51.5557Z" fill="#F7BA3E"/>
<path d="M20.0133 51.5557H22.2619C22.8916 51.5557 23.3863 52.062 23.3863 52.7065C23.3863 53.3509 22.8916 53.8573 22.2619 53.8573H20.0133C19.3836 53.8573 18.8889 53.3509 18.8889 52.7065C18.8889 52.062 19.3836 51.5557 20.0133 51.5557Z" fill="#BF85BF"/>
<path d="M46.9974 33.1431H58.2407C58.8703 33.1431 59.3651 33.6494 59.3651 34.2938C59.3651 34.9383 58.8703 35.4446 58.2407 35.4446H46.9974C46.3678 35.4446 45.873 34.9383 45.873 34.2938C45.873 33.6494 46.3678 33.1431 46.9974 33.1431Z" fill="#EA5E5E"/>
<path d="M46.9974 37.7461H58.2407C58.8703 37.7461 59.3651 38.2525 59.3651 38.8969C59.3651 39.5414 58.8703 40.0477 58.2407 40.0477H46.9974C46.3678 40.0477 45.873 39.5414 45.873 38.8969C45.873 38.2525 46.3678 37.7461 46.9974 37.7461Z" fill="#F7BA3E"/>
<path d="M20.0133 19.3335H46.9974C47.627 19.3335 48.1217 19.8398 48.1217 20.4843C48.1217 21.1287 47.627 21.6351 46.9974 21.6351H20.0133C19.3836 21.6351 18.8889 21.1287 18.8889 20.4843C18.8889 19.8398 19.3836 19.3335 20.0133 19.3335Z" fill="#56B3B4"/>
<path opacity="0.5" d="M51.4947 19.3335H64.9868C65.6164 19.3335 66.1111 19.8398 66.1111 20.4843C66.1111 21.1287 65.6164 21.6351 64.9868 21.6351H51.4947C50.8651 21.6351 50.3704 21.1287 50.3704 20.4843C50.3704 19.8398 50.8651 19.3335 51.4947 19.3335Z" fill="#D0D4D8"/>
<path opacity="0.5" d="M51.4947 51.5557H55.992C56.6217 51.5557 57.1164 52.062 57.1164 52.7065C57.1164 53.3509 56.6217 53.8573 55.992 53.8573H51.4947C50.8651 53.8573 50.3704 53.3509 50.3704 52.7065C50.3704 52.062 50.8651 51.5557 51.4947 51.5557Z" fill="#D0D4D8"/>
<path opacity="0.5" d="M60.4895 51.5557H64.9868C65.6165 51.5557 66.1112 52.062 66.1112 52.7065C66.1112 53.3509 65.6165 53.8573 64.9868 53.8573H60.4895C59.8598 53.8573 59.3651 53.3509 59.3651 52.7065C59.3651 52.062 59.8598 51.5557 60.4895 51.5557Z" fill="#D0D4D8"/>
<path opacity="0.5" d="M58.2408 46.9526H64.9869C65.6165 46.9526 66.1112 47.459 66.1112 48.1034C66.1112 48.7478 65.6165 49.2541 64.9869 49.2541H58.2408C57.6112 49.2541 57.1165 48.7478 57.1165 48.1034C57.1165 47.459 57.6112 46.9526 58.2408 46.9526Z" fill="#D0D4D8"/>
<path opacity="0.5" d="M58.2408 23.9365H64.9869C65.6165 23.9365 66.1112 24.4429 66.1112 25.0873C66.1112 25.7318 65.6165 26.2381 64.9869 26.2381H58.2408C57.6112 26.2381 57.1165 25.7318 57.1165 25.0873C57.1165 24.4429 57.6112 23.9365 58.2408 23.9365Z" fill="#D0D4D8"/>
<path opacity="0.5" d="M60.4895 42.3491H64.9868C65.6165 42.3491 66.1112 42.8555 66.1112 43.4999C66.1112 44.1443 65.6165 44.6507 64.9868 44.6507H60.4895C59.8598 44.6507 59.3651 44.1443 59.3651 43.4999C59.3651 42.8555 59.8598 42.3491 60.4895 42.3491Z" fill="#D0D4D8"/>
<path opacity="0.5" d="M60.4895 28.54H64.9868C65.6165 28.54 66.1112 29.0464 66.1112 29.6908C66.1112 30.3353 65.6165 30.8416 64.9868 30.8416H60.4895C59.8598 30.8416 59.3651 30.3353 59.3651 29.6908C59.3651 29.0464 59.8598 28.54 60.4895 28.54Z" fill="#D0D4D8"/>
<path opacity="0.5" d="M62.7381 33.1431H64.9868C65.6164 33.1431 66.1111 33.6494 66.1111 34.2938C66.1111 34.9383 65.6164 35.4446 64.9868 35.4446H62.7381C62.1085 35.4446 61.6138 34.9383 61.6138 34.2938C61.6138 33.6494 62.1085 33.1431 62.7381 33.1431Z" fill="#D0D4D8"/>
<path opacity="0.5" d="M62.7381 37.7461H64.9868C65.6164 37.7461 66.1111 38.2525 66.1111 38.8969C66.1111 39.5414 65.6164 40.0477 64.9868 40.0477H62.7381C62.1085 40.0477 61.6138 39.5414 61.6138 38.8969C61.6138 38.2525 62.1085 37.7461 62.7381 37.7461Z" fill="#D0D4D8"/>
<path opacity="0.5" d="M44.7487 56.1587H64.9868C65.6164 56.1587 66.1111 56.665 66.1111 57.3095C66.1111 57.9539 65.6164 58.4603 64.9868 58.4603H44.7487C44.1191 58.4603 43.6244 57.9539 43.6244 57.3095C43.6244 56.665 44.1191 56.1587 44.7487 56.1587Z" fill="#D0D4D8"/>
<path opacity="0.5" d="M35.754 56.1587H40.2513C40.881 56.1587 41.3757 56.665 41.3757 57.3095C41.3757 57.9539 40.881 58.4603 40.2513 58.4603H35.754C35.1243 58.4603 34.6296 57.9539 34.6296 57.3095C34.6296 56.665 35.1243 56.1587 35.754 56.1587Z" fill="#D0D4D8"/>
<path opacity="0.5" d="M53.7435 65.3652H64.9869C65.6165 65.3652 66.1113 65.8716 66.1113 66.516C66.1113 67.1605 65.6165 67.6668 64.9869 67.6668H53.7435C53.1139 67.6668 52.6191 67.1605 52.6191 66.516C52.6191 65.8716 53.1139 65.3652 53.7435 65.3652Z" fill="#D0D4D8"/>
<path opacity="0.5" d="M35.754 65.3652H49.246C49.8756 65.3652 50.3704 65.8716 50.3704 66.516C50.3704 67.1605 49.8756 67.6668 49.246 67.6668H35.754C35.1243 67.6668 34.6296 67.1605 34.6296 66.516C34.6296 65.8716 35.1243 65.3652 35.754 65.3652Z" fill="#D0D4D8"/>
<path opacity="0.5" d="M35.754 33.1431H42.5001C43.1297 33.1431 43.6244 33.6494 43.6244 34.2938C43.6244 34.9383 43.1297 35.4446 42.5001 35.4446H35.754C35.1244 35.4446 34.6296 34.9383 34.6296 34.2938C34.6296 33.6494 35.1244 33.1431 35.754 33.1431Z" fill="#D0D4D8"/>
<path opacity="0.5" d="M35.754 37.7461H42.5001C43.1297 37.7461 43.6244 38.2525 43.6244 38.8969C43.6244 39.5414 43.1297 40.0477 42.5001 40.0477H35.754C35.1244 40.0477 34.6296 39.5414 34.6296 38.8969C34.6296 38.2525 35.1244 37.7461 35.754 37.7461Z" fill="#D0D4D8"/>
</svg>
