<svg width="85" height="87" viewBox="0 0 85 87" fill="none" xmlns="http://www.w3.org/2000/svg">
<path d="M51.609 52.6031C53.3516 52.4184 54.6736 50.8808 54.6135 49.0355C54.5535 47.1903 53.0511 45.7141 51.2483 45.7141H51.1283C49.2652 45.7756 47.8231 47.3748 47.8832 49.2815C47.9433 50.2042 48.3038 51.0037 48.8446 51.5573C46.8015 55.6785 43.6767 58.6923 38.9896 61.2141C35.8046 62.9364 32.4996 63.5515 29.1946 63.121C26.4904 62.7519 24.3872 61.5219 23.0649 59.4919C21.1421 56.478 20.9619 53.218 22.5844 49.9581C23.7262 47.6208 25.5288 45.8985 26.6706 45.0374C26.4303 44.2378 26.0697 42.8847 25.8894 41.9006C17.176 48.359 18.0775 57.0932 20.7215 61.2141C22.7045 64.2897 26.7308 66.1964 31.1776 66.1964C32.3794 66.1964 33.5811 66.0733 34.7831 65.766C42.475 64.2282 48.304 59.5534 51.609 52.6031ZM62.1853 44.976C57.6182 39.5017 50.8879 36.4879 43.196 36.4879H42.2346C41.6938 35.3807 40.5519 34.6425 39.29 34.6425H39.1698C37.3071 34.7041 35.865 36.3032 35.9249 38.2101C35.985 40.0553 37.4873 41.5315 39.29 41.5315H39.4101C40.7322 41.47 41.874 40.6089 42.3547 39.4402H43.4364C48.0035 39.4402 52.33 40.7933 56.2362 43.4382C59.2407 45.4681 61.4041 48.113 62.6059 51.3113C63.6274 53.8947 63.5673 56.4165 62.4856 58.5694C60.8031 61.8293 57.9788 63.6131 54.253 63.6131C51.8493 63.6131 49.5659 62.8748 48.3639 62.3213C47.703 62.9364 46.501 63.9204 45.6597 64.5357C48.2438 65.7658 50.8879 66.4425 53.4117 66.4425C59.1806 66.4425 63.4472 63.1824 65.0697 59.9226C66.8123 56.3549 66.6921 50.2042 62.1853 44.976ZM31.6583 53.6485C31.7184 55.4938 33.2207 56.9699 35.0234 56.9699H35.1437C37.0066 56.9085 38.4487 55.3092 38.3886 53.4025C38.3286 51.5571 36.8262 50.0811 35.0234 50.0811H34.9034C34.7831 50.0811 34.6027 50.0811 34.4828 50.1424C32.0189 45.9599 30.9974 41.4084 31.358 36.4877C31.5982 32.7972 32.8001 29.5987 34.9034 26.9537C36.646 24.6779 40.0111 23.5708 42.2947 23.5094C48.6644 23.3863 51.3684 31.5054 51.5488 34.7654C52.33 34.9499 53.6521 35.3805 54.5535 35.6881C53.8323 25.7239 47.8231 20.5571 42.0544 20.5571C36.646 20.5571 31.6583 24.5552 29.6751 30.46C26.911 38.333 28.7137 45.8985 32.0789 51.8649C31.7786 52.2953 31.5982 52.972 31.6583 53.6487V53.6485Z" fill="#764ABC"/>
</svg>
