<svg width="85" height="87" viewBox="0 0 85 87" fill="none" xmlns="http://www.w3.org/2000/svg">
<path d="M18.8889 19.3335H66.1111V67.6668H18.8889V19.3335Z" fill="#017ACB"/>
<path d="M41.563 37.232H43.8282V41.2346H37.704V59.0424L37.5417 59.0878C37.3203 59.1482 34.4058 59.1482 33.7787 59.0802L33.2769 59.0349V41.2346H27.1528V37.232L29.0933 37.2094C30.1558 37.1943 32.8859 37.1943 35.1584 37.2094C37.431 37.2245 40.3086 37.232 41.563 37.232ZM58.8507 57.1544C57.9506 58.1286 56.984 58.6724 55.3755 59.118C54.6745 59.3143 54.5565 59.3219 52.9775 59.3143C51.3985 59.3068 51.273 59.3068 50.5057 59.1029C48.5209 58.5818 46.9197 57.5622 45.8277 56.1198C45.5178 55.712 45.0087 54.8661 45.0087 54.7604C45.0087 54.7302 45.0825 54.6622 45.1784 54.6169C45.2743 54.5716 45.4736 54.4432 45.6359 54.345C45.7982 54.2469 46.0933 54.0656 46.2926 53.9599C46.4918 53.8542 47.0673 53.5068 47.569 53.1971C48.0708 52.8875 48.5282 52.6383 48.5799 52.6383C48.6315 52.6383 48.7275 52.744 48.8013 52.8724C49.244 53.6352 50.277 54.6094 51.0074 54.9417C51.4575 55.138 52.4536 55.357 52.9332 55.357C53.3759 55.357 54.1875 55.1607 54.6229 54.9568C55.0877 54.7378 55.3238 54.5187 55.6042 54.0807C55.7961 53.7711 55.8182 53.688 55.8108 53.099C55.8108 52.5552 55.7813 52.4042 55.6337 52.1549C55.2205 51.4602 54.6598 51.0977 52.3872 50.0706C50.0408 49.0057 48.9857 48.3714 48.1298 47.518C47.4953 46.8836 47.3698 46.7099 46.9714 45.9169C46.4549 44.8974 46.3885 44.5651 46.3811 43.0471C46.3737 41.9823 46.3959 41.6349 46.5065 41.2724C46.6615 40.7286 47.1632 39.6789 47.392 39.4146C47.8642 38.8482 48.0339 38.6745 48.3659 38.3951C49.3694 37.5492 50.9336 36.9904 52.4315 36.9375C52.6012 36.9375 53.1619 36.9677 53.6858 37.0055C55.191 37.1339 56.2166 37.5115 57.2053 38.3195C57.9506 38.9237 59.0795 40.3435 58.9688 40.5323C58.895 40.6456 55.951 42.6544 55.7592 42.7148C55.6411 42.7526 55.5599 42.7073 55.3976 42.5109C54.3941 41.2799 53.9883 41.0156 53.0144 40.9552C52.3208 40.9099 51.9519 40.993 51.487 41.3102C51 41.6424 50.7639 42.1484 50.7639 42.8508C50.7713 43.8779 51.155 44.3612 52.5717 45.0786C53.4866 45.5393 54.2687 45.9169 54.3277 45.9169C54.4163 45.9169 56.3126 46.8836 56.8069 47.1857C59.109 48.5677 60.0461 49.9875 60.2896 52.4344C60.4666 54.2771 59.9575 55.9612 58.8507 57.1544Z" fill="white"/>
</svg>
