<svg width="85" height="87" viewBox="0 0 85 87" fill="none" xmlns="http://www.w3.org/2000/svg">
<path d="M19.3382 36.2663C19.3382 36.2663 18.188 35.4177 19.5682 34.2846L22.7838 31.3416C22.7838 31.3416 23.704 30.3507 24.6768 31.214L54.3508 54.2091V65.2357C54.3508 65.2357 54.3365 66.9672 52.1655 66.7759L19.3382 36.2663Z" fill="#2489CA"/>
<path d="M26.9867 43.3735L19.3382 50.4908C19.3382 50.4908 18.5522 51.0892 19.3382 52.1585L22.8893 55.4645C22.8893 55.4645 23.7327 56.3916 24.9787 55.337L33.0873 49.0438L26.9867 43.3735Z" fill="#1070B3"/>
<path d="M40.4148 43.4325L54.4419 32.4696L54.3509 21.5018C54.3509 21.5018 53.7519 19.1081 51.7535 20.354L33.0873 37.7425L40.4148 43.4325Z" fill="#0877B9"/>
<path d="M52.1656 66.7904C52.9803 67.6439 53.9675 67.3643 53.9675 67.3643L64.8988 61.851C66.2982 60.8749 66.1017 59.6633 66.1017 59.6633V26.7404C66.1017 25.2934 64.6544 24.7931 64.6544 24.7931L55.18 20.1185C53.1097 18.8089 51.7535 20.354 51.7535 20.354C51.7535 20.354 53.4979 19.0688 54.3509 21.5018V65.0344C54.3509 65.3336 54.2886 65.6279 54.164 65.8928C53.9148 66.4078 53.3733 66.8885 52.0746 66.6874L52.1656 66.7904Z" fill="#3C99D4"/>
</svg>
