<svg xmlns="http://www.w3.org/2000/svg" data-name="Layer 1" viewBox="0 0 97.79 90.73">
    <path
        d="M.28 87.64c21.27 3.19 39.36.21 44.32-9.4.98-1.89 1.35-3.86 1.57-4.99 2.39-12.48-6.41-23.07-12.11-27.36-3.69-2.77-6.08-2.91-7.55-2.71-1.6.22-3.19.99-4.13 1.99-3.96 4.26 2.57 15.58 3.28 16.81 1.23 2.15 9.49 16.06 26.36 19.38 4.74.93 10.29 2.02 15.82-.85 9.7-5.05 10.89-20.06 11.11-22.51.18-1.98.16-3.47.14-4.13-.35-17.08-.42-31.8-.85-39.9-.13-2.48-.31-5.7-.56-9.5"
        style="fill: none; stroke: rgb(35, 31, 32); stroke-miterlimit: 10; stroke-width: 3.72px;"></path>
    <path
        d="M97.02 28.76c-.83.6-1.99.42-2.6-.41L77.69 5.32 63.9 30.22c-.5.9-1.63 1.22-2.53.73-.9-.5-1.22-1.64-.73-2.53L75.85.96c.31-.56.88-.92 1.51-.96.63-.04 1.25.25 1.62.76l18.45 25.39a1.865 1.865 0 0 1-.41 2.6Z"
        style="fill: rgb(35, 31, 32);"></path>
</svg>