<svg viewBox="0 0 100 100" fill="none" xmlns="http://www.w3.org/2000/svg">
<path fill-rule="evenodd" clip-rule="evenodd" d="M70.6157 19.7247C63.0839 15.3762 53.4529 17.9568 49.1044 25.4886L40.6041 40.2115C36.2556 47.7434 38.8362 57.3743 46.368 61.7229C53.8999 66.0714 63.5309 63.4908 67.8794 55.9589L76.3797 41.236C80.7282 33.7041 78.1476 24.0732 70.6157 19.7247ZM65.2693 28.4469C62.4935 26.8443 58.944 27.7954 57.3414 30.5712L48.9848 45.0453C47.3821 47.8211 48.3332 51.3706 51.109 52.9732C53.8848 54.5758 57.4343 53.6247 59.0369 50.8489L67.3935 36.3748C68.9962 33.599 68.0451 30.0496 65.2693 28.4469Z" fill="black" />
<path fill-rule="evenodd" clip-rule="evenodd" d="M70.0438 20.7153C63.059 16.6826 54.1276 19.0758 50.095 26.0606L41.5947 40.7835C37.562 47.7682 39.9552 56.6996 46.94 60.7323C53.9247 64.7649 62.8561 62.3717 66.8888 55.387L75.3891 40.6641C79.4217 33.6793 77.0286 24.7479 70.0438 20.7153ZM56.3508 29.9993C58.2693 26.6764 62.5183 25.5378 65.8412 27.4563C69.1641 29.3748 70.3026 33.6238 68.3841 36.9467L60.0275 51.4208C58.109 54.7437 53.86 55.8823 50.5371 53.9638C47.2142 52.0453 46.0757 47.7963 47.9941 44.4734L56.3508 29.9993ZM49.1044 25.4886C53.4529 17.9568 63.0839 15.3762 70.6157 19.7247C78.1476 24.0732 80.7282 33.7041 76.3797 41.236L67.8794 55.9589C63.5309 63.4908 53.8999 66.0714 46.368 61.7229C38.8362 57.3743 36.2556 47.7434 40.6041 40.2115L49.1044 25.4886ZM57.3414 30.5712C58.944 27.7954 62.4935 26.8443 65.2693 28.4469C68.0451 30.0496 68.9962 33.599 67.3935 36.3748L59.0369 50.8489C57.4343 53.6247 53.8848 54.5758 51.109 52.9732C48.3332 51.3706 47.3821 47.8211 48.9848 45.0453L57.3414 30.5712Z" fill="black" />
<path fill-rule="evenodd" clip-rule="evenodd" d="M56.8896 44.8895C49.3578 40.541 39.7268 43.1216 35.3783 50.6534L26.878 65.3763C22.5295 72.9082 25.1101 82.5391 32.642 86.8877C40.1738 91.2362 49.8048 88.6556 54.1533 81.1237L62.6536 66.4008C67.0021 58.8689 64.4215 49.238 56.8896 44.8895ZM51.5432 53.6117C48.7674 52.0091 45.218 52.9602 43.6153 55.736L35.2587 70.2101C33.6561 72.9859 34.6071 76.5353 37.3829 78.138C40.1588 79.7406 43.7082 78.7895 45.3108 76.0137L53.6675 61.5396C55.2701 58.7638 54.319 55.2143 51.5432 53.6117Z" fill="black" />
<path fill-rule="evenodd" clip-rule="evenodd" d="M56.3177 45.8801C49.333 41.8474 40.4016 44.2406 36.3689 51.2254L27.8686 65.9483C23.836 72.933 26.2291 81.8644 33.2139 85.897C40.1986 89.9297 49.13 87.5365 53.1627 80.5518L61.663 65.8289C65.6956 58.8441 63.3025 49.9127 56.3177 45.8801ZM42.6247 55.1641C44.5432 51.8412 48.7922 50.7026 52.1151 52.6211C55.438 54.5396 56.5766 58.7886 54.6581 62.1115L46.3014 76.5856C44.3829 79.9085 40.1339 81.0471 36.811 79.1286C33.4881 77.2101 32.3496 72.9611 34.2681 69.6382L42.6247 55.1641ZM35.3783 50.6534C39.7268 43.1216 49.3578 40.541 56.8896 44.8895C64.4215 49.238 67.0021 58.8689 62.6536 66.4008L54.1533 81.1237C49.8048 88.6556 40.1738 91.2362 32.642 86.8877C25.1101 82.5391 22.5295 72.9082 26.878 65.3763L35.3783 50.6534ZM43.6153 55.736C45.218 52.9602 48.7674 52.0091 51.5432 53.6117C54.319 55.2143 55.2701 58.7638 53.6675 61.5396L45.3108 76.0137C43.7082 78.7895 40.1588 79.7406 37.3829 78.138C34.6071 76.5353 33.6561 72.9859 35.2587 70.2101L43.6153 55.736Z" fill="black" />
<path fill-rule="evenodd" clip-rule="evenodd" d="M68.3281 15.1492C60.7963 10.8007 51.1653 13.3813 46.8168 20.9132L38.3165 35.6361C33.968 43.168 36.5486 52.7989 44.0804 57.1474C51.6123 61.4959 61.2433 58.9153 65.5918 51.3835L74.0921 36.6606C78.4406 29.1287 75.86 19.4978 68.3281 15.1492ZM62.9817 23.8715C60.2059 22.2689 56.6564 23.2199 55.0538 25.9958L46.6972 40.4699C45.0945 43.2457 46.0456 46.7951 48.8214 48.3977C51.5972 50.0003 55.1467 49.0493 56.7493 46.2735L65.1059 31.7993C66.7086 29.0235 65.7575 25.4741 62.9817 23.8715Z" fill="#DFDFFF" />
<path fill-rule="evenodd" clip-rule="evenodd" d="M67.7562 16.1398C60.7714 12.1072 51.84 14.5004 47.8074 21.4851L39.3071 36.208C35.2744 43.1928 37.6676 52.1242 44.6524 56.1568C51.6371 60.1895 60.5685 57.7963 64.6012 50.8115L73.1015 36.0886C77.1341 29.1039 74.741 20.1725 67.7562 16.1398ZM54.0632 25.4238C55.9817 22.1009 60.2307 20.9624 63.5536 22.8809C66.8765 24.7994 68.015 29.0484 66.0965 32.3713L57.7399 46.8454C55.8214 50.1683 51.5724 51.3068 48.2495 49.3883C44.9266 47.4698 43.7881 43.2209 45.7066 39.898L54.0632 25.4238ZM46.8168 20.9132C51.1653 13.3813 60.7963 10.8007 68.3281 15.1492C75.86 19.4978 78.4406 29.1287 74.0921 36.6606L65.5918 51.3835C61.2433 58.9153 51.6123 61.4959 44.0804 57.1474C36.5486 52.7989 33.968 43.168 38.3165 35.6361L46.8168 20.9132ZM55.0538 25.9958C56.6564 23.2199 60.2059 22.2689 62.9817 23.8715C65.7575 25.4741 66.7086 29.0235 65.1059 31.7993L56.7493 46.2735C55.1467 49.0493 51.5972 50.0003 48.8214 48.3977C46.0456 46.7951 45.0945 43.2457 46.6972 40.4699L55.0538 25.9958Z" fill="black" />
<path fill-rule="evenodd" clip-rule="evenodd" d="M54.6016 40.314C47.0697 35.9655 37.4387 38.5461 33.0902 46.078L24.5899 60.8009C20.2414 68.3328 22.822 77.9637 30.3539 82.3122C37.8857 86.6607 47.5167 84.0801 51.8652 76.5483L60.3655 61.8254C64.714 54.2935 62.1334 44.6626 54.6016 40.314ZM49.2551 49.0363C46.4793 47.4337 42.9299 48.3847 41.3272 51.1605L32.9706 65.6347C31.368 68.4105 32.319 71.9599 35.0949 73.5625C37.8707 75.1651 41.4201 74.2141 43.0227 71.4383L51.3794 56.9641C52.982 54.1883 52.0309 50.6389 49.2551 49.0363Z" fill="#DFDFFF" />
<path fill-rule="evenodd" clip-rule="evenodd" d="M54.0296 41.3046C47.0449 37.272 38.1135 39.6652 34.0808 46.6499L25.5805 61.3728C21.5479 68.3576 23.941 77.289 30.9258 81.3216C37.9106 85.3543 46.842 82.9611 50.8746 75.9763L59.3749 61.2534C63.4076 54.2687 61.0144 45.3373 54.0296 41.3046ZM40.3366 50.5886C42.2551 47.2657 46.5041 46.1272 49.827 48.0457C53.15 49.9642 54.2885 54.2132 52.37 57.5361L44.0133 72.0102C42.0948 75.3331 37.8458 76.4716 34.5229 74.5531C31.2 72.6346 30.0615 68.3857 31.98 65.0627L40.3366 50.5886ZM33.0902 46.078C37.4387 38.5461 47.0697 35.9655 54.6016 40.314C62.1334 44.6626 64.714 54.2935 60.3655 61.8254L51.8652 76.5483C47.5167 84.0801 37.8857 86.6607 30.3539 82.3122C22.822 77.9637 20.2414 68.3328 24.5899 60.8009L33.0902 46.078ZM41.3272 51.1605C42.9299 48.3847 46.4793 47.4337 49.2551 49.0363C52.0309 50.6389 52.982 54.1883 51.3794 56.9641L43.0227 71.4383C41.4201 74.2141 37.8707 75.1651 35.0949 73.5625C32.319 71.9599 31.368 68.4105 32.9706 65.6347L41.3272 51.1605Z" fill="black" />
<path fill-rule="evenodd" clip-rule="evenodd" d="M32.6573 45.8281C37.1439 38.0571 47.0806 35.3945 54.8516 39.8811C62.6227 44.3677 65.2852 54.3044 60.7986 62.0754L52.2983 76.7984C47.8117 84.5694 37.875 87.2319 30.104 82.7453C22.3329 78.2587 19.6704 68.322 24.157 60.551L32.6573 45.8281ZM54.3516 40.7471C47.0589 36.5367 37.7338 39.0354 33.5233 46.3281L25.023 61.051C20.8126 68.3437 23.3112 77.6688 30.604 81.8793C37.8967 86.0897 47.2218 83.5911 51.4323 76.2984L59.9326 61.5754C64.143 54.2827 61.6444 44.9576 54.3516 40.7471ZM53.7797 41.7377C47.0341 37.8432 38.4085 40.1544 34.5139 46.9L26.0136 61.6229C22.119 68.3685 24.4303 76.9941 31.1759 80.8887C37.9215 84.7833 46.5471 82.472 50.4417 75.7264L58.942 61.0035C62.8366 54.2579 60.5253 45.6323 53.7797 41.7377ZM33.6479 46.4C37.8186 39.1761 47.0558 36.701 54.2797 40.8717C61.5036 45.0424 63.9787 54.2796 59.808 61.5035L51.3077 76.2264C47.137 83.4503 37.8998 85.9254 30.6759 81.7547C23.452 77.584 20.9769 68.3468 25.1476 61.1229L33.6479 46.4ZM39.9037 50.3387C41.9603 46.7766 46.5151 45.5562 50.0771 47.6128C53.6392 49.6693 54.8596 54.2241 52.8031 57.7862L44.4464 72.2603C42.3899 75.8223 37.8351 77.0428 34.273 74.9862C30.711 72.9297 29.4905 68.3749 31.5471 64.8128L39.9037 50.3387ZM49.5771 48.4788C46.4934 46.6984 42.5502 47.7549 40.7697 50.8387L32.4131 65.3128C30.6327 68.3966 31.6892 72.3398 34.773 74.1202C37.8568 75.9006 41.8 74.844 43.5804 71.7603L51.9371 57.2862C53.7175 54.2024 52.6609 50.2592 49.5771 48.4788ZM40.8943 50.9106C42.635 47.8957 46.4902 46.8627 49.5052 48.6034C52.5202 50.344 53.5532 54.1993 51.8125 57.2142L43.4558 71.6883C41.7151 74.7033 37.8599 75.7363 34.8449 73.9956C31.83 72.2549 30.797 68.3997 32.5377 65.3848L40.8943 50.9106ZM49.0052 49.4694C46.4685 48.0048 43.2249 48.874 41.7603 51.4106L33.4037 65.8848C31.9391 68.4214 32.8083 71.665 35.3449 73.1296C37.8816 74.5941 41.1252 73.725 42.5898 71.1883L50.9464 56.7142C52.411 54.1776 51.5419 50.9339 49.0052 49.4694Z" fill="black" />
<path fill-rule="evenodd" clip-rule="evenodd" d="M46.8187 20.9132C51.1672 13.3813 60.7981 10.8007 68.3299 15.1492C75.8617 19.4978 78.4423 29.1287 74.0938 36.6606L65.5936 51.3835C61.2451 58.9154 51.6142 61.496 44.0823 57.1475C42.0705 55.986 40.412 54.4476 39.1444 52.673L40.3913 50.5132C41.8395 48.0048 44.6384 46.7625 47.3389 47.1745C47.751 47.6498 48.2479 48.0656 48.8233 48.3978C51.5991 50.0004 55.1485 49.0493 56.7511 46.2735L57.7195 44.5961L57.8972 44.4508L57.9733 44.2986C57.9566 44.2802 57.9399 44.2618 57.9232 44.2434L65.1077 31.7994C66.7103 29.0236 65.7593 25.4741 62.9835 23.8715C60.2077 22.2689 56.6583 23.22 55.0557 25.9958L47.3489 39.3443C43.2445 39.1982 39.1834 40.7405 36.2073 43.692C36.1731 40.9568 36.8515 38.177 38.3184 35.6361L46.8187 20.9132Z" fill="#DFDFFF" />
<path fill-rule="evenodd" clip-rule="evenodd" d="M57.8972 44.4508L57.7195 44.5961L56.7511 46.2735C55.1485 49.0493 51.5991 50.0004 48.8233 48.3978C48.2479 48.0656 47.751 47.6498 47.3389 47.1745C44.6384 46.7625 41.8395 48.0048 40.3913 50.5132L39.1444 52.673C40.412 54.4476 42.0705 55.986 44.0823 57.1475C51.6142 61.496 61.2451 58.9154 65.5936 51.3835L74.0938 36.6606C78.4423 29.1287 75.8617 19.4978 68.3299 15.1492C60.7981 10.8007 51.1672 13.3813 46.8187 20.9132L38.3184 35.6361C37.1391 37.6788 36.4694 39.8758 36.2699 42.0799C36.2213 42.6176 36.2006 43.1557 36.2073 43.692C36.58 43.3224 36.9697 42.9749 37.3744 42.65C40.2013 40.3807 43.7586 39.2165 47.3489 39.3443L55.0557 25.9958C56.6583 23.22 60.2077 22.2689 62.9835 23.8715C65.7593 25.4741 66.7103 29.0236 65.1077 31.7994L57.9232 44.2434L57.9733 44.2986L57.8972 44.4508ZM59.3301 44.0943L59.3457 44.1116L58.8109 45.1811L58.6056 45.3491L57.7417 46.8454C55.8232 50.1684 51.5743 51.3069 48.2514 49.3884C47.7032 49.0719 47.2134 48.691 46.7867 48.2604C44.658 48.0817 42.5191 49.1156 41.3819 51.0851L40.5132 52.5899C41.623 53.9894 43.0107 55.2079 44.6543 56.1569C51.639 60.1895 60.5703 57.7964 64.603 50.8116L73.1032 36.0887C77.1358 29.1039 74.7427 20.1725 67.758 16.1399C60.7732 12.1072 51.8419 14.5004 47.8093 21.4851L39.309 36.2081C38.4098 37.7655 37.8304 39.4183 37.5498 41.0916C40.2399 39.2222 43.4383 38.2157 46.6937 38.1914L54.065 25.4238C55.9835 22.1009 60.2325 20.9624 63.5554 22.8809C66.8783 24.7994 68.0168 29.0484 66.0983 32.3713L59.3301 44.0943Z" fill="black" />
<path fill-rule="evenodd" clip-rule="evenodd" d="M68.0799 15.5823C60.7872 11.3719 51.4621 13.8706 47.2517 21.1633L38.7514 35.8862C37.6091 37.8648 36.961 39.9917 36.7679 42.1251C36.7557 42.2594 36.7454 42.3937 36.7368 42.5281C36.8439 42.4372 36.9522 42.3479 37.0614 42.2601C39.9032 39.9788 43.4584 38.7788 47.0646 38.8369L54.6226 25.7459C56.3633 22.7309 60.2185 21.6979 63.2335 23.4386C66.2484 25.1793 67.2814 29.0345 65.5407 32.0495L58.5386 44.1776L58.5736 44.2161L58.2966 44.7701L58.1069 44.9253L57.1841 46.5236C55.4434 49.5386 51.5883 50.5716 48.5733 48.8309C48.0072 48.504 47.5104 48.1021 47.0886 47.6447C44.6398 47.3411 42.1349 48.4933 40.8244 50.7633L39.7402 52.6411C40.9413 54.2497 42.4821 55.6463 44.3323 56.7145C51.625 60.925 60.9501 58.4263 65.1605 51.1336L73.6608 36.4107C77.8712 29.118 75.3726 19.7928 68.0799 15.5823ZM46.3857 20.6633C50.8722 12.8923 60.8089 10.2297 68.5799 14.7163C76.3509 19.2029 79.0134 29.1397 74.5268 36.9107L66.0266 51.6336C61.54 59.4046 51.6033 62.0672 43.8323 57.5806C41.7575 56.3826 40.0458 54.7952 38.7375 52.9637L38.5505 52.7018L39.9583 50.2633C41.5129 47.5706 44.5171 46.2383 47.4143 46.6803L47.5962 46.708L47.7167 46.847C48.0928 47.2808 48.5467 47.6608 49.0733 47.9648C51.61 49.4294 54.8536 48.5603 56.3181 46.0236L64.6747 31.5495C66.1392 29.0128 65.2701 25.7692 62.7335 24.3046C60.1968 22.8401 56.9532 23.7092 55.4887 26.2459L47.6316 39.8548L47.3311 39.8441C43.8596 39.7205 40.42 40.8463 37.6874 43.04C37.2963 43.354 36.9196 43.6899 36.5594 44.0471L35.7221 44.8775L35.7073 43.6984C35.7004 43.145 35.7217 42.5897 35.772 42.0349C35.9779 39.76 36.6691 37.4929 37.8854 35.3862L46.3857 20.6633ZM67.508 16.5729C60.7624 12.6784 52.1368 14.9896 48.2423 21.7352L39.742 36.4581C39.0799 37.605 38.5976 38.8047 38.2856 40.0254C40.7479 38.5682 43.549 37.7666 46.4024 37.6961L53.632 25.1739C55.6886 21.6119 60.2433 20.3914 63.8054 22.448C67.3674 24.5045 68.5879 29.0593 66.5313 32.6214L59.945 44.0293L59.2103 45.5005L58.993 45.6783L58.1747 47.0955C56.1182 50.6576 51.5634 51.878 48.0014 49.8215C47.472 49.5158 46.993 49.1538 46.5684 48.747C44.6848 48.6536 42.8203 49.5938 41.815 51.3352L41.1183 52.5418C42.1524 53.7829 43.4198 54.8669 44.9043 55.7239C51.6498 59.6185 60.2754 57.3073 64.1699 50.5617L72.6702 35.8387C76.5647 29.0931 74.2535 20.4675 67.508 16.5729ZM47.3763 21.2352C51.547 14.0113 60.7841 11.5362 68.008 15.7069C75.2318 19.8777 77.7069 29.1148 73.5362 36.3387L65.036 51.0617C60.8653 58.2856 51.6281 60.7607 44.4043 56.59C42.7052 55.609 41.2697 54.3487 40.1214 52.9006L39.9102 52.6343L40.9489 50.8352C42.1864 48.6919 44.5139 47.5679 46.8286 47.7623L47.0122 47.7777L47.1419 47.9086C47.5376 48.3079 47.9921 48.6614 48.5014 48.9555C51.5851 50.7359 55.5283 49.6793 57.3087 46.5955L58.2183 45.02L58.4115 44.8619L58.7458 44.1934L58.7151 44.1595L65.6653 32.1214C67.4457 29.0376 66.3891 25.0944 63.3054 23.314C60.2216 21.5336 56.2785 22.5902 54.4981 25.6739L46.9837 38.6893L46.6975 38.6915C43.5422 38.715 40.4421 39.6907 37.8351 41.5023L36.8604 42.1797L37.0567 41.009C37.347 39.2777 37.9465 37.5681 38.876 35.9581L47.3763 21.2352Z" fill="black" />
</svg>