<svg width="36" height="36" viewBox="0 0 36 36" fill="none" xmlns="http://www.w3.org/2000/svg">
<path d="M32.7863 1.9248H3.21488C2.50372 1.9248 1.92917 2.49936 1.92917 3.21052V32.7819C1.92917 33.4931 2.50372 34.0677 3.21488 34.0677H32.7863C33.4975 34.0677 34.072 33.4931 34.072 32.7819V3.21052C34.072 2.49936 33.4975 1.9248 32.7863 1.9248ZM31.5006 31.4962H24.1037V21.6203H28.2823L28.9091 16.7708H24.1037V13.673C24.1037 12.2668 24.4935 11.3105 26.5064 11.3105H29.0738V6.97123C28.6278 6.91097 27.1051 6.77838 25.3292 6.77838C21.6247 6.77838 19.0894 9.04043 19.0894 13.1909V16.7668H14.9028V21.6163H19.0935V31.4962H4.5006V4.49623H31.5006V31.4962Z" fill="#444444"/>
</svg>
