<svg width="75" height="34" viewBox="0 0 75 34" fill="none" xmlns="http://www.w3.org/2000/svg">
<path d="M10 0.119999C11.2 0.119999 12.24 0.373332 13.12 0.879999C14 1.38667 14.6667 2.01333 15.12 2.76C15.6 3.48 15.84 4.2 15.84 4.92C15.84 5.90667 15.5733 6.73333 15.04 7.4C14.5067 8.06667 13.8133 8.4 12.96 8.4C12.16 8.4 11.4533 8.12 10.84 7.56C10.2267 6.97333 9.92 6.30666 9.92 5.56C9.92 4.6 10.32 3.82666 11.12 3.24C11.04 3.10667 10.8933 3 10.68 2.92C10.4933 2.81333 10.32 2.76 10.16 2.76C9.52 2.76 8.94667 3.2 8.44 4.08C7.96 4.96 7.72 5.97333 7.72 7.12C7.72 7.89333 7.78667 8.64 7.92 9.36C8.08 10.08 8.25333 10.6667 8.44 11.12C8.65333 11.5733 8.85333 11.8 9.04 11.8H12.88C12.88 13.5067 12.6533 14.7067 12.2 15.4H8.8V28.28C8.8 28.92 8.89333 29.4267 9.08 29.8C9.29333 30.1467 9.66667 30.4133 10.2 30.6C10.76 30.76 11.5867 30.84 12.68 30.84C12.68 31.6667 12.3733 32.3867 11.76 33H1.2C0.586667 32.3867 0.28 31.6667 0.28 30.84C1.08 30.84 1.64 30.6667 1.96 30.32C2.30667 29.9733 2.48 29.4133 2.48 28.64V15.4H0.04V12.92C0.92 12.7067 1.70667 12.3467 2.4 11.84C2.18667 10.56 2.08 9.41333 2.08 8.4C2.08 5.68 2.78667 3.62667 4.2 2.24C5.61333 0.826665 7.54667 0.119999 10 0.119999ZM33.8941 28.32C33.8941 28.96 34.0541 29.4933 34.3741 29.92C34.7207 30.3467 35.2007 30.5867 35.8141 30.64V31.76C35.3874 32.24 34.7207 32.6133 33.8141 32.88C32.9341 33.1467 32.0407 33.28 31.1341 33.28C30.2274 33.28 29.4541 33.04 28.8141 32.56C28.1741 32.08 27.7474 31.4133 27.5341 30.56C26.2541 32.3733 24.4274 33.28 22.0541 33.28C20.1874 33.28 18.7341 32.7067 17.6941 31.56C16.6541 30.4133 16.1341 28.8667 16.1341 26.92V15.92C16.1341 15.4667 15.9607 15.1467 15.6141 14.96C15.2941 14.7733 14.8141 14.68 14.1741 14.68V12.92C14.5741 12.6 15.3341 12.28 16.4541 11.96C17.6007 11.64 18.8141 11.48 20.0941 11.48C20.8407 11.48 21.3874 11.5333 21.7341 11.64C22.0807 11.72 22.3207 11.9067 22.4541 12.2C22.5874 12.4933 22.6541 12.96 22.6541 13.6V27.04C22.6541 27.8667 22.7874 28.4933 23.0541 28.92C23.3474 29.32 23.8141 29.52 24.4541 29.52C24.9874 29.52 25.5074 29.36 26.0141 29.04C26.5474 28.6933 27.0007 28.28 27.3741 27.8V15.92C27.3741 15.0933 26.6274 14.68 25.1341 14.68V12.92C25.5607 12.5733 26.3341 12.2533 27.4541 11.96C28.6007 11.64 29.8541 11.48 31.2141 11.48C32.3074 11.48 33.0274 11.6133 33.3741 11.88C33.7207 12.12 33.8941 12.6933 33.8941 13.6V28.32ZM45.5447 33.4C44.238 33.4 42.9314 33.2133 41.6247 32.84C40.3447 32.44 39.2914 31.88 38.4647 31.16C37.638 30.44 37.2247 29.5867 37.2247 28.6C37.2247 27.6667 37.4914 26.92 38.0247 26.36C38.558 25.7733 39.238 25.48 40.0647 25.48C40.8114 25.48 41.438 25.72 41.9447 26.2C42.478 26.68 42.7447 27.3067 42.7447 28.08C42.7447 28.4267 42.6914 28.7333 42.5847 29C42.5047 29.24 42.3447 29.5067 42.1047 29.8C42.318 30.0133 42.718 30.1867 43.3047 30.32C43.8914 30.4267 44.518 30.48 45.1847 30.48C46.0914 30.48 46.798 30.32 47.3047 30C47.838 29.6533 48.1047 29.2133 48.1047 28.68C48.1047 27.96 47.7714 27.3467 47.1047 26.84C46.438 26.3067 45.3714 25.6533 43.9047 24.88C42.4114 24.08 41.278 23.4267 40.5047 22.92C39.7314 22.3867 39.038 21.68 38.4247 20.8C37.838 19.8933 37.5447 18.7867 37.5447 17.48C37.5447 15.6667 38.2914 14.2 39.7847 13.08C41.278 11.96 43.3447 11.4 45.9847 11.4C48.5714 11.4 50.4914 11.8667 51.7447 12.8C53.0247 13.7067 53.6647 14.8 53.6647 16.08C53.6647 16.88 53.398 17.5333 52.8647 18.04C52.358 18.5467 51.7314 18.8 50.9847 18.8C50.2914 18.8 49.6914 18.6 49.1847 18.2C48.7047 17.7733 48.4647 17.2267 48.4647 16.56C48.4647 16.2133 48.518 15.8667 48.6247 15.52C48.7314 15.1467 48.878 14.84 49.0647 14.6C48.5314 14.1733 47.7314 13.96 46.6647 13.96C45.8114 13.96 45.1447 14.16 44.6647 14.56C44.1847 14.96 43.9447 15.4667 43.9447 16.08C43.9447 16.9067 44.278 17.5867 44.9447 18.12C45.6114 18.6533 46.678 19.2933 48.1447 20.04C49.5314 20.76 50.6247 21.3867 51.4247 21.92C52.2247 22.4533 52.918 23.16 53.5047 24.04C54.0914 24.92 54.3847 26 54.3847 27.28C54.3847 29.36 53.5314 30.9067 51.8247 31.92C50.1447 32.9067 48.0514 33.4 45.5447 33.4ZM68.0891 28.92C69.7691 28.92 71.3291 28.3867 72.7691 27.32C72.9824 27.5333 73.1691 27.8533 73.3291 28.28C73.4891 28.7067 73.5691 29.08 73.5691 29.4C73.5691 29.88 73.2491 30.44 72.6091 31.08C71.9691 31.6933 71.0757 32.2267 69.9291 32.68C68.8091 33.1333 67.5424 33.36 66.1291 33.36C64.1557 33.36 62.4224 32.9333 60.9291 32.08C59.4624 31.2267 58.3291 29.9867 57.5291 28.36C56.7291 26.7333 56.3291 24.8133 56.3291 22.6C56.3291 20.3333 56.7557 18.3467 57.6091 16.64C58.4891 14.9333 59.6891 13.6267 61.2091 12.72C62.7291 11.7867 64.4491 11.32 66.3691 11.32C68.7957 11.32 70.7291 12.0267 72.1691 13.44C73.6091 14.8533 74.3291 16.8133 74.3291 19.32C74.3291 20.4933 74.1424 21.4267 73.7691 22.12C73.3957 22.7867 72.7291 23.12 71.7691 23.12H63.1291C63.2891 26.9867 64.9424 28.92 68.0891 28.92ZM66.1291 14.08C65.3024 14.08 64.6091 14.5467 64.0491 15.48C63.4891 16.3867 63.1824 17.92 63.1291 20.08H67.1691C67.5957 20.08 67.8757 19.9333 68.0091 19.64C68.1424 19.3467 68.2091 18.8933 68.2091 18.28C68.2091 16.7067 68.0224 15.6133 67.6491 15C67.2757 14.3867 66.7691 14.08 66.1291 14.08Z" fill="#0F0F0F"/>
</svg>
