<svg viewBox="0 0 100 100" fill="none" xmlns="http://www.w3.org/2000/svg">
<path fill-rule="evenodd" clip-rule="evenodd" d="M68.9889 90.3913L77.0292 76.2797C78.3597 73.9398 77.5701 70.9478 75.2655 69.5969C73.1521 68.358 70.4986 68.9294 69.0468 70.8372L70.4405 68.569C71.8064 66.167 70.9958 63.0955 68.63 61.7087C66.2642 60.3219 63.2391 61.1449 61.8732 63.547L57.154 71.054L62.1347 62.6287C63.5006 60.2266 62.69 57.1552 60.3242 55.7684C57.9584 54.3816 54.9333 55.2045 53.5674 57.6066L48.6236 65.939L48.8942 65.4639L62.1347 42.0084C63.3489 39.8733 62.6283 37.1431 60.5254 35.9103C58.4225 34.6776 55.7334 35.4092 54.5193 37.5443L50.9842 43.7984C50.7531 41.3722 48.884 39.3323 46.3648 38.9838C43.4214 38.5766 40.7052 40.6325 40.298 43.5759L36.7518 69.2074C32.152 78.9479 34.4881 84.9915 44.6003 92.1338C55.7326 99.9965 64.2045 97.5394 68.9889 90.3913Z" fill="black" />
<path d="M38.686 37.538C38.686 34.5665 41.0949 32.1577 44.0663 32.1577C47.0377 32.1577 49.4465 34.5665 49.4465 37.538V70.7977C49.4465 73.7691 47.0377 76.1779 44.0663 76.1779C41.0949 76.1779 38.686 73.7691 38.686 70.7977V37.538Z" fill="white" />
<path fill-rule="evenodd" clip-rule="evenodd" d="M44.0663 74.1779C42.1994 74.1779 40.686 72.6645 40.686 70.7977V37.538C40.686 35.6711 42.1994 34.1577 44.0663 34.1577C45.9331 34.1577 47.4465 35.6711 47.4465 37.538V70.7977C47.4465 72.6645 45.9331 74.1779 44.0663 74.1779ZM42.1005 75.8075C40.1014 75.0225 38.686 73.0754 38.686 70.7977V37.538C38.686 34.5665 41.0949 32.1577 44.0663 32.1577C47.0377 32.1577 49.4465 34.5665 49.4465 37.538V70.7977C49.4465 73.7691 47.0377 76.1779 44.0663 76.1779C43.3725 76.1779 42.7094 76.0466 42.1005 75.8075Z" fill="black" />
<path d="M73.3275 70.111L65.2872 84.2226C60.5028 91.3707 52.031 93.8278 40.8986 85.965C29.7663 78.1022 28.0581 71.571 34.6532 59.9729L50.8176 31.3756C52.0318 29.2405 54.7208 28.5089 56.8237 29.7416C58.9267 30.9744 59.6472 33.7045 58.4331 35.8397L46.8461 56.366L49.8657 51.4379C51.2316 49.0358 54.2568 48.2128 56.6226 49.5997C58.9884 50.9865 59.799 54.0579 58.4331 56.46L51.0339 68.5931L53.2982 65.1304L58.1715 57.3782C59.5374 54.9762 62.5625 54.1532 64.9284 55.54C67.2942 56.9268 68.1048 59.9983 66.7388 62.4003L58.5028 75.5491L64.9818 65.2188C66.3124 62.8789 69.2593 62.0772 71.5639 63.4282C73.8685 64.7791 74.6581 67.7711 73.3275 70.111Z" fill="white" />
<path fill-rule="evenodd" clip-rule="evenodd" d="M49.9487 30.8812C51.4347 28.2679 54.7396 27.3606 57.3297 28.8789C59.9103 30.3915 60.7834 33.728 59.3035 36.3324C59.3032 36.3329 59.3029 36.3334 59.3026 36.3339L52.6484 48.1218C54.109 47.7355 55.7155 47.9085 57.1286 48.7369C59.1618 49.9287 60.2336 52.1488 60.0828 54.367C61.7524 53.6326 63.7334 53.6802 65.4344 54.6773C67.9511 56.1525 68.9949 59.2033 68.07 61.8758C69.3929 61.6207 70.8099 61.8268 72.0699 62.5654C74.8525 64.1966 75.7946 67.7958 74.1971 70.6052L66.1564 84.7176C66.1445 84.7385 66.1319 84.7589 66.1186 84.7788C63.6012 88.5398 60.0527 91.1458 55.6005 91.7148C51.1661 92.2815 46.017 90.8042 40.322 86.7818C34.704 82.8137 31.24 79.0356 30.1571 74.6072C29.0707 70.1651 30.4463 65.3488 33.7837 59.4796C33.7839 59.4793 33.7841 59.4789 33.7843 59.4786L49.9474 30.8835L49.9487 30.8812ZM57.6559 75.0177C57.3628 75.4856 57.5042 76.1031 57.972 76.3963C58.4399 76.6896 59.0569 76.5481 59.3503 76.0803L65.8293 65.7501C65.8369 65.7379 65.8443 65.7256 65.8514 65.7131C66.9101 63.8514 69.241 63.2255 71.0585 64.2908C72.8847 65.3613 73.5219 67.7456 72.4589 69.6158M72.4589 69.6158L64.4367 83.6958C62.1715 87.0662 59.0989 89.2514 55.3469 89.7309C51.5662 90.2141 46.9132 88.9886 41.4758 85.1482C35.9616 81.2534 33.0052 77.8345 32.0998 74.1321C31.1978 70.4436 32.2654 66.1955 35.5228 60.4672L35.5241 60.465L51.6872 31.8699C51.6874 31.8695 51.6876 31.8692 51.6878 31.8688C52.6303 30.2127 54.7029 29.6573 56.3183 30.6043C57.9432 31.5568 58.5112 33.6797 57.5641 35.3453L57.5625 35.348L45.9843 55.8587L42.0695 62.2477C41.784 62.7138 41.9255 63.3229 42.3874 63.6152C42.8493 63.9075 43.4603 63.7748 43.7593 63.3172L46.03 59.8422C46.0418 59.8241 46.053 59.8056 46.0636 59.7868L47.7084 56.8731L50.7187 51.9603C50.7244 51.951 50.7299 51.9416 50.7353 51.9321C51.8293 50.0083 54.2385 49.3611 56.1172 50.4623C58.0008 51.5665 58.6601 54.0224 57.5712 55.953L50.1804 68.0724C49.8961 68.5387 50.0384 69.1469 50.5001 69.4385C50.9619 69.7302 51.5722 69.5975 51.8711 69.1404L54.1355 65.6777L54.1451 65.6626L59.0184 57.9104C59.0227 57.9036 59.0269 57.8968 59.031 57.8899C59.0344 57.8841 59.0378 57.8783 59.0411 57.8725C60.1351 55.9487 62.5443 55.3014 64.4229 56.4027C66.305 57.5059 66.9648 59.9585 65.8798 61.8884L57.6559 75.0177" fill="black" />
<path fill-rule="evenodd" clip-rule="evenodd" d="M33.2598 16.8049C38.0294 16.8049 41.8959 12.9383 41.896 8.1687C41.8961 12.9383 45.7626 16.8048 50.5322 16.8049C45.7625 16.8049 41.896 20.6715 41.896 25.4412C41.896 20.6715 38.0294 16.8049 33.2598 16.8049Z" fill="#FFF7AE" />
<path fill-rule="evenodd" clip-rule="evenodd" d="M41.8961 7.1687C42.4484 7.1687 42.8961 7.61641 42.8961 8.16868C42.8961 8.16867 42.8961 8.1687 42.8961 8.16868C42.8962 12.3861 46.3151 15.8049 50.5324 15.8049C51.0847 15.8049 51.5324 16.2526 51.5324 16.8049C51.5324 17.3572 51.0847 17.8049 50.5324 17.8049C46.315 17.805 42.8961 21.2239 42.8961 25.4413C42.8961 25.9936 42.4484 26.4413 41.8961 26.4413C41.3439 26.4413 40.8961 25.9936 40.8961 25.4413C40.8961 21.2238 37.4772 17.8049 33.2598 17.8049C32.7075 17.8049 32.2598 17.3572 32.2598 16.8049C32.2598 16.2526 32.7075 15.8049 33.2598 15.8049C37.4772 15.8049 40.896 12.3861 40.8961 8.16872C40.8961 8.16871 40.8961 8.16874 40.8961 8.16872C40.8961 7.61645 41.3439 7.1687 41.8961 7.1687ZM41.8961 12.448C40.9601 14.3335 39.4247 15.8688 37.5392 16.8049C39.4247 17.741 40.9601 19.2764 41.8961 21.1618C42.8322 19.2764 44.3676 17.741 46.253 16.8049C44.3676 15.8688 42.8322 14.3335 41.8961 12.448Z" fill="black" />
<path fill-rule="evenodd" clip-rule="evenodd" d="M54.2339 6.3181C55.9374 6.3181 57.3183 4.93714 57.3183 3.23364C57.3183 4.93711 58.6993 6.31805 60.4027 6.3181C58.6993 6.31814 57.3184 7.69904 57.3183 9.40248C57.3183 7.69902 55.9374 6.3181 54.2339 6.3181Z" fill="black" />
<path fill-rule="evenodd" clip-rule="evenodd" d="M57.3183 2.73364C57.5944 2.73364 57.8183 2.9575 57.8183 3.23364C57.8183 4.66095 58.9753 5.81801 60.4026 5.81806C60.6787 5.81807 60.9026 6.04192 60.9026 6.31806C60.9026 6.5942 60.6788 6.81805 60.4027 6.81806C58.9755 6.81811 57.8184 7.97513 57.8183 9.40239C57.8183 9.40238 57.8183 9.4024 57.8183 9.40239C57.8183 9.67853 57.5944 9.90241 57.3183 9.90241C57.0422 9.90241 56.8183 9.67856 56.8183 9.40242C56.8183 9.40241 56.8183 9.40243 56.8183 9.40242C56.8183 7.97513 55.6612 6.81806 54.2339 6.81806C53.9577 6.81806 53.7339 6.5942 53.7339 6.31806C53.7339 6.04192 53.9577 5.81806 54.2339 5.81806C55.6612 5.81806 56.8183 4.66098 56.8183 3.23364C56.8183 2.9575 57.0422 2.73364 57.3183 2.73364ZM57.3183 5.06078C57.0114 5.57784 56.5781 6.01111 56.061 6.31806C56.5781 6.62502 57.0114 7.05829 57.3183 7.57534C57.6253 7.05829 58.0585 6.62502 58.5756 6.31806C58.0585 6.01111 57.6253 5.57784 57.3183 5.06078Z" fill="black" />
<path fill-rule="evenodd" clip-rule="evenodd" d="M28.3247 5.08442C30.0282 5.08439 31.4091 3.70346 31.4091 2C31.4091 3.70348 32.7901 5.08442 34.4935 5.08442C32.7901 5.08442 31.4091 6.46536 31.4091 8.16884C31.4091 6.46538 30.0282 5.08445 28.3247 5.08442Z" fill="black" />
<path fill-rule="evenodd" clip-rule="evenodd" d="M31.4091 1.5C31.6852 1.5 31.9091 1.72386 31.9091 2C31.9091 3.42734 33.0662 4.58442 34.4935 4.58442C34.7696 4.58442 34.9935 4.80828 34.9935 5.08442C34.9935 5.36056 34.7696 5.58442 34.4935 5.58442C33.0662 5.58442 31.9091 6.7415 31.9091 8.16884C31.9091 8.44498 31.6852 8.66884 31.4091 8.66884C31.1329 8.66884 30.9091 8.44498 30.9091 8.16884C30.9091 6.74152 29.752 5.58446 28.3247 5.58442C28.0486 5.58441 27.8247 5.36056 27.8247 5.08442C27.8247 4.80828 28.0486 4.58442 28.3247 4.58442C29.752 4.58438 30.9091 3.42731 30.9091 2C30.9091 1.72386 31.1329 1.5 31.4091 1.5ZM31.4091 3.82714C31.1021 4.34419 30.6688 4.77747 30.1518 5.08442C30.6688 5.39137 31.1021 5.82464 31.4091 6.3417C31.716 5.82464 32.1493 5.39137 32.6664 5.08442C32.1493 4.77747 31.716 4.34419 31.4091 3.82714Z" fill="black" />
</svg>