<svg viewBox="0 0 100 100" fill="none" xmlns="http://www.w3.org/2000/svg">
<path d="M27.9409 52.7683L38.8189 21.1232C38.9866 20.6355 39.4834 20.3416 39.9916 20.4296L65.0079 24.7593C65.7089 24.8806 66.0891 25.6489 65.7605 26.2798L53.9312 48.9921C53.6102 49.6084 53.9652 50.3609 54.6449 50.5051L68.4836 53.4406C69.3462 53.6236 69.6132 54.7238 68.9303 55.2818L25.5217 90.7555C24.6473 91.4701 23.4153 90.4904 23.9146 89.4775L39.5608 57.7381C39.8644 57.1221 39.5051 56.3852 38.8327 56.2451L28.7202 54.1383C28.101 54.0093 27.7353 53.3664 27.9409 52.7683Z" fill="black" />
<path d="M24.7427 46.4635L35.5642 14.7116C35.731 14.2222 36.2253 13.9273 36.7308 14.0155L61.6172 18.3599C62.3145 18.4816 62.6928 19.2525 62.3659 19.8855L50.598 42.6746C50.2787 43.2929 50.6318 44.048 51.308 44.1927L65.0748 47.138C65.933 47.3216 66.1986 48.4256 65.5193 48.9855L22.336 84.579C21.4661 85.296 20.2405 84.313 20.7372 83.2967L36.3022 51.4501C36.6043 50.832 36.2468 50.0926 35.5779 49.952L25.5179 47.8381C24.9019 47.7087 24.5381 47.0636 24.7427 46.4635Z" fill="#FFF7AE" />
<path fill-rule="evenodd" clip-rule="evenodd" d="M36.559 15.0006C36.544 14.998 36.5206 15.0055 36.5109 15.0341L25.6894 46.786C25.6856 46.7972 25.6852 46.8052 25.6859 46.8118C25.6867 46.8195 25.6892 46.8279 25.6938 46.836C25.6984 46.8442 25.7037 46.8496 25.7079 46.8527C25.7112 46.8552 25.7155 46.8577 25.7237 46.8594L35.7838 48.9733C37.0992 49.2497 37.785 50.6938 37.2008 51.8891L21.6358 83.7357C21.624 83.76 21.6229 83.772 21.6228 83.7728C21.6228 83.7726 21.6228 83.773 21.6228 83.7728C21.6236 83.7754 21.6296 83.7913 21.65 83.8077C21.6622 83.8175 21.672 83.8216 21.6773 83.8233C21.6818 83.8208 21.6895 83.816 21.7001 83.8073L64.8834 48.2137C64.8931 48.2057 64.8971 48.2002 64.8985 48.1982C64.9 48.1959 64.901 48.1937 64.9019 48.191C64.9038 48.1846 64.9056 48.1715 64.9015 48.1545C64.8974 48.1374 64.8901 48.1277 64.8869 48.1244C64.8856 48.1231 64.8846 48.1223 64.8833 48.1216C64.8821 48.1209 64.8772 48.1183 64.8658 48.1158L51.099 45.1705C49.7692 44.886 49.0921 43.4116 49.7096 42.2157L61.4776 19.4266C61.4841 19.4139 61.4851 19.4057 61.4851 19.3995C61.4851 19.3916 61.4831 19.3817 61.4781 19.3715C61.4731 19.3613 61.4671 19.3549 61.4629 19.3517C61.4602 19.3496 61.456 19.3468 61.4454 19.3449L36.559 15.0006ZM34.6178 14.3889C34.9417 13.4387 35.9068 12.8565 36.9029 13.0304L61.7894 17.3747C63.1615 17.6143 63.8866 19.1203 63.2546 20.3443L51.4867 43.1333C51.4804 43.1454 51.4793 43.1536 51.4793 43.1599C51.4792 43.1678 51.481 43.1775 51.4857 43.1875C51.4903 43.1975 51.4961 43.2039 51.5003 43.2073C51.5032 43.2097 51.5074 43.2126 51.5174 43.2147L65.2842 46.1601C66.97 46.5208 67.4728 48.6712 66.1555 49.757L22.9722 85.3506C21.2338 86.7835 18.8922 84.7947 19.839 82.8575L35.4039 51.0109C35.4098 50.9989 35.4108 50.9907 35.4107 50.9843C35.4107 50.9764 35.4087 50.9668 35.404 50.9572C35.3994 50.9475 35.3937 50.9412 35.3895 50.9378C35.3865 50.9354 35.3822 50.9326 35.3725 50.9306L25.3124 48.8167C24.1009 48.5621 23.4008 47.3013 23.7963 46.1408L34.6178 14.3889Z" fill="black" />
</svg>