<svg width="138" height="184" viewBox="0 0 138 184" fill="none" xmlns="http://www.w3.org/2000/svg">
    <g clip-path="url(#clip0_94_2538)">
        <path
            d="M128.534 125.75C127.549 125.689 126.519 125.78 125.585 125.526C124.565 125.244 123.454 124.965 122.618 124.2C122.452 124.048 122.105 124.299 122.065 123.861C122.044 123.636 121.725 123.446 121.579 123.232C121.433 123.018 121.266 122.79 121.103 122.576C120.763 122.138 120.424 121.706 120.084 121.272C119.998 121.184 119.925 121.086 119.866 120.979C119.404 119.903 118.883 118.853 118.307 117.833C118.24 117.672 118.209 117.498 118.215 117.323C118.179 116.766 118.037 116.221 117.797 115.716C117.518 115.037 117.26 114.357 116.978 113.701C116.89 113.484 116.764 113.409 116.638 113.701C116.455 114.089 116.241 114.466 116.074 114.86C115.881 115.319 115.337 115.577 115.436 116.246C115.476 116.511 115.018 116.909 114.712 117.15C114.288 117.505 113.979 117.978 113.825 118.509C113.682 118.946 113.427 119.338 113.084 119.644C112.789 119.941 112.545 120.286 112.364 120.663C111.891 121.483 111.344 122.257 110.73 122.977C109.612 124.336 108.443 125.668 107.298 127.01C107.257 127.058 107.247 127.14 107.199 127.167C105.704 128.037 104.78 129.569 103.316 130.497C102.13 131.247 101.056 132.175 99.8942 132.977C99.6858 133.107 99.5153 133.29 99.3996 133.507C99.284 133.724 99.2272 133.968 99.235 134.214C99.3166 135.471 99.0074 136.667 98.8443 137.887C98.7587 138.266 98.721 138.654 98.7321 139.042C98.8986 140.353 98.7797 141.662 98.8069 142.973C98.8069 143.71 99.2045 144.332 99.2282 145.066C99.2282 145.127 99.4185 145.29 99.2588 145.297C98.6574 145.324 99.0312 145.637 99.0618 145.854C99.1263 146.306 99.2044 146.762 99.2418 147.214C99.2418 147.431 99.3709 147.699 99.0108 147.822C98.9326 147.849 98.9224 148.162 98.9292 148.328C98.9292 148.909 99.0821 149.51 98.9836 150.071C98.8307 150.948 98.8545 151.834 98.7457 152.711C98.6914 153.143 98.7933 153.588 98.7457 154.023C98.6195 155.256 98.5933 156.498 98.6676 157.736C98.6982 158.188 98.5419 158.65 98.5589 159.096C98.5558 159.46 98.6483 159.818 98.8273 160.135C99.2589 160.85 99.4803 161.672 99.4661 162.507C99.4706 163.056 99.4377 163.604 99.3675 164.148C99.3064 164.756 99.5238 165.008 100.135 165.086C100.903 165.188 101.709 164.892 102.449 165.307C102.475 165.314 102.502 165.315 102.529 165.31C102.555 165.306 102.58 165.295 102.602 165.279C103.282 164.777 104.111 165.33 104.814 164.987C105.422 165.46 106.279 165.164 106.894 165.667C107.177 165.9 107.513 166.06 107.872 166.136C108.796 166.323 109.517 167.077 110.516 167.04C110.722 167.05 110.918 167.133 111.069 167.274C112.218 168.276 113.482 169.163 114.27 170.522C114.525 170.961 114.923 171.314 115.171 171.756C115.38 172.197 115.563 172.651 115.718 173.115C115.979 173.733 116.397 174.324 116.485 174.963C116.634 175.776 116.532 176.615 116.193 177.369C115.974 177.733 115.788 178.117 115.636 178.514C115.558 178.765 115.327 178.694 115.296 178.765C115.194 178.928 115.296 179.214 115.181 179.37C115.001 179.635 114.691 179.812 114.501 180.077C113.893 180.947 112.999 181.5 112.231 182.194C112.089 182.323 111.96 182.581 111.712 182.289C111.684 182.255 111.46 182.35 111.372 182.421C111.175 182.557 111.005 182.73 110.808 182.863C110.611 182.995 110.298 183.172 110.043 183.322L109.415 183.58C109.145 183.613 108.881 183.681 108.63 183.784C107.95 184.181 107.233 183.916 106.527 183.879C105.378 183.814 104.226 183.835 103.078 183.791C102.235 183.76 101.379 183.675 100.557 183.617C100.496 183.603 100.434 183.603 100.373 183.617C99.8714 183.797 99.3302 183.838 98.8069 183.736C98.2735 183.661 97.7468 183.549 97.2133 183.478C97.0647 183.492 96.9171 183.516 96.7716 183.549C96.4726 183.549 96.1736 183.532 95.878 183.515C95.511 183.498 95.1441 183.481 94.7805 183.447C94.3456 183.41 93.8597 183.515 93.5437 183.067C93.5198 183.054 93.4929 183.047 93.4656 183.047C93.4383 183.047 93.4114 183.054 93.3875 183.067C93.2413 183.271 93.1156 183.186 92.9254 183.104C91.9778 182.764 90.9874 182.559 89.9829 182.493C89.2467 182.446 88.5435 182.17 87.9714 181.704C87.0065 180.834 86.1468 179.853 85.226 178.935C84.9924 178.709 84.8214 178.426 84.7297 178.114C84.638 177.802 84.6288 177.471 84.7028 177.155C85.0256 175.85 84.4377 174.695 84.3086 173.468C84.2746 173.128 84.2475 172.809 84.2305 172.476C84.2305 172.354 84.295 172.211 84.2305 172.116C83.7752 171.134 83.9314 170.057 83.7412 169.034C83.7315 168.881 83.7076 168.73 83.6698 168.582C83.1126 167.128 83.15 165.551 82.7422 164.063C82.5749 163.654 82.4718 163.222 82.4364 162.782C82.4279 162.299 82.3618 161.819 82.2394 161.352C82.0836 160.891 81.9531 160.423 81.8486 159.948C81.6971 158.928 81.4849 157.917 81.2133 156.921C81.1351 156.581 81.4851 156.109 81.3559 155.83C81.1826 155.544 81.0489 155.235 80.9584 154.913C80.8307 154.356 80.6742 153.806 80.4895 153.265C80.3857 152.75 80.4044 152.218 80.5439 151.712C80.0988 151.281 80.8837 150.639 80.2857 150.217C80.2231 150.173 80.1712 150.116 80.1335 150.05C80.0959 149.983 80.0736 149.909 80.0682 149.833C80.1803 148.95 79.7896 148.134 79.6911 147.302C79.6401 146.887 79.6707 146.466 79.6333 146.048C79.5381 144.91 79.4158 143.775 79.3309 142.65C79.3105 142.385 79.4362 142.11 79.4226 141.842C79.409 141.573 79.3513 141.291 78.9164 141.217C78.3014 141.118 77.7781 141.332 77.2175 141.468C76.983 141.522 76.7418 141.682 76.5379 141.655C75.1516 141.478 73.7755 141.845 72.396 141.723C71.5228 141.641 70.6564 141.471 69.7866 141.356C69.2769 141.288 69.107 141.448 69.1851 141.944C69.3218 143.053 69.2724 144.177 69.039 145.27C68.9269 145.82 69.0153 146.408 68.9439 146.969C68.8556 147.648 68.6857 148.311 68.5668 148.984C68.526 149.208 68.543 149.442 68.5192 149.663C68.5108 149.812 68.4751 149.959 68.4138 150.095C68.1998 150.492 68.0333 150.958 68.2066 151.315C68.3085 151.532 67.7139 151.787 68.2745 151.879C68.2337 152.174 68.2066 152.473 68.1488 152.769C68.091 153.065 68.0061 153.33 67.9381 153.612C67.8124 154.128 67.6833 154.631 67.5644 155.158C67.544 155.239 67.6086 155.358 67.5644 155.412C67.4591 155.565 67.2246 155.674 67.2246 155.83C67.2246 155.987 67.3401 156.218 67.3469 156.418C67.3653 156.854 67.3126 157.29 67.1907 157.709C66.929 158.61 66.8237 159.551 66.6198 160.468C66.4159 161.386 66.0898 162.371 66.1679 163.377C65.5393 164.525 65.5257 165.803 65.3728 167.053C65.3423 167.315 65.1656 167.556 65.1146 167.818C64.9685 168.589 64.8632 169.367 64.7171 170.138C64.5913 170.801 64.802 171.525 64.3569 172.126C64.5506 173.699 63.8608 175.123 63.6026 176.618C63.5772 176.739 63.5772 176.864 63.6026 176.985C63.8098 177.777 63.4429 178.442 63.1167 179.102C62.9819 179.334 62.7902 179.528 62.5595 179.666C61.9003 180.09 61.2004 180.488 60.5208 180.889C60.4188 180.96 60.3031 181.01 60.181 181.035C59.4369 181.12 58.6962 181.205 57.9487 181.263C57.3201 181.314 56.6881 181.334 56.0561 181.348C55.1965 181.368 54.3335 181.134 53.4772 181.399C53.3242 181.431 53.1651 181.419 53.0186 181.365C51.9788 181.008 50.8677 181.184 49.811 180.953C49.7431 180.936 49.6548 181.018 49.58 181.018C47.8811 180.953 46.1822 180.889 44.4834 180.814C44.2897 180.814 44.0994 180.705 43.9057 180.692C43.6457 180.711 43.3849 180.717 43.1243 180.709C42.8932 180.675 42.6791 180.474 42.4447 180.471C42.2103 180.468 42.0267 180.695 41.8195 180.699C41.1195 180.699 40.4162 180.654 39.7163 180.62C39.509 180.62 39.3017 180.549 39.0945 180.549C37.8611 180.549 36.6209 180.651 35.3909 180.549C33.9639 180.447 32.5334 180.522 31.1097 180.406C30.499 180.396 29.8946 180.281 29.3225 180.067C28.7689 179.787 28.2343 179.472 27.7221 179.122C27.1853 178.782 26.6756 178.385 26.1218 178.062C25.1296 177.488 24.7287 176.462 24.3923 175.446C24.2225 174.933 23.8929 174.386 24.2462 173.804C23.7196 172.948 24.3685 172.044 24.1273 171.147C23.9268 170.397 24.4195 169.72 24.7457 169.068C24.9767 168.599 25.0379 168.049 25.483 167.678C25.8855 167.305 26.2404 166.884 26.5397 166.425C26.9209 166.014 27.3839 165.687 27.8988 165.466C28.5784 165.106 29.2579 164.807 29.9613 164.512C30.4004 164.32 30.8551 164.167 31.3204 164.053C32.2514 163.826 33.188 163.637 34.1303 163.485C34.4785 163.393 34.8463 163.406 35.187 163.523C35.571 163.727 36.1011 163.353 36.3593 163.863C36.4035 163.805 36.4476 163.75 36.4884 163.689C36.5292 163.628 36.5699 163.496 36.6311 163.485C36.6922 163.475 36.8078 163.598 36.8723 163.577C38.2756 163.149 39.5362 164.026 40.8919 164.002C41.4389 164.382 42.251 164.179 42.6927 164.777C42.7165 164.807 42.8049 164.777 42.8592 164.794C43.6353 164.975 44.3668 165.312 45.01 165.782C45.6895 166.275 46.4642 166.673 47.1642 167.141C47.5024 167.406 47.8121 167.706 48.0884 168.035C48.1688 168.155 48.2295 168.287 48.2684 168.426C48.1291 168.477 47.983 168.582 47.8539 168.565C46.6035 168.399 45.3124 168.395 44.1911 167.689C44.0892 167.624 43.9771 167.505 43.8785 167.515C43.0325 167.593 42.3529 167.141 41.6088 166.873C41.2067 166.78 40.7949 166.736 40.3822 166.741C39.9303 166.696 39.4784 166.645 39.0231 166.598C38.9314 166.598 38.8261 166.547 38.7513 166.577C37.8203 166.995 36.8723 166.741 35.9244 166.679C35.6595 166.685 35.4053 166.785 35.2074 166.961C35.0962 167.067 34.9572 167.138 34.8066 167.167C34.6561 167.196 34.5004 167.181 34.358 167.125C34.1716 167.027 33.9614 166.985 33.7519 167.003C33.5425 167.021 33.3425 167.099 33.1756 167.226C33.0465 167.322 32.8358 167.288 32.6455 167.308C32.4552 167.328 32.1495 167.281 31.9966 167.393C31.5311 167.683 31.0061 167.864 30.4608 167.923C30.2178 167.945 29.9829 168.022 29.7739 168.148C29.565 168.274 29.3874 168.445 29.2545 168.65C28.8944 169.292 27.977 169.455 27.8581 170.295C27.4401 170.495 27.5693 170.92 27.4877 171.246C27.3178 171.926 27.3688 172.639 27.1479 173.332C27.0256 173.672 27.2566 174.192 27.4299 174.586C27.6018 174.95 27.8403 175.278 28.1333 175.554C28.4874 175.878 28.8669 176.172 29.2681 176.434C29.4652 176.574 29.7099 176.648 29.9137 176.774C30.0666 176.876 30.3962 176.917 30.1481 177.236C30.2788 177.316 30.4193 177.377 30.5661 177.42C31.0086 177.539 31.4676 177.586 31.9252 177.559C32.1909 177.511 32.4635 177.516 32.7272 177.575C32.9908 177.633 33.2402 177.743 33.461 177.899C33.7634 178.079 34.2629 177.94 34.6706 177.929C35.2652 177.929 35.8802 177.685 36.4238 178.137C36.4238 178.137 36.5631 177.967 36.6379 177.963C36.9849 177.957 37.332 177.97 37.6776 178.001C37.8611 178.001 38.0514 178.14 38.2145 178.106C39.4648 177.838 40.7356 178.171 41.9826 177.946C42.104 177.926 42.2281 177.926 42.3496 177.946C44.0213 178.167 45.6862 177.902 47.3579 177.899C48.4519 177.365 49.5256 177.96 50.6061 177.94C51.3434 177.94 52.0638 178.048 52.8045 178.021C53.6821 178.02 54.5587 178.081 55.4276 178.205C56.0187 178.269 56.6137 178.291 57.208 178.269C58.5295 178.22 59.7964 177.73 60.8062 176.876C60.9693 176.744 61.146 176.689 61.197 176.451C61.3193 175.979 61.564 175.534 61.6421 175.058C61.8765 173.624 62.0804 172.187 62.393 170.76C62.7309 169.114 62.9838 167.451 63.1507 165.779C63.3682 163.873 63.4259 161.946 63.6943 160.047C63.922 158.433 63.7929 156.782 64.2652 155.188C64.3671 154.848 64.1497 154.424 64.3501 153.982C64.4554 153.751 64.3501 153.411 64.6593 153.211C64.7205 153.17 64.6831 152.959 64.6593 152.827C64.6016 151.699 64.52 150.571 64.486 149.429C64.486 148.946 64.5981 148.457 64.5811 147.975C64.5608 147.37 64.5166 146.785 64.8904 146.242C64.9753 146.119 64.8326 145.834 64.7748 145.63C64.7748 145.559 64.6185 145.477 64.6321 145.454C65.152 144.512 64.819 143.35 65.4204 142.436C65.2811 142.052 65.5019 141.706 65.5189 141.342C65.5028 141.245 65.4635 141.152 65.4044 141.073C65.3453 140.994 65.2681 140.93 65.1792 140.887C64.785 140.744 64.3535 140.703 63.9458 140.588C63.1847 140.37 62.4338 140.119 61.6727 139.908C61.2106 139.779 60.7315 139.711 60.2694 139.569C60.0151 139.469 59.7667 139.356 59.5253 139.229C59.2738 139.123 59.019 139.022 58.7608 138.93C58.421 138.811 58.0812 138.74 57.7414 138.59C56.4605 138.009 55.1863 137.411 53.9155 136.816C53.3889 136.568 52.8759 136.286 52.339 136.065C51.8022 135.845 51.5405 136.065 51.5983 136.65C51.5983 136.735 51.6459 136.816 51.6629 136.905C51.7614 137.475 52.1589 138.07 51.5405 138.604C51.5197 138.629 51.5099 138.662 51.5133 138.695C52.3322 139.086 51.9244 139.885 52.057 140.479C52.2348 141.463 52.3595 142.455 52.4307 143.452C52.4949 143.781 52.5121 144.117 52.4817 144.451C52.3016 145.471 52.536 146.51 52.4817 147.54C52.4239 148.571 52.4239 149.604 52.4817 150.635C52.4825 151.486 52.412 152.335 52.271 153.173C52.2467 153.338 52.2728 153.506 52.3458 153.656C52.5598 154.096 52.6103 154.598 52.4885 155.073C52.3905 155.685 52.3609 156.306 52.4001 156.924C52.3555 157.474 52.3498 158.026 52.3832 158.576C52.4341 159.007 52.006 158.892 51.9415 159.082C51.8497 159.361 52.4647 159.242 52.3288 159.697C52.2513 160.116 52.2318 160.543 52.271 160.968C52.271 162.201 52.2404 163.431 52.271 164.661C52.271 165.409 52.3865 166.149 52.4715 166.89C52.5326 167.417 52.1759 167.807 52.0332 168.249C51.9822 168.412 51.5099 168.524 51.2313 168.521C50.9527 168.518 50.4532 167.763 50.4464 167.413C50.4396 167.063 50.4804 166.707 50.4464 166.36C50.3173 165.099 50.0693 163.846 50.0421 162.582C50.0217 161.501 49.8756 160.424 49.9741 159.327C50.0165 158.297 49.9961 157.265 49.913 156.238C49.913 155.698 49.8654 155.154 49.862 154.614C49.8586 154.074 49.8926 153.537 49.862 153C49.862 152.589 49.7872 152.178 49.7533 151.767C49.7261 151.464 49.7363 151.158 49.6819 150.866C49.5086 149.911 49.6412 148.953 49.6242 147.998C48.9446 147.319 49.6004 146.531 49.4951 145.797C49.4645 145.589 49.8858 145.27 49.2878 145.243C49.1247 145.243 49.3184 145.066 49.3184 145.012C49.3184 144.56 49.6004 144.2 49.6887 143.809C49.8153 143.092 49.8347 142.36 49.7465 141.638C49.6884 141.1 49.5195 140.581 49.2504 140.112C48.8176 139.406 48.6683 138.562 48.8325 137.751C49.0058 137.103 49.0058 136.421 48.8325 135.773C48.6184 135.094 48.2379 134.482 48.367 133.735C48.3874 133.622 48.1733 133.442 48.0272 133.344C47.5662 133.003 47.0851 132.69 46.5866 132.406C45.4543 131.796 44.4302 131.004 43.5557 130.062C43.3679 129.822 43.1376 129.619 42.8762 129.464C41.8399 129.001 41.2656 128.081 40.5793 127.272C40.4906 127.168 40.3903 127.075 40.2803 126.993C39.159 126.131 38.1549 125.126 37.2937 124.003C36.6141 123.144 35.7885 122.393 35.255 121.407C35.216 121.35 35.1658 121.301 35.1074 121.264C35.049 121.227 34.9836 121.201 34.9152 121.19C34.5006 121.115 34.076 121.115 33.6614 121.19C32.9819 121.394 32.3295 121.078 31.6703 121.19C30.2942 120.568 28.6803 120.782 27.362 119.946C27.112 119.769 26.8184 119.662 26.5125 119.637C26.1184 119.637 25.8636 119.596 25.7684 119.162C25.7684 119.066 25.534 118.998 25.3947 118.948C24.3753 118.557 23.6109 117.813 22.9007 117.007C22.2619 116.284 21.5858 115.594 20.9232 114.891C20.8213 114.782 20.631 114.687 20.6208 114.575C20.5562 113.827 20.0568 113.338 19.6015 112.815C19.0224 112.121 18.6015 111.309 18.3681 110.436C18.3239 110.276 18.1676 110.151 18.0725 110.001C17.9433 109.801 17.6885 109.563 17.7327 109.393C17.8346 108.955 17.5152 108.713 17.3759 108.394C17.1812 107.968 17.0276 107.524 16.9172 107.069C16.7236 106.284 16.659 105.475 16.4484 104.69C16.1446 103.447 16.0086 102.168 16.044 100.888C16.044 100.63 15.8503 100.549 15.8265 100.399C15.6484 99.5696 15.6139 98.7157 15.7246 97.8745C15.7484 97.6759 15.7484 97.4751 15.7246 97.2765C15.5921 96.0443 15.6795 94.7983 15.9829 93.5967C16.0894 93.2667 16.1511 92.9238 16.1663 92.5774C16.1898 92.1946 16.242 91.8141 16.3226 91.4392C16.3311 91.1956 16.3889 90.9563 16.4925 90.7358C17.1245 89.8014 17.2706 88.6971 17.5424 87.6608C17.573 87.5453 17.5424 87.3924 17.6206 87.321C18.3001 86.6041 18.47 85.6425 18.8336 84.7727C18.9665 84.5014 19.1211 84.2412 19.2957 83.9946C19.3772 83.8655 19.5233 83.7568 19.5505 83.6175C19.7544 82.6661 20.4781 82.0545 21.0455 81.3511C21.26 81.1117 21.3807 80.8028 21.3853 80.4814C21.443 79.5436 21.1882 78.5956 21.5416 77.6578C21.6809 77.2942 21.5416 76.8254 21.5246 76.404C21.4804 75.558 21.3785 74.7052 21.3921 73.8625C21.459 73.3365 21.5554 72.8147 21.6809 72.2995C21.8168 71.2802 21.9255 70.237 22.0207 69.2075C22.1786 68.4794 22.4215 67.7723 22.7444 67.1009C22.8177 66.9195 22.8558 66.7258 22.8565 66.5301C22.9279 65.9966 22.8022 65.453 23.0434 64.923C23.1527 64.5704 23.2233 64.2069 23.2541 63.8391C23.4851 62.7076 23.6788 61.5694 23.971 60.4413C24.2001 59.7167 24.4724 59.0064 24.7865 58.3143C24.8816 58.0697 24.834 57.9745 24.5588 58.0221C24.0526 58.1036 23.5395 58.1954 23.0366 58.2362C22.109 58.3041 21.161 58.2362 20.2504 58.4061C19.136 58.5963 18.0453 58.4061 16.9444 58.4061C16.4144 58.4061 15.8911 58.1444 15.3169 58.2056C14.7661 58.2332 14.214 58.2184 13.6656 58.1613C13.5738 58.1613 13.4379 58.1886 13.3971 58.1376C12.9962 57.6619 12.439 57.927 11.9633 57.7978C11.4876 57.6687 10.944 57.5566 10.4615 57.4309C10.3124 57.408 10.1671 57.3646 10.03 57.3018C9.56127 56.9878 8.99765 56.8471 8.43638 56.9042C8.01025 56.8881 7.60055 56.7357 7.26757 56.4693C6.92349 56.2064 6.49202 56.0849 6.06134 56.1295C5.91526 56.171 5.7592 56.1598 5.62061 56.0976C5.48203 56.0355 5.3698 55.9264 5.30365 55.7897C5.08619 55.3038 4.57652 55.5349 4.23674 55.2766C3.74407 54.8995 3.21741 54.4578 2.53786 54.4272C2.40534 54.4272 2.27622 54.2777 2.15051 54.1928C1.67142 53.853 1.18555 53.5506 0.716657 53.2108C0.493222 53.0452 0.289184 52.8548 0.108443 52.6434C0.0632319 52.5887 0.0309338 52.5247 0.013876 52.4559C-0.0031818 52.3871 -0.00453341 52.3153 0.00993573 52.2459C0.0554894 52.189 0.112066 52.1419 0.176299 52.1074C0.240531 52.073 0.311082 52.0518 0.383682 52.0454C0.567634 52.0268 0.753355 52.0371 0.934119 52.076C2.06218 52.273 3.2208 52.307 4.31148 52.7181C4.78377 52.8948 5.29685 52.7181 5.81331 52.8914C7.61073 53.4452 9.49649 53.6559 11.2871 54.2777C12.004 54.5258 12.8229 54.4748 13.5942 54.5666C13.7378 54.5698 13.879 54.6034 14.0087 54.6651C14.6475 55.0389 14.6441 55.0422 15.3475 54.9505C15.5973 54.9037 15.8511 54.8821 16.1052 54.8859C16.4039 54.9154 16.6988 54.9758 16.9852 55.066C17.3929 55.1815 17.7836 55.3752 18.1982 55.4533C18.6127 55.5315 19.0714 55.6334 19.3195 55.4533C19.6592 55.1951 20.1553 55.8985 20.3388 55.2359C20.7397 55.2359 21.1373 55.2359 21.5348 55.2359C21.9323 55.2359 22.3503 55.2971 22.7614 55.3277C22.8216 55.3432 22.8847 55.3432 22.9449 55.3277C23.6448 54.9131 24.4365 54.9505 25.2078 54.8587C25.3813 54.851 25.5516 54.8086 25.7084 54.7339C25.8653 54.6592 26.0055 54.5537 26.1208 54.4238C26.2362 54.2939 26.3243 54.1422 26.3799 53.9776C26.4355 53.813 26.4575 53.6389 26.4446 53.4657C26.3987 52.9847 26.5251 52.503 26.8014 52.1066C27.5319 51.0872 27.712 49.8369 28.3406 48.7869C28.9691 47.737 29.6657 46.643 30.3146 45.5659C30.5138 45.2196 30.6931 44.8622 30.8515 44.4955C30.8787 44.4344 30.8311 44.3256 30.7903 44.2577C30.7689 44.2398 30.7437 44.2269 30.7167 44.2199C30.6897 44.2128 30.6615 44.2119 30.634 44.217C30.1889 44.781 29.4686 44.7708 28.8944 45.0562C28.3202 45.3416 27.678 45.7629 27.0528 46.0755C26.2917 46.4595 25.5442 46.9317 24.7321 47.122C24.0778 47.2223 23.4415 47.4169 22.8429 47.6997C21.8236 48.2841 20.6446 48.5117 19.5471 48.8821C18.6195 49.1981 17.5934 49.3408 16.7372 49.8165C16.2785 50.0747 15.993 49.2932 15.7178 49.7927C15.48 50.231 15.0587 50.1902 14.6985 50.3057C14.3383 50.4213 13.9306 50.5538 13.7505 49.966C13.6859 49.7485 13.1491 49.8776 13.1967 50.0916C13.3054 50.5741 13.0845 50.5878 12.7753 50.4824C12.6986 50.4687 12.6259 50.4378 12.5627 50.3922C12.4995 50.3465 12.4474 50.2872 12.4102 50.2187C12.373 50.1502 12.3517 50.0742 12.3478 49.9963C12.344 49.9185 12.3577 49.8407 12.388 49.7689C12.4843 49.5503 12.6426 49.3648 12.8433 49.2354C13.3258 48.9432 13.8388 48.6952 14.3417 48.437C14.5736 48.3538 14.793 48.2395 14.9941 48.0972C15.4154 47.6963 15.779 47.3021 16.4755 47.4176C16.8153 47.4754 17.0328 46.8808 17.4949 46.9318C17.5594 46.5614 17.7463 46.592 17.9977 46.7687C18.0453 46.8027 18.2322 46.7313 18.2322 46.7109C18.2084 46.0483 18.7418 46.2963 19.0612 46.1842C19.3806 46.0721 19.7408 45.8852 20.0806 45.7527C20.5454 45.6161 20.9996 45.4458 21.4397 45.243C21.8338 45.0188 22.357 45.0018 22.6153 44.5329C22.6628 44.448 22.8837 44.4683 23.0162 44.4208C23.2745 44.329 23.5293 44.2305 23.7773 44.1218C24.0951 43.9523 24.4231 43.8024 24.7593 43.6733C25.1432 43.5544 25.5646 43.5442 25.8126 43.1602C26.6688 43.1432 27.2159 42.4535 27.9566 42.1817C28.3372 42.0424 28.5478 41.6822 28.9046 41.4783C29.421 41.1861 29.805 40.7172 30.4811 40.6628C30.7156 40.6458 30.967 40.3231 31.2354 40.143C32.1749 39.5412 33.0355 38.8243 33.7973 38.0092C34.1868 37.5948 34.724 37.3506 35.2924 37.3297C35.4857 37.3325 35.6763 37.2843 35.8451 37.1901C36.0139 37.0958 36.1549 36.9588 36.2539 36.7928C36.6691 36.2662 37.1126 35.7626 37.5825 35.2842C37.9222 34.9173 38.2077 34.5299 38.5203 34.1561C38.6905 33.9395 38.872 33.732 39.0639 33.5343C39.8352 32.8038 40.6201 32.0903 41.388 31.3564C41.4944 31.2177 41.5823 31.0658 41.6496 30.9044C41.4578 30.8621 41.2601 30.8529 41.0652 30.8773C40.3449 31.1038 39.6347 31.3553 38.9348 31.6316C38.6596 31.7403 38.4217 31.9374 38.1567 32.0699C37.8917 32.2024 37.6097 32.4097 37.3854 32.3553C37.0456 32.2771 36.9573 32.5966 36.7059 32.6271C36.4117 32.6572 36.1258 32.7425 35.8632 32.8786C35.2443 33.2271 34.5282 33.3631 33.8246 33.2659C33.145 33.7687 32.2514 33.66 31.5548 34.0372C31.1969 34.2304 30.8064 34.356 30.403 34.4076C28.9963 34.5774 27.7289 35.1449 26.4208 35.6376C24.8221 36.3057 23.2603 37.0588 21.7421 37.8937C21.5069 38.0308 21.28 38.1818 21.0625 38.3456C20.9334 38.4306 20.7907 38.6004 20.682 38.58C20.1859 38.4917 19.8529 38.8382 19.4452 38.9707C18.5635 39.3041 17.7409 39.7768 17.009 40.3707C16.9104 40.4386 16.8221 40.5473 16.7133 40.5711C15.4935 40.8429 14.6747 41.8113 13.5568 42.3006C13.0948 42.5078 12.721 42.9054 12.2759 43.1602C11.6643 43.5 11.0289 43.8126 10.4003 44.1286C10.0798 44.2336 9.80969 44.4539 9.64261 44.747C9.43534 45.1377 8.83731 45.3449 8.38541 45.5828C8.04563 45.7697 7.6379 45.8819 7.49519 46.3236C7.47219 46.3623 7.44173 46.396 7.40556 46.4229C7.3694 46.4497 7.32825 46.4691 7.28453 46.4798C6.48266 46.6361 6.0036 47.2579 5.43957 47.7574C5.01586 48.0904 4.4936 48.2732 3.95474 48.2773C3.51643 48.3181 3.40091 48.1481 3.32616 47.8186C3.25234 47.4994 3.26641 47.1663 3.36693 46.8545C3.46746 46.5428 3.65063 46.2642 3.89697 46.0483C5.25607 44.8795 6.41811 43.5034 7.88935 42.4535C8.73879 41.8453 9.64939 41.3526 10.5226 40.7954C11.0289 40.4726 11.4706 40.0309 12.0074 39.7761C13.1321 39.263 14.0461 38.417 15.1028 37.8359C16.3668 37.136 17.6987 36.5583 18.9967 35.9196C19.1394 35.8255 19.2677 35.711 19.3772 35.5798C19.5063 35.4507 19.6218 35.2672 19.8189 35.5016C19.8189 35.5016 19.931 35.5017 19.9378 35.4677C20.1757 34.8459 20.7975 34.7405 21.2969 34.4721C21.3649 34.4313 21.5212 34.4245 21.5586 34.4721C21.7794 34.7541 21.8983 34.5741 22.109 34.428C22.5947 34.0678 23.1057 33.743 23.638 33.4562C24.3302 33.0511 25.0653 32.7241 25.8296 32.4811C26.2787 32.4258 26.7101 32.2727 27.0936 32.0325C27.4333 31.7437 28.0211 31.7437 28.4764 31.5603C30.2222 30.8774 32.0388 30.3919 33.8925 30.1128C34.1936 30.0607 34.4893 29.9811 34.7759 29.8749C34.8812 29.8341 34.9526 29.6949 35.0409 29.6032C34.9288 29.5148 34.8133 29.3483 34.7012 29.3551C33.8925 29.4197 33.1178 29.1274 32.3227 29.1478C31.4767 29.1682 30.6239 28.842 29.788 29.0901C29.7289 29.1033 29.6675 29.1027 29.6087 29.0886C29.5498 29.0745 29.4949 29.0471 29.4482 29.0085C28.891 28.3494 28.1299 28.7129 27.4639 28.5973C27.379 28.5804 27.2635 28.6517 27.1955 28.6177C26.3325 28.1998 25.3641 28.278 24.4773 28.0299C23.3356 27.6902 22.2042 27.262 21.0353 27.0956C20.2374 26.9566 19.46 26.718 18.7214 26.3854C18.4462 26.2733 18.1336 26.2461 17.8584 26.134C16.6828 25.6583 15.48 25.2336 14.3553 24.656C13.6758 24.3162 13.1559 23.7317 12.5647 23.2527C12.5035 23.2051 12.473 23.076 12.4152 23.0692C11.2702 22.8858 11.1376 21.8902 10.825 21.0577C10.8031 20.9575 10.8052 20.8536 10.8312 20.7543C10.8572 20.6551 10.9063 20.5635 10.9745 20.4869C11.0522 20.3942 11.1593 20.3308 11.278 20.3073C11.3966 20.2838 11.5197 20.3016 11.6269 20.3577C12.738 20.898 13.9782 21.1698 15.0043 21.9072C15.0489 21.9494 15.1041 21.9787 15.164 21.9921C16.1391 22.0159 16.8629 22.6411 17.7259 22.9843C18.3715 23.2459 19.1054 23.2832 19.6626 23.7691C20.1383 23.3478 20.4475 24.1089 20.8892 23.939C21.3309 23.7691 21.6809 24.1463 22.0886 24.2074C22.3299 24.2414 22.5745 24.272 22.8192 24.2924C22.9653 24.2924 23.1589 24.2482 23.2575 24.3162C24.0491 24.8327 24.9767 24.7511 25.8432 24.9108C26.7096 25.0705 27.7085 25.0331 28.5614 25.3253C29.5331 25.6651 30.5525 25.485 31.5039 25.8248C31.6467 25.8452 31.7922 25.8371 31.932 25.801C32.1155 25.784 32.3227 25.6923 32.4756 25.75C33.4949 26.1476 34.623 25.5564 35.6322 26.0898C35.7137 26.134 35.8598 26.0593 35.9719 26.0253C36.8356 25.8274 37.7285 25.7916 38.6052 25.9199C38.9913 25.9852 39.3867 25.9713 39.7673 25.8791C40.423 25.6549 41.0822 25.9743 41.6802 25.8384C42.6995 25.6039 43.746 26.0558 44.7382 25.6481C44.8299 25.6107 44.9658 25.6957 45.078 25.7194C45.3022 25.767 45.4857 25.7942 45.5469 25.468C45.6284 25.0433 45.9716 25.0093 46.2502 25.203C46.6613 25.4918 46.9807 25.3627 47.3477 25.1588C48.2823 24.6158 49.374 24.4073 50.443 24.5676C50.7003 24.6304 50.9711 24.6078 51.2143 24.5031C52.6618 23.5551 54.2723 22.9842 55.8285 22.2435C56.4775 21.9343 57.0721 21.5878 57.8671 21.615C58.353 21.615 58.8525 21.3193 59.335 21.1325C59.7529 20.9694 60.1573 20.7656 60.5752 20.6059C60.6567 20.5753 60.7926 20.65 60.8912 20.6941C61.2581 20.8708 61.4688 20.6738 61.6319 20.385C61.7134 20.2389 61.7474 20.1098 61.5062 20.0758C60.6398 19.9467 59.7801 19.7971 58.9137 19.6816C58.4074 19.6102 57.8943 19.5797 57.3813 19.5355C57.0785 19.4828 56.7705 19.4668 56.4639 19.488C55.6009 19.6218 54.7182 19.5389 53.8952 19.2468C53.3787 19.0871 52.7603 19.2467 52.3526 18.7303C52.3152 18.6861 52.0638 18.7303 51.9822 18.8152C51.8344 18.9525 51.6454 19.0372 51.4446 19.0562C51.2437 19.0753 51.0422 19.0276 50.8711 18.9205C49.811 18.455 48.6898 18.7438 47.5991 18.6555C46.7666 18.5909 45.9206 18.8118 45.0915 18.5366C44.9121 18.5143 44.7307 18.5143 44.5513 18.5366C43.7256 18.4924 42.9034 18.4483 42.0777 18.3973C41.2521 18.3463 40.3788 18.2987 39.5192 18.2375C38.8158 18.1866 38.1125 18.1968 37.4024 18.1051C36.5971 18.0031 35.7545 17.8604 34.905 18.1051C34.4735 18.241 33.9537 18.105 33.4746 18.0745C32.1902 17.9997 30.9092 17.8774 29.6249 17.857C28.5648 17.8366 27.4979 17.9522 26.4344 17.9726C26.099 17.9457 25.7654 17.8992 25.4354 17.8332C25.0753 17.7992 24.7117 17.7959 24.3516 17.7789C24.2666 17.7789 24.1545 17.8027 24.1001 17.7585C24.0367 17.6922 23.9605 17.6394 23.8761 17.6034C23.7917 17.5673 23.7009 17.5488 23.6091 17.5488C23.5174 17.5488 23.4266 17.5673 23.3422 17.6034C23.2578 17.6394 23.1816 17.6922 23.1182 17.7585C23.0162 17.8502 22.6968 17.9657 22.6765 17.5546C22.6765 17.4391 22.51 17.4595 22.3367 17.5241C22.0075 17.6314 21.6556 17.6489 21.3173 17.575C21.1712 17.541 21.0897 17.2047 20.9776 17.0042C21.161 16.926 21.3921 16.7357 21.5212 16.7901C21.7998 16.9056 21.9935 17.0042 22.1498 16.6508C22.3061 16.2974 22.3707 16.9906 22.5915 16.6882C22.7672 16.5234 22.9866 16.4125 23.2235 16.3688C23.4206 16.311 23.6516 16.3688 23.8487 16.3008C24.8884 16.012 25.9621 16.1581 27.0154 16.0222C28.3439 15.8489 29.6759 15.713 31.0112 15.5669C31.1266 15.5634 31.2417 15.5806 31.351 15.6179C31.7758 15.7158 32.2184 15.7066 32.6387 15.5907C33.5708 15.3599 34.5411 15.3287 35.486 15.499C35.6305 15.5258 35.7775 15.5371 35.9244 15.5329C37.3039 15.5329 38.6834 15.533 40.0629 15.5567C40.4026 15.5567 40.722 15.6179 41.0482 15.6077C41.6054 15.5907 42.1627 15.5058 42.7199 15.5058C43.5625 15.5058 44.4188 15.5636 45.2479 15.5873C45.5503 15.5873 45.6862 15.6688 45.6556 16.0222C45.6386 16.2193 45.8017 16.4673 46.0769 16.2159C46.4461 15.8756 46.9186 15.6687 47.419 15.6281C48.666 15.6994 49.9096 15.7606 51.1565 15.8659C53.1703 16.0403 55.1875 16.1989 57.208 16.3416C57.7075 16.78 58.2511 16.2499 58.8015 16.4232C59.352 16.5965 59.9466 16.4843 60.5004 16.5625C61.0663 16.6491 61.6259 16.7728 62.1755 16.9329C62.7804 17.1468 63.3976 17.3239 64.0239 17.4629C64.1755 17.4982 64.3244 17.5447 64.469 17.6022C64.6219 17.6498 64.7782 17.6837 64.9345 17.7211C64.853 17.5682 64.8088 17.3814 64.6831 17.2692C63.7725 16.5591 63.0148 15.6859 62.0702 14.9893C61.2581 14.3913 60.3441 13.97 59.566 13.3278C59.1753 12.988 58.635 12.8759 58.173 12.6482C57.8026 12.458 57.4424 12.2371 57.0789 12.0332C56.9659 11.9511 56.841 11.887 56.7085 11.843C55.8965 11.6969 55.2951 11.1362 54.5849 10.7897C53.7602 10.3209 52.8403 10.0445 51.8939 9.98103C51.5941 9.95739 51.3069 9.85022 51.0648 9.67178C50.2953 9.18989 49.4163 8.91057 48.5097 8.85975C47.669 8.81938 46.8455 8.60654 46.0905 8.23453C45.3396 7.83359 44.3916 7.82679 43.5184 7.63992C42.7369 7.47003 41.9282 7.49384 41.1399 7.33415C40.7288 7.27602 40.3148 7.24084 39.8997 7.2288C39.4478 7.18803 39.0095 6.94002 38.5406 6.92303C37.8244 6.92539 37.1088 6.96503 36.3967 7.0419C35.6423 7.09287 34.8914 7.15743 34.1371 7.20839C34.0164 7.2216 33.8943 7.21244 33.777 7.18127C33.3397 7.07263 32.8824 7.07263 32.445 7.18127C31.9415 7.2101 31.4366 7.2101 30.9331 7.18127C30.4406 7.17199 29.9492 7.22913 29.472 7.35115C28.2148 7.75209 26.8965 7.76908 25.6189 8.03071C24.8968 8.19018 24.1626 8.28902 23.4239 8.32627C22.4046 8.36365 21.3853 8.70006 20.3932 8.95829C19.9684 9.06702 19.4826 8.95825 19.1224 9.42034C18.9457 9.65139 18.4428 9.69561 18.1031 9.71939C17.2457 9.7956 16.4079 10.0185 15.6261 10.3785C13.8117 11.143 11.9157 11.6391 10.0402 12.2133C9.71942 12.3194 9.38773 12.3889 9.0514 12.4206C8.84753 12.4376 8.71163 12.2813 8.84414 12.057C8.94399 11.9013 9.0705 11.7645 9.21789 11.6527C10.7333 10.5586 12.2181 9.41697 13.9204 8.59471C14.7189 8.21416 15.5479 7.91515 16.3634 7.57538C16.6726 7.44626 16.9614 7.26954 17.257 7.11324C17.3624 7.05548 17.4643 6.9842 17.573 6.92983C17.9298 6.74636 18.2933 7.38846 18.5516 7.0249C18.8098 6.66134 19.0782 6.68515 19.3704 6.54244C19.6626 6.39974 19.9039 6.26727 20.1859 6.16194C21.1379 5.85977 22.1181 5.65484 23.1114 5.55032C23.829 5.45113 24.5355 5.2839 25.2214 5.05086C26.5057 4.59216 27.8445 4.47324 29.173 4.29316C29.6555 4.2286 30.1516 4.26257 30.634 4.19461C31.1165 4.12666 31.5242 3.92275 31.9727 3.90237C32.4824 3.87858 32.9921 4.04512 33.5154 4.03493C33.9639 4.03493 34.4089 3.81403 34.8507 3.81742C36.0195 3.81742 37.1883 3.88536 38.3504 3.96691C39.5872 4.05185 40.8206 4.20135 42.0574 4.30668C42.533 4.34406 43.0155 4.27612 43.4878 4.32709C44.404 4.47506 45.3002 4.72815 46.1584 5.08138C46.4727 5.17161 46.7967 5.22407 47.1234 5.23767C48.2175 5.3498 49.2164 5.91727 50.3479 5.87649C50.5348 5.87649 50.7318 6.05319 50.9255 6.14493C51.2279 6.28424 51.5303 6.42693 51.8395 6.55605C52.2812 6.73613 52.7297 6.89584 53.1782 7.08272L54.3063 7.50404C54.7276 7.66373 55.1592 7.80302 55.5703 7.9899C56.0528 8.20396 56.5182 8.45881 56.9905 8.69666C57.0888 8.76665 57.1963 8.82268 57.3099 8.86315C58.8865 9.14176 60.0655 10.1645 61.3873 10.9731C62.3037 11.5807 63.1799 12.2469 64.0103 12.9676C64.6016 13.4501 65.1044 14.0379 65.648 14.5781L65.9878 14.9179C65.9878 14.7718 65.9165 14.5986 65.9878 14.4831C66.1963 14.0438 66.4383 13.6212 66.7115 13.219C67.3902 12.3612 68.0121 11.46 68.5735 10.5212C68.8385 10.0251 69.3006 9.6344 69.5929 9.16211C70.2282 8.14278 71.1592 7.37149 71.9 6.44389C72.5905 5.58193 73.3899 4.81328 74.2784 4.1572C74.5264 3.97032 74.506 3.47769 74.9579 3.52186C74.7439 3.18208 74.9138 3.01218 75.2196 2.90684C75.5254 2.80151 75.7734 2.74716 76.0486 2.66221C76.1982 2.63535 76.3412 2.57999 76.4699 2.49913C77.4655 1.59872 78.7159 1.29289 79.9527 0.942923C80.2113 0.855733 80.4447 0.706385 80.6322 0.507999C81.2506 -0.0968045 81.7433 -0.127401 82.5112 0.23616C83.0073 0.470607 83.4931 0.742471 83.9994 0.959929C84.7605 1.25843 85.4165 1.77492 85.8852 2.44471C86.0424 2.63106 86.2268 2.79263 86.4322 2.92385C87.1492 3.47769 87.8729 4.02809 88.5864 4.58532C88.6815 4.66007 88.7427 4.82317 88.8378 4.84016C89.6941 4.99306 89.9931 5.79494 90.5367 6.29441C90.7295 6.49187 90.8746 6.7307 90.9612 6.99271C91.0477 7.25472 91.0734 7.53299 91.0362 7.8064C91.0228 8.19777 90.9786 8.58744 90.9037 8.97182C90.8791 9.05538 90.8356 9.13226 90.7767 9.19645C90.7178 9.26065 90.6451 9.31049 90.5639 9.3422C89.565 9.61402 88.5252 9.74997 87.5671 10.1441C86.9793 10.3921 86.2453 10.3174 85.7866 10.8678C84.91 10.8236 84.4037 11.7309 83.5373 11.741C83.3844 11.741 83.2349 11.9313 83.0718 12.0129C82.9087 12.0944 82.7728 12.1623 82.6913 12.1148C82.467 11.9822 82.3753 11.9483 82.3889 12.2677C82.3889 12.3289 82.2632 12.4274 82.1748 12.4579C81.4624 12.7538 80.7798 13.1168 80.1361 13.5419C79.2493 14.0482 78.563 14.9009 77.4893 15.0912C77.2367 15.1884 77.0263 15.3712 76.8947 15.6077C76.7078 15.8863 76.2151 15.4888 76.1302 16.0426C76.0894 16.3008 75.6987 16.5285 75.4302 16.7221C75.0565 16.9838 74.6488 17.1945 74.2546 17.4289C73.7586 17.7245 73.2353 18.0031 72.7698 18.3225C72.727 18.3428 72.6923 18.3769 72.6713 18.4194C72.6502 18.4618 72.6441 18.5102 72.654 18.5565C72.6638 18.6028 72.689 18.6446 72.7254 18.6749C72.7618 18.7052 72.8074 18.7223 72.8547 18.7235C73.6589 18.873 74.4675 19.0009 75.2807 19.1074C76.5277 19.2671 77.7747 19.3962 79.0183 19.5491C79.7681 19.6845 80.5246 19.7798 81.2846 19.8346C82.6947 19.8549 83.9654 20.3714 85.2702 20.8029C85.7459 20.9592 86.2487 21.0408 86.7278 21.1869C87.2069 21.333 87.6486 21.4858 88.0869 21.6693C89.2694 22.1484 90.411 22.777 91.6342 23.093C92.5763 23.3149 93.4464 23.7734 94.1622 24.425C94.423 24.6422 94.7335 24.7915 95.066 24.8598C95.8237 25.0297 96.3741 25.5054 96.9381 25.9845C97.1396 26.1248 97.3534 26.2465 97.5769 26.3481C98.8531 27.1569 100.063 28.0658 101.196 29.0663C101.77 29.5454 102.293 30.1366 102.894 30.4865C103.594 30.8875 104.053 31.4481 104.593 31.9612C105.215 32.5354 105.864 33.079 106.493 33.6431C106.945 34.0508 107.295 34.5333 107.719 34.9512C108.015 35.3233 108.288 35.7124 108.538 36.1166C108.718 36.3511 108.993 36.5074 109.197 36.7249C109.459 37.0103 109.683 37.3296 109.941 37.6252C110.176 37.9019 110.425 38.1651 110.689 38.4135C111.114 38.8009 111.6 39.1271 111.671 39.7727C111.671 39.8984 111.888 40.0275 112.028 40.1124C112.486 40.3944 112.884 40.7037 112.908 41.3153C112.913 41.4056 112.937 41.494 112.977 41.5751C113.017 41.6562 113.074 41.7284 113.142 41.7875C113.822 42.2394 114.117 42.9326 114.501 43.5985C114.931 44.4662 115.411 45.308 115.938 46.1197C116.652 47.122 117.08 48.2501 117.569 49.3543C117.807 50.0316 118.178 50.6544 118.66 51.1858C118.786 51.3194 118.878 51.4814 118.929 51.658C119.126 52.2493 119.292 52.8507 119.486 53.4419C119.546 53.5829 119.63 53.7127 119.734 53.8258C119.866 53.9889 120.247 54.1656 119.679 54.2302C119.734 54.4273 119.788 54.6243 119.839 54.8214C119.927 55.1816 119.819 55.6369 120.444 55.6878C120.58 55.6878 120.668 56.2349 120.784 56.5305L121.463 58.3177C121.494 58.4061 121.565 58.5079 121.541 58.5793C121.321 59.2894 121.84 59.7889 122.037 60.3801C122.131 60.5669 122.179 60.7727 122.18 60.9815C122.034 61.7664 122.418 62.4595 122.69 63.0949C122.972 63.8302 123.186 64.59 123.329 65.3647C123.471 65.9933 123.448 66.6626 123.577 67.298C123.725 67.9386 123.905 68.5714 124.117 69.194C124.144 69.2857 124.253 69.3571 124.321 69.4386C124.97 70.1963 125.792 70.7977 126.244 71.7253C126.44 72.0672 126.604 72.4266 126.733 72.799C127.005 73.8013 127.627 74.6371 128.001 75.5851C128.123 75.8977 128.507 76.1865 128.184 76.6045C128.215 76.6816 128.27 76.7469 128.34 76.7913C128.999 77.0598 129.084 77.318 129.285 78.0112C129.525 78.7334 129.845 79.4263 130.24 80.077C130.459 80.3546 130.561 80.707 130.525 81.059C130.49 81.1999 130.502 81.3485 130.559 81.4819C130.617 81.6152 130.717 81.7257 130.844 81.7963C131.069 81.9118 131.116 82.3569 131.256 82.6525C131.325 82.8509 131.43 83.0351 131.565 83.1962C132.071 83.6719 132.105 84.2767 132.122 84.8951C132.122 85.2348 132.122 85.5746 132.537 85.7275C132.625 85.7615 132.686 85.9109 132.737 86.0197C132.955 86.4953 132.904 87.09 133.349 87.4773C133.363 87.4976 133.373 87.5213 133.377 87.5462C133.38 87.5711 133.378 87.5965 133.369 87.6201C132.968 88.2555 133.495 88.6801 133.709 89.1898C133.847 89.5842 133.955 89.9886 134.032 90.3994C134.157 90.9669 134.269 91.5343 134.371 92.0983C134.414 92.2287 134.444 92.363 134.46 92.4992C134.451 92.9999 134.527 93.4985 134.684 93.9739C134.738 94.0794 134.77 94.1952 134.776 94.3137C134.674 95.265 135.207 96.0397 135.476 96.8891C135.554 97.2375 135.599 97.5924 135.612 97.9493C135.612 98.1 135.628 98.2504 135.659 98.3978C135.931 99.2065 135.714 100.097 136.172 100.902C136.362 101.242 136.145 101.789 136.227 102.22C136.376 102.992 136.627 103.746 136.794 104.517C136.886 104.931 136.933 105.354 136.937 105.778C136.942 106.599 137.056 107.416 137.276 108.207C137.31 108.319 137.348 108.496 137.276 108.547C136.903 108.989 137.192 109.359 137.341 109.77C137.426 110.056 137.468 110.352 137.467 110.65C137.508 111.612 137.198 112.594 137.572 113.531C137.688 113.817 137.487 113.96 137.47 114.174C137.412 114.996 137.378 115.822 137.3 116.644C137.266 116.984 137.361 117.422 136.811 117.459C136.932 117.543 137.022 117.664 137.068 117.804C137.113 117.944 137.113 118.095 137.066 118.234C136.553 119.229 136.522 120.453 135.571 121.251C135.231 121.52 135.119 122.009 134.83 122.332C134.413 122.802 133.958 123.239 133.471 123.636C132.871 124.155 132.226 124.618 131.544 125.023C130.867 125.427 130.091 125.637 129.302 125.631C129.03 125.631 128.758 125.631 128.486 125.631L128.534 125.75ZM103.469 104.473C103.469 104.534 103.448 104.595 103.435 104.653C102.708 104.453 101.923 104.364 101.267 104.024C100.214 103.481 99.619 101.612 100.054 100.508C100.097 100.416 100.114 100.313 100.103 100.211C100.092 100.11 100.052 100.014 99.9893 99.9336C99.7209 99.4953 99.2384 99.3729 98.8477 99.1113C97.774 98.3943 97.5973 97.1984 97.4886 96.1009C97.3697 94.6874 98.2871 93.5933 99.0991 92.5264C99.1977 92.3973 99.5748 92.3362 99.568 92.2988C99.4389 91.6974 99.9689 91.7177 100.265 91.5546C100.652 91.344 101.066 91.1809 101.474 91.0076C101.607 90.9564 101.745 90.9188 101.885 90.8955L106.479 90.0426L106.748 90.0019C106.7 89.8932 106.686 89.7368 106.601 89.6859C105.844 89.217 105.076 88.7685 104.308 88.3268C104.271 88.3064 104.182 88.3812 104.131 88.3676C103.965 88.3234 103.747 88.3064 103.649 88.1909C103.411 87.9397 103.084 87.7931 102.738 87.7832C102.208 87.6948 101.624 87.5996 101.223 87.1239C101.056 86.9269 100.815 86.6619 100.604 86.6585C99.7685 86.6415 99.1739 86.0707 98.4501 85.8158C98.1542 85.7344 97.891 85.5627 97.6973 85.3245C97.5036 85.0864 97.389 84.7936 97.3696 84.4873C97.3696 84.3649 97.2881 84.1475 97.2371 84.1475C96.8328 84.1271 96.8974 83.8077 96.792 83.5597C96.4319 82.6015 96.8872 81.7351 97.0944 80.8415C97.1658 80.5357 97.4342 80.3046 97.4104 79.9377C97.4061 79.8674 97.4172 79.797 97.4428 79.7315C97.4683 79.6659 97.5079 79.6067 97.5586 79.5579C97.6093 79.5091 97.6701 79.4719 97.7366 79.4489C97.8031 79.4259 97.8738 79.4176 97.9439 79.4246C98.2191 79.4416 98.2837 79.3634 98.3822 79.1494C98.5793 78.7756 98.7491 78.3305 99.218 78.2218C99.6869 78.1131 100.299 77.882 100.774 77.9942C101.967 78.2762 103.2 78.0485 104.376 78.4155C105.3 78.7009 106.238 78.9014 107.067 79.462C108.095 80.2113 109.221 80.815 110.414 81.2561C110.482 81.2798 110.573 81.3682 110.57 81.4192C110.546 81.8201 110.832 81.939 111.124 82.0511C111.551 82.1666 111.964 82.3273 112.357 82.5302C112.712 82.8194 113.035 83.1451 113.322 83.5019C113.387 83.568 113.459 83.6272 113.536 83.6786C114.325 84.1849 115.13 84.6708 115.915 85.2008C116.173 85.3775 116.333 85.6901 116.574 85.9008C117.185 86.4308 117.563 87.141 118.059 87.7594C118.643 88.4899 119.482 88.9825 120.033 89.7606C120.177 89.957 120.342 90.137 120.525 90.2975C120.569 90.3125 120.615 90.317 120.661 90.3105C120.706 90.304 120.75 90.2868 120.787 90.2602C120.989 89.8136 121.123 89.3394 121.185 88.8534C121.185 87.6031 121.606 86.3731 121.365 85.1159C121.331 84.9494 121.439 84.7761 121.46 84.5824C121.555 83.7941 121.654 83.0058 121.725 82.204C121.762 81.7996 121.504 81.3648 121.868 80.9944C121.869 80.9676 121.864 80.9408 121.853 80.9161C121.843 80.8914 121.827 80.8694 121.806 80.8517C121.382 80.7259 121.467 80.3862 121.49 80.0906C121.567 79.6666 121.623 79.2391 121.657 78.8096C121.657 78.1708 121.562 77.5355 121.511 76.9001C121.443 76.1084 121.372 75.3201 121.314 74.5217C121.287 74.1207 121.409 73.6654 121.253 73.3324C120.767 72.3131 121.086 71.1816 120.74 70.1487C120.641 69.9284 120.589 69.6902 120.587 69.4488C120.723 68.3275 119.978 67.3218 120.186 66.2005C120.187 66.1373 120.165 66.0759 120.125 66.0272C119.906 65.6611 119.789 65.2437 119.785 64.8176C119.72 64.1754 119.486 63.5808 119.469 62.8979C119.452 62.2149 118.918 61.5184 118.613 60.8286C118.541 60.6621 118.402 60.4889 118.422 60.3224C118.517 59.6904 118.174 59.2045 117.97 58.6609C117.732 58.0221 117.196 57.4581 117.393 56.6868C117.393 56.6188 117.342 56.4659 117.287 56.4523C116.788 56.313 116.931 55.8849 116.849 55.5485C116.794 55.2889 116.702 55.0384 116.577 54.8044C116.2 54.1792 115.66 53.6321 115.755 52.8065C115.747 52.6829 115.702 52.5645 115.626 52.4667C115.268 51.9362 114.947 51.381 114.668 50.8052C114.328 49.9931 113.533 49.4155 113.533 48.4268C113.533 48.2535 113.319 48.087 113.193 47.9103C112.994 47.6948 112.808 47.4679 112.636 47.2307C112.327 46.7143 112.079 46.1707 111.769 45.6508C111.018 44.4439 110.198 43.281 109.313 42.1681C108.694 41.3526 108.276 40.3809 107.458 39.7115C107.349 39.6232 107.318 39.4396 107.233 39.3105C107.142 39.1488 107.027 39.0011 106.894 38.8722C105.973 38.1336 105.193 37.236 104.59 36.222C104.352 35.7922 103.986 35.4468 103.543 35.2332C102.888 34.8945 102.316 34.4154 101.868 33.83C101.486 33.3972 101.06 33.0044 100.598 32.6577C100.302 32.4097 99.9554 32.2126 99.6564 31.9782C99.235 31.6384 98.8511 31.2408 98.4196 30.9146C97.7876 30.4424 97.1046 30.038 96.4862 29.5555C95.6776 28.9168 94.6752 28.5872 93.9073 27.8907C93.802 27.7955 93.6185 27.7921 93.4792 27.7344C93.3161 27.6735 93.1572 27.6019 93.0035 27.5203C92.2492 27.0922 91.5085 26.6436 90.744 26.2325C90.4042 26.049 89.9829 25.9913 89.6635 25.7807C88.9565 25.343 88.1496 25.0927 87.319 25.0535C87.1364 25.0617 86.9542 25.0292 86.7856 24.9583C85.4175 24.1513 83.9248 23.5772 82.3685 23.2595C81.9748 23.2228 81.5856 23.1477 81.2065 23.0352C80.442 22.6683 79.5993 22.8585 78.828 22.6003C78.3217 22.4304 77.7339 22.5391 77.2039 22.427C76.6738 22.3149 76.12 21.9649 75.573 21.9412C75.0259 21.9174 74.4449 22.1654 73.8741 22.2809C73.7215 22.2946 73.5679 22.2946 73.4153 22.2809C71.9237 22.3251 70.4355 21.9615 68.9405 22.2809C68.0809 22.4576 67.2042 22.5595 66.3446 22.7396C65.6651 22.8823 64.9345 22.8653 64.3603 23.3648C64.2822 23.4294 64.0613 23.2968 63.922 23.3308C63.358 23.4565 62.6818 23.1338 62.2231 23.7386C62.1588 23.7839 62.0807 23.8055 62.0022 23.7997C61.7457 23.7763 61.4871 23.8076 61.2435 23.8913C60.9998 23.9751 60.7767 24.1094 60.5888 24.2856C59.7427 24.2584 59.053 24.673 58.3021 24.989C57.3337 25.3899 56.243 25.4952 55.3562 26.1408C55.3325 26.1449 55.3081 26.1434 55.2851 26.1363C55.262 26.1292 55.241 26.1168 55.2237 26.1C55.1625 25.8656 55.0538 25.7093 54.9349 26.0423C54.9135 26.124 54.8708 26.1985 54.8111 26.2582C54.7513 26.3179 54.6768 26.3607 54.5951 26.3821C54.3144 26.4962 54.0557 26.6583 53.8306 26.8611C53.4785 27.1513 53.0735 27.3705 52.638 27.5067C52.0074 27.7962 51.4017 28.1372 50.827 28.526C50.8576 28.9439 50.4566 29.0832 50.2358 29.124C50.0124 29.1503 49.7968 29.2221 49.6022 29.3349C49.4076 29.4477 49.2382 29.5991 49.1043 29.7798C48.8257 30.1672 48.2752 30.0279 47.9389 30.4594C47.5289 31.0275 46.9755 31.4765 46.3351 31.7607C45.3939 32.1005 44.976 32.9364 44.2965 33.497C43.6169 34.0576 42.8116 34.5842 42.1966 35.3249C41.2283 36.4938 40.0594 37.5029 38.9823 38.5834C38.8716 38.6817 38.7924 38.8106 38.7547 38.9538C38.6093 39.5767 38.2646 40.135 37.7728 40.544C37.0932 41.2235 36.6923 42.0186 36.2302 42.8102C36.1134 43.0513 35.9367 43.2583 35.7171 43.4117C35.1442 43.744 34.6974 44.2565 34.4463 44.8693C34.3374 45.1895 34.1878 45.4944 34.0012 45.7765C33.2435 46.6599 32.8902 47.7438 32.4213 48.7733C32.3467 48.9715 32.2387 49.1554 32.1019 49.317C31.6832 49.692 31.3853 50.1827 31.2456 50.7271C31.1573 51.1178 30.8243 51.444 30.6646 51.8279C30.4412 52.4117 30.1778 52.9793 29.8763 53.5268C29.5365 54.1112 29.489 54.8689 29.2545 55.5315C29.1473 55.9781 28.9431 56.3957 28.6565 56.7547C28.5119 56.9104 28.4022 57.0953 28.3348 57.2969C28.2674 57.4985 28.2439 57.7121 28.2658 57.9235C28.3261 58.058 28.3482 58.2066 28.3296 58.3529C28.3111 58.4991 28.2525 58.6374 28.1605 58.7526C27.7289 59.2011 27.6644 59.7413 27.5828 60.3088C27.5379 60.6081 27.4426 60.8976 27.3008 61.165C27.0378 61.6095 26.9081 62.1202 26.9271 62.6363C26.9366 62.8485 26.8971 63.0601 26.8116 63.2546C26.4072 64.172 26.4718 65.2186 26.0097 66.1224C25.9541 66.298 25.9299 66.482 25.9383 66.666C25.8801 67.7222 25.7667 68.7747 25.5985 69.8191C25.4497 70.5075 25.3644 71.2082 25.3437 71.9122C25.3584 72.0923 25.3377 72.2735 25.2826 72.4456C24.9054 73.2814 25.1228 74.1955 24.9122 75.0551C24.7899 75.5512 24.6166 76.105 24.7219 76.5773C25.0039 77.8175 24.5996 79.0509 24.8238 80.2911C24.9377 81.1003 24.9377 81.9214 24.8238 82.7306C24.7423 83.5393 25.4354 84.331 24.8476 85.1363C24.8238 85.1703 24.936 85.2892 24.9563 85.3741C25.0379 85.699 25.1025 86.0279 25.15 86.3594C25.231 86.7141 25.2414 87.0813 25.1806 87.44C25.0583 87.8205 25.6699 87.8001 25.4626 88.1637C25.4014 88.2724 25.4626 88.4559 25.4626 88.5986C25.5713 89.3461 25.7141 90.0902 25.833 90.831C26.0403 92.0915 26.0776 93.3759 26.4344 94.6296C26.7504 95.7475 26.8761 96.9163 27.2634 98.0274C27.5489 98.8327 27.7086 99.6821 28.0008 100.487C28.3609 101.486 28.7992 102.458 29.2036 103.443C29.2392 103.529 29.2632 103.62 29.2749 103.712C29.3076 104.306 29.539 104.873 29.9321 105.32C30.3252 105.768 30.8572 106.07 31.4427 106.179C32.3159 106.379 33.2537 106.315 34.1609 106.366C34.6842 105.91 35.3637 105.988 35.9719 105.883C36.3216 105.807 36.6544 105.668 36.9539 105.472C37.3025 105.298 37.6651 105.154 38.0378 105.04C38.1227 105.013 38.2484 105.078 38.3198 105.04C39.5566 104.337 40.97 104.021 42.1661 103.202C43.0529 102.604 44.181 102.404 44.9013 101.503C45.0372 101.333 45.3294 101.282 45.5502 101.184C46.5788 100.795 47.562 100.294 48.4825 99.6923C49.3409 99.0601 50.258 98.5118 51.2211 98.0546C52.2959 97.5647 53.2995 96.9315 54.2044 96.1722C54.4423 95.9831 54.6984 95.8181 54.9689 95.6796C55.3392 95.4723 55.7198 95.2854 56.0935 95.0884C56.4673 94.8913 56.9158 94.5481 57.3575 94.47C57.5819 94.4551 57.7937 94.3612 57.9555 94.2049C58.6969 93.4125 59.4783 92.6583 60.2966 91.9454C61.1129 91.2039 61.8866 90.4165 62.6139 89.5873C63.341 88.8364 63.8914 87.9122 64.52 87.0662C64.871 86.6054 65.1337 86.0835 65.2947 85.527C65.5258 84.7251 65.7364 83.8893 66.5145 83.3559C66.8447 83.1474 67.106 82.8459 67.2654 82.4894C67.6052 81.5618 67.5508 81.5415 67.8056 81.324C68.1841 80.9715 68.6673 80.752 69.1817 80.6988C69.372 80.6988 69.7798 80.8279 69.7526 80.3318C69.7688 80.2903 69.7956 80.2539 69.8304 80.226C69.8651 80.1982 69.9065 80.1798 69.9505 80.1729C69.9945 80.1661 70.0395 80.1708 70.0811 80.1868C70.1227 80.2027 70.1593 80.2293 70.1875 80.2639C70.4151 80.4813 70.67 80.6852 70.9384 80.2843C70.9656 80.2401 71.1015 80.2333 71.1728 80.2571C71.8026 80.4598 72.4208 80.6969 73.0246 80.9672C73.9488 81.4293 74.5366 82.17 74.4347 83.2573C74.3893 84.114 74.1475 84.9487 73.728 85.6969C73.5853 85.9313 73.4289 86.159 73.2998 86.4003C73.2998 86.4342 73.3814 86.5871 73.4119 86.5837C73.8849 86.4732 74.3653 86.397 74.8492 86.356C75.3963 86.356 75.804 86.0469 76.2831 85.9076C76.7622 85.7683 77.2616 85.6935 77.7509 85.5678C77.9271 85.516 78.0997 85.4524 78.2674 85.3775C78.3485 85.3339 78.4339 85.2985 78.5222 85.2722C78.9435 85.2212 79.3682 85.1805 79.7896 85.1431C80.2109 85.1057 80.6288 85.1736 80.955 85.0105C81.4341 84.7693 81.7807 85.1125 82.1884 85.1125C82.2802 85.1125 82.3685 85.0921 82.4602 85.0853C83.1398 85.0139 83.7514 84.9664 84.4072 85.3537C85.2663 85.7909 86.1475 86.1833 87.0472 86.5293C87.1879 86.6026 87.2985 86.7228 87.3598 86.8691C87.5705 87.4025 87.7573 87.9428 87.9442 88.483C87.958 88.5686 87.958 88.6558 87.9442 88.7413C88.3995 88.6122 88.3724 88.9894 88.3588 89.2102C88.3112 90.1412 88.2331 91.0823 87.6792 91.8774C87.5655 91.9944 87.4203 92.0759 87.2613 92.1119C86.5409 92.343 85.9022 92.7914 85.0799 92.7405C84.5159 93.3249 83.7684 93.1244 83.1704 92.9987C81.9098 92.7269 80.7002 93.0191 79.4702 93.087C79.2146 93.1202 78.9623 93.1748 78.7159 93.2501C78.4373 93.3147 78.461 93.505 78.6003 93.6477C78.7261 93.7705 78.8882 93.8492 79.0624 93.8719C79.416 93.9205 79.774 93.9285 80.1293 93.8958C80.656 93.8244 80.9754 94.1982 81.3593 94.4088C81.5258 94.504 81.5802 94.8064 81.6991 95.017C81.8486 94.8471 81.9743 94.6772 82.2598 94.7995C82.4398 94.8811 82.7015 94.8267 82.8476 94.9354C83.5611 95.4723 84.2543 96.0363 84.944 96.6038C85.2838 96.8892 85.3959 97.3988 85.875 97.5687C85.9327 97.5925 85.9396 97.8133 85.9328 97.9391C85.9056 98.656 85.8546 99.3695 85.8342 100.083C85.8104 100.888 85.9735 101.741 85.1886 102.322C85.1413 102.363 85.106 102.416 85.0867 102.475C84.8625 103.073 84.3834 103.457 83.9213 103.855C83.8689 103.896 83.8256 103.947 83.7941 104.005C83.7625 104.064 83.7433 104.128 83.7378 104.194C83.7887 104.748 83.6393 105.305 83.7956 105.866C83.863 106.161 83.8711 106.465 83.8193 106.763C83.7853 107.031 83.7378 107.409 83.5611 107.521C83.2791 107.701 83.4762 107.952 83.3369 108.109C83.2311 108.216 83.1175 108.316 82.9971 108.408C82.8374 108.547 82.5724 108.662 82.5316 108.829C82.3889 109.444 81.57 109.529 81.5123 110.188C81.5123 110.266 81.1725 110.399 81.04 110.358C80.6628 110.249 80.4793 110.47 80.2415 110.674C80.0451 110.854 79.8138 110.991 79.5619 111.078C78.584 111.365 77.5547 111.431 76.5481 111.272C76.2285 111.257 75.9172 111.165 75.6409 111.003C74.9376 110.467 74.2818 109.865 73.6022 109.281C73.2625 108.989 73.0586 108.968 72.8207 109.352C72.43 109.984 71.8184 110.263 71.1762 110.49C70.0957 110.874 68.9915 111.201 67.9178 111.598C67.2684 111.848 66.5617 111.909 65.8791 111.775C65.1581 111.697 64.433 111.665 63.7079 111.676C63.5283 111.641 63.3537 111.584 63.1881 111.506C62.4515 111.318 61.7448 111.027 61.0883 110.643C60.7144 110.436 60.3205 110.266 59.9126 110.137C59.7722 110.08 59.6148 110.08 59.4743 110.137C59.0592 110.379 58.6872 110.687 58.3735 111.051C58.1801 111.315 57.9306 111.533 57.6429 111.69C56.7187 112.274 55.696 112.777 54.9485 113.545C54.4164 114.136 53.7498 114.591 53.005 114.87C52.6958 114.979 52.4273 115.21 52.1215 115.325C51.1872 115.713 50.5687 116.589 49.597 116.909C49.1579 117.039 48.7277 117.198 48.3092 117.384C47.5039 117.765 46.7191 118.18 45.9308 118.577C45.1425 118.975 44.2319 118.948 43.4233 119.454C42.8185 119.834 42.02 119.899 41.3098 120.116C40.7356 120.293 40.1546 120.456 39.6109 120.68C39.5257 120.697 39.4467 120.736 39.3824 120.794C39.3181 120.853 39.2711 120.927 39.2466 121.01C39.222 121.094 39.2208 121.182 39.2431 121.266C39.2654 121.35 39.3104 121.426 39.3731 121.486C39.6313 121.825 40.1104 122.111 40.1682 122.471C40.2633 123.079 40.7764 123.035 41.0754 123.307C41.1841 123.405 41.2589 123.545 41.3608 123.647C41.5643 123.87 41.7811 124.081 42.0098 124.279C42.3496 124.571 42.9136 124.764 43.0631 125.131C43.4538 126.059 44.2795 126.528 44.9182 127.187C45.8187 128.118 46.9977 128.73 47.8607 129.708C47.9084 129.748 47.9609 129.781 48.017 129.807C48.8902 130.354 49.7397 130.948 50.6469 131.431C51.2294 131.759 51.7901 132.124 52.3254 132.525C52.9095 132.968 53.5327 133.357 54.1874 133.687C55.431 134.254 56.7119 134.751 57.9929 135.233C59.4199 135.773 60.847 136.337 62.3149 136.755C64.0288 137.277 65.7699 137.704 67.5304 138.036C68.2881 138.165 69.0288 138.199 69.7797 138.271C70.6009 138.376 71.4322 138.376 72.2533 138.271C72.3926 138.25 72.5455 138.342 72.695 138.362C72.9894 138.415 73.2867 138.449 73.5852 138.464C74.3463 138.464 75.1109 138.464 75.872 138.43C76.1744 138.43 76.4767 138.349 76.7791 138.308C77.1699 138.254 77.581 137.778 77.9548 138.352C77.9548 138.379 78.0737 138.352 78.1315 138.352C78.5426 138.25 78.9605 138.169 79.3614 138.012C79.9153 137.819 80.4351 137.571 81.0603 137.792C81.3052 137.816 81.5513 137.758 81.7603 137.628C82.2462 137.394 82.749 137.469 83.2519 137.421C83.7548 137.374 84.1795 137.013 84.645 136.793C84.6738 136.784 84.7045 136.784 84.7333 136.793C85.7832 136.85 86.6973 136.341 87.6588 136.055C88.9398 135.675 90.0169 134.798 91.3148 134.428C91.599 134.323 91.8676 134.18 92.1133 134.003C92.6331 133.69 93.3603 133.735 93.6797 133.045C93.7578 132.868 94.0806 132.804 94.2947 132.688C95.2291 132.172 96.1702 131.669 97.1012 131.139C97.9235 130.677 98.7389 130.201 99.551 129.718C99.6563 129.657 99.8092 129.525 99.799 129.44C99.7447 129.029 100.05 128.923 100.309 128.76C100.607 128.611 100.89 128.434 101.155 128.23C101.855 127.591 102.514 126.922 103.193 126.26C103.837 125.566 104.517 124.908 105.232 124.289C105.766 123.88 106.205 123.361 106.52 122.767C106.591 122.634 106.673 122.461 106.788 122.427C107.842 122.012 108.215 120.969 108.739 120.144C109.19 119.424 109.699 118.742 110.261 118.105C110.531 117.775 110.774 117.424 110.988 117.055C111.586 116.114 112.316 115.251 112.741 114.201C112.762 114.15 112.84 114.123 112.874 114.075C113.122 113.688 113.4 113.317 113.608 112.913C113.947 112.234 114.263 111.527 114.576 110.83C114.706 110.55 114.819 110.263 114.916 109.971C114.946 109.872 114.943 109.692 114.878 109.631C114.295 109.23 113.876 108.633 113.696 107.949C113.489 107.13 112.826 106.44 112.755 105.547C112.756 105.446 112.737 105.345 112.698 105.251C112.66 105.158 112.602 105.073 112.53 105.003C112.457 104.932 112.371 104.877 112.277 104.841C112.182 104.805 112.081 104.788 111.98 104.792C111.525 104.82 111.154 104.636 110.74 104.592C110.556 104.572 110.359 104.69 110.166 104.697C109.808 104.755 109.443 104.746 109.089 104.67C108.564 104.498 108.004 104.469 107.464 104.585C107.036 104.714 106.59 104.773 106.143 104.762C105.803 104.718 105.412 104.894 105.086 104.616C104.79 105.044 104.539 104.758 104.233 104.616C103.987 104.53 103.729 104.482 103.469 104.473ZM77.7203 107.959L77.7407 108.061C78.1269 108.014 78.5038 107.908 78.8586 107.748C79.3954 107.409 79.8372 106.909 80.4386 106.641C80.4589 106.641 80.408 106.505 80.4386 106.464C80.9142 105.808 80.3774 105.105 80.4793 104.425C80.4997 104.279 80.0376 104.065 79.7998 103.878C79.6948 103.816 79.6017 103.735 79.5246 103.641C78.9673 102.747 78.0261 102.485 77.1087 102.281C76.8521 102.238 76.6105 102.131 76.4058 101.97C76.2011 101.809 76.0398 101.6 75.9365 101.361C75.7157 100.909 75.4846 100.382 75.9025 100.002C76.3205 99.621 76.7282 98.9822 77.5029 99.4409C77.6626 99.536 77.9242 99.4681 78.1383 99.4817C79.4702 99.5734 80.7987 99.6685 81.6787 100.888C81.6787 100.912 81.7059 100.946 81.7297 100.96C81.8928 101.045 82.1103 101.238 82.219 101.191C82.3605 101.111 82.4828 101.001 82.5773 100.869C82.6719 100.737 82.7363 100.586 82.766 100.426C82.809 100.125 82.8362 99.8227 82.8476 99.5191C82.8998 99.3599 82.9072 99.1894 82.8688 99.0263C82.8305 98.8633 82.7478 98.714 82.6301 98.5948C82.1646 98.1871 81.7297 97.6775 81.1793 97.443C79.8928 96.9007 78.538 96.5372 77.1529 96.3625C76.4935 96.2751 75.8468 96.1097 75.2264 95.8698C74.8356 95.7203 74.3497 95.5301 74.2784 95.0034C74.207 94.6102 74.207 94.2074 74.2784 93.8142C74.3469 93.4199 74.5342 93.056 74.8152 92.7711C75.1108 92.5332 75.3249 92.1799 75.6579 92.027C76.3952 91.6872 77.1733 91.4323 77.9208 91.1129C78.7397 90.7731 79.6197 90.7902 80.4725 90.4708C80.8837 90.3145 81.5462 90.148 81.9438 90.7562C81.9689 90.795 82.0044 90.8261 82.0462 90.8458C82.088 90.8655 82.1345 90.8732 82.1805 90.8679C82.2264 90.8626 82.2699 90.8445 82.3062 90.8158C82.3424 90.787 82.3699 90.7487 82.3855 90.7052C82.4148 90.6618 82.4551 90.6271 82.5022 90.6044C82.5494 90.5817 82.6017 90.572 82.6539 90.5761C83.5679 90.9703 84.3902 90.3213 85.2702 90.3451C85.4163 90.3451 85.7085 90.0732 85.6915 89.9611C85.6371 89.5806 85.5862 89.0573 85.3314 88.8806C84.7961 88.4874 84.1776 88.2223 83.5237 88.1059C82.0083 87.9134 80.478 87.8668 78.9537 87.9667C78.2898 87.9767 77.6316 88.0914 77.0034 88.3064C76.1721 88.648 75.3141 88.9207 74.4381 89.1219C73.9794 89.217 73.6022 89.8456 73.0416 89.3937C72.7698 90.1514 71.9713 89.9951 71.4345 90.2839C70.6266 90.691 69.7962 91.0519 68.9473 91.3644C68.7808 91.4324 68.6075 91.3882 68.5634 91.6566C68.5634 91.7415 68.3187 91.8571 68.1896 91.8537C67.7047 91.8768 67.2351 92.0306 66.8305 92.2988C66.2732 92.6046 65.6888 92.856 65.1316 93.1483C64.1123 93.6953 63.0521 94.2423 62.0328 94.8199C61.7522 95.0018 61.5061 95.2318 61.3057 95.4995C60.6295 96.3105 59.6928 96.8617 58.6554 97.059C57.7816 97.2365 56.9765 97.6597 56.3348 98.2788C55.7519 98.844 55.1309 99.3685 54.4762 99.8487C53.6479 100.43 52.7662 100.932 51.8429 101.347C50.8575 101.779 50.0251 102.434 49.0602 102.883C48.0952 103.331 48.1699 103.403 46.9467 103.562C46.9162 103.562 46.8754 103.627 46.8754 103.661C46.9059 104.14 46.3827 103.963 46.1958 104.252C45.8623 104.649 45.455 104.978 44.9964 105.22C44.694 105.414 44.2659 105.435 44.0111 105.659C43.5628 106.026 43.0624 106.325 42.5262 106.546C41.9996 106.787 41.5069 107.11 40.9972 107.368C40.616 107.6 40.1994 107.767 39.7639 107.864C39.362 107.884 38.9798 108.044 38.6833 108.316C38.5406 108.432 38.3732 108.513 38.1941 108.554C37.4874 108.761 36.784 108.978 36.0671 109.142C35.4453 109.281 34.7453 109.213 34.1949 109.481C32.9004 110.103 31.7417 109.305 30.5185 109.281C30.4709 109.281 30.4268 109.206 30.3758 109.179C29.6181 108.798 28.7279 108.605 28.3133 107.731C28.3133 107.714 28.2522 107.731 28.225 107.714C27.9875 107.635 27.7913 107.464 27.6792 107.24C27.5671 107.016 27.5484 106.756 27.627 106.518C27.8444 105.764 27.4299 105.37 26.9474 104.972C26.6435 104.767 26.3551 104.54 26.0844 104.293C25.783 103.999 25.5367 103.654 25.3573 103.274C25.0481 102.489 24.8884 101.649 24.603 100.844C24.0492 99.2778 23.6618 97.6502 23.2167 96.0431C23.089 95.6098 22.9981 95.1665 22.9449 94.718C22.8419 93.5013 22.6025 92.3 22.2313 91.1367C22.1519 90.7862 22.1053 90.429 22.092 90.0699C21.9629 89.0675 22.2585 88.0312 21.8338 87.0492L21.6571 86.6619C21.5484 86.7536 21.3989 86.8216 21.3377 86.9371C21.1071 87.3357 20.9127 87.7542 20.7567 88.1875C20.3897 89.3495 20.0296 90.515 19.7374 91.6974C19.2953 93.2384 19.0454 94.8281 18.9933 96.4305C18.9934 97.1786 18.9514 97.9262 18.8676 98.6696C18.8281 99.2995 18.8566 99.9316 18.9525 100.555C19.0171 101.17 19.1292 101.782 19.2311 102.387C19.418 103.491 19.7476 104.575 20.0432 105.659C20.1349 105.999 20.3829 106.284 20.4475 106.617C20.7397 108.316 21.6435 109.729 22.5371 111.139C22.8283 111.56 23.0939 111.998 23.3322 112.451C23.5973 113.001 23.8555 113.63 24.484 113.939C24.6486 114.017 24.792 114.134 24.902 114.279C25.5612 115.237 26.5465 115.767 27.5319 116.297C27.6678 116.369 27.8479 116.372 27.96 116.467C28.6687 117.03 29.4749 117.457 30.3384 117.728C30.4604 117.798 30.589 117.856 30.7224 117.901C31.5311 117.989 32.3363 118.091 33.1484 118.125C33.7801 118.161 34.4137 118.137 35.0409 118.054C35.7851 117.942 36.5088 117.68 37.2733 117.949C37.414 118.005 37.5709 118.005 37.7116 117.949C38.5203 117.439 39.56 117.667 40.3517 117.103C40.5134 117.017 40.6878 116.959 40.8681 116.929C41.5477 116.732 42.2748 116.572 42.951 116.324C43.7766 116.022 44.5751 115.645 45.377 115.305C46.1116 115.022 46.8228 114.681 47.5039 114.286C48.1666 113.855 48.8828 113.512 49.6343 113.266C49.8008 113.209 50.0591 113.141 50.0897 113.025C50.2086 112.611 50.5619 112.539 50.8609 112.369C51.7614 111.86 52.7264 111.421 53.5282 110.779C54.2757 110.181 55.4207 110.062 55.7877 108.982C55.8183 108.893 55.9916 108.856 56.0935 108.788C56.6131 108.499 57.1015 108.158 57.5512 107.769C58.1192 107.171 58.8631 106.77 59.6748 106.624C59.9036 106.565 60.1429 106.562 60.3732 106.614C60.6036 106.666 60.8183 106.772 60.9999 106.923C61.8596 107.579 62.7464 108.248 63.8507 108.482C64.1395 108.544 64.5098 108.438 64.7273 108.581C65.468 109.08 66.2699 108.781 66.9868 108.717C68.1485 108.602 69.2491 108.142 70.1467 107.395C70.8262 106.824 71.7233 106.376 71.9034 105.356C71.9034 105.309 71.9713 105.265 72.0189 105.231C72.5557 104.837 73.0926 104.436 73.6396 104.048C74.3497 103.545 74.7711 103.579 75.3827 104.174C75.6171 104.402 76.0214 105.611 75.8923 105.805C75.6919 106.111 75.2468 106.413 75.274 106.678C75.3079 107.018 75.8006 107.269 75.9535 107.623C75.9914 107.734 76.0634 107.83 76.1592 107.898C76.2549 107.965 76.3696 108.001 76.4869 108C76.8985 108.009 77.3103 107.995 77.7203 107.959ZM96.1362 136.161C96.1362 135.389 96.1362 135.383 95.5416 135.682C95.3785 135.763 95.2223 135.865 95.066 135.963C94.5937 136.262 94.1452 136.599 93.6525 136.857C93.1277 137.167 92.5646 137.407 91.9774 137.571C91.3556 137.713 90.9275 138.135 90.3906 138.393C90.3363 138.42 90.2819 138.474 90.2276 138.474C89.1437 138.508 88.301 139.215 87.3088 139.494C87.1723 139.562 87.0253 139.607 86.8739 139.626C85.7594 139.541 84.8115 140.126 83.782 140.367C83.5685 140.392 83.3594 140.446 83.1602 140.527C83.0917 140.571 83.0346 140.63 82.9939 140.7C82.9531 140.771 82.9297 140.85 82.9257 140.931C83.0368 141.427 83.1051 141.932 83.1296 142.44C83.1296 142.929 83.4184 143.415 83.5781 143.901C83.7378 144.387 83.4796 144.991 83.8941 145.45C83.8941 145.45 83.8023 145.562 83.782 145.634C83.7208 145.834 83.5611 146.123 83.6393 146.232C84.047 146.802 83.9485 147.431 83.979 148.053C83.979 148.478 84.0843 148.906 84.0707 149.327C84.0266 150.486 83.9451 151.644 83.8805 152.799C83.8805 152.939 83.8159 153.102 83.8805 153.211C84.261 153.941 84.2984 154.094 84.2203 155.107C84.2203 155.147 84.2882 155.192 84.295 155.239C84.4071 155.946 84.5329 156.649 84.6178 157.359C84.7945 158.807 84.7537 160.275 85.0221 161.719C85.1547 162.398 85.1785 163.125 85.243 163.832C85.3483 164.994 85.3891 166.163 85.5556 167.318C85.7595 168.677 86.0856 170.036 86.3269 171.412C86.5375 172.612 86.6837 173.825 86.9045 175.024C86.9857 175.441 87.1386 175.839 87.3564 176.203C87.834 176.957 88.528 177.549 89.3475 177.902C89.6057 178.021 89.7552 178.082 89.5174 178.409C89.2795 178.735 89.429 178.935 89.8572 179.044C90.3329 179.17 90.744 179.462 91.3012 179.282C91.6047 179.247 91.9116 179.309 92.1779 179.458C92.9152 179.761 93.5743 180.325 94.4578 180.09C94.4878 180.082 94.5195 180.082 94.5495 180.09C95.3735 180.271 96.2176 180.344 97.0605 180.308C97.6122 180.279 98.1653 180.292 98.7152 180.345C98.9938 180.376 99.252 180.641 99.5238 180.651C99.7957 180.661 100.115 180.447 100.417 180.42C101.26 180.349 102.089 180.58 102.952 180.488C103.873 180.393 104.821 180.586 105.755 180.617C106.2 180.634 106.673 180.777 107.08 180.413C107.218 180.344 107.377 180.328 107.526 180.369C108.657 180.573 109.472 179.825 110.329 179.35C111.073 178.935 111.61 178.167 112.323 177.681C112.729 177.377 113.018 176.943 113.142 176.451C113.19 176.184 113.185 175.91 113.127 175.644C113.068 175.379 112.958 175.128 112.802 174.905C112.374 174.27 112.024 173.597 111.63 172.945C111.348 172.476 110.998 172.051 110.682 171.586C110.603 171.438 110.517 171.294 110.424 171.154C110.084 170.763 109.52 170.624 109.269 170.118C109.222 170.058 109.161 170.01 109.092 169.979C109.023 169.947 108.947 169.933 108.871 169.938C107.994 170.074 107.308 169.578 106.567 169.258C106.257 169.08 105.933 168.927 105.599 168.8C105.174 168.694 104.58 168.868 104.318 168.633C103.907 168.263 103.404 168.732 103.078 168.324C103.037 168.27 102.837 168.283 102.738 168.324C102.61 168.406 102.462 168.451 102.309 168.454C102.157 168.458 102.007 168.42 101.875 168.344C101.647 168.242 101.355 168.059 101.172 168.127C100.37 168.426 99.4389 168.059 98.6982 168.64C98.5404 168.745 98.3489 168.788 98.1613 168.759C97.6475 168.675 97.123 168.683 96.6119 168.783C95.8678 168.923 95.1394 169.137 94.4374 169.421C94.1612 169.518 93.9046 169.663 93.6797 169.85C93.2447 170.233 92.8268 170.764 92.0861 170.529C91.9706 170.495 91.7871 170.679 91.6342 170.76C91.4384 170.9 91.198 170.963 90.9587 170.937C90.7195 170.912 90.498 170.799 90.3363 170.621C89.9489 170.281 89.9557 169.754 90.1018 169.034C90.2104 168.53 90.4771 168.074 90.8629 167.733C91.3268 167.341 91.8172 166.982 92.3307 166.659C92.4327 166.588 92.5346 166.475 92.64 166.469C93.5451 166.391 94.4307 166.161 95.2596 165.789C96.279 165.398 96.3231 165.341 96.2076 164.291C96.142 163.653 96.1136 163.012 96.1227 162.371C96.1227 161.522 96.1532 160.672 96.1974 159.823C96.1974 159.612 96.1091 159.333 96.4862 159.242C96.6629 159.201 96.6357 158.98 96.4115 158.97C96.1872 158.96 96.1634 158.919 96.1634 158.712C96.1634 158.131 96.1227 157.55 96.1091 156.969C96.0955 156.388 96.2076 155.691 96.0445 155.113C95.9357 154.61 95.9795 154.086 96.1702 153.608C96.2138 153.452 96.2321 153.291 96.2246 153.129C96.16 152.008 95.946 150.897 96.0683 149.762C96.1159 149.126 96.1159 148.488 96.0683 147.852C96.0139 146.463 96.0683 145.07 96.0683 143.683C96.0683 142.423 96.4285 141.165 96.5134 139.898C96.5576 139.283 96.7003 138.658 96.4625 138.006C96.3049 137.402 96.2003 136.786 96.1498 136.164L96.1362 136.161ZM107.689 95.7271C108.572 95.9174 109.496 96.1077 110.407 96.3183C110.794 96.4033 111.205 96.6751 111.555 96.6038C112.198 96.4781 112.575 96.8688 113.05 97.11C113.2 97.2086 113.36 97.2917 113.526 97.3581C114.338 97.5959 114.885 98.1837 115.412 98.7817C115.993 99.4409 115.789 99.9404 114.912 100.073C114.708 100.108 114.499 100.089 114.304 100.019C113.818 99.8215 113.366 99.519 112.867 99.3661C112.187 99.1656 111.576 98.707 110.804 98.8633C110.672 98.8904 110.516 98.7749 110.37 98.7647C109.517 98.7137 108.671 98.3876 107.814 98.639C107.297 98.7852 106.765 98.8741 106.228 98.9041C105.757 98.9926 105.3 99.1434 104.869 99.3525C104.681 99.4394 104.486 99.5122 104.287 99.57C103.676 99.6821 103.357 99.9506 103.244 100.501C103.156 100.922 103.285 101.235 103.7 101.228C104.546 101.228 105.348 101.622 106.234 101.361C106.469 101.266 106.722 101.226 106.975 101.243C107.227 101.26 107.472 101.334 107.692 101.459C107.94 101.622 108.395 101.483 108.756 101.459C108.925 101.459 109.095 101.347 109.255 101.381C110.305 101.626 111.348 101.863 112.211 102.608C112.639 102.978 113.196 103.182 113.608 103.627C113.721 103.773 113.87 103.888 114.04 103.96C114.21 104.032 114.396 104.059 114.579 104.038C114.919 103.99 115.109 104.235 115.259 104.558C115.409 104.858 115.608 105.131 115.847 105.367C116.326 105.886 116.832 106.386 117.325 106.892C117.366 106.937 117.39 106.995 117.393 107.055C117.446 107.824 117.775 108.548 118.32 109.094C118.571 109.385 118.741 109.736 118.813 110.113C118.867 110.453 119.102 110.681 119.109 111.058C119.115 111.435 119.513 111.799 119.713 112.179C120.229 113.135 120.588 114.168 120.777 115.237C120.797 115.526 120.878 115.808 121.015 116.063C121.582 116.861 121.599 116.848 121.837 118.081C121.857 118.176 121.966 118.251 122.037 118.336C122.109 118.421 122.282 118.55 122.326 118.676C122.795 120.096 123.978 120.881 125.045 121.734C125.329 121.904 125.634 122.038 125.952 122.135C126.58 122.42 127.287 122.233 127.899 122.417C128.789 122.678 129.434 122.308 130.097 121.89C130.579 121.584 131.001 121.183 131.48 120.871C132.499 120.239 132.499 120.266 132.948 119.542C133.508 118.594 134.127 117.643 134.096 116.484C134.025 115.631 134.055 114.772 134.185 113.926C134.185 113.851 134.151 113.763 134.13 113.681C133.96 112.906 134.361 112.074 133.899 111.33C133.899 111.306 133.899 111.269 133.899 111.238C134.007 110.56 133.944 109.867 133.716 109.22C133.687 109.107 133.694 108.988 133.736 108.88C133.921 108.268 133.878 107.61 133.614 107.028C133.51 106.827 133.45 106.607 133.439 106.381C133.428 106.155 133.466 105.93 133.549 105.72C133.638 105.498 133.67 105.256 133.64 105.018C133.61 104.781 133.52 104.554 133.379 104.361C133.057 103.907 132.884 103.365 132.883 102.808C132.842 101.897 132.992 100.963 132.543 100.09C132.431 99.7762 132.376 99.4445 132.384 99.1113C132.395 98.7131 132.379 98.3146 132.336 97.9187C132.267 97.5543 132.146 97.2019 131.976 96.8722C131.548 96.1349 131.704 95.3228 131.551 94.5583C131.527 94.2398 131.471 93.9245 131.385 93.6171C131.147 93.0665 131.004 92.4793 130.963 91.8808C130.933 91.53 130.849 91.186 130.712 90.8615C130.481 90.2693 130.294 89.6606 130.155 89.0403C130.032 88.3846 130.111 88.3608 129.815 87.9224C129.312 87.141 128.957 86.2737 128.768 85.3639C128.547 84.6051 128.248 83.8709 127.878 83.1724C127.454 82.2686 126.981 81.3818 126.519 80.4882C126.497 80.4308 126.486 80.3695 126.489 80.3081C126.533 78.9048 125.469 78.0043 124.922 76.8729C124.905 76.8511 124.883 76.8329 124.859 76.8195C124.834 76.8061 124.807 76.7977 124.779 76.7947C124.722 76.8457 124.64 76.9273 124.647 76.985C124.778 77.7723 124.865 78.5664 124.905 79.3635C124.905 80.3251 125.333 81.3036 124.813 82.255C124.779 82.3248 124.761 82.4015 124.761 82.4792C124.761 82.5569 124.779 82.6336 124.813 82.7034C125.174 83.1384 124.909 83.5597 124.773 83.9369C124.625 84.3007 124.625 84.7079 124.773 85.0718C124.863 85.3028 124.892 85.5532 124.858 85.7988C124.783 86.2168 124.518 86.6211 124.518 87.0323C124.518 87.4434 124.695 87.7967 124.379 88.1807C124.283 88.2996 124.576 88.7413 124.48 88.8602C123.842 89.5704 124.582 90.5591 123.937 91.2387C124.158 91.9896 123.736 92.659 123.655 93.3725C123.601 93.6104 123.595 93.8566 123.637 94.0969C123.679 94.3372 123.768 94.5667 123.899 94.7723C124.487 95.5334 125.129 96.2504 125.493 97.1508C125.938 97.2969 125.891 97.776 126.111 98.0716C127.112 99.3699 127.943 100.79 128.585 102.298C128.832 102.881 129.007 103.491 129.108 104.116C129.271 105.271 129.339 106.444 129.448 107.609C129.47 107.758 129.509 107.904 129.564 108.044C129.754 108.594 129.949 109.142 130.148 109.685C130.228 109.933 130.24 110.198 130.185 110.453C130.129 110.708 130.008 110.943 129.832 111.136C129.803 111.19 129.764 111.238 129.716 111.277C129.668 111.315 129.613 111.344 129.554 111.361C129.495 111.378 129.433 111.382 129.373 111.375C129.312 111.367 129.253 111.347 129.2 111.316C128.939 111.219 128.705 111.063 128.516 110.859C128.326 110.656 128.187 110.411 128.109 110.144C127.953 109.573 127.715 109.033 127.559 108.462C127.324 107.616 127.11 106.712 126.54 106.039C126.06 105.455 126.2 104.568 125.52 104.14C125.486 104.12 125.551 103.967 125.52 103.889C125.442 103.598 125.341 103.314 125.218 103.039C125.072 102.737 124.817 102.482 124.705 102.173C124.408 101.434 124.038 100.728 123.6 100.063C122.992 99.0433 122.194 98.1464 121.562 97.1372C121.137 96.4577 120.542 95.9208 120.087 95.2651C119.278 94.0657 118.521 92.8356 117.501 91.7993C116.988 91.2794 116.452 90.78 115.915 90.2839C115.575 89.9441 115.198 89.6519 114.851 89.3224C114.583 89.0675 114.117 88.7855 114.124 88.5273C114.124 87.773 113.509 88.4695 113.397 88.1263C113.365 88.0391 113.306 87.9649 113.227 87.9156C113.079 87.8529 112.948 87.7547 112.847 87.6297C112.746 87.5047 112.677 87.3567 112.646 87.1988C112.602 86.9881 112.102 86.8929 111.841 86.7026C110.866 85.9789 109.894 85.2518 108.942 84.5043C108.491 84.1645 108.083 83.733 107.658 83.3491C107.24 83.6447 107.006 83.2403 106.717 83.0908C106.377 82.9107 106.037 82.6729 105.698 82.486C105.029 82.0647 104.279 81.7912 103.496 81.6841C103.25 81.6702 103.011 81.6005 102.796 81.4803C102.008 81.008 101.291 81.2968 100.594 81.6672C99.8976 82.0375 99.7685 83.1486 100.322 83.6345C100.876 84.1204 101.342 84.698 102.106 84.9426C102.629 85.1057 103.037 85.6222 103.537 85.8872C104.413 86.3833 105.293 86.8726 106.166 87.3686C107.266 87.9545 108.321 88.62 109.323 89.3597C109.748 89.6995 110.189 90.0087 110.641 90.3043C110.85 90.4702 111.098 90.5781 111.362 90.6169C111.591 90.6175 111.816 90.6687 112.023 90.7668C112.23 90.8648 112.412 91.0075 112.558 91.1843C112.847 91.5037 113.472 91.3542 113.635 91.9114C113.665 92.01 113.832 92.0609 113.893 92.1595C114.121 92.5298 113.981 93.2094 113.608 93.3725C113.225 93.5606 112.814 93.6857 112.391 93.7429C111.219 93.8346 110.074 93.59 108.925 93.4031C107.906 93.2366 106.887 93.0123 105.867 93.3827C105.528 93.505 105.096 93.3623 104.729 93.4472C104.022 93.6171 103.333 93.8686 102.633 94.0724C101.702 94.3443 101.454 94.5209 100.897 95.333C100.638 95.7068 100.71 96.1247 101.015 96.597C101.321 97.0693 101.654 96.9367 101.977 96.76C102.265 96.6156 102.582 96.5367 102.905 96.529C103.265 96.5018 103.618 96.3761 103.924 96.6479C104.372 96.1654 105.021 96.2606 105.572 96.1009C106.27 95.9374 106.977 95.8126 107.689 95.7271ZM87.4277 7.90835L87.4652 8.05103L87.8389 7.9967C87.7846 7.87358 87.7124 7.7591 87.6248 7.65692C86.8807 7.00795 86.1162 6.38278 85.3789 5.72361C84.8367 5.16432 84.2122 4.69106 83.5271 4.32029C83.248 4.15463 83.0007 3.94068 82.7966 3.68835C82.3141 3.17868 81.8656 2.63842 81.3661 2.14575C81.3287 2.09777 81.2803 2.05952 81.2249 2.03434C81.1695 2.00916 81.1088 1.99774 81.048 2.00108C80.9873 2.00441 80.9283 2.0224 80.876 2.0535C80.8237 2.0846 80.7797 2.12789 80.7478 2.17968C80.0954 2.98834 79.1508 3.52184 78.5902 4.43244C78.4747 4.62272 78.2062 4.72125 78.0023 4.86056C77.8188 4.96091 77.6428 5.07446 77.4757 5.20034C76.9457 5.70661 76.4564 6.23667 75.9059 6.73954C75.6139 6.95044 75.3337 7.17731 75.0667 7.41909C74.3871 8.23456 73.7449 9.11793 73.0484 9.91641C72.7936 10.212 72.7902 10.776 72.2058 10.7624C72.1548 10.7624 72.114 10.9698 72.0461 11.0649C71.8524 11.3265 71.6587 11.5882 71.4549 11.843C71.2588 12.0366 71.0813 12.2481 70.9248 12.4749C70.0855 14.0515 68.8861 15.4277 68.3935 17.2081C68.2508 17.7144 68.2372 18.2647 67.9891 18.7506C67.9517 18.8186 68.1488 19.0904 68.1658 19.0904C68.6601 18.8894 69.1924 18.7989 69.7254 18.8253C69.7526 18.8253 69.7865 18.7302 69.8205 18.6793C70.1603 18.1492 70.5001 17.6022 70.8976 17.0959C71.3937 16.4538 71.7165 15.5975 72.481 15.2577C73.7279 14.7039 74.5638 13.6098 75.7258 12.9541C76.5277 12.4988 77.1801 11.8158 78.0805 11.4862C78.8926 11.1872 79.6537 10.7455 80.459 10.4057C81.5496 9.93686 82.5214 9.21306 83.7276 8.97862C84.6144 8.80873 85.4775 8.49957 86.3473 8.24813C86.704 8.15979 87.0642 8.03747 87.4277 7.90835ZM71.0471 83.8179H71.1491C71.1491 83.7873 71.149 83.7432 71.1184 83.733C70.8856 83.5337 70.6185 83.3783 70.3302 83.2743C70.0516 83.2301 70.0584 83.5053 70.1195 83.7432C70.1195 83.8009 69.9836 83.9062 69.9021 83.9844C69.4557 84.3596 69.0378 84.7673 68.6517 85.2042C68.3663 85.578 67.9959 85.8838 67.928 86.4648C67.8668 86.9779 67.5168 87.457 67.3028 87.9565C67.1838 88.2317 67.0853 88.5171 66.963 88.7923C66.7897 89.1627 67.0887 89.1321 67.2722 89.1321C67.4557 89.1321 67.5848 88.9723 67.7513 88.9044C68.0741 88.7752 68.4139 88.5408 68.7299 88.5646C69.2769 88.6054 69.4332 88.2248 69.654 87.9122C69.8103 87.688 69.8579 87.3822 70.0346 87.1886C70.653 86.509 70.619 85.5882 71.0267 84.8338C71.1661 84.579 71.0471 84.1747 71.0471 83.8315V83.8179Z"
            fill="black" />
        <path
            d="M57.3922 51.1755C57.5349 50.4144 57.647 49.6465 57.8373 48.8955C57.9155 48.5863 57.9223 48.5014 57.5825 48.4131C56.9127 48.2451 56.2572 48.0248 55.622 47.7539C55.1021 47.5263 55.0953 47.0064 55.4215 46.4968C55.7919 45.9192 56.3661 45.892 56.9267 45.8172C57.4874 45.7425 58.0922 45.6949 58.6698 45.5997C59.2474 45.5046 59.774 45.3007 60.3347 45.2599C61.0596 45.2318 61.769 45.0414 62.4107 44.7027C62.5602 44.6178 62.7743 44.5702 62.8083 44.8794C62.8083 44.9304 62.9204 44.9677 62.9815 45.0153C62.9617 44.9377 62.9548 44.8574 62.9612 44.7775C62.9952 44.6484 63.0393 44.4377 63.1175 44.4173C63.7236 44.2203 64.3767 44.2203 64.9829 44.4173C65.0791 44.4464 65.1679 44.4955 65.2437 44.5614C65.3196 44.6272 65.3806 44.7084 65.423 44.7995C65.4653 44.8906 65.4879 44.9895 65.4894 45.09C65.4908 45.1904 65.471 45.29 65.4313 45.3823C65.1731 46.2114 64.7789 46.9724 63.9023 47.2918C63.5625 47.4243 63.3519 47.584 63.3315 47.9714C63.3315 48.1786 63.1208 48.2874 63.2601 48.617C63.4266 49.0043 63.1888 49.5616 63.1344 50.0474C63.0801 50.5333 63.0325 50.9478 62.9985 51.4065C62.9979 51.9224 62.9535 52.4373 62.866 52.9457C62.7702 53.4244 62.8309 53.9212 63.0393 54.3626C63.2455 54.8797 63.3726 55.4249 63.4165 55.9799C63.532 56.6935 63.7223 57.3696 63.4165 58.0831C63.3725 58.1791 63.3497 58.2834 63.3497 58.389C63.3497 58.4945 63.3725 58.5988 63.4165 58.6947C63.8888 59.2826 63.6373 59.8908 63.5524 60.5024C63.5286 60.6791 63.5354 60.8592 63.5252 61.0393C63.5345 61.3393 63.5163 61.6395 63.4708 61.9362C63.3213 62.5716 63.1072 63.1798 63.0087 63.8457C62.8218 65.1369 61.6496 65.5718 60.5284 64.8991C60.3789 64.8107 60.1886 64.7971 60.0357 64.7088C59.7416 64.5593 59.4676 64.3732 59.2202 64.155C58.9176 63.8543 58.6528 63.5177 58.4319 63.1527C58.2718 62.8251 58.1411 62.484 58.0412 62.1333C58.1193 62.1061 58.2484 62.0381 58.2654 62.0619C58.3979 62.2148 58.4557 62.1978 58.4353 62.0008C58.4353 61.9226 58.3538 61.8513 58.313 61.7766C58.082 61.9227 58.2077 61.2737 57.9019 61.5965L57.6606 61.1853C57.5553 60.9985 57.4364 60.8183 57.3412 60.6281C57.2733 60.4921 57.1578 60.3121 57.1985 60.2033C57.4296 59.6155 57.0151 59.184 56.9267 58.6675C56.8221 57.9481 56.814 57.2179 56.9029 56.4964C56.9857 55.8441 57.0141 55.1861 56.9879 54.5291C56.9921 53.9828 57.0536 53.4384 57.1714 52.9049C57.2529 52.3341 57.3548 51.7667 57.45 51.206L57.3922 51.1755Z"
            fill="black" />
        <path
            d="M74.6228 49.3952C74.5481 48.7156 74.4359 47.8865 74.3748 47.0439C74.3136 46.2012 74.2864 45.2499 74.2626 44.3528C74.2844 44.2087 74.3221 44.0674 74.3748 43.9315C74.5219 43.4128 74.5646 42.87 74.5005 42.3346C74.4801 42.1653 74.4801 41.9942 74.5005 41.8249C74.5277 41.4002 74.5617 40.9755 74.5888 40.5508C74.5847 40.4614 74.5722 40.3727 74.5515 40.2857C74.4801 39.7353 74.932 39.2868 74.7417 38.6548C74.5956 38.1655 74.8029 37.5335 74.9728 37.0034C75.0849 36.6636 75.4213 36.3918 75.6285 36.0724C75.7175 35.8929 75.8635 35.7478 76.0436 35.6599C76.2237 35.572 76.4278 35.5462 76.6241 35.5866C76.8362 35.575 77.0429 35.5158 77.2289 35.4133C77.3979 35.3475 77.5802 35.3231 77.7605 35.3423C77.9409 35.3614 78.114 35.4235 78.2654 35.5234C78.4168 35.6232 78.5421 35.7579 78.6307 35.9161C78.7194 36.0743 78.7688 36.2514 78.7749 36.4326C78.7529 36.7336 78.8116 37.0351 78.9448 37.3059C79.2845 37.6966 78.836 38.0806 79.0773 38.5155C79.3185 38.9504 79.1283 39.5008 79.186 40.0003C79.2438 40.4998 79.3797 40.9381 79.4544 41.4104C79.5583 41.9022 79.614 42.4028 79.6209 42.9054C79.5598 44.1864 79.8893 45.4198 79.9607 46.6804C80.0762 48.5661 80.3786 50.4179 80.1952 52.3376C80.1102 53.238 80.2767 54.1622 80.3107 55.0796C80.3311 55.6165 80.3277 56.1567 80.3107 56.6936C80.3107 56.8261 80.1646 56.9518 80.1238 57.0911C80.0456 57.3731 79.9845 57.6653 79.9267 57.9541C79.767 58.7662 79.6379 59.5715 78.8463 60.0845C78.5541 60.2748 78.323 60.3122 78.1123 60.0845C77.64 59.6021 76.9061 59.2792 76.9775 58.4196C76.9775 58.3652 76.9299 58.3075 76.9027 58.2531C76.5833 57.6347 76.1314 57.0469 75.9751 56.3877C75.8188 55.7286 75.8766 55.0083 75.4485 54.4069C75.3924 54.3334 75.3603 54.2444 75.3567 54.152C75.4179 52.8235 74.8097 51.6274 74.633 50.3499C74.6129 50.032 74.6094 49.7134 74.6228 49.3952Z"
            fill="black" />
        <path
            d="M82.2614 65.092C82.7676 64.9765 83.2807 64.8746 83.7767 64.7523C84.5722 64.5476 85.4105 64.5831 86.1858 64.8542C86.4641 64.9418 86.7203 65.0882 86.9372 65.2834C87.1541 65.4786 87.3266 65.718 87.443 65.9856C87.503 66.084 87.5399 66.1948 87.5508 66.3095C87.5618 66.4242 87.5466 66.5399 87.5064 66.6478C87.4661 66.7558 87.4019 66.8532 87.3185 66.9327C87.2351 67.0122 87.1348 67.0718 87.025 67.1069C86.5836 67.2436 86.1273 67.3269 85.6659 67.3549C84.4189 67.4568 83.1821 67.5826 82.0371 68.1636C81.7251 68.2663 81.4044 68.3401 81.0789 68.3844C80.7901 68.4626 80.2974 68.534 80.2703 68.6767C80.1921 69.1354 79.7776 69.0538 79.5567 69.2577C79.0403 69.7368 78.3641 70.0052 77.8579 70.4979C77.3516 70.9905 76.7604 71.4968 76.2201 72.0064C75.809 72.3904 75.1498 72.5331 74.7761 72.2987C74.2392 71.9589 74.1373 71.3575 74.4057 70.6813C74.9018 69.4344 75.8871 68.6087 76.8589 67.7796C77.8231 66.8883 78.9535 66.1956 80.1853 65.741C80.5251 65.6255 80.8445 65.4013 81.2047 65.2857C81.5648 65.1702 81.8842 65.0818 82.224 64.9833L82.2614 65.092Z"
            fill="black" />
        <path
            d="M76.5576 25.5047C76.7167 25.4613 76.8732 25.4091 77.0265 25.3484C77.2581 25.25 77.5071 25.1992 77.7588 25.1992C78.0104 25.1992 78.2594 25.25 78.491 25.3484C78.9667 25.5013 78.7118 25.9022 78.8715 25.9905C79.0312 26.0789 79.5511 25.8784 79.6326 25.9905C80.037 26.6293 80.9374 26.6395 81.2669 27.4346C81.4844 27.951 81.2364 28.3112 81.1446 28.668C81.0529 29.0248 80.5704 29.0927 80.1253 28.9194C79.4457 28.6578 78.7424 28.4981 78.0527 28.2772C77.9439 28.2432 77.859 28.1243 77.7707 28.036C77.6823 27.9476 77.6653 27.9171 77.4853 28.1175C77.3901 28.2195 77.2508 28.3621 77.1455 28.3519C76.7649 28.2972 76.3765 28.3453 76.0208 28.4913C75.5587 28.6782 74.7195 28.4437 74.237 28.1515C74.1794 28.0994 74.1352 28.0343 74.108 27.9616C74.0808 27.8889 74.0715 27.8107 74.0807 27.7336C74.2336 26.823 74.8792 26.2827 75.5961 25.8138C75.8871 25.6468 76.1878 25.4971 76.4965 25.3654L76.5576 25.5047Z"
            fill="black" />
        <path
            d="M80.546 71.4898C80.5377 71.2994 80.578 71.11 80.6629 70.9394C80.7479 70.7689 80.8749 70.6227 81.0318 70.5146C82.0512 69.92 83.0705 69.3594 84.2903 69.3424C84.488 69.3277 84.6852 69.3764 84.8533 69.4815C85.0213 69.5867 85.1514 69.7426 85.2247 69.9268C85.2984 70.043 85.3335 70.1795 85.3249 70.3168C85.3164 70.4541 85.2646 70.5852 85.1771 70.6913C84.8373 71.0821 84.5757 71.483 83.9709 71.5815C83.2896 71.7498 82.6209 71.9656 81.9696 72.2271C81.7669 72.2997 81.553 72.3365 81.3376 72.3359C81.0992 72.3402 80.8642 72.2791 80.6581 72.1592C80.546 72.081 80.5868 71.8024 80.546 71.4898Z"
            fill="black" />
    </g>
    <defs>
        <clipPath id="clip0_94_2538">
            <rect width="138" height="184" fill="white" />
        </clipPath>
    </defs>
</svg>