<svg width="1440" height="6" viewBox="0 0 1440 6" fill="none" xmlns="http://www.w3.org/2000/svg">
<g clip-path="url(#clip0_9_240)">
<path fill-rule="evenodd" clip-rule="evenodd" d="M1440 4.55621L1436.17 3.37274L1428.75 3.23909L1421.42 3.1176L1414.13 3.14192L1406.82 3.3363L1399.51 3.34842L1392.22 3.26341L1384.93 2.77744L1377.59 2.83821L1370.28 2.92326L1362.97 3.10548L1355.66 3.44563L1348.37 3.15408L1341.06 3.39703L1333.79 2.51018L1326.43 3.26341L1319.14 2.52234L1311.85 2.43729L1304.54 2.46162L1297.23 2.41301L1289.96 2.0607L1282.63 2.43729L1275.3 2.32796L1267.99 2.21864L1260.7 2.57095L1253.43 3.43346L1246.12 3.56712L1238.78 2.87466L1231.51 3.65213L1224.18 3.51852L1216.87 2.83821L1209.56 3.27554L1202.27 3.00827L1194.98 3.90727L1187.66 3.1176L1180.38 3.31197L1173.06 3.83438L1165.75 3.94372L1158.44 3.83438L1151.13 3.98016L1143.84 3.74934L1136.55 3.81007L1129.26 3.34842L1121.9 4.00444L1114.61 3.5428L1107.28 3.79794L1099.97 3.78578L1092.74 2.54666L1085.41 2.88681L1078.12 2.98399L1070.79 2.65599L1063.48 2.68027L1056.16 2.72888L1048.9 3.73717L1041.58 3.5914L1034.27 3.10548L1026.98 3.96799L1019.69 3.04471L1012.36 3.14192L1005.05 3.61568L997.758 3.32413L990.446 3.60356L983.156 3.12976L975.866 3.3363L968.554 2.8625L961.243 2.29152L953.931 2.63168L946.641 3.05687L939.33 3.20264L932.039 2.34013L924.728 2.49805L917.459 3.53068L910.148 3.7615L902.836 3.66429L895.46 3.20264L888.213 3.88295L880.945 4.36891L873.611 4.32031L866.3 3.70073L858.988 4.47825L851.677 3.5914L844.386 3.95584L837.075 4.06521L829.785 4.10165L822.473 3.83438L815.162 3.95584L807.872 4.85484L800.56 4.92773L793.227 3.83438L785.958 4.36891L778.668 4.66046L771.357 5.06134L764.023 4.91557L756.733 4.45393L749.465 3.67645L742.132 4.07733L734.799 4.3932L727.509 4.30815L720.262 3.17836L712.95 2.97182L705.595 3.5914L698.327 2.89893L691.015 2.93538L683.682 3.25125L676.371 3.39703L669.102 2.60739L661.79 3.21481L654.479 2.49805L647.167 2.64383L639.877 3.10548L632.566 2.741L625.276 3.27554L617.985 2.76532L610.652 2.72888L603.362 3.31197L596.051 3.2877L588.739 2.91109L581.427 2.93538L574.159 3.68858L566.847 3.31197L559.557 3.12976L552.246 2.91109L544.913 3.34842L537.601 3.38486L530.289 3.3363L523.021 2.98399L515.731 2.49805L508.419 1.99997L501.108 2.83821L493.796 2.61955L486.506 2.30368L479.194 2.25507L471.904 2.81389L464.593 2.14574L457.303 3.08115L449.991 3.08115L442.701 3.3363L435.41 3.60356L428.08 3.40919L420.77 2.87466L413.5 3.61568L406.16 3.25125L398.87 3.66429L391.58 4.29599L384.25 3.27554L376.96 3.7615L369.67 3.73717L362.38 3.7615L355.05 3.90727L347.74 3.79794L340.45 3.49423L333.13 4.05305L325.84 3.25125L318.55 3.12976L311.24 4.07733L303.93 3.25125L296.62 3.81007L289.31 4.05305L282.02 3.72501L274.71 3.73717L267.44 4.40536L260.13 3.38486L252.81 3.38486L245.5 3.67645L238.19 4.33244L230.9 3.67645L223.59 3.51852L216.3 3.46991L208.99 4.50253L201.68 3.82223L194.41 3.21481L187.08 3.27554L179.79 3.08115L172.47 3.04471L165.14 3.23909L157.89 2.60739L150.58 2.97182L143.29 3.32413L135.94 2.93538L128.6 2.741L121.38 3.67645L114.05 3.32413L106.78 3.83438L99.4399 3.71289L92.15 4.49037L84.86 4.74551L77.53 3.96799L70.28 5.03706L62.97 4.9034L55.64 5.18283L48.39 3.85867L41.08 3.71289L33.73 3.93156L26.37 4.16238L19.15 3.25125L11.77 3.79794L4.41003 2.66811L0 3.98903V0L1440 0V4.55621Z" fill="#F5F3EA"/>
</g>
<defs>
<clipPath id="clip0_9_240">
<rect width="1440" height="6" fill="white" transform="matrix(-1 0 0 -1 1440 6)"/>
</clipPath>
</defs>
</svg>
